<svg width="95" height="95" viewBox="0 0 95 95" fill="none" xmlns="http://www.w3.org/2000/svg">
<g clip-path="url(#clip0_45_4077)">
<path d="M95 90.25C95 91.5098 94.4996 92.718 93.6088 93.6088C92.718 94.4996 91.5098 95 90.25 95H4.75C3.49022 95 2.28204 94.4996 1.39124 93.6088C0.500445 92.718 0 91.5098 0 90.25L0 4.75C0 3.49022 0.500445 2.28204 1.39124 1.39124C2.28204 0.500445 3.49022 0 4.75 0L90.25 0C91.5098 0 92.718 0.500445 93.6088 1.39124C94.4996 2.28204 95 3.49022 95 4.75V90.25Z" fill="#EBEDED"/>
<path d="M90.25 92.1504H4.75C3.49022 92.1504 2.28204 91.6499 1.39124 90.7592C0.500445 89.8684 0 88.6602 0 87.4004L0 90.2504C0 91.5102 0.500445 92.7184 1.39124 93.6092C2.28204 94.4999 3.49022 95.0004 4.75 95.0004H90.25C91.5098 95.0004 92.718 94.4999 93.6088 93.6092C94.4996 92.7184 95 91.5102 95 90.2504V87.4004C95 88.6602 94.4996 89.8684 93.6088 90.7592C92.718 91.6499 91.5098 92.1504 90.25 92.1504Z" fill="#D4D7DA"/>
<path d="M0 29.45V4.75C0 3.49022 0.500445 2.28204 1.39124 1.39124C2.28204 0.500445 3.49022 0 4.75 0L90.25 0C91.5098 0 92.718 0.500445 93.6088 1.39124C94.4996 2.28204 95 3.49022 95 4.75V29.45H0Z" fill="#E64C3C"/>
<path d="M0 26.5996H95V29.2121H0V26.5996Z" fill="#C03A2B"/>
<path d="M25.4316 52.2934C25.8971 50.7933 26.5963 49.4823 27.5292 48.3604C28.4612 47.2384 29.6335 46.3644 31.0471 45.7374C32.4597 45.1123 34.0842 44.7988 35.9196 44.7988C37.318 44.7988 38.6509 45.0164 39.9182 45.4534C41.1855 45.8904 42.2998 46.5174 43.2612 47.3334C44.2226 48.1485 44.9874 49.1546 45.5555 50.3487C46.1236 51.5438 46.4076 52.8833 46.4076 54.3691C46.4076 55.9129 46.1597 57.2391 45.6647 58.3458C45.1819 59.4339 44.5169 60.4315 43.6982 61.2956C42.8604 62.1729 41.93 62.9568 40.9233 63.6335C39.8872 64.3337 38.8457 65.0256 37.7987 65.7093C36.7454 66.3971 35.7246 67.1335 34.7397 67.9161C33.7434 68.7086 32.8611 69.6347 32.1177 70.6683H46.5824V76.0006H24.1206C24.1206 74.2241 24.3752 72.6794 24.8854 71.3684C25.3766 70.0884 26.0782 68.8995 26.9611 67.8506C27.8739 66.7805 28.9078 65.82 30.042 64.9882C31.2724 64.0785 32.518 63.1895 33.7783 62.3216C34.4481 61.8561 35.1625 61.383 35.9196 60.9023C36.659 60.4351 37.3539 59.9008 37.9954 59.3063C38.6143 58.7327 39.1445 58.0703 39.5686 57.3407C39.9904 56.6121 40.2022 55.7818 40.2022 54.8498C40.2022 53.364 39.7719 52.206 38.9131 51.3757C38.0533 50.5454 36.9532 50.1293 35.6137 50.1293C34.7103 50.1293 33.9455 50.3421 33.3195 50.7629C32.6909 51.1875 32.1738 51.757 31.8118 52.4235C31.4238 53.1338 31.1509 53.9011 31.0034 54.6969C30.8446 55.5103 30.7641 56.3371 30.763 57.1659H24.8198C24.7609 55.4179 24.9652 53.7944 25.4316 52.2934ZM48.1993 68.9212V63.2412L61.4851 45.4106H67.035V63.8083H71.0981V68.9212H67.035V76.0006H61.1355V68.9212H48.1993ZM61.0034 53.1892L53.0947 63.8083H61.1355V53.1892H61.0034Z" fill="#35495E"/>
<path d="M26.0781 23.9844C25.4401 23.9844 24.9062 23.903 24.4766 23.7402V21.7773C25.0234 21.9141 25.4987 21.9824 25.9023 21.9824C27.1784 21.9824 27.8164 21.1751 27.8164 19.5605V5.72266H30.1602V19.4824C30.1602 20.9408 29.8118 22.054 29.1152 22.8223C28.4251 23.597 27.4128 23.9844 26.0781 23.9844ZM41.2344 20L40.9121 18.584H40.7949C40.4759 19.0853 40.0202 19.4792 39.4277 19.7656C38.8418 20.0521 38.1712 20.1953 37.416 20.1953C36.1074 20.1953 35.1309 19.8698 34.4863 19.2188C33.8418 18.5677 33.5195 17.5814 33.5195 16.2598V9.19922H35.834V15.8594C35.834 16.6862 36.0033 17.3079 36.3418 17.7246C36.6803 18.1348 37.2109 18.3398 37.9336 18.3398C38.8971 18.3398 39.6035 18.0534 40.0527 17.4805C40.5085 16.901 40.7363 15.9342 40.7363 14.5801V9.19922H43.041V20H41.2344ZM48.6074 20H46.3125V4.80469H48.6074V20ZM54.1934 20H51.8984V9.19922H54.1934V20ZM51.7617 6.33789C51.7617 5.92773 51.8724 5.61198 52.0938 5.39062C52.3216 5.16927 52.6439 5.05859 53.0605 5.05859C53.4642 5.05859 53.7767 5.16927 53.998 5.39062C54.2259 5.61198 54.3398 5.92773 54.3398 6.33789C54.3398 6.72852 54.2259 7.03776 53.998 7.26562C53.7767 7.48698 53.4642 7.59766 53.0605 7.59766C52.6439 7.59766 52.3216 7.48698 52.0938 7.26562C51.8724 7.03776 51.7617 6.72852 51.7617 6.33789ZM67.0645 14.5801C67.0645 16.3444 66.612 17.7214 65.707 18.7109C64.8021 19.7005 63.5423 20.1953 61.9277 20.1953C60.9186 20.1953 60.0267 19.9674 59.252 19.5117C58.4772 19.056 57.8815 18.4017 57.4648 17.5488C57.0482 16.696 56.8398 15.7064 56.8398 14.5801C56.8398 12.8288 57.2891 11.4616 58.1875 10.4785C59.0859 9.49544 60.3522 9.00391 61.9863 9.00391C63.5488 9.00391 64.7858 9.50846 65.6973 10.5176C66.6087 11.5202 67.0645 12.8743 67.0645 14.5801ZM59.2031 14.5801C59.2031 17.0736 60.1243 18.3203 61.9668 18.3203C63.7897 18.3203 64.7012 17.0736 64.7012 14.5801C64.7012 12.1126 63.7832 10.8789 61.9473 10.8789C60.9837 10.8789 60.2839 11.1979 59.8477 11.8359C59.418 12.474 59.2031 13.3887 59.2031 14.5801Z" fill="#F7F8FA"/>
</g>
<defs>
<clipPath id="clip0_45_4077">
<rect width="95" height="95" fill="white"/>
</clipPath>
</defs>
</svg>
