<svg width="2541" height="1334" viewBox="0 0 2541 1334" fill="none" xmlns="http://www.w3.org/2000/svg">
<g clip-path="url(#clip0_111_1101)">
<rect width="2541" height="1334" fill="#2A1C7C"/>
<path d="M851.224 474.09C869.256 463.299 892.195 455.369 1214.97 469.753C1254.23 471.768 1522.33 484.091 1843.08 543.745C1905.57 555.048 1993.19 573.339 2004.09 607.397C2013.59 637.655 1957.99 667.448 1943.67 674.861C1702.54 813.361 1787.05 1637 1478.6 1801.87C1408.68 1839.08 1326.95 1853.2 1326.95 1853.2C1210.47 1873.05 1103.22 1843.32 1014.89 1833.57C646.155 1794.51 450.65 1816.43 429.345 1763.09C416.642 1730.11 500.589 1689.15 572.014 1654.52C718.47 1583.12 796.18 1596.9 864.3 1560.78C943.039 1520.61 984.847 1429.51 878.626 951.613C808.074 643.682 755.651 531.282 851.224 474.09Z" fill="#CF4D4D"/>
<path d="M751.281 459.693C769.314 448.902 792.252 440.972 1115.13 454.136C1154.39 456.151 1422.49 468.474 1743.24 528.128C1805.73 539.431 1893.35 557.722 1904.15 592.999C1913.55 624.477 1857.95 654.27 1843.62 661.683C1602.39 801.403 1686.2 1633.58 1377.55 1800.89C1307.53 1839.32 1225.9 1852.22 1225.9 1852.22C1109.41 1872.07 1002.17 1842.34 913.739 1833.81C545.004 1794.75 349.498 1816.67 328.294 1762.11C315.591 1729.13 399.639 1686.95 471.063 1652.33C617.62 1579.7 695.331 1593.48 763.451 1557.36C842.29 1515.98 884.099 1424.87 778.281 942.095C708.031 630.504 655.81 515.665 751.281 459.693Z" fill="#EF6A77"/>
<path d="M977.399 658.122C968.685 738.729 970.137 803.361 973.042 846.206C975.947 892.683 981.756 921.731 993.375 1035.74C1004.99 1149.76 1006.45 1180.98 983.935 1204.95C952.708 1238.35 899.696 1234.72 888.803 1233.99C879.363 1233.27 821.993 1229.64 798.029 1189.7C782.053 1162.1 790.041 1131.6 796.576 1104.73C814.731 1030.66 826.35 955.136 843.779 881.064C872.827 756.158 871.374 712.586 914.946 681.36C936.732 665.384 959.97 660.3 977.399 658.122Z" fill="#CEDFFF"/>
<path d="M938.186 668.288L1128.45 610.192H1237.38L1475.57 678.455C1475.57 801.182 1475.57 952.23 1475.57 1074.96C1475.57 1191.87 1475.57 1279.74 1475.57 1395.94C1296.2 1395.94 1116.83 1395.94 938.186 1395.94C938.186 1272.48 938.186 1181.71 938.186 1058.98C938.186 939.885 938.186 788.11 938.186 668.288Z" fill="#DFEAFF"/>
<path d="M1100.12 554.275C1091.41 583.323 1083.42 612.371 1074.7 641.419C1111.74 671.919 1149.5 703.145 1186.54 733.646C1222.85 698.062 1259.16 662.478 1294.74 626.169C1281.67 599.3 1269.32 571.704 1256.25 544.835C1203.97 547.74 1152.41 551.371 1100.12 554.275Z" fill="#FCBA9F"/>
<path d="M1071.79 637.063C1073.97 637.063 1186.53 732.921 1186.53 732.921L1103.75 817.886L1071.79 637.063Z" fill="#CEDFFF"/>
<path d="M1186.54 732.195L1299.1 619.635L1284.58 822.243L1186.54 732.195Z" fill="#CEDFFF"/>
<path d="M1094.32 964.578C1089.23 971.84 1091.41 981.281 1097.22 997.983C1100.13 1005.97 1103.03 1014.69 1107.39 1024.85C1059.46 1011.78 1010.81 1015.41 998.46 1037.92C993.377 1046.64 995.555 1059.71 997.008 1069.88C997.734 1074.23 1002.82 1107.64 1028.96 1127.97C1048.57 1143.95 1076.89 1143.95 1131.35 1144.67C1158.22 1144.67 1180.73 1143.95 1195.26 1142.5C1200.34 1125.79 1204.7 1108.36 1209.78 1091.66C1204.7 1085.13 1197.44 1076.41 1188 1067.7C1175.65 1054.63 1166.21 1043.01 1158.95 1032.84C1134.26 1000.16 1127.72 980.554 1126.27 974.745C1123.37 966.757 1122.64 959.495 1121.19 954.411C1116.83 955.138 1100.85 954.411 1094.32 964.578Z" fill="#FFCCB3"/>
<path d="M1015.16 1106.19C1021.7 1104.01 1027.51 1103.28 1033.32 1102.55C1039.12 1101.83 1045.66 1102.55 1051.47 1102.55C1057.28 1103.28 1063.82 1104.01 1069.62 1105.46C1075.43 1106.91 1081.24 1108.36 1087.05 1111.27C1087.05 1111.27 1087.05 1111.27 1087.05 1112L1050.74 1109.82L1015.16 1106.19C1015.16 1106.91 1015.16 1106.91 1015.16 1106.19C1015.16 1106.19 1015.16 1106.91 1015.16 1106.19Z" fill="#FCBA9F"/>
<path d="M1005.73 1076.41C1012.99 1074.23 1020.25 1073.51 1027.51 1073.51C1034.78 1072.78 1042.04 1073.51 1048.57 1073.51C1055.84 1074.23 1062.37 1074.96 1069.63 1076.41C1076.9 1077.86 1083.43 1080.04 1090.69 1082.95C1090.69 1082.95 1090.69 1082.95 1090.69 1083.67L1048.57 1080.77L1005.73 1076.41C1005.73 1077.14 1005.73 1077.14 1005.73 1076.41C1005.73 1076.41 1005.73 1077.14 1005.73 1076.41Z" fill="#FCBA9F"/>
<path d="M997.004 1048.09C1006.44 1045.91 1015.16 1045.91 1024.6 1045.19C1034.04 1045.19 1042.75 1045.19 1051.47 1045.91C1060.18 1046.64 1069.62 1047.36 1078.34 1049.54C1087.05 1051 1096.49 1053.17 1105.21 1056.08C1105.21 1056.08 1105.21 1056.08 1105.21 1056.8L1051.47 1053.17L997.004 1048.09C997.004 1048.09 997.004 1048.82 997.004 1048.09Z" fill="#FCBA9F"/>
<path d="M1415.28 658.122C1424 738.729 1422.55 803.361 1419.64 846.206C1416.74 892.683 1410.93 921.731 1399.31 1035.74C1387.69 1149.76 1386.24 1180.98 1408.75 1204.95C1439.97 1238.35 1492.99 1234.72 1503.88 1233.99C1513.32 1233.27 1570.69 1229.64 1594.65 1189.7C1610.63 1162.1 1602.64 1131.6 1596.11 1104.73C1577.95 1030.66 1566.33 955.136 1548.9 881.064C1519.86 756.158 1521.31 712.586 1477.74 681.36C1455.95 665.384 1431.99 660.3 1415.28 658.122Z" fill="#CEDFFF"/>
<path d="M689.1 703.874C680.386 705.327 675.303 713.315 667.314 729.291C663.683 736.553 659.326 745.267 654.969 754.708C631.005 711.136 594.695 678.458 570.004 684.993C560.564 687.172 552.576 698.065 546.04 706.053C543.135 709.684 522.802 736.553 526.433 769.958C528.611 795.375 547.492 815.708 585.254 855.649C603.409 875.256 620.112 890.506 630.279 899.947C645.529 891.959 661.505 883.245 676.755 875.256C678.207 867.268 678.934 856.375 678.934 843.304C679.66 825.149 681.838 809.899 684.017 798.28C690.553 757.613 700.719 739.458 703.624 734.375C707.981 727.113 712.339 720.577 715.243 716.946C711.612 713.315 700.719 701.696 689.1 703.874Z" fill="#FFCCB3"/>
<path d="M531.516 745.269C537.325 748.174 542.409 751.805 546.766 756.162C551.123 760.519 555.48 764.876 559.111 769.233C562.742 774.317 566.373 778.674 569.278 783.757C572.183 788.841 575.087 794.65 577.266 800.46L576.54 801.186L553.301 773.591L531.516 745.269Z" fill="#FCBA9F"/>
<path d="M550.395 721.302C556.93 724.933 562.74 730.017 567.823 734.374C572.907 739.457 577.99 744.54 582.347 749.624C586.704 755.433 591.061 760.517 594.692 767.053C598.323 772.862 601.954 779.398 604.859 786.66L604.133 787.386L576.538 754.707L550.395 721.302Z" fill="#FCBA9F"/>
<path d="M570.736 698.066C577.998 703.15 584.534 708.233 590.344 714.042C596.153 719.852 601.963 725.662 607.046 732.197C612.129 738.733 617.213 745.269 621.57 752.531C625.927 759.793 630.284 767.055 633.915 775.043L633.189 775.769L601.237 738.007L570.736 698.066Z" fill="#FCBA9F"/>
<path d="M649.883 774.316C646.252 780.852 643.347 787.388 641.169 793.924C638.99 800.459 637.538 806.995 637.538 813.531C636.812 826.602 639.716 839.674 643.347 854.198L642.621 854.924C634.633 842.579 629.55 828.055 630.276 813.531C631.728 797.555 638.99 783.757 649.883 774.316Z" fill="#FCBA9F"/>
<path d="M1173.47 1053.9C1177.1 1064.06 1181.46 1080.04 1181.46 1099.65C1181.46 1122.89 1175.65 1141.04 1170.57 1151.21C1223.58 1180.98 1271.51 1199.14 1306.37 1210.03C1384.8 1235.45 1458.14 1257.96 1533.67 1228.91C1578.69 1211.48 1587.4 1201.32 1589.58 1196.23C1602.65 1162.1 1554 1104.73 1499.53 1081.49C1458.87 1064.06 1429.09 1072.05 1376.81 1074.23C1328.88 1077.14 1259.89 1074.96 1173.47 1053.9Z" fill="#CEDFFF"/>
<path d="M683.283 820.789C678.926 830.956 670.938 844.753 657.14 859.277C641.164 875.98 623.735 884.694 613.568 889.051C630.997 947.873 652.057 993.623 669.485 1026.3C707.974 1098.92 745.01 1166.46 819.082 1198.41C864.106 1217.29 876.451 1216.56 881.534 1214.39C914.213 1199.14 920.023 1124.34 896.784 1069.15C879.356 1028.48 853.213 1013.23 813.998 978.373C779.141 946.421 730.486 896.313 683.283 820.789Z" fill="#CEDFFF"/>
<path d="M1120.45 121.464C1092.13 127.274 1063.81 141.072 1046.38 165.036C1036.22 178.834 1030.41 195.536 1026.78 212.239C1017.33 251.453 1015.88 292.12 1014.43 332.787C1012.98 376.359 1011.53 419.931 1016.61 462.776C1018.79 481.657 1021.69 501.264 1030.41 518.693C1051.47 561.539 1102.3 583.324 1149.5 588.408C1192.35 592.765 1235.92 586.955 1275.86 570.253C1288.21 565.17 1301.28 558.634 1309.99 548.467C1318.71 538.3 1323.06 524.503 1326.69 511.431C1352.84 417.752 1360.1 318.989 1345.57 223.132C1341.94 200.62 1336.86 177.381 1323.06 158.5C1309.99 141.072 1288.93 129.453 1267.87 123.643C1224.3 112.024 1165.48 112.75 1120.45 121.464Z" fill="#FFCCB3"/>
<path d="M1368.08 287.036C1377.52 278.322 1390.6 269.608 1402.94 274.691C1407.3 276.143 1410.93 279.774 1413.11 283.405C1421.82 295.024 1424 311.001 1422.55 325.525C1419.64 385.073 1375.35 440.263 1317.98 456.966C1323.06 455.513 1333.23 365.465 1334.68 356.025C1338.31 326.251 1345.57 308.822 1368.08 287.036Z" fill="#FFCCB3"/>
<path d="M1087.78 510.707C1094.32 508.528 1100.85 507.076 1106.66 505.623C1112.47 504.171 1119.01 502.718 1124.82 500.54C1130.62 499.088 1136.43 496.909 1142.97 495.457C1148.78 493.278 1155.32 491.826 1161.85 489.647H1162.58C1162.58 489.647 1162.58 489.647 1162.58 490.373C1151.68 498.361 1140.07 504.171 1127.72 507.802C1113.92 510.707 1100.85 512.159 1087.78 510.707C1087.78 511.433 1087.78 511.433 1087.78 510.707Z" fill="#BC775C"/>
<path d="M1054.14 392.546C1057.14 382.976 1055.22 373.859 1049.86 372.183C1044.5 370.506 1037.73 376.905 1034.74 386.474C1031.74 396.043 1033.66 405.16 1039.02 406.837C1044.38 408.513 1051.15 402.115 1054.14 392.546Z" fill="#1F2D49"/>
<path d="M1159.88 409.542C1165.17 407.66 1166.74 398.476 1163.38 389.029C1160.02 379.582 1153 373.449 1147.71 375.331C1142.42 377.213 1140.86 386.397 1144.22 395.845C1147.58 405.292 1154.59 411.424 1159.88 409.542Z" fill="#1F2D49"/>
<path d="M1026.78 338.595C1024.6 332.786 1025.32 328.429 1026.78 324.798C1028.23 321.167 1031.86 318.262 1035.49 316.083C1039.12 314.631 1043.48 313.905 1047.11 314.631C1051.47 315.357 1055.1 317.536 1058.73 322.619L1059.46 323.345V324.071C1053.65 324.798 1047.84 326.25 1042.75 328.429C1037.67 330.607 1032.59 334.964 1028.96 339.321H1028.23C1026.78 340.048 1026.78 339.321 1026.78 338.595Z" fill="#1F2D49"/>
<path d="M1130.63 322.62C1134.26 316.81 1140.07 314.632 1145.15 313.179C1150.96 311.727 1156.04 312.453 1161.85 314.632C1166.94 316.81 1172.02 319.715 1174.92 324.799C1178.56 329.156 1180.73 334.965 1180.01 341.501V342.227C1180.01 342.227 1180.01 342.953 1179.28 342.953C1172.75 337.144 1165.48 331.334 1157.5 329.156C1149.51 325.525 1140.79 324.799 1131.35 325.525C1131.35 325.525 1130.63 325.525 1130.63 324.799C1130.63 323.346 1130.63 323.346 1130.63 322.62Z" fill="#1F2D49"/>
<path d="M1086.32 414.122C1086.32 419.205 1087.77 422.836 1087.77 428.646C1087.77 431.55 1087.05 434.455 1085.59 437.36C1083.41 440.265 1081.24 441.717 1079.06 443.17C1074.7 446.074 1071.8 447.527 1069.62 451.158C1067.44 454.063 1065.99 457.693 1065.99 460.598C1065.26 463.503 1066.71 467.134 1068.16 470.039C1069.62 472.944 1072.52 474.396 1076.15 475.848C1079.78 477.301 1084.14 477.301 1089.22 477.301C1094.31 478.027 1099.39 477.301 1103.75 479.479C1103.75 479.479 1103.75 479.479 1103.75 480.206C1103.75 480.206 1103.75 480.206 1103.02 480.206C1093.58 479.479 1084.14 483.11 1073.97 481.658C1068.89 480.932 1064.53 478.753 1061.63 474.396C1058.72 470.765 1057.27 465.682 1057.27 460.598C1058 455.515 1060.18 451.158 1063.08 447.527C1065.99 443.896 1070.34 440.991 1074.7 438.812C1076.88 437.36 1079.06 436.634 1080.51 434.455C1081.96 433.003 1082.69 430.098 1083.41 427.92C1084.87 423.562 1084.14 418.479 1086.32 414.122C1085.59 413.396 1085.59 413.396 1086.32 414.122C1086.32 413.396 1086.32 413.396 1086.32 414.122Z" fill="#BC775C"/>
<path d="M1347.76 408.312C1358.65 388.704 1364.46 366.918 1363.01 300.835C1361.55 231.846 1360.83 196.989 1348.48 172.298C1343.4 162.858 1323.07 125.096 1280.22 104.036C1227.21 77.8929 1190.17 104.036 1109.56 98.9526C1079.06 97.5002 1034.77 90.2382 982.48 67C983.206 75.7143 986.111 96.0478 1002.09 114.203C1008.62 121.465 1015.16 125.822 1020.97 128.727C1012.25 128 989.016 125.822 967.956 109.119C954.159 98.2264 946.897 85.8811 943.266 77.8929C946.17 96.774 952.706 121.465 964.325 148.334C975.944 173.751 989.016 194.084 999.909 208.608C995.552 209.334 986.111 210.787 975.218 206.429C957.063 198.441 951.98 178.834 951.98 176.655C951.98 185.37 953.432 200.62 960.694 217.322C960.694 217.322 968.682 235.477 983.206 249.275C1015.16 280.501 1089.96 269.608 1150.23 270.335C1185.81 271.061 1236.65 275.418 1299.83 296.478C1304.91 346.585 1309.99 396.692 1314.35 447.526C1323.79 439.538 1336.86 427.193 1347.76 408.312Z" fill="#BC775C"/>
<ellipse rx="30" ry="11.5" transform="matrix(-1 8.74228e-08 8.74228e-08 1 1199 440.5)" fill="#FCBA9F"/>
</g>
<defs>
<clipPath id="clip0_111_1101">
<rect width="2541" height="1334" fill="white"/>
</clipPath>
</defs>
</svg>
