<svg width="623" height="1259" viewBox="0 0 623 1259" fill="none" xmlns="http://www.w3.org/2000/svg">
<path d="M563 543.807L375.775 486H269.367L35 553.217V1259H563V543.807Z" fill="#EF6A77"/>
<path d="M203.609 423.435C195.522 451.739 187.435 480.044 178 509.696C214.391 539.348 250.783 570.348 288.522 600C323.565 564.957 359.957 529.913 395 494.87C382.87 467.913 369.391 440.957 357.261 414C306.043 418.043 254.826 420.739 203.609 423.435Z" fill="#E3AE96"/>
<path d="M91.6969 240.895C93.0443 234.18 94.3916 227.465 101.128 226.122C106.518 224.779 110.56 227.465 114.602 230.151C118.644 232.837 121.339 235.523 124.034 239.552C130.77 171.06 150.981 94.5096 219.696 63.6211C264.159 42.1333 296.496 40.7904 346.348 56.9061C390.811 73.0219 459.527 118.683 477.042 165.688C482.432 180.46 481.085 197.919 478.39 214.035C475.695 232.837 471.653 250.296 467.611 269.097C475.695 265.068 483.779 262.382 489.169 263.725C513.421 270.44 490.516 317.445 482.432 332.217C468.958 356.391 448.748 375.193 423.148 387.28C419.106 395.338 415.064 403.395 411.022 411.453C402.938 427.569 392.159 443.685 377.338 453.086C359.822 463.83 339.612 465.173 319.401 466.516C278.98 467.859 246.644 466.516 207.57 461.144C195.444 459.801 177.928 453.086 168.497 446.371C153.676 435.627 144.244 419.511 140.202 400.71C138.855 392.652 136.16 384.594 134.812 375.193C133.465 375.193 130.77 373.85 129.423 371.164C98.4337 337.589 84.9601 287.899 91.6969 240.895Z" fill="#FACCB4"/>
<path d="M331.856 323.855C330.133 333.956 325.478 343.378 319.201 351.806C312.924 360.234 301.779 365.681 290.005 368.511C277.917 370.033 266.193 367.316 256.142 360.045C247.4 352.46 241.639 340.007 245.978 329.277C245.978 329.277 245.978 329.277 247.287 328.962C248.18 338.435 253.991 345.34 262.105 350.309C270.218 355.278 279.011 357.316 288.169 355.114C306.484 350.711 319.981 337.78 331.856 323.855C331.541 322.547 331.541 322.547 331.856 323.855C331.541 322.547 331.541 322.547 331.856 323.855Z" fill="#E3AE96"/>
<path d="M358.761 287.625C365.372 286.615 369.275 276.269 367.48 264.516C365.685 252.763 358.87 244.054 352.259 245.064C345.648 246.074 341.744 256.42 343.54 268.173C345.335 279.926 352.15 288.635 358.761 287.625Z" fill="#1F2D49"/>
<path d="M233.404 256.467C239.036 245.996 238.827 234.939 232.937 231.771C227.047 228.603 217.707 234.524 212.075 244.995C206.443 255.466 206.652 266.523 212.542 269.691C218.432 272.859 227.772 266.938 233.404 256.467Z" fill="#1F2D49"/>
<path d="M390.488 222.006C383.76 220.661 379.724 219.315 377.033 217.97C372.996 216.624 370.305 215.279 367.614 213.933C364.923 212.588 362.232 209.897 359.541 207.206C356.85 204.515 352.814 201.824 348.777 196.442C348.777 196.442 348.777 196.442 348.777 195.096C358.196 195.096 366.269 197.787 374.342 201.824C381.069 205.86 387.797 213.933 390.488 222.006C391.833 222.006 391.833 222.006 390.488 222.006Z" fill="#1F2D49"/>
<path d="M255.943 177.606C250.561 180.297 246.525 182.988 242.488 184.334C238.452 185.679 235.761 187.025 231.725 188.37C227.688 188.37 224.997 189.716 220.961 189.716C216.924 189.716 212.888 189.716 206.16 189.716C212.888 182.988 220.961 178.952 230.379 176.261C237.106 172.224 246.525 173.57 255.943 177.606C255.943 176.261 255.943 177.606 255.943 177.606Z" fill="#1F2D49"/>
<path d="M175 506C177.69 506 288 600.394 288 600.394L207.286 684L175 506Z" fill="#CF4D4D"/>
<path d="M469.86 968.754C425.459 953.954 378.367 947.227 331.275 944.536C304.365 943.19 274.764 941.845 251.891 928.39C234.399 917.626 220.944 901.48 202.107 892.061C183.27 882.643 160.397 882.643 140.215 889.37C120.032 896.098 102.541 909.553 89.0859 925.699C106.577 935.117 122.723 944.536 140.215 953.954C171.161 971.445 203.453 987.591 234.399 1005.08C278.8 1029.3 329.929 1046.79 377.021 1066.98C428.15 1087.16 475.242 1110.03 527.717 1124.83C537.135 1127.52 546.554 1130.21 554.627 1124.83C560.008 1122.14 564.045 1115.41 566.736 1110.03C574.809 1093.89 581.536 1076.39 582.882 1058.9C584.227 1044.1 578.845 1037.37 568.081 1027.96C539.826 1001.05 506.189 982.209 469.86 968.754Z" fill="#E3AE96"/>
<path d="M97.1543 917.625C105.227 917.625 114.646 917.626 126.755 921.662C145.592 927.044 157.701 936.462 164.429 943.19" fill="#E3AE96"/>
<path d="M120.043 898.79C128.116 898.79 137.534 898.79 149.644 902.826C168.481 908.208 180.59 917.627 187.318 924.354" fill="#E3AE96"/>
<path d="M288 598.811L399 488L384.11 688L288 598.811Z" fill="#CF4D4D"/>
<path d="M588.296 540.668C592.329 555.482 599.05 577.03 604.426 603.965C611.147 634.94 631.31 738.639 619.213 877.353C612.492 958.158 601.738 972.972 596.361 1068.59C595.017 1107.65 572.166 1123.81 554.691 1099.57C504.955 1025.49 440.434 928.529 451.187 886.78C471.35 807.323 472.695 762.88 496.89 659.181C511.676 597.231 523.774 563.562 547.97 547.401C564.1 539.321 578.887 539.321 588.296 540.668Z" fill="#CF4D4D"/>
<path d="M175.191 956.646C219.593 941.846 266.685 935.118 313.777 932.427C340.687 931.082 370.288 929.736 393.161 916.281C410.653 905.518 424.108 889.372 442.945 879.953C461.781 870.535 484.655 870.535 504.837 877.262C525.02 883.99 542.511 897.445 555.966 913.591C538.474 923.009 522.329 932.427 504.837 941.846C473.891 959.337 441.599 975.483 410.653 992.975C366.251 1017.19 315.123 1034.68 268.03 1054.87C216.902 1075.05 169.809 1097.92 117.335 1112.72C107.917 1115.41 98.4983 1118.11 90.4253 1112.72C85.0434 1110.03 81.0069 1103.31 78.3159 1097.92C70.2429 1081.78 63.5155 1064.29 62.17 1046.79C60.8245 1031.99 66.2065 1025.27 76.9704 1015.85C105.226 987.593 138.863 968.756 175.191 956.646Z" fill="#FACCB4"/>
<path d="M547.894 905.517C539.821 905.517 530.402 905.517 518.293 909.554C499.456 914.936 487.347 924.354 480.619 931.082" fill="#E3AE96"/>
<path d="M525.032 886.682C516.959 886.682 507.541 886.682 495.432 890.718C476.595 896.1 464.485 905.519 457.758 912.246" fill="#E3AE96"/>
<path d="M21.8689 548.668C17.8216 563.483 13.7743 585.033 9.72692 613.318C4.33047 644.296 -9.16066 749.353 9.72692 888.081C20.5198 967.547 32.6618 982.362 43.4547 1077.99C47.5021 1117.05 70.437 1131.87 86.6264 1106.28C132.496 1029.5 190.508 929.834 178.366 888.081C152.733 809.962 150.035 765.515 119.005 663.152C100.117 601.196 86.6264 568.871 60.9932 555.402C46.153 547.321 32.6618 547.321 21.8689 548.668Z" fill="#CF4D4D"/>
<path d="M206.291 360C218.402 368.097 237.24 378.893 261.461 385.64C305.867 396.436 340.853 384.291 357 378.893C355.654 384.291 348.926 412.63 322.014 430.173C319.323 431.523 284.337 454.464 246.66 435.571C219.747 422.076 203.6 392.388 206.291 360Z" fill="#E3AE96"/>
<path d="M133.826 316.131C127.102 316.131 115 267.702 115 216.583C115 180.262 116.345 135.869 145.929 91.4762C155.342 78.0238 179.547 47.0833 218.543 32.2857C233.335 26.9048 241.404 26.9048 272.332 20.1786C296.537 16.1429 328.811 10.7619 369.152 0C366.463 4.03571 361.084 12.1071 350.326 18.8333C342.258 22.869 335.534 25.5595 331.5 25.5595C344.947 26.9048 359.739 26.9048 374.531 26.9048C422.941 28.25 467.317 25.5595 507.658 21.5238C502.28 29.5952 496.901 37.6667 488.832 47.0833C480.764 57.8452 471.351 65.9167 463.283 73.9881C471.351 76.6786 484.798 82.0595 500.935 82.0595C522.45 83.4048 539.932 75.3333 548 71.2976C535.898 90.131 518.416 118.381 506.314 156.048C494.211 192.369 494.211 209.857 483.453 240.798C475.385 266.357 457.904 301.333 424.286 339C429.665 325.548 437.733 305.369 441.767 281.155C445.801 251.56 452.525 215.238 433.699 182.952C414.873 149.321 379.91 137.214 357.05 129.143C300.571 108.964 249.472 123.762 230.646 130.488C210.475 137.214 199.717 139.905 187.615 150.667C180.891 157.393 164.755 173.536 148.618 247.524C137.86 294.607 137.86 316.131 133.826 316.131Z" fill="#1F2D49"/>
<ellipse rx="30" ry="11.5" transform="matrix(-1 8.74228e-08 8.74228e-08 1 180 309.5)" fill="#FCBA9F"/>
<ellipse cx="380.129" cy="338.362" rx="30" ry="11.5" transform="rotate(20.7005 380.129 338.362)" fill="#FCBA9F"/>
</svg>
