<svg width="2624" height="2961" viewBox="0 0 2624 2961" fill="none" xmlns="http://www.w3.org/2000/svg">
<circle cx="1339.5" cy="1339.5" r="1128" stroke="#1F2D49" stroke-width="13"/>
<rect y="1206" width="409" height="409" rx="50" fill="#FFD7E6"/>
<path d="M348.55 1315.64C335.86 1288.2 299.305 1265.75 256.784 1278.82C236.466 1285.01 218.738 1298.27 206.498 1316.44C194.258 1298.27 176.53 1285.01 156.211 1278.82C113.596 1265.95 77.1358 1288.2 64.4458 1315.64C46.6419 1354.06 54.0286 1397.26 86.4165 1444.05C111.796 1480.67 148.067 1517.79 200.721 1560.89C202.385 1562.26 204.435 1563 206.545 1563C208.656 1563 210.705 1562.26 212.369 1560.89C264.929 1517.89 301.294 1481.07 326.674 1444.05C358.967 1397.26 366.354 1354.06 348.55 1315.64Z" fill="#EF6A77"/>
<rect x="2215" y="1206" width="409" height="409" rx="50" fill="#E2F3FF"/>
<rect x="2498.62" y="1267.79" width="61.6243" height="292.275" transform="rotate(34.8698 2498.62 1267.79)" fill="#FF971D"/>
<path d="M2502.97 1261.54C2506.13 1257.01 2512.36 1255.9 2516.89 1259.06L2551.04 1282.85C2555.57 1286.01 2556.69 1292.24 2553.53 1296.78L2530.06 1330.46L2479.5 1295.23L2502.97 1261.54Z" fill="#EF6A77"/>
<path d="M2318.4 1569.8L2331.22 1507.77L2382.16 1542.98L2318.4 1569.8Z" fill="#FFD76F"/>
<rect x="242" y="360" width="409" height="409" rx="50" fill="#FFF7E1"/>
<path d="M555.386 518.681C555.386 454.25 500.159 403.208 434.055 410.739C383.85 416.596 343.685 456.761 338.665 506.966C334.481 545.457 350.379 579.764 377.156 601.52C388.87 611.561 396.401 625.786 396.401 641.685V644.195H496.812V643.358C496.812 628.297 503.506 613.235 515.221 603.194C539.487 583.111 555.386 552.988 555.386 518.681Z" fill="#FBC02D"/>
<path d="M446.607 727.871C460.471 727.871 471.71 716.632 471.71 702.768C471.71 688.904 460.471 677.665 446.607 677.665C432.743 677.665 421.504 688.904 421.504 702.768C421.504 716.632 432.743 727.871 446.607 727.871Z" fill="#5C6BC0"/>
<rect x="414.83" y="541.6" width="20.5387" height="107.258" rx="10" fill="#FFD76F"/>
<rect x="458.189" y="541.6" width="20.5387" height="107.258" rx="10" fill="#FFD76F"/>
<rect x="388.967" y="635.926" width="116.386" height="66.9409" rx="20" fill="#5C6BC0"/>
<rect x="1066" width="409" height="409" rx="50" fill="#E7E5FC"/>
<ellipse cx="1270.85" cy="109.419" rx="67.5677" ry="69.4188" fill="#A7A1E7"/>
<path fill-rule="evenodd" clip-rule="evenodd" d="M1418.67 357H1122C1122 356.594 1122 356.187 1122 355.781C1122 271.61 1188.41 203.377 1270.34 203.377C1352.27 203.377 1418.68 271.61 1418.68 355.781C1418.68 356.187 1418.68 356.594 1418.67 357Z" fill="#A7A1E7"/>
<rect x="1887" y="360" width="409" height="409" rx="50" fill="#FFF7E1"/>
<path d="M2135.48 570.427C2127.18 565.82 2118.62 559.414 2110.41 551.536C2104.13 545.511 2098.7 539.187 2094.31 532.944C2089.89 526.701 2086.48 520.513 2084.24 514.352C2083.83 513.235 2083.59 512.062 2083.29 510.917L1939.95 685.03C1936.38 688.765 1943.17 701.196 1955.23 712.754C1967.23 724.312 1979.92 730.664 1983.52 726.929V726.902L2152.07 577.051C2150.62 576.724 2149.23 576.397 2147.81 575.934C2143.74 574.598 2139.65 572.744 2135.48 570.427Z" fill="#525DC1"/>
<circle cx="2162.53" cy="507.147" r="94.1489" transform="rotate(45 2162.53 507.147)" fill="#2A1C7C"/>
<rect x="2097.29" y="413.944" width="227.84" height="46.133" rx="10" transform="rotate(45 2097.29 413.944)" fill="#A7A1E7"/>
<path d="M944.334 1731.47L1265.12 1633.58H1448.85L1850.96 1749.54C1850.96 1955.86 1744.03 2204.34 1744.03 2410.66C1744.03 2607.94 1850.96 2763.06 1850.96 2960.34C1548.25 2960.34 1245.54 2960.34 942.828 2960.34C942.828 2752.52 1012.11 2600.41 1012.11 2392.59C1013.61 2190.79 944.334 1933.27 944.334 1731.47Z" fill="#DFEAFF"/>
<path d="M1222.82 2960.34L1266.62 1770.62L1363.01 1841.4L1435.3 1770.62L1519.64 2960.34H1222.82Z" fill="white"/>
<path d="M1216.92 1538.7C1201.86 1588.4 1188.31 1636.59 1173.25 1686.29C1236.5 1737.49 1298.25 1790.2 1361.5 1841.4C1423.25 1781.16 1483.49 1720.93 1545.24 1660.69C1524.15 1615.51 1501.56 1568.82 1480.48 1523.64C1393.13 1528.16 1304.27 1534.19 1216.92 1538.7Z" fill="#FCBA9F"/>
<path d="M995.539 2415.18C989.515 2430.24 998.551 2446.8 1016.62 2475.42C1025.66 2488.97 1034.7 2504.03 1046.74 2520.6C951.865 2519.09 864.515 2547.71 852.467 2594.39C847.949 2612.46 856.985 2635.05 864.515 2654.63C867.527 2662.16 893.13 2720.89 950.359 2746.49C994.033 2766.07 1045.24 2754.02 1146.14 2729.93C1195.84 2717.88 1236.5 2705.83 1262.11 2696.8C1263.61 2663.66 1263.61 2630.53 1265.12 2595.9C1253.07 2586.86 1236.5 2573.31 1213.91 2562.76C1185.3 2544.69 1162.71 2526.62 1144.64 2513.07C1084.39 2463.37 1063.31 2430.24 1057.29 2421.2C1048.25 2407.65 1042.23 2394.1 1039.21 2386.57C1031.68 2386.57 1003.07 2394.1 995.539 2415.18Z" fill="#FFCCB3"/>
<path d="M915.721 2711.86C936.805 2699.81 959.395 2695.29 981.986 2690.77C1004.58 2687.76 1027.17 2684.75 1051.26 2689.27L983.492 2701.31L915.721 2711.86C915.721 2713.36 915.721 2713.36 915.721 2711.86C915.721 2713.36 915.721 2713.36 915.721 2711.86Z" fill="#93523E"/>
<path d="M884.094 2662.16C909.696 2650.11 935.299 2644.09 962.407 2639.57C989.515 2635.05 1015.12 2632.04 1043.73 2635.05L963.913 2648.61L884.094 2662.16C884.094 2663.67 884.094 2663.67 884.094 2662.16Z" fill="#93523E"/>
<path d="M867.528 2606.44C897.648 2594.39 927.769 2586.86 957.889 2580.84C988.01 2576.32 1019.64 2571.8 1051.26 2574.81L959.395 2591.38L867.528 2606.44C867.528 2607.94 866.022 2607.94 867.528 2606.44C866.022 2606.44 866.022 2606.44 867.528 2606.44Z" fill="#93523E"/>
<path d="M1748.55 1713.4C1763.61 1848.93 1760.6 1957.36 1756.08 2031.16C1750.06 2109.47 1742.53 2157.66 1721.44 2351.93C1701.86 2543.19 1700.36 2595.9 1738.01 2638.06C1790.72 2695.29 1881.08 2689.27 1897.65 2687.76C1914.21 2686.25 2010.6 2680.23 2049.76 2612.46C2076.86 2565.78 2063.31 2514.57 2052.77 2469.39C2022.65 2344.4 2003.07 2217.9 1972.95 2092.9C1924.76 1882.06 1926.26 1809.78 1853.97 1755.56C1817.83 1726.95 1777.17 1717.91 1748.55 1713.4Z" fill="#CEDFFF"/>
<path d="M1009.09 1713.4C994.033 1848.93 997.045 1957.36 1001.56 2031.16C1007.59 2109.47 1015.12 2157.66 1036.2 2351.93C1055.78 2543.19 1057.29 2595.9 1019.64 2638.06C966.924 2695.29 876.563 2689.27 859.997 2687.76C843.43 2686.25 747.045 2680.23 707.888 2612.46C680.78 2565.78 694.334 2514.57 704.876 2469.39C734.997 2344.4 754.575 2217.9 784.696 2092.9C832.888 1882.06 831.382 1809.78 903.671 1755.56C941.322 1726.95 980.479 1717.91 1009.09 1713.4Z" fill="#CEDFFF"/>
<path d="M1182.29 2529.63C1194.33 2547.7 1210.9 2576.32 1219.94 2613.97C1230.48 2657.64 1227.47 2696.8 1224.45 2717.88C1340.42 2749.51 1441.32 2761.55 1513.61 2766.07C1676.26 2776.61 1828.37 2784.14 1957.89 2692.28C2036.2 2636.56 2048.25 2613.97 2049.75 2603.43C2057.29 2532.65 1938.31 2445.3 1822.35 2427.23C1736.5 2413.67 1683.79 2442.29 1582.89 2472.41C1492.53 2499.51 1358.49 2528.13 1182.29 2529.63Z" fill="#CEDFFF"/>
<path d="M1117.53 901.676C1064.82 909.206 1028.67 942.338 1019.64 952.879C991.022 982.999 974.456 1022.15 969.937 1117.03C962.407 1270.64 957.889 1365.52 1024.15 1445.33C1037.71 1461.9 1082.89 1492.02 1171.74 1553.76C1241.02 1601.95 1266.62 1614 1299.76 1617.01C1308.79 1618.52 1378.07 1624.54 1433.79 1580.87C1468.43 1553.76 1481.99 1519.13 1495.54 1481.48C1527.17 1394.13 1521.14 1318.83 1518.13 1293.23C1513.61 1248.05 1489.52 1100.46 1366.02 1002.58C1322.35 967.939 1278.67 948.361 1248.55 934.808C1189.82 910.712 1159.7 897.158 1117.53 901.676Z" fill="#FFCCB3"/>
<path d="M1097.95 927.278C1088.91 1001.07 1076.87 1032.7 1076.87 1032.7C1051.26 1100.46 1033.19 1130.58 1022.65 1157.69C989.516 1240.52 1007.59 1321.84 1027.17 1400.15C1045.24 1475.45 1060.3 1482.98 1125.06 1630.57C1194.33 1787.19 1228.97 1867.01 1219.94 1934.77C1213.91 1975.44 1192.83 2053.75 1087.41 2138.08C1096.44 2124.53 1108.49 2104.95 1114.52 2076.34C1126.56 2020.61 1106.99 1976.94 1099.46 1960.38C1100.96 1966.4 1113.01 1999.53 1093.43 2034.17C1072.35 2071.82 1033.19 2079.35 1028.67 2080.85C1039.21 2040.19 1049.76 1979.95 1043.73 1907.67C1034.7 1809.78 1000.06 1758.57 962.407 1671.23C894.636 1510.09 882.588 1373.05 876.564 1293.23C858.492 1077.88 906.684 992.035 927.769 960.409C936.805 946.855 972.949 897.158 1033.19 879.087C1045.24 876.075 1078.37 865.533 1093.43 880.593C1100.96 891.134 1099.46 906.194 1097.95 927.278Z" fill="#1F2D49"/>
<path d="M1051.26 859.509C1036.2 892.64 1075.36 939.326 1085.9 951.373C1110 979.987 1137.11 996.553 1177.77 1016.13C1247.05 1050.77 1299.76 1071.85 1311.8 1077.88C1480.48 1151.67 1519.64 1449.85 1522.65 1476.96C1531.68 1550.75 1525.66 1607.98 1513.61 1719.42C1504.58 1802.25 1492.53 1857.97 1477.47 2005.55C1471.44 2065.79 1468.43 2106.45 1472.95 2160.67C1478.97 2222.41 1495.54 2272.11 1507.59 2306.75C1504.58 2282.65 1504.58 2249.52 1512.11 2211.87C1516.62 2187.78 1524.15 2165.19 1531.68 2148.62C1540.72 2175.73 1549.76 2214.88 1548.25 2260.06C1545.24 2373.01 1480.48 2451.32 1457.89 2476.92C1488.01 2482.95 1528.67 2485.96 1569.33 2467.89C1712.41 2401.63 1713.91 2118.5 1713.91 1951.34C1713.91 1841.4 1703.37 1764.6 1686.8 1639.6C1661.2 1452.86 1644.64 1326.36 1581.38 1175.76C1528.67 1050.77 1485 948.361 1375.06 882.099C1375.06 882.099 1271.14 818.848 1134.09 827.884C1067.83 832.401 1055.78 851.979 1051.26 859.509Z" fill="#1F2D49"/>
<path d="M1051.26 1680.26C1036.2 1672.73 1052.77 1635.09 1033.19 1583.88C1030.18 1576.35 1025.66 1567.32 1025.66 1555.27C1025.66 1537.2 1036.2 1523.64 1045.24 1510.09C1055.78 1495.03 1069.33 1473.95 1085.9 1443.83C1090.42 1448.34 1097.95 1455.87 1100.96 1466.42C1106.99 1487.5 1094.94 1511.6 1088.91 1523.64C1079.88 1541.71 1072.35 1546.23 1072.35 1559.79C1072.35 1570.33 1078.37 1577.86 1081.38 1582.38C1090.42 1594.42 1100.96 1615.51 1106.99 1647.13C1073.85 1680.26 1058.79 1684.78 1051.26 1680.26Z" fill="#FCBA9F"/>
<path d="M1012.11 1910.68C1022.65 1892.61 1036.2 1863.99 1040.72 1827.85C1048.25 1763.09 1019.64 1737.49 1037.71 1683.28C1039.21 1680.26 1054.27 1656.17 1087.41 1607.98C1114.52 1567.32 1122.05 1556.77 1138.61 1553.76C1156.68 1550.75 1159.7 1562.8 1195.84 1564.3C1213.91 1564.3 1224.45 1562.8 1235 1570.33C1242.53 1574.85 1239.52 1577.86 1251.56 1589.91C1265.12 1604.97 1274.15 1607.98 1275.66 1618.52C1277.17 1624.54 1275.66 1630.57 1274.15 1633.58C1277.17 1635.09 1283.19 1642.62 1286.2 1653.16C1287.71 1663.7 1286.2 1671.23 1284.7 1674.24C1293.73 1678.76 1299.76 1687.79 1298.25 1696.83C1298.25 1705.87 1292.23 1710.38 1290.72 1711.89C1284.7 1707.37 1271.14 1699.84 1253.07 1698.34C1245.54 1698.34 1231.98 1696.83 1219.94 1702.85C1209.39 1708.88 1200.36 1717.91 1192.83 1742.01C1180.78 1778.15 1189.82 1796.22 1189.82 1851.95C1189.82 1895.62 1189.82 1918.21 1176.26 1940.8C1161.2 1966.4 1135.6 1979.95 1117.53 1985.98C1081.38 1961.88 1046.74 1936.28 1012.11 1910.68Z" fill="#FFCCB3"/>
<path d="M1274.15 1671.23C1254.58 1671.23 1238.01 1672.73 1222.95 1675.75C1206.38 1678.76 1191.32 1684.78 1173.25 1692.31C1186.8 1680.26 1203.37 1669.72 1221.44 1666.71C1238.01 1660.69 1257.59 1662.19 1274.15 1671.23C1274.15 1669.72 1274.15 1669.72 1274.15 1671.23Z" fill="#FCBA9F"/>
<path d="M1251.56 1627.56C1225.96 1624.54 1201.86 1623.04 1179.27 1627.56C1156.68 1630.57 1134.09 1639.6 1110 1648.64C1129.57 1632.07 1153.67 1620.03 1177.77 1617.01C1203.37 1612.5 1228.97 1615.51 1251.56 1627.56C1253.07 1626.05 1253.07 1627.56 1251.56 1627.56Z" fill="#FCBA9F"/>
<path d="M1216.92 1909.17C1195.84 1915.2 1161.2 1922.73 1120.54 1919.71C1072.35 1916.7 1034.7 1901.64 1013.61 1889.59C944.334 1996.52 899.154 2094.41 870.539 2165.19C807.286 2326.33 750.057 2476.92 799.756 2638.06C829.876 2734.45 849.455 2754.02 859.997 2760.05C929.274 2791.67 1055.78 2698.3 1111.5 2586.86C1153.67 2504.03 1141.62 2440.78 1143.13 2330.84C1146.14 2231.45 1159.7 2086.88 1216.92 1909.17Z" fill="#CEDFFF"/>
<path d="M1147 1321.76C1157.41 1318.83 1161.47 1300.88 1156.06 1281.66C1150.65 1262.45 1137.83 1249.25 1127.43 1252.17C1117.02 1255.1 1112.96 1273.05 1118.37 1292.27C1123.77 1311.48 1136.59 1324.69 1147 1321.76Z" fill="#1F2D49"/>
<path d="M1349.43 1250.66C1358.8 1245.26 1358.3 1226.86 1348.32 1209.57C1338.33 1192.29 1322.65 1182.65 1313.29 1188.06C1303.92 1193.47 1304.43 1211.86 1314.41 1229.15C1324.39 1246.44 1340.07 1256.07 1349.43 1250.66Z" fill="#1F2D49"/>
<path d="M1156.68 1213.41C1147.65 1229.98 1131.08 1240.52 1114.52 1245.04C1096.44 1249.56 1078.37 1248.05 1061.8 1239.01V1237.51C1094.94 1242.03 1129.58 1232.99 1156.68 1213.41Z" fill="#1F2D49"/>
<path d="M1247.04 1133.6C1254.58 1117.03 1271.14 1104.98 1289.21 1101.97C1307.29 1098.96 1326.86 1101.97 1340.42 1114.02V1115.52C1308.79 1106.49 1272.65 1112.51 1247.04 1133.6Z" fill="#1F2D49"/>
<path d="M1244.03 1513.1C1266.62 1493.52 1293.73 1482.98 1320.84 1473.95C1349.45 1466.42 1378.07 1463.4 1406.68 1467.92V1469.43C1378.07 1472.44 1350.96 1476.96 1323.85 1484.49C1296.74 1492.02 1269.64 1501.05 1244.03 1513.1Z" fill="#1F2D49"/>
<path d="M1233.49 1370.03C1242.53 1374.55 1251.56 1379.07 1259.09 1380.58C1266.62 1382.08 1275.66 1382.08 1283.19 1380.58C1290.72 1379.07 1298.25 1374.55 1305.78 1370.03C1313.31 1364.01 1319.33 1357.99 1325.36 1350.46H1326.86C1322.35 1370.03 1307.29 1386.6 1286.2 1392.62C1275.66 1395.64 1265.12 1394.13 1256.08 1391.12C1247.04 1385.09 1238.01 1379.07 1233.49 1370.03Z" fill="#FCBA9F"/>
<ellipse cx="1132.06" cy="1393.17" rx="49.9284" ry="15.7819" transform="rotate(-37.9951 1132.06 1393.17)" fill="#FCBA9F"/>
<ellipse cx="1412.8" cy="1294.5" rx="49.9284" ry="15.7819" transform="rotate(-9.1292 1412.8 1294.5)" fill="#FCBA9F"/>
</svg>
