<svg width="2525" height="1973" viewBox="0 0 2525 1973" fill="none" xmlns="http://www.w3.org/2000/svg">
<path fill-rule="evenodd" clip-rule="evenodd" d="M2310.54 959.226C2312.03 960.461 2312.24 962.668 2311 964.155C2280.96 1000.32 2267.52 1061.26 2263.18 1123.49C2258.85 1185.54 2263.63 1248.04 2269.36 1286.58C2269.64 1288.49 2268.32 1290.27 2266.41 1290.56C2264.5 1290.84 2262.72 1289.52 2262.43 1287.61C2256.64 1248.66 2251.83 1185.64 2256.2 1123.01C2260.55 1060.57 2274.07 997.663 2305.62 959.683C2306.85 958.196 2309.06 957.991 2310.54 959.226Z" fill="#2A1C7C"/>
<path fill-rule="evenodd" clip-rule="evenodd" d="M2279.81 914.876C2281.5 915.818 2282.1 917.95 2281.16 919.638C2251.41 972.947 2240.7 1041.79 2239.54 1106.48C2238.38 1171.12 2246.75 1231.2 2254.81 1266.68C2255.24 1268.57 2254.06 1270.44 2252.17 1270.87C2250.29 1271.3 2248.41 1270.12 2247.98 1268.23C2239.81 1232.24 2231.37 1171.6 2232.54 1106.36C2233.71 1041.18 2244.48 970.995 2275.05 916.226C2275.99 914.538 2278.12 913.934 2279.81 914.876Z" fill="#2A1C7C"/>
<path fill-rule="evenodd" clip-rule="evenodd" d="M2244.56 911.605C2246.32 912.404 2247.1 914.479 2246.3 916.239C2219.19 975.89 2215.98 1060.96 2219.71 1133.06C2221.57 1169.03 2225.14 1201.6 2228.25 1225.94C2229.72 1237.42 2231.09 1247.07 2232.12 1254.37L2232.3 1255.65C2232.82 1259.36 2233.26 1262.44 2233.56 1264.77C2233.84 1266.99 2234.05 1268.8 2234.05 1269.81C2234.05 1271.75 2232.48 1273.31 2230.55 1273.31C2228.62 1273.31 2227.05 1271.75 2227.05 1269.81C2227.05 1269.35 2226.92 1268.04 2226.61 1265.66C2226.32 1263.38 2225.89 1260.35 2225.37 1256.63L2225.19 1255.35C2224.15 1248.05 2222.78 1238.36 2221.31 1226.82C2218.18 1202.39 2214.59 1169.62 2212.72 1133.42C2208.99 1061.21 2212.06 974.65 2239.93 913.343C2240.73 911.583 2242.8 910.805 2244.56 911.605Z" fill="#2A1C7C"/>
<path fill-rule="evenodd" clip-rule="evenodd" d="M2193.35 869.831C2195.19 869.238 2197.16 870.25 2197.75 872.089C2217.75 934.195 2254.66 1100.96 2242.68 1272.41C2242.55 1274.34 2240.87 1275.8 2238.94 1275.66C2237.02 1275.53 2235.56 1273.85 2235.7 1271.93C2247.6 1101.56 2210.88 935.706 2191.09 874.235C2190.49 872.395 2191.51 870.423 2193.35 869.831Z" fill="#2A1C7C"/>
<path fill-rule="evenodd" clip-rule="evenodd" d="M2161.26 962.021C2162.94 961.062 2165.08 961.645 2166.04 963.323C2188.41 1002.47 2227.83 1116.97 2208.89 1264.76C2208.64 1266.68 2206.89 1268.03 2204.97 1267.79C2203.05 1267.54 2201.7 1265.79 2201.94 1263.87C2220.7 1117.59 2181.57 1004.62 2159.96 966.796C2159 965.118 2159.59 962.98 2161.26 962.021Z" fill="#2A1C7C"/>
<path fill-rule="evenodd" clip-rule="evenodd" d="M2148.51 899.626C2149.95 898.331 2152.16 898.444 2153.46 899.879C2190.45 940.866 2262.3 1067.62 2257.25 1249.49C2257.2 1251.42 2255.59 1252.94 2253.66 1252.89C2251.72 1252.84 2250.2 1251.23 2250.26 1249.29C2255.26 1069.23 2184.05 944.221 2148.26 904.569C2146.97 903.134 2147.08 900.921 2148.51 899.626Z" fill="#2A1C7C"/>
<path fill-rule="evenodd" clip-rule="evenodd" d="M2111.53 829.001C2112.93 827.667 2115.14 827.718 2116.48 829.117C2171.87 887.147 2282.7 1053.27 2283.96 1254.87C2283.97 1256.8 2282.41 1258.38 2280.48 1258.39C2278.55 1258.4 2276.97 1256.84 2276.96 1254.91C2275.71 1055.62 2165.98 891.119 2111.41 833.95C2110.08 832.552 2110.13 830.336 2111.53 829.001Z" fill="#2A1C7C"/>
<path d="M2169 826.824C2177.64 834.16 2187.91 841.897 2196.95 847.59C2181.32 833.32 2168.93 812.88 2165.15 792.805C2172.11 792.768 2180.31 794.774 2188.12 798.423C2159.79 786.272 2135.92 763.024 2121.86 735.211C2141.14 741.67 2160.03 749.77 2178.91 757.871C2159.99 742.799 2141.08 727.726 2124.2 711.412C2111.04 701.23 2098.69 687.762 2097.38 671.775C2096.92 659.474 2101.37 648.377 2107.06 639.324C2118.04 622.86 2133.55 609.243 2152.36 603.4C2156.04 602.56 2161.77 600.479 2164.65 602.924C2167.53 605.369 2166.72 608.655 2167.96 610.699C2170.98 641.031 2170.71 670.561 2165.12 700.529C2187.95 678.26 2186.55 641.358 2203.62 614.198C2212.73 633.835 2213.66 658.437 2208.44 679.791C2203.22 701.145 2194.71 721.696 2185.81 743.89C2202.08 720.016 2216.31 697.384 2232.58 673.51C2240.82 682.488 2237.6 695.629 2233.55 705.083C2227.09 724.393 2218.99 743.302 2209.24 761.81C2216.17 754.8 2224.74 748.193 2231.27 742.826C2233.05 771.115 2226.22 799.039 2212.82 825.358C2218.15 824.92 2222.23 822.437 2226.72 818.312C2227.62 835.942 2226.89 853.171 2224.11 871.641C2219.69 889.71 2209.57 916.832 2190.22 896.43C2177.43 877.633 2171.14 846.498 2169 826.824Z" fill="#94B9FF"/>
<path d="M2122.06 939.127C2120.37 939.127 2118.68 937.436 2117 939.127C2115.31 939.127 2115.31 940.818 2113.62 942.509C2111.93 949.273 2108.55 957.728 2108.55 964.492C2103.48 957.728 2098.42 952.655 2091.66 947.582C2064.64 971.257 2046.06 1005.08 2040.99 1040.59C2044.37 1040.59 2049.44 1038.9 2052.82 1038.9C2042.68 1054.12 2040.99 1072.72 2042.68 1091.32C2044.37 1109.92 2049.44 1126.83 2052.82 1145.43C2056.19 1165.73 2056.19 1186.02 2052.82 1204.62C2061.26 1202.93 2069.7 1199.55 2076.46 1194.48C2098.42 1179.26 2108.55 1152.2 2113.62 1125.14C2118.68 1099.78 2118.68 1072.72 2125.44 1045.66C2132.2 1018.61 2142.33 993.24 2164.29 978.021C2167.66 976.33 2171.04 972.948 2172.73 969.565C2182.86 954.346 2160.91 957.728 2154.15 956.037C2144.02 956.037 2133.88 944.2 2122.06 939.127Z" fill="#94B9FF"/>
<path d="M2354.18 938.322C2355.87 938.322 2357.56 936.631 2359.25 938.322C2360.93 938.322 2360.93 940.013 2362.62 941.704C2364.31 948.468 2367.69 956.924 2367.69 963.688C2372.76 956.924 2377.82 951.851 2384.58 946.777C2411.6 970.452 2430.18 1004.27 2435.25 1039.79C2431.87 1039.79 2426.8 1038.09 2423.42 1038.09C2433.56 1053.31 2435.25 1071.92 2433.56 1090.52C2431.87 1109.12 2426.8 1126.03 2423.42 1144.63C2420.05 1164.92 2420.05 1185.22 2423.42 1203.82C2414.98 1202.13 2406.54 1198.74 2399.78 1193.67C2377.82 1178.45 2367.69 1151.39 2362.62 1124.34C2357.56 1098.97 2357.56 1071.92 2350.8 1044.86C2344.04 1017.8 2333.91 992.436 2311.95 977.216C2308.58 975.525 2305.2 972.143 2303.51 968.761C2293.38 953.542 2315.33 956.924 2322.09 955.233C2332.22 955.233 2342.36 943.395 2354.18 938.322Z" fill="#94B9FF"/>
<path d="M2077.59 855.884C2079.28 864.339 2082.65 874.485 2086.03 882.94C2070.83 876.176 2052.25 879.558 2038.74 889.705C2025.23 899.851 2016.78 915.07 2013.41 931.981C2045.5 923.526 2077.59 915.07 2111.37 911.688C2119.81 909.997 2128.25 909.997 2136.7 909.997C2145.14 909.997 2153.59 916.761 2162.03 916.761C2173.86 916.761 2168.79 903.233 2162.03 896.469C2141.77 872.794 2107.99 857.575 2077.59 855.884Z" fill="#94B9FF"/>
<path d="M2249.79 930.151C2289.46 831.92 2337.74 734.054 2414.42 662.282C2421.35 655.273 2428.28 648.264 2428.65 639.649C2403.64 635.272 2376.58 632.137 2351.57 627.76C2349.93 627.358 2348.29 626.957 2346.25 628.198C2344.21 629.44 2343.81 631.082 2343.4 632.725C2338.98 650.794 2342.77 670.869 2345.31 688.9C2338.28 674.994 2331.65 659.445 2324.62 645.539C2313.24 663.645 2297.33 678.905 2281.83 692.522C2277.34 696.647 2272.86 700.773 2270.01 705.299C2267.17 709.826 2267.2 716.798 2267.23 723.769C2269.41 750.415 2275.27 776.221 2288.49 800.347C2269.58 785.274 2257.59 763.192 2256.25 740.233C2248.48 743.556 2244.43 753.01 2244.47 759.982C2244.1 768.596 2245.77 775.969 2249.08 783.744C2254.91 802.578 2261.97 823.456 2267.8 842.29C2260.77 828.383 2253.74 814.477 2248.75 799.33C2240.31 833.825 2235.16 869.122 2235.32 903.981C2235.39 917.925 2237.1 932.27 2244.53 944.533C2244.9 935.919 2245.73 939.606 2249.79 930.151Z" fill="#94B9FF"/>
<path d="M2511.34 799.149C2512.98 799.55 2515.03 798.309 2517.07 797.068C2519.11 795.826 2519.51 794.184 2520.32 790.898C2521.92 784.328 2516.97 776.152 2511.21 771.262C2505.45 766.371 2497.25 764.365 2490.28 764.402C2460.35 758.821 2427.57 757.767 2396.87 762.443C2393.19 763.283 2389.51 764.123 2387.46 765.364C2383.38 767.847 2382.57 771.132 2379.73 775.659C2373.23 787.997 2366.74 800.335 2361.88 813.075C2358.57 805.301 2357.3 796.285 2357.66 787.671C2328.27 808.334 2307.11 837.976 2297.03 872.07C2294.95 866.339 2294.52 861.01 2294.08 855.681C2294.95 866.339 2281.93 884.044 2279.52 893.9C2278.31 898.828 2265.76 928.834 2268.23 932.921C2276.47 941.9 2308.65 902.766 2315.17 897.399C2350.67 866.04 2391.51 841.214 2436.08 822.519C2461.02 812.953 2485.56 805.029 2511.34 799.149Z" fill="#94B9FF"/>
<path d="M2133.54 770.427C2135.23 756.899 2135.23 741.679 2128.48 729.842C2111.59 748.443 2118.34 780.573 2099.76 797.484C2103.14 773.809 2104.83 748.443 2103.14 724.769C2103.14 719.696 2101.45 712.931 2096.39 712.931C2084.56 733.224 2074.43 753.517 2062.61 773.809C2057.54 758.59 2054.16 743.37 2049.1 729.842C2049.1 728.151 2047.41 724.769 2045.72 723.078C2042.34 721.387 2040.65 723.078 2037.27 724.769C2008.56 739.988 1981.54 755.208 1952.83 770.427C1951.14 770.427 1951.14 772.118 1949.45 772.118C1947.76 775.5 1951.14 778.882 1954.52 780.573C1978.16 792.411 2003.5 797.484 2030.52 794.102C2038.96 792.411 2047.41 790.72 2055.85 792.411C2064.3 794.102 2072.74 797.484 2076.12 805.939C2055.85 812.703 2032.21 814.394 2011.94 807.63C2025.45 824.541 2045.72 834.687 2065.99 839.76C2079.5 843.142 2113.28 856.671 2125.1 843.142C2130.17 836.378 2130.17 819.468 2131.85 809.321C2131.85 795.793 2133.54 783.955 2133.54 770.427Z" fill="#94B9FF"/>
<rect x="1989.84" y="1234.47" width="491.691" height="62.8359" rx="10" fill="#EF6A77"/>
<rect x="2058.96" y="1265.89" width="355.023" height="344.026" rx="5" fill="#EF6A77"/>
<rect width="1826.3" height="1055" rx="20" fill="#E2F3FF"/>
<rect x="91.6106" y="103.431" width="602.857" height="490.56" rx="10" fill="#EF6A77"/>
<rect x="118.207" y="236.415" width="528.978" height="41.3725" rx="7" fill="white"/>
<rect x="118.207" y="330.98" width="528.978" height="41.3725" rx="7" fill="white"/>
<rect x="203.907" y="425.546" width="354.622" height="41.3725" rx="7" fill="white"/>
<rect x="410.77" y="815.63" width="461.008" height="41.3725" rx="7" fill="#94B9FF"/>
<rect x="1273.68" y="815.63" width="461.008" height="41.3725" rx="7" fill="#94B9FF"/>
<rect x="410.77" y="721.064" width="461.008" height="41.3725" rx="7" fill="#94B9FF"/>
<rect x="1273.68" y="721.064" width="461.008" height="41.3725" rx="7" fill="#94B9FF"/>
<circle cx="236.415" cy="789.034" r="118.207" fill="#EF6A77"/>
<circle cx="1099.33" cy="789.034" r="118.207" fill="#EF6A77"/>
<rect x="759.482" y="103.431" width="975.21" height="490.56" rx="10" fill="#7D47D4"/>
<circle cx="1272.21" cy="276.31" r="84.2227" fill="#A7A1E7"/>
<path fill-rule="evenodd" clip-rule="evenodd" d="M1456.9 593.992H1087.51C1087.51 593.5 1087.51 593.007 1087.51 592.514C1087.51 490.508 1170.2 407.815 1272.21 407.815C1374.21 407.815 1456.9 490.508 1456.9 592.514C1456.9 593.007 1456.9 593.5 1456.9 593.992Z" fill="#A7A1E7"/>
<path d="M235.07 690.473C236.023 687.83 239.761 687.83 240.714 690.473L262.483 750.842C262.901 751.999 263.981 752.784 265.21 752.823L329.351 754.872C332.16 754.961 333.315 758.516 331.095 760.24L280.408 799.599C279.437 800.353 279.024 801.623 279.367 802.804L297.239 864.439C298.022 867.137 294.998 869.335 292.673 867.756L239.577 831.712C238.56 831.022 237.224 831.022 236.207 831.712L183.111 867.756C180.787 869.335 177.763 867.137 178.545 864.439L196.417 802.804C196.76 801.623 196.347 800.353 195.376 799.599L144.689 760.24C142.47 758.516 143.625 754.961 146.433 754.872L210.574 752.823C211.803 752.784 212.884 751.999 213.301 750.842L235.07 690.473Z" fill="white"/>
<path d="M1095.03 690.473C1095.98 687.83 1099.72 687.83 1100.67 690.473L1122.44 750.842C1122.86 751.999 1123.94 752.784 1125.17 752.823L1189.31 754.872C1192.12 754.961 1193.27 758.516 1191.05 760.24L1140.37 799.599C1139.4 800.353 1138.98 801.623 1139.32 802.804L1157.2 864.439C1157.98 867.137 1154.96 869.335 1152.63 867.756L1099.54 831.712C1098.52 831.022 1097.18 831.022 1096.17 831.712L1043.07 867.756C1040.74 869.335 1037.72 867.137 1038.5 864.439L1056.38 802.804C1056.72 801.623 1056.31 800.353 1055.33 799.599L1004.65 760.24C1002.43 758.516 1003.58 754.961 1006.39 754.872L1070.53 752.823C1071.76 752.784 1072.84 751.999 1073.26 750.842L1095.03 690.473Z" fill="white"/>
<path d="M1862.92 1276.81L1853.18 1741.78L1875.91 1749.57L1903.19 1287.85L1862.92 1276.81Z" fill="#1C85E8"/>
<path d="M1583.03 1249.54L1573.94 1714.51L1596.02 1722.3L1623.95 1260.58L1583.03 1249.54Z" fill="#1C85E8"/>
<path d="M1963.58 1219.02L1955.79 1617.1L1975.27 1623.59L1998.65 1228.11L1963.58 1219.02Z" fill="#1C85E8"/>
<path d="M1724.6 1195.64L1716.81 1593.72L1735.64 1600.21L1759.02 1204.73L1724.6 1195.64Z" fill="#1C85E8"/>
<path d="M1750.58 613.13C1757.72 607.285 1766.16 602.739 1889.55 607.934C1904.48 608.584 2007.09 613.13 2127.23 643.002C2151.26 648.846 2183.73 657.938 2186.97 676.121C2190.22 692.356 2168.14 708.591 2162.3 712.487C2067.48 787.168 2083.72 1222.91 1962.28 1312.53C1935.01 1332.66 1903.84 1340.45 1903.84 1340.45C1859.03 1351.49 1818.76 1336.56 1785 1332.66C1645.38 1314.48 1570.7 1327.47 1562.9 1298.89C1558.36 1281.36 1591.48 1259.28 1619.4 1240.45C1676.55 1201.48 1705.77 1208.63 1733.04 1189.14C1763.57 1167.06 1781.75 1119.01 1750.58 867.044C1730.45 703.396 1712.91 643.651 1750.58 613.13Z" fill="#5661AE"/>
<path d="M1712.91 605.337C1720.06 599.493 1728.5 594.947 1851.88 600.142C1866.82 600.791 1969.42 605.337 2089.56 635.209C2113.59 641.054 2146.06 650.146 2149.31 668.329C2152.55 684.563 2130.47 700.798 2124.63 705.344C2029.82 780.674 2045.4 1220.96 1923.97 1311.88C1896.69 1332.66 1865.52 1340.45 1865.52 1340.45C1820.71 1351.49 1780.45 1336.56 1746.68 1332.66C1607.06 1314.48 1532.38 1327.47 1524.59 1298.89C1520.04 1281.36 1553.16 1258.63 1581.09 1239.8C1638.88 1200.83 1667.46 1207.33 1694.73 1187.85C1725.25 1165.77 1743.43 1116.41 1712.26 861.849C1692.78 696.902 1675.25 636.508 1712.91 605.337Z" fill="#1C85E8"/>
<path d="M1351.2 1137.19L1341.46 1601.51L1364.19 1609.3L1391.46 1148.23L1351.2 1137.19Z" fill="#1C85E8"/>
<path d="M1071.31 1109.92L1062.22 1574.24L1084.3 1582.03L1112.22 1120.96L1071.31 1109.92Z" fill="#1C85E8"/>
<path d="M1451.86 1078.75L1444.06 1476.83L1463.55 1483.97L1486.92 1088.49L1451.86 1078.75Z" fill="#1C85E8"/>
<path d="M1212.88 1055.37L1204.44 1453.45L1223.92 1460.59L1247.3 1065.11L1212.88 1055.37Z" fill="#1C85E8"/>
<path d="M1238.85 472.861C1246 467.016 1254.44 462.471 1377.82 467.666C1392.76 468.315 1495.37 472.861 1615.5 502.733C1639.53 508.578 1672 517.669 1675.25 535.852C1678.5 552.087 1656.42 568.322 1650.57 572.218C1555.76 646.899 1571.99 1082.64 1450.56 1172.26C1423.28 1192.39 1392.11 1200.18 1392.11 1200.18C1347.3 1211.22 1307.04 1196.29 1273.27 1192.39C1133.65 1174.21 1058.97 1187.2 1051.18 1158.62C1046.63 1141.09 1079.75 1119.01 1107.68 1100.18C1164.82 1061.21 1194.05 1068.36 1221.32 1048.88C1251.84 1026.8 1270.03 978.74 1238.85 726.775C1218.72 563.127 1201.19 503.382 1238.85 472.861Z" fill="#5661AE"/>
<path d="M1201.19 465.717C1208.33 459.872 1216.77 455.327 1340.16 460.522C1355.1 461.171 1457.7 465.717 1577.84 495.589C1601.87 501.434 1634.34 510.525 1637.58 528.708C1640.83 544.943 1618.75 561.178 1612.91 565.724C1518.09 641.054 1533.68 1081.34 1412.24 1172.26C1384.97 1193.04 1353.8 1200.83 1353.8 1200.83C1308.99 1211.87 1268.73 1196.94 1234.96 1193.04C1095.34 1174.86 1020.66 1187.85 1012.86 1159.27C1008.32 1141.74 1041.44 1119.01 1069.36 1100.18C1127.16 1061.21 1155.73 1067.71 1183.01 1048.23C1213.53 1026.15 1231.71 976.792 1200.54 722.228C1181.06 556.632 1163.52 496.239 1201.19 465.717Z" fill="#1C85E8"/>
<path d="M1661.61 1158.62C1659.66 1172.26 1657.07 1187.2 1649.27 1196.94C1641.48 1206.68 1630.44 1209.93 1620.05 1211.22C1600.57 1213.82 1580.44 1212.52 1561.6 1206.68C1559.01 1206.03 1556.41 1205.38 1554.46 1202.78C1552.51 1200.18 1551.21 1196.29 1551.21 1192.39C1549.92 1182.65 1550.56 1172.26 1551.21 1162.52C1557.06 1048.23 1562.9 933.932 1569.4 818.989C1571.35 783.921 1573.29 741.711 1593.42 715.085C1613.56 688.46 1637.58 700.799 1648.62 732.619C1661.61 770.933 1662.91 821.586 1666.81 863.148C1670.7 909.255 1673.3 956.011 1673.3 1002.12C1672.65 1055.37 1669.4 1107.32 1661.61 1158.62Z" fill="#5661AE"/>
<path d="M1736.29 676.771C1803.18 693.006 1868.77 718.982 1931.11 752.75C1936.95 755.997 1943.45 759.894 1946.05 767.686C1947.99 772.882 1947.34 778.726 1946.7 783.921C1928.51 936.529 1909.03 1091.09 1858.38 1232.65C1853.18 1247.59 1846.69 1263.18 1835.65 1272.92C1824.61 1282.66 1809.67 1285.26 1796.04 1285.9C1766.16 1287.85 1735.64 1284.61 1708.37 1270.97C1681.09 1257.33 1655.77 1233.3 1642.78 1201.48C1635.63 1183.95 1632.39 1165.12 1628.49 1146.28C1605.76 1025.5 1583.68 903.41 1578.49 780.025C1577.84 757.296 1577.84 733.268 1586.93 713.137C1595.37 695.603 1610.31 682.615 1626.54 676.122C1642.78 669.628 1660.31 668.329 1677.2 668.978C1703.82 670.277 1729.8 675.472 1755.12 684.564" fill="#465393"/>
<path d="M1665.51 677.42C1655.12 728.073 1646.67 783.921 1642.13 844.964C1631.09 994.975 1646.67 1124.85 1668.1 1226.16C1673.95 1233.95 1683.04 1243.04 1694.73 1250.19C1737.59 1276.81 1787.59 1259.28 1796.04 1256.03C1794.74 1243.04 1793.44 1224.21 1792.14 1201.48C1789.54 1160.57 1781.75 1050.82 1781.1 965.102C1781.1 900.163 1785 807.949 1804.48 692.356C1757.72 687.161 1711.61 682.615 1665.51 677.42Z" fill="white"/>
<path d="M1703.82 452.08C1686.94 455.327 1670.7 463.769 1660.31 478.056C1654.47 486.498 1651.22 495.589 1648.62 505.33C1642.78 528.709 1642.13 552.087 1641.48 576.115C1640.83 601.441 1640.18 626.768 1642.78 652.094C1644.08 663.134 1646.03 674.823 1650.57 684.564C1662.91 709.89 1692.78 722.229 1720.71 725.476C1746.03 728.073 1771.36 724.177 1794.74 715.085C1801.88 711.838 1809.67 708.591 1814.87 702.097C1820.06 696.253 1822.66 687.811 1824.61 680.018C1839.55 625.469 1844.09 567.023 1835.65 511.175C1833.7 498.187 1830.45 483.9 1822.66 473.51C1814.87 463.12 1802.53 456.626 1790.19 453.379C1764.22 446.235 1729.8 446.235 1703.82 452.08Z" fill="#BC775C"/>
<path d="M1848.64 548.839C1853.83 543.644 1861.63 538.449 1868.77 541.696C1871.37 542.995 1873.31 544.943 1874.61 546.891C1879.81 554.034 1881.11 563.126 1880.46 571.568C1878.51 606.636 1852.53 639.105 1818.77 648.846C1821.36 648.197 1827.86 594.946 1828.51 589.751C1831.75 571.568 1835.65 561.827 1848.64 548.839Z" fill="#BC775C"/>
<path d="M1682.39 704.046C1690.18 701.449 1696.68 699.501 1703.82 697.552C1710.96 695.604 1717.46 693.656 1725.25 691.708C1718.76 696.254 1712.26 699.501 1704.47 702.098C1697.33 704.696 1689.53 705.345 1682.39 704.046C1682.39 704.696 1681.74 704.696 1682.39 704.046C1681.74 704.696 1681.74 704.046 1682.39 704.046Z" fill="#1F2D49"/>
<path d="M1662.51 634.659C1664.22 629.182 1663.12 623.961 1660.04 622.997C1656.95 622.033 1653.07 625.691 1651.35 631.168C1649.64 636.645 1650.75 641.866 1653.83 642.83C1656.91 643.794 1660.8 640.135 1662.51 634.659Z" fill="#1F2D49"/>
<path d="M1724.9 644.902C1727.94 643.82 1728.85 638.56 1726.93 633.154C1725 627.747 1720.98 624.241 1717.94 625.323C1714.9 626.405 1713.99 631.665 1715.91 637.072C1717.84 642.478 1721.86 645.984 1724.9 644.902Z" fill="#1F2D49"/>
<path d="M1646.03 603.389C1643.43 598.844 1643.43 595.597 1644.08 592.999C1644.73 589.752 1646.67 587.804 1649.27 586.505C1651.87 585.206 1654.47 585.206 1657.07 586.505C1659.66 587.804 1662.26 589.752 1664.21 594.298V594.947V595.597C1660.96 596.246 1657.71 596.895 1654.47 598.844C1651.22 600.142 1648.62 602.091 1646.03 604.688H1645.38L1646.03 603.389Z" fill="#1F2D49"/>
<path d="M1707.07 593.647C1709.02 589.101 1712.91 586.504 1716.16 585.205C1719.41 583.906 1723.3 583.906 1726.55 585.205C1729.8 586.504 1733.04 589.101 1734.34 592.348C1736.29 595.595 1736.94 599.492 1735.64 604.687V605.336C1735.64 605.336 1734.99 605.986 1734.99 605.336C1731.1 602.089 1727.2 598.842 1722 597.544C1717.46 595.595 1712.26 594.946 1707.07 594.946C1707.07 594.946 1706.42 594.946 1706.42 594.297C1707.07 594.297 1707.07 594.297 1707.07 593.647Z" fill="#1F2D49"/>
<path d="M1927.21 1026.15C1912.93 982.637 1899.94 948.219 1891.5 925.49C1868.77 864.447 1856.43 839.12 1863.57 803.403C1866.17 791.065 1872.01 757.296 1896.69 748.205C1926.56 737.165 1962.93 770.284 1972.67 779.376C2001.24 805.352 2006.44 833.925 2025.92 913.151C2031.77 937.828 2042.16 978.74 2055.79 1031.34C2012.93 1029.39 1970.07 1027.45 1927.21 1026.15Z" fill="#5661AE"/>
<path d="M1529.13 1640.47H1449.26V1789.19H1529.13V1640.47Z" fill="#93523E"/>
<path d="M1538.23 1841.79C1464.19 1841.79 1390.16 1841.79 1316.13 1841.79C1313.53 1839.84 1307.69 1835.29 1304.44 1826.2C1300.55 1815.16 1304.44 1805.42 1308.34 1799.58C1315.48 1788.54 1327.17 1788.54 1347.95 1782.04C1349.25 1781.4 1380.42 1768.41 1442.11 1742.43C1444.06 1741.78 1449.26 1739.18 1455.1 1740.48C1464.84 1741.78 1470.04 1749.57 1473.94 1753.47C1490.17 1768.41 1519.39 1736.59 1534.98 1746.98C1544.72 1752.82 1544.07 1770.36 1543.42 1801.53C1542.12 1818.41 1540.17 1832.7 1538.23 1841.79Z" fill="#465393"/>
<path fill-rule="evenodd" clip-rule="evenodd" d="M1386.71 1757.21C1387.87 1755.67 1390.07 1755.35 1391.61 1756.51C1394.35 1758.56 1398.56 1762.06 1402.1 1767.02L1402.12 1767.05L1402.14 1767.07C1409.89 1778.35 1409.97 1789.7 1409.2 1794.31C1408.88 1796.21 1407.08 1797.5 1405.17 1797.19C1403.27 1796.87 1401.98 1795.06 1402.3 1793.16C1402.83 1789.97 1402.9 1780.56 1396.39 1771.06C1393.44 1766.95 1389.87 1763.96 1387.41 1762.11C1385.87 1760.95 1385.55 1758.76 1386.71 1757.21Z" fill="white"/>
<path fill-rule="evenodd" clip-rule="evenodd" d="M1401.65 1748.77C1402.81 1747.23 1405 1746.91 1406.55 1748.07C1409.28 1750.12 1413.5 1753.62 1417.04 1758.58L1417.06 1758.6L1417.08 1758.63C1424.83 1769.91 1424.91 1781.26 1424.14 1785.87C1423.82 1787.77 1422.02 1789.06 1420.11 1788.74C1418.2 1788.42 1416.91 1786.62 1417.23 1784.71C1417.76 1781.53 1417.84 1772.12 1411.32 1762.62C1408.38 1758.5 1404.81 1755.52 1402.35 1753.67C1400.8 1752.51 1400.49 1750.32 1401.65 1748.77Z" fill="white"/>
<path fill-rule="evenodd" clip-rule="evenodd" d="M1369.18 1762.41C1370.34 1760.86 1372.53 1760.55 1374.08 1761.71C1376.81 1763.76 1381.03 1767.26 1384.57 1772.22L1384.59 1772.24L1384.61 1772.27C1392.36 1783.55 1392.44 1794.9 1391.67 1799.5C1391.35 1801.41 1389.55 1802.7 1387.64 1802.38C1385.73 1802.06 1384.44 1800.26 1384.76 1798.35C1385.29 1795.17 1385.37 1785.75 1378.85 1776.26C1375.91 1772.14 1372.34 1769.15 1369.88 1767.31C1368.33 1766.15 1368.02 1763.96 1369.18 1762.41Z" fill="white"/>
<path d="M1588.23 1637.88H1508.35V1786.59H1588.23V1637.88Z" fill="#BC775C"/>
<path d="M1597.32 1864.52C1523.29 1864.52 1449.26 1864.52 1375.23 1864.52C1372.63 1862.57 1366.78 1858.02 1363.54 1848.93C1359.64 1837.89 1363.54 1828.15 1367.43 1822.31C1374.58 1811.27 1386.27 1811.27 1407.05 1804.77C1408.35 1804.12 1439.52 1791.14 1501.21 1765.16C1503.16 1764.51 1508.35 1761.91 1514.2 1763.21C1523.94 1764.51 1529.13 1772.3 1533.03 1776.2C1549.26 1791.14 1578.49 1759.32 1594.07 1769.71C1603.81 1775.55 1603.16 1793.08 1602.52 1824.26C1600.57 1841.14 1598.62 1854.78 1597.32 1864.52Z" fill="#5661AE"/>
<path fill-rule="evenodd" clip-rule="evenodd" d="M1438.02 1789.03C1439.18 1787.49 1441.37 1787.17 1442.92 1788.33C1445.65 1790.38 1449.86 1793.88 1453.41 1798.84L1453.42 1798.87L1453.44 1798.89C1461.2 1810.17 1461.27 1821.52 1460.5 1826.13C1460.19 1828.03 1458.38 1829.32 1456.48 1829C1454.57 1828.69 1453.28 1826.88 1453.6 1824.98C1454.13 1821.79 1454.21 1812.38 1447.69 1802.88C1444.74 1798.77 1441.17 1795.78 1438.72 1793.93C1437.17 1792.77 1436.86 1790.58 1438.02 1789.03Z" fill="white"/>
<path fill-rule="evenodd" clip-rule="evenodd" d="M1452.95 1781.24C1454.11 1779.7 1456.31 1779.38 1457.85 1780.54C1460.59 1782.59 1464.8 1786.09 1468.34 1791.05L1468.36 1791.07L1468.38 1791.1C1476.13 1802.38 1476.21 1813.73 1475.44 1818.34C1475.12 1820.24 1473.32 1821.53 1471.41 1821.21C1469.51 1820.89 1468.22 1819.09 1468.54 1817.18C1469.07 1814 1469.14 1804.59 1462.63 1795.09C1459.68 1790.97 1456.11 1787.98 1453.65 1786.14C1452.11 1784.98 1451.79 1782.79 1452.95 1781.24Z" fill="white"/>
<path fill-rule="evenodd" clip-rule="evenodd" d="M1420.48 1794.88C1421.64 1793.33 1423.84 1793.02 1425.38 1794.18C1428.12 1796.23 1432.33 1799.73 1435.87 1804.69L1435.89 1804.71L1435.91 1804.74C1443.66 1816.02 1443.74 1827.37 1442.97 1831.97C1442.65 1833.88 1440.85 1835.17 1438.94 1834.85C1437.04 1834.53 1435.75 1832.73 1436.07 1830.82C1436.6 1827.64 1436.67 1818.22 1430.16 1808.73C1427.21 1804.61 1423.64 1801.62 1421.18 1799.78C1419.64 1798.62 1419.32 1796.43 1420.48 1794.88Z" fill="white"/>
<path d="M1421.98 1715.16L1371.98 1320.97H1558.36L1524.59 1715.16H1421.98Z" fill="#0D1B33"/>
<path d="M1499.91 1727.49L1449.91 1333.31H1636.28L1602.52 1727.49H1499.91Z" fill="#1F2D49"/>
<path d="M1814.87 1309.28L1412.89 1369.68C1394.06 1372.28 1376.53 1359.29 1373.93 1340.45L1364.19 1277.46C1361.59 1258.63 1374.58 1241.1 1393.41 1238.5L1795.39 1178.11C1814.22 1175.51 1831.75 1188.5 1834.35 1207.33L1844.09 1270.32C1846.69 1289.15 1833.7 1306.69 1814.87 1309.28Z" fill="#0D1B33"/>
<path d="M1896.04 1346.3L1496.02 1419.68C1477.18 1422.93 1459.65 1410.59 1455.75 1391.76L1444.06 1328.76C1440.82 1309.93 1453.15 1292.4 1471.99 1288.5L1872.02 1215.12C1890.85 1211.87 1908.38 1224.21 1912.28 1243.04L1923.97 1306.04C1927.21 1324.87 1914.88 1343.05 1896.04 1346.3Z" fill="#1F2D49"/>
<path d="M1681.09 639.755C1680.44 642.352 1681.09 644.95 1681.09 648.197C1681.09 649.496 1680.44 651.444 1679.79 652.743C1679.14 654.042 1677.85 654.691 1676.55 655.99C1673.95 657.289 1672 658.587 1670.05 660.536C1668.75 662.484 1667.46 665.081 1667.46 667.03C1667.46 669.627 1668.11 671.575 1669.4 673.523C1670.7 675.472 1672.65 676.121 1674.6 676.77C1679.14 678.069 1685.64 676.121 1690.83 678.069C1684.99 678.719 1680.44 681.316 1673.95 680.667C1670.7 680.017 1667.46 678.719 1665.51 675.472C1663.56 672.874 1662.91 668.978 1663.56 665.731C1664.21 659.237 1670.05 654.042 1675.25 652.093C1677.85 650.795 1679.79 649.496 1679.79 646.898C1680.44 644.95 1679.79 642.352 1681.09 639.755C1681.09 639.105 1681.09 639.105 1681.09 639.755C1681.09 639.105 1681.09 639.755 1681.09 639.755Z" fill="#1F2D49"/>
<path d="M1842.14 490.394C1833.05 465.068 1810.97 445.586 1785.65 437.144C1777.85 434.546 1770.06 433.247 1761.62 431.949C1757.07 413.116 1747.33 396.881 1727.85 389.738C1722.65 387.79 1716.16 386.491 1710.96 387.79C1705.77 389.088 1699.93 392.985 1697.98 398.18C1696.03 404.025 1697.98 410.519 1700.57 416.363C1677.85 412.467 1652.52 412.467 1632.39 424.156C1625.89 428.052 1619.4 433.897 1616.8 441.04C1612.91 452.729 1620.7 466.367 1633.04 468.964C1621.35 474.809 1610.31 483.9 1604.46 496.239C1598.62 508.577 1599.92 524.163 1609.01 533.904C1616.8 542.346 1628.49 544.944 1639.53 543.645C1640.83 544.294 1641.48 544.944 1642.78 544.944C1685.64 557.931 1733.04 544.944 1776.55 556.633C1783.7 558.581 1790.84 561.178 1796.69 566.374C1807.72 576.115 1810.32 591.7 1810.32 606.636C1810.32 615.078 1810.32 625.469 1818.12 629.365C1823.96 632.612 1831.75 629.365 1835.65 624.17C1839.55 618.975 1840.84 612.481 1842.14 605.987C1846.04 583.907 1847.34 562.477 1847.99 540.398C1847.99 522.864 1847.34 505.98 1842.14 490.394Z" fill="#1F2D49"/>
<path d="M1166.77 1215.12C1166.77 1196.94 1166.12 1178.75 1160.93 1161.22C1155.73 1143.69 1145.34 1127.45 1129.11 1119.66C1123.26 1116.41 1116.12 1115.11 1108.97 1116.41C1101.83 1118.36 1096.64 1123.56 1091.44 1128.75C1067.41 1154.73 1051.18 1186.55 1036.24 1218.37C984.291 1333.31 947.275 1454.75 914.805 1576.83C873.244 1591.77 828.436 1595.67 784.277 1591.12C803.109 1624.24 836.878 1647.62 874.543 1654.11C892.076 1657.36 923.247 1669.05 927.144 1674.89C931.04 1680.74 937.534 1684.63 944.028 1685.93C946.626 1686.58 949.223 1687.23 951.821 1686.58C955.068 1685.28 957.665 1682.69 959.614 1679.44C971.303 1658.01 963.51 1631.38 970.004 1608.01C973.251 1597.61 979.095 1588.52 984.291 1579.43C1040.79 1491.11 1095.34 1400.85 1138.85 1306.04C1153.13 1275.51 1167.42 1248.24 1166.77 1215.12Z" fill="#93523E"/>
<path d="M848.567 1589.82C849.216 1594.37 849.865 1601.51 847.917 1610.6C845.32 1621.64 840.125 1628.79 836.878 1632.68C844.67 1636.58 852.463 1640.48 860.905 1643.72C864.152 1638.53 868.049 1630.09 869.347 1619.05C871.296 1604.76 868.049 1593.72 866.1 1587.87C860.256 1588.52 854.411 1589.17 848.567 1589.82Z" fill="#694FFD"/>
<path d="M817.396 1591.77C824.539 1613.2 835.579 1622.94 841.423 1627.49C862.204 1643.07 892.076 1641.77 908.961 1641.77C918.701 1641.77 929.092 1640.47 944.677 1643.07C954.418 1645.02 962.86 1646.97 968.056 1648.92C968.056 1655.41 966.757 1667.1 960.912 1679.44C954.418 1693.08 945.327 1701.52 940.132 1706.06C932.988 1700.87 922.598 1693.08 908.961 1685.28C897.921 1678.79 888.18 1674.24 874.543 1667.1C819.993 1641.12 814.149 1642.42 803.109 1632.03C795.316 1624.89 784.926 1611.9 778.432 1588.52C791.42 1590.47 804.408 1591.12 817.396 1591.77Z" fill="#694FFD"/>
<path d="M1194.7 1212.52C1183.01 1198.89 1171.32 1184.6 1156.38 1174.86C1141.44 1165.12 1122.61 1159.27 1105.08 1163.17C1098.58 1164.47 1092.09 1167.72 1087.54 1173.56C1083 1179.4 1082.35 1186.55 1081.7 1193.69C1079.75 1228.76 1087.54 1263.83 1096.64 1298.24C1129.76 1420.33 1179.11 1537.22 1231.71 1652.16C1208.98 1690.48 1177.16 1721.65 1140.15 1746.33C1175.86 1759.96 1216.77 1756.07 1249.89 1737.24C1265.48 1728.14 1297.3 1717.75 1303.79 1719.7C1310.29 1721.65 1318.08 1720.35 1323.93 1717.1C1326.52 1715.81 1328.47 1714.51 1330.42 1712.56C1332.37 1709.31 1332.37 1706.06 1331.72 1702.17C1327.17 1678.14 1303.79 1662.56 1294.05 1640.48C1289.51 1630.73 1288.21 1619.7 1286.91 1609.3C1273.92 1505.4 1258.34 1401.5 1231.06 1300.19C1222.62 1267.72 1216.13 1237.85 1194.7 1212.52Z" fill="#BC775C"/>
<path d="M1188.85 1704.77C1192.1 1708.01 1197.29 1713.21 1201.19 1721C1206.38 1730.74 1207.03 1739.83 1207.03 1745.03C1215.48 1743.08 1223.92 1740.48 1232.36 1738.53C1231.71 1732.69 1229.11 1723.6 1223.27 1713.86C1215.48 1701.52 1206.38 1695.02 1201.19 1691.78C1196.64 1695.67 1192.75 1700.22 1188.85 1704.77Z" fill="#694FFD"/>
<path d="M1166.12 1725.55C1184.95 1737.24 1199.89 1737.88 1207.68 1737.88C1233.66 1735.94 1255.74 1717.1 1268.73 1706.06C1276.52 1699.57 1283.66 1691.78 1297.3 1683.98C1305.74 1678.79 1313.53 1675.54 1318.73 1673.59C1322.63 1678.79 1329.12 1688.53 1332.37 1701.52C1336.26 1716.45 1334.96 1728.79 1333.67 1735.29C1325.22 1735.94 1312.24 1736.59 1296.65 1739.18C1283.66 1741.13 1273.92 1743.73 1258.34 1747.63C1199.89 1762.56 1196.64 1767.11 1181.06 1765.81C1170.02 1765.16 1153.78 1761.91 1134.3 1748.28C1144.69 1741.13 1155.08 1733.34 1166.12 1725.55Z" fill="#694FFD"/>
<path d="M1063.52 1158.62C1089.49 1141.09 1124.56 1119.66 1167.42 1098.88C1177.16 1094.33 1220.02 1073.55 1281.71 1054.07C1378.47 1023.55 1416.79 1028.74 1436.27 1032.64C1464.19 1038.48 1477.18 1048.23 1480.43 1050.82C1513.55 1076.15 1528.48 1127.45 1511.6 1165.12C1503.16 1183.95 1490.17 1193.04 1463.54 1210.57C1451.21 1218.37 1409 1245.64 1319.38 1265.77C1296.65 1270.97 1266.13 1276.81 1228.46 1280.71C1223.27 1263.82 1211.58 1235.9 1186.25 1210.57C1139.5 1163.17 1079.1 1159.27 1063.52 1158.62Z" fill="#2A1C7C"/>
<path d="M1436.92 707.942C1449.91 715.735 1474.58 721.58 1501.21 731.97C1536.93 746.257 1539.52 747.555 1549.91 754.699C1592.77 783.272 1536.93 894.319 1513.55 1092.38C1506.4 1155.38 1507.7 1180.7 1484.33 1208.63C1437.57 1264.47 1332.37 1278.11 1282.36 1234.6C1260.28 1215.77 1258.34 1193.69 1246 1141.09C1208.33 980.689 1153.78 870.291 1170.02 769.635C1171.97 757.946 1175.86 738.464 1190.8 722.878C1210.93 702.098 1239.5 698.851 1281.71 698.201C1320.03 697.552 1373.28 698.851 1436.92 707.942Z" fill="#EF6A77"/>
<path d="M1244.05 407.271C1240.15 397.531 1239.5 385.841 1243.4 375.451C1247.3 363.113 1258.99 352.073 1271.97 352.722C1269.38 339.734 1277.82 327.396 1286.91 317.655C1296.65 306.615 1308.34 295.575 1322.63 291.03C1336.91 285.834 1354.45 287.783 1364.19 298.822C1375.88 283.886 1396.66 275.444 1415.49 278.691C1434.32 281.938 1451.21 296.225 1457.7 314.408C1462.25 311.161 1467.44 307.914 1472.64 307.264C1478.48 306.615 1484.97 309.213 1486.92 314.408C1488.87 320.252 1485.62 326.097 1482.38 330.643C1491.47 331.292 1498.61 336.487 1505.11 342.981C1514.85 352.722 1521.99 365.71 1523.29 379.347C1524.59 392.985 1518.74 407.921 1507.7 415.714C1512.25 421.558 1512.9 430 1510.95 437.144C1509 444.287 1503.81 450.781 1497.96 455.976C1488.87 464.418 1477.83 471.562 1465.49 474.159C1455.1 476.757 1444.71 476.757 1434.32 475.458C1413.54 473.51 1393.41 469.614 1373.28 465.068C1358.99 461.821 1344.71 459.223 1330.42 455.976C1318.73 453.379 1305.74 452.08 1294.7 446.885C1274.57 438.443 1252.49 428.702 1244.05 407.271Z" fill="#1F2D49"/>
<path d="M1394.71 663.782C1403.8 682.615 1419.39 697.551 1437.57 707.941C1440.82 709.889 1444.71 711.838 1445.36 715.085C1446.01 717.033 1445.36 719.63 1444.71 721.579C1438.22 743.658 1429.13 766.387 1410.29 778.725C1399.25 786.518 1384.97 789.116 1371.33 789.765C1337.56 791.064 1303.79 778.076 1279.77 754.048C1267.43 741.71 1258.34 722.228 1268.08 708.591C1277.17 694.953 1297.3 696.252 1311.59 687.81C1326.52 679.368 1333.02 661.185 1336.26 644.95C1340.16 626.117 1342.11 607.285 1341.46 587.803C1341.46 585.855 1341.46 583.257 1342.76 581.309C1344.06 579.361 1346 578.711 1347.95 578.062C1357.04 575.464 1366.14 578.711 1373.93 584.556C1388.22 595.596 1388.86 603.388 1387.57 619.623C1384.97 634.559 1387.57 650.145 1394.71 663.782Z" fill="#BC775C"/>
<path d="M1333.67 405.973C1316.78 409.22 1300.55 417.662 1290.16 431.949C1284.31 440.391 1281.06 449.483 1278.47 459.224C1272.62 482.602 1271.97 505.98 1271.32 530.008C1270.67 555.334 1270.02 580.661 1272.62 605.987C1273.92 617.027 1275.87 628.716 1280.42 638.457C1292.75 663.783 1322.63 676.122 1350.55 679.369C1375.88 681.967 1401.2 678.07 1424.58 668.979C1431.72 665.732 1439.52 662.485 1444.71 655.991C1449.91 650.146 1452.51 641.704 1454.45 633.911C1469.39 579.362 1473.94 520.916 1465.49 465.068C1463.54 452.08 1460.3 437.794 1452.51 427.403C1444.71 417.013 1432.37 410.519 1420.04 407.272C1394.71 400.778 1360.29 400.778 1333.67 405.973Z" fill="#BC775C"/>
<path d="M1479.13 502.733C1484.33 497.538 1492.12 492.343 1499.26 495.59C1501.86 496.889 1503.81 498.837 1505.11 500.785C1510.3 507.928 1511.6 517.02 1510.95 525.462C1509 560.529 1483.03 592.999 1449.26 602.74C1451.86 602.091 1458.35 548.84 1459 543.645C1461.6 526.111 1465.49 515.721 1479.13 502.733Z" fill="#BC775C"/>
<path d="M1339.51 665.731C1347.3 663.134 1353.8 661.185 1360.94 659.237C1368.08 657.289 1374.58 655.341 1382.37 653.393C1375.88 657.938 1369.38 661.185 1361.59 663.783C1355.1 666.381 1347.3 667.03 1339.51 665.731C1339.51 666.381 1339.51 666.381 1339.51 665.731C1339.51 666.381 1339.51 665.731 1339.51 665.731Z" fill="#1F2D49"/>
<path d="M1316.23 597.111C1317.94 591.634 1316.83 586.413 1313.75 585.449C1310.67 584.485 1306.78 588.144 1305.07 593.62C1303.36 599.097 1304.47 604.318 1307.55 605.282C1310.63 606.246 1314.51 602.587 1316.23 597.111Z" fill="#1F2D49"/>
<path d="M1387.74 605.951C1390.78 604.869 1391.69 599.609 1389.76 594.202C1387.84 588.796 1383.81 585.29 1380.77 586.372C1377.73 587.454 1376.83 592.714 1378.75 598.121C1380.67 603.527 1384.7 607.033 1387.74 605.951Z" fill="#1F2D49"/>
<path d="M1340.16 599.492C1340.81 609.883 1340.81 620.273 1338.21 630.663C1337.56 633.261 1336.91 635.209 1336.91 637.157C1336.91 639.105 1337.56 639.755 1339.51 641.054C1343.41 643.651 1347.95 646.249 1351.85 649.496C1351.85 649.496 1351.85 649.496 1351.85 650.145C1346.65 648.846 1342.11 647.548 1336.91 644.95C1335.61 644.301 1334.32 643.651 1333.02 641.703C1331.72 640.404 1331.72 638.456 1331.72 636.508C1331.72 633.261 1333.67 630.663 1334.32 628.715C1336.26 624.169 1336.91 618.974 1337.56 613.779C1338.86 609.883 1339.51 604.687 1340.16 599.492C1339.51 599.492 1339.51 599.492 1340.16 599.492Z" fill="#1F2D49"/>
<path d="M1301.85 563.126C1301.2 560.528 1301.85 557.93 1303.14 555.982C1304.44 554.034 1305.74 552.735 1307.69 551.436C1309.64 550.787 1312.24 550.138 1314.18 550.138C1316.13 550.138 1318.73 551.436 1320.68 553.385C1320.68 553.385 1320.68 553.385 1320.68 554.034C1317.43 554.034 1313.53 555.333 1310.94 556.632C1307.69 558.58 1304.44 561.177 1301.85 563.126C1302.49 563.775 1302.49 563.775 1301.85 563.126C1301.85 563.775 1301.85 563.775 1301.85 563.126Z" fill="#1F2D49"/>
<path d="M1370.03 555.984C1372.63 553.386 1375.23 552.087 1378.47 552.087C1381.72 551.438 1384.97 552.087 1387.57 553.386C1390.16 554.685 1393.41 555.984 1395.36 558.581C1397.31 561.179 1398.61 563.776 1398.61 567.023C1394.71 563.127 1390.81 560.529 1385.62 558.581C1380.42 557.282 1375.23 556.633 1370.03 555.984C1370.03 556.633 1370.03 556.633 1370.03 555.984C1370.03 556.633 1370.03 556.633 1370.03 555.984Z" fill="#1F2D49"/>
<path d="M1307.04 410.518C1290.16 424.156 1279.12 444.287 1271.97 465.068C1264.83 485.848 1262.23 507.928 1260.93 530.007C1260.93 533.254 1260.93 537.8 1263.53 539.748C1266.13 541.696 1269.38 540.398 1271.97 539.748C1297.3 531.306 1321.33 517.019 1347.95 516.37C1367.43 515.721 1386.27 522.864 1403.15 531.956C1420.04 541.047 1435.62 553.386 1452.51 563.776C1454.45 565.075 1455.75 565.724 1457.7 565.724C1462.25 565.724 1464.84 560.529 1466.14 555.983C1468.09 548.19 1468.74 541.047 1469.39 533.254C1470.69 518.318 1471.34 503.382 1471.34 488.446C1471.34 468.315 1470.04 446.885 1459 429.351C1447.31 410.518 1427.18 400.128 1406.4 393.634C1375.23 384.543 1333.67 388.439 1307.04 410.518Z" fill="#1F2D49"/>
<path d="M1261.58 498.187C1262.23 502.733 1263.53 507.928 1267.43 510.525C1273.92 513.772 1280.42 507.928 1285.61 503.382C1306.39 482.601 1333.02 467.016 1361.59 459.872C1364.84 459.223 1368.08 458.574 1370.68 458.574C1374.58 459.223 1378.47 461.821 1381.72 464.418C1410.29 486.498 1437.57 509.876 1464.19 534.553C1465.49 535.202 1466.14 536.501 1467.44 536.501C1470.69 536.501 1471.99 533.254 1472.64 530.007C1476.53 509.226 1480.43 486.498 1470.04 467.665C1464.84 458.574 1457.05 451.43 1447.96 446.235C1425.88 432.598 1398.61 430.65 1371.98 428.701C1346 426.104 1322.63 431.299 1297.3 437.144C1285.61 439.741 1272.62 445.586 1266.78 455.976C1260.93 467.665 1260.28 484.549 1261.58 498.187Z" fill="#694FFD"/>
<path d="M938.833 972.245L2211 1155.37L1936.95 1348.25L544.649 1147.58L938.833 972.245Z" fill="#5CA4E6"/>
<path d="M544.649 1147.58V1120.31L602.445 1124.21L544.649 1147.58Z" fill="#5CA4E6"/>
<path d="M2211 1155.37L2210.35 1128.1L2157.1 1157.32L2211 1155.37Z" fill="#5CA4E6"/>
<path d="M1764.22 1108.62L1912.93 1966.47L1957.09 1972.96L1842.14 1114.46L1764.22 1108.62Z" fill="#DFEAFF"/>
<path d="M1988.91 1127.45L2107.1 1805.42L2141.51 1810.62L2051.25 1132L1988.91 1127.45Z" fill="#DFEAFF"/>
<path d="M1023.25 961.856L638.163 1742.43L594.653 1736.59L945.977 944.972L1023.25 961.856Z" fill="#DFEAFF"/>
<path d="M1071.96 1011.86L768.041 1629.43L733.623 1624.24L1011.56 998.871L1071.96 1011.86Z" fill="#DFEAFF"/>
<path d="M938.183 944.972L2210.35 1128.1L1936.31 1320.97L544 1120.31L938.183 944.972Z" fill="#DFEAFF"/>
<path d="M1517.44 1054.72L1299.9 1015.11L1351.85 1147.58L1517.44 1054.72Z" fill="#5CA4E6"/>
<path d="M1366.14 1151.48L1537.58 1070.31C1537.58 1070.31 1532.38 1054.72 1512.9 1054.07C1494.07 1052.77 1344.71 1126.15 1344.71 1126.15L1366.14 1151.48Z" fill="#D1E8F7"/>
<path d="M1066.11 844.316C1067.41 844.316 1321.98 874.838 1321.98 874.838L1380.42 1143.69L1133 1114.46L1066.11 844.316Z" fill="#D1E8F7"/>
<path d="M1032.35 839.769C1033.64 839.769 1299.9 871.589 1299.9 871.589L1365.49 1154.73L1103.78 1110.57L1032.35 839.769Z" fill="#F4F8FF"/>
<path d="M1948.64 1020.95C1914.23 1028.74 1881.76 1043.68 1850.59 1060.56C1832.4 1070.31 1813.57 1081.35 1793.44 1081.99C1777.85 1082.64 1762.27 1076.8 1747.33 1078.75C1731.75 1080.7 1717.46 1089.14 1707.07 1101.48C1697.33 1113.81 1691.48 1128.75 1688.89 1144.34C1703.17 1143.69 1718.11 1143.04 1732.4 1141.74C1759.02 1140.44 1786.3 1138.49 1812.92 1137.19C1851.23 1135.25 1890.2 1126.8 1927.86 1120.31C1968.13 1113.82 2007.74 1108.62 2047.35 1097.58C2053.85 1095.63 2060.99 1093.03 2064.89 1087.19C2067.48 1083.29 2067.48 1078.1 2066.83 1072.9C2066.18 1059.92 2062.94 1045.63 2057.09 1033.29C2051.9 1022.9 2046.05 1021.6 2035.01 1019C2007.09 1013.16 1977.22 1014.46 1948.64 1020.95Z" fill="#BC775C"/>
<path d="M1690.18 1134.6C1694.73 1131.35 1701.87 1127.45 1710.96 1125.5C1724.6 1121.61 1736.94 1122.91 1743.43 1124.21" fill="#93523E"/>
<path d="M1697.33 1113.81C1701.87 1110.57 1709.02 1106.67 1718.11 1104.72C1731.75 1100.83 1744.08 1102.13 1750.58 1103.42" fill="#93523E"/>
<path d="M1446.01 966.402C1420.04 967.051 1399.9 974.195 1389.51 991.728C1383.02 1002.77 1375.23 1016.41 1379.77 1027.45C1381.72 1032.64 1386.92 1037.84 1416.14 1045.63C1456.4 1056.67 1477.18 1061.86 1490.17 1050.17C1501.21 1039.78 1499.91 1022.9 1499.91 1015.11C1497.96 983.936 1476.53 965.753 1446.01 966.402Z" fill="#BC775C"/>
<path d="M1392.11 1037.83C1393.41 1031.34 1396.01 1022.9 1401.2 1014.46C1409 1001.47 1418.74 994.325 1424.58 991.078" fill="#93523E"/>
<path d="M1419.39 1046.93C1420.69 1040.43 1423.28 1031.99 1428.48 1023.55C1436.27 1010.56 1446.01 1003.42 1451.86 1000.17" fill="#93523E"/>
<path d="M1448.61 1054.07C1449.91 1047.58 1452.51 1039.13 1457.7 1030.69C1465.49 1017.7 1475.23 1010.56 1481.08 1007.31" fill="#93523E"/>
<ellipse cx="1748.63" cy="659.238" rx="22.7289" ry="9.74094" fill="#A24C46"/>
<ellipse cx="1410.94" cy="620.274" rx="22.7289" ry="9.74094" fill="#A24C46"/>
<ellipse cx="1300.55" cy="620.274" rx="16.2349" ry="9.74094" fill="#A24C46"/>
</svg>
