<svg width="1037" height="2119" viewBox="0 0 1037 2119" fill="none" xmlns="http://www.w3.org/2000/svg">
<path d="M645 1780H527V2003H645V1780Z" fill="#FACCB4"/>
<path d="M837 1777H719V1999H837V1777Z" fill="#FACCB4"/>
<path d="M672 963L709.99 1856H844.071L891 963H672Z" fill="#1B0C44"/>
<path d="M480 963L515.667 1856H647.188L694 963H480Z" fill="#1B0C44"/>
<path d="M0 243.238C3.3375 237.651 11.125 236.533 17.8 239.886C23.3625 242.12 27.8125 247.707 32.2625 252.176C52.2875 275.641 73.425 299.105 87.8875 327.039C87.8875 329.274 89 331.508 89 333.743C89 335.978 87.8875 338.213 85.6625 340.447C78.9875 348.269 72.3125 357.208 64.525 348.269C56.7375 338.213 52.2875 322.57 45.6125 311.396C32.2625 287.932 16.6875 265.585 0 243.238Z" fill="#E3AE96"/>
<path d="M64.4958 438.409C72.3303 448.447 81.284 458.484 92.4762 464.06C113.741 472.982 138.364 465.175 159.629 456.253C167.463 452.908 175.298 449.562 177.536 441.755C178.656 437.294 177.536 431.718 176.417 427.257C168.583 400.491 155.152 374.84 137.245 352.535C127.172 340.268 114.86 328 98.0722 328C85.7609 328 74.5687 334.691 64.4958 342.498C54.4229 350.305 30.9194 367.034 32.0386 381.532C32.0386 389.339 40.9923 402.722 45.4692 409.413C51.0652 419.45 57.7805 429.487 64.4958 438.409Z" fill="#E3AE96"/>
<path d="M73.8737 317.021C77.236 312.567 80.5982 307 86.2019 307C89.5642 307 92.9264 307 95.1679 308.113C108.617 313.68 118.704 324.814 126.549 337.062C133.273 347.082 139.998 358.216 138.877 370.464C138.877 390.505 122.066 406.093 104.134 413.887C103.013 415 100.772 415 99.6508 415C97.4094 415 96.2886 412.773 95.1679 411.66C88.4434 403.866 81.7189 396.072 74.9945 388.278C69.3908 398.299 54.8211 399.412 44.7344 394.959C30.1647 388.278 18.9573 376.031 31.2855 363.784C46.9759 348.196 60.4248 333.722 73.8737 317.021Z" fill="#FACCB4"/>
<path d="M61.4824 360.576C63.7182 357.223 65.9539 353.87 69.3075 351.635C70.4254 350.517 72.6611 349.399 73.779 348.281C74.8969 347.164 79.3684 346.046 82.722 347.164C87.1934 347.164 89.4292 348.281 90.5471 349.399L95.0185 352.752C98.3722 354.988 100.608 357.223 103.962 360.576C115.14 371.754 124.083 384.049 127.437 399.697C119.612 387.402 109.551 376.225 98.3722 366.165C92.7828 361.694 87.1934 356.106 81.6041 352.752C78.2505 351.635 74.8969 353.87 71.5433 354.988C68.1896 357.223 64.836 358.341 61.4824 360.576C62.6003 360.576 61.4824 360.576 61.4824 360.576Z" fill="#E3AE96"/>
<path d="M77.1328 334.868C79.3686 331.515 81.6043 328.162 84.9579 325.927C86.0758 324.809 88.3115 323.691 89.4294 322.573C90.5473 321.456 95.0187 320.338 98.3724 321.456C101.726 322.573 103.962 323.691 105.08 324.809L109.551 328.162C112.905 330.398 115.14 332.633 118.494 335.986C129.673 347.164 138.616 359.459 141.969 375.107C134.144 362.812 124.083 351.635 112.905 341.575C107.315 337.104 101.726 331.515 96.1366 328.162C92.783 327.044 89.4294 329.28 86.0758 330.398C83.84 331.515 80.4864 332.633 77.1328 334.868Z" fill="#E3AE96"/>
<path d="M494.085 428.656C491.846 427.537 486.25 427.537 464.985 448.785C426.931 485.687 406.785 521.472 389.997 547.192C376.566 568.439 356.421 597.514 329.559 632.18C278.075 559.493 226.591 486.806 175.107 413C125.861 445.43 147.126 430.892 99 464.44C168.392 581.858 237.783 700.395 307.175 817.813C309.413 822.286 316.129 823.404 319.486 820.049C383.282 764.136 447.077 708.223 510.873 652.309C519.827 531.536 518.707 434.247 494.085 428.656Z" fill="#C1E5FF"/>
<path d="M474 433.976L629.27 387H717.517L913 442.923V1029H474V433.976Z" fill="#E2F3FF"/>
<path d="M859.642 898.207C842.874 933.975 833.931 971.978 827.224 1009.98C823.871 1032.34 819.399 1055.81 805.985 1074.81C795.924 1088.22 780.274 1098.28 771.331 1112.81C762.388 1127.34 760.152 1146.34 763.506 1163.11C766.859 1179.88 776.92 1195.53 788.099 1208.94C797.042 1195.53 807.103 1183.23 816.046 1169.82C832.814 1145.23 850.699 1120.64 867.468 1097.16C892.061 1062.51 911.065 1023.39 931.186 985.391C953.544 945.152 975.901 908.267 992.669 865.793C996.023 859.087 998.258 851.263 996.023 843.438C993.787 837.85 989.315 834.497 984.844 832.261C972.547 824.437 959.133 816.613 944.601 813.26C932.304 811.024 926.715 814.377 916.654 823.319C892.061 842.321 873.057 869.146 859.642 898.207Z" fill="#FACCB4"/>
<path d="M781.392 1200C781.392 1193.29 783.627 1185.47 786.981 1175.41C793.688 1160.88 802.631 1150.82 808.221 1146.35" fill="#E3AE96"/>
<path d="M767.977 1179.88C767.977 1173.17 770.213 1165.35 773.566 1155.29C780.274 1140.76 789.217 1130.7 794.806 1126.23" fill="#E3AE96"/>
<path d="M875.164 432.084C893.064 433.202 910.964 451.093 914.32 454.447C932.22 472.338 937.814 493.583 938.933 499.174C949.002 536.073 985.921 640.063 1036.27 783.188C1037.38 787.66 1037.38 792.133 1035.15 796.606C976.971 911.776 918.795 1025.83 860.62 1141C802.444 1114.16 828.176 1126.46 770 1098.51C812.513 998.993 855.026 899.477 897.539 799.96C863.976 712.743 830.413 625.526 796.85 539.428C810.275 472.338 846.076 429.848 875.164 432.084Z" fill="#C1E5FF"/>
<path d="M586.242 335.812C579.534 359.246 572.826 382.681 565 407.232C595.186 431.783 625.373 457.449 656.677 482C685.745 452.986 715.932 423.971 745 394.957C734.938 372.638 723.758 350.319 713.696 328C671.211 330.232 628.727 332.464 586.242 335.812Z" fill="#E3AE96"/>
<path d="M792.593 185.907C791.475 180.32 790.358 174.734 784.772 173.617C780.302 172.5 776.95 174.734 773.598 176.969C770.246 179.203 768.012 181.438 765.777 184.789C760.19 127.812 737.844 74.1854 686.447 38.4346C650.693 12.7387 619.407 13.8559 581.418 33.9657C546.781 51.8411 487.563 85.3575 473.038 124.46C468.569 136.749 469.686 151.273 471.921 164.679C474.155 180.32 477.507 194.844 480.859 210.485C474.155 207.134 467.451 204.899 462.982 206.016C442.87 211.602 461.865 250.705 468.569 262.994C479.742 283.104 496.502 298.745 517.731 308.8C521.083 315.503 524.435 322.206 527.787 328.91C534.491 342.316 543.429 355.723 555.72 363.543C570.245 372.481 587.005 373.598 603.765 374.715C637.285 375.832 669.687 373.598 702.09 369.129C712.145 368.012 723.319 365.778 731.14 360.191C743.431 351.254 749.017 335.613 752.369 319.972C753.486 313.269 755.721 306.565 756.838 298.745C757.956 298.745 760.19 297.628 761.308 295.393C787.006 266.346 798.179 225.009 792.593 185.907Z" fill="#FACCB4"/>
<path d="M515.646 272C513.416 260.824 511.187 248.53 508.957 237.353C503.383 211.648 497.808 184.825 506.727 159.119C517.876 124.472 551.322 104.355 582.539 85.3553C586.998 89.8258 591.458 94.2963 595.917 98.7669C598.147 92.0611 600.377 86.4729 602.607 79.7671C609.296 84.2376 617.1 88.7082 624.904 90.9434C628.249 84.2376 632.708 77.5318 636.053 70.826C641.627 77.5318 647.202 84.2376 651.661 89.8258C652.776 80.8847 663.925 76.4142 672.844 78.6495C681.763 80.8847 688.452 88.7082 694.026 95.4139C709.635 114.414 726.358 132.296 736.392 154.649C748.655 181.472 752 210.53 755.345 240.706C767.608 191.53 779.872 139.002 762.034 92.0611C753.115 67.4731 735.277 47.3557 716.324 30.5912C702.945 19.4149 688.452 8.23857 672.844 3.76803C647.202 -4.0554 619.33 1.53277 593.688 9.3562C552.437 22.7678 511.187 45.1205 486.659 80.8847C442.064 142.355 465.477 225.059 515.646 272Z" fill="#030400"/>
<path d="M603.65 254.391C611.475 256.627 619.3 258.862 626.007 259.98C632.715 261.098 638.304 262.215 643.893 262.215C648.365 262.215 653.954 259.98 659.543 256.627C664.015 253.274 669.604 249.92 671.84 242.096C671.84 242.096 671.84 242.096 672.958 242.096C674.076 249.92 670.722 257.744 665.133 263.333C659.543 268.922 651.718 272.275 643.893 273.393C628.243 273.393 613.711 265.569 603.65 254.391C602.532 254.391 602.532 254.391 603.65 254.391C602.532 254.391 603.65 254.391 603.65 254.391Z" fill="#E3AE96"/>
<path d="M600.297 314.749C619.301 311.396 637.187 312.513 653.955 308.042C661.78 305.807 669.605 303.571 677.43 299.101C685.255 294.63 691.962 290.159 698.669 282.334C698.669 282.334 698.669 282.334 699.787 282.334C691.962 300.218 674.076 310.278 656.19 314.749C637.187 320.337 618.183 318.102 600.297 314.749Z" fill="#E3AE96"/>
<path d="M583.582 208.4C585.074 198.637 581.83 190.042 576.338 189.203C570.845 188.364 565.184 195.599 563.692 205.362C562.2 215.125 565.444 223.72 570.936 224.559C576.429 225.398 582.091 218.163 583.582 208.4Z" fill="#1F2D49"/>
<path d="M691.692 209.813C696.586 207.182 696.76 197.996 692.08 189.298C687.401 180.599 679.641 175.681 674.747 178.313C669.854 180.945 669.68 190.13 674.359 198.828C679.039 207.527 686.799 212.445 691.692 209.813Z" fill="#1F2D49"/>
<path d="M543.285 169.443C541.049 163.854 542.167 159.383 544.402 154.912C546.638 150.441 549.992 147.088 553.345 144.853C557.817 142.617 562.288 141.5 566.76 141.5C571.231 141.5 575.703 142.617 580.174 147.088C580.174 147.088 580.174 147.088 580.174 148.206C573.467 148.206 565.642 150.441 560.053 154.912C552.228 158.266 547.756 163.854 543.285 169.443C544.402 170.561 543.285 170.561 543.285 169.443C543.285 170.561 543.285 170.561 543.285 169.443Z" fill="#1F2D49"/>
<path d="M656.19 132.557C658.426 128.087 662.897 124.733 667.369 123.616C671.84 121.38 676.312 121.38 680.783 122.498C685.255 123.616 689.726 125.851 693.08 129.204C696.433 132.557 698.669 137.028 698.669 142.617C693.08 138.146 686.372 133.675 678.547 132.557C670.722 131.44 662.897 131.44 656.19 132.557C656.19 133.675 655.072 133.675 656.19 132.557C655.072 133.675 655.072 132.557 656.19 132.557Z" fill="#1F2D49"/>
<path d="M656.5 596C663.956 596 670 590.18 670 583C670 575.82 663.956 570 656.5 570C649.044 570 643 575.82 643 583C643 590.18 649.044 596 656.5 596Z" fill="#C1E5FF"/>
<path d="M656.5 708C663.956 708 670 701.956 670 694.5C670 687.044 663.956 681 656.5 681C649.044 681 643 687.044 643 694.5C643 701.956 649.044 708 656.5 708Z" fill="#C1E5FF"/>
<path d="M656.5 819C663.956 819 670 812.956 670 805.5C670 798.044 663.956 792 656.5 792C649.044 792 643 798.044 643 805.5C643 812.956 649.044 819 656.5 819Z" fill="#C1E5FF"/>
<path d="M656.5 923C663.956 923 670 916.956 670 909.5C670 902.044 663.956 896 656.5 896C649.044 896 643 902.044 643 909.5C643 916.956 649.044 923 656.5 923Z" fill="#C1E5FF"/>
<path d="M562 403C564.238 403 656 481.485 656 481.485L588.857 551L562 403Z" fill="#C1E5FF"/>
<path d="M656 481.483L748 390L735.659 554L656 481.483Z" fill="#C1E5FF"/>
<path d="M927.726 2118.77C858.991 2118.77 790.257 2118.77 721.522 2118.77C717.756 2117.83 712.106 2115.95 708.34 2111.24C703.632 2105.58 703.632 2098.99 702.691 2096.16C700.808 2067.89 699.866 2051.87 703.632 1999.1C703.632 1993.45 704.574 1984.96 711.165 1980.25C716.814 1975.54 725.288 1978.37 729.996 1979.31C745.061 1983.08 765.776 1985.91 778.958 1984.96C794.023 1984.96 810.03 1981.2 831.686 1975.54C834.511 1974.6 841.102 1973.66 848.634 1974.6C857.108 1975.54 863.699 1979.31 869.349 1984.02C910.778 2014.18 923.018 2048.1 923.018 2048.1C934.317 2079.2 929.609 2106.52 927.726 2118.77Z" fill="#525DC1"/>
<path fill-rule="evenodd" clip-rule="evenodd" d="M890.871 2002.64L891.005 2002.64C893.214 2002.64 895.005 2004.43 895.005 2006.64C895.005 2008.85 893.214 2010.64 891.005 2010.64C885.324 2010.64 877.457 2010.66 869.673 2013.26L869.59 2013.29L869.507 2013.31C850.756 2018.67 839.223 2030.29 834.942 2036.29C833.658 2038.09 831.16 2038.5 829.362 2037.22C827.564 2035.94 827.147 2033.44 828.43 2031.64C833.557 2024.46 846.478 2011.6 867.225 2005.64C876.288 2002.64 885.261 2002.64 890.871 2002.64Z" fill="white"/>
<path fill-rule="evenodd" clip-rule="evenodd" d="M904.995 2016.77L905.128 2016.77C907.338 2016.77 909.128 2018.56 909.128 2020.77C909.128 2022.98 907.338 2024.77 905.128 2024.77C899.448 2024.77 891.581 2024.8 883.796 2027.39L883.714 2027.42L883.63 2027.45C864.879 2032.81 853.347 2044.42 849.065 2050.42C847.782 2052.22 845.284 2052.64 843.486 2051.36C841.688 2050.07 841.27 2047.57 842.554 2045.78C847.681 2038.59 860.602 2025.73 881.348 2019.78C890.412 2016.77 899.384 2016.77 904.995 2016.77Z" fill="white"/>
<path fill-rule="evenodd" clip-rule="evenodd" d="M875.806 1987.56L875.939 1987.56C878.149 1987.56 879.939 1989.35 879.939 1991.56C879.939 1993.77 878.149 1995.56 875.939 1995.56C870.259 1995.56 862.392 1995.59 854.608 1998.18L854.525 1998.21L854.441 1998.23C835.69 2003.6 824.158 2015.21 819.876 2021.21C818.593 2023.01 816.095 2023.43 814.297 2022.14C812.499 2020.86 812.081 2018.36 813.365 2016.56C818.492 2009.38 831.413 1996.52 852.159 1990.57C861.223 1987.56 870.195 1987.56 875.806 1987.56Z" fill="white"/>
<path d="M434.305 2118.77C503.04 2118.77 571.774 2118.77 640.509 2118.77C644.275 2117.83 649.925 2115.95 653.691 2111.24C658.399 2105.58 658.399 2098.99 659.341 2096.16C661.224 2067.89 662.165 2051.87 658.399 1999.1C658.399 1993.45 657.457 1984.96 650.866 1980.25C645.217 1975.54 636.743 1978.37 632.035 1979.31C616.97 1983.08 596.255 1985.91 583.073 1984.96C568.008 1984.96 552.001 1981.2 530.345 1975.54C527.521 1974.6 520.93 1973.66 513.397 1974.6C504.923 1975.54 498.332 1979.31 492.683 1984.02C451.253 2014.18 439.013 2048.1 439.013 2048.1C427.714 2079.2 432.422 2106.52 434.305 2118.77Z" fill="#525DC1"/>
<path fill-rule="evenodd" clip-rule="evenodd" d="M471.16 2002.64L471.026 2002.64C468.817 2002.64 467.026 2004.43 467.026 2006.64C467.026 2008.85 468.817 2010.64 471.026 2010.64C476.707 2010.64 484.574 2010.66 492.358 2013.26L492.441 2013.29L492.524 2013.31C511.275 2018.67 522.808 2030.29 527.09 2036.29C528.373 2038.09 530.871 2038.5 532.669 2037.22C534.467 2035.94 534.885 2033.44 533.601 2031.64C528.474 2024.46 515.553 2011.6 494.807 2005.64C485.743 2002.64 476.771 2002.64 471.16 2002.64Z" fill="white"/>
<path fill-rule="evenodd" clip-rule="evenodd" d="M457.036 2016.77L456.903 2016.77C454.694 2016.77 452.903 2018.56 452.903 2020.77C452.903 2022.98 454.694 2024.77 456.903 2024.77C462.583 2024.77 470.451 2024.8 478.235 2027.39L478.317 2027.42L478.401 2027.45C497.152 2032.81 508.684 2044.42 512.966 2050.42C514.249 2052.22 516.747 2052.64 518.546 2051.36C520.344 2050.07 520.761 2047.57 519.478 2045.78C514.351 2038.59 501.43 2025.73 480.683 2019.78C471.619 2016.77 462.647 2016.77 457.036 2016.77Z" fill="white"/>
<path fill-rule="evenodd" clip-rule="evenodd" d="M486.225 1987.56L486.092 1987.56C483.883 1987.56 482.092 1989.35 482.092 1991.56C482.092 1993.77 483.883 1995.56 486.092 1995.56C491.772 1995.56 499.64 1995.59 507.424 1998.18L507.506 1998.21L507.59 1998.23C526.341 2003.6 537.873 2015.21 542.155 2021.21C543.438 2023.01 545.936 2023.43 547.735 2022.14C549.533 2020.86 549.95 2018.36 548.667 2016.56C543.54 2009.38 530.619 1996.52 509.872 1990.57C500.808 1987.56 491.836 1987.56 486.225 1987.56Z" fill="white"/>
<ellipse cx="557.467" cy="250.317" rx="28.715" ry="6.93122" transform="rotate(-6.15906 557.467 250.317)" fill="#FCBA9F"/>
<ellipse cx="712.513" cy="235.534" rx="28.715" ry="6.93122" transform="rotate(-6.15906 712.513 235.534)" fill="#FCBA9F"/>
</svg>
