<svg width="3099" height="1334" viewBox="0 0 3099 1334" fill="none" xmlns="http://www.w3.org/2000/svg">
<g clip-path="url(#clip0_96_131)">
<rect width="3099" height="1334" fill="#FFF7E1"/>
<path fill-rule="evenodd" clip-rule="evenodd" d="M780.774 784.381C781.76 785.2 781.896 786.664 781.077 787.65C761.157 811.635 752.24 852.048 749.363 893.322C746.494 934.468 749.658 975.918 753.458 1001.48C753.647 1002.75 752.771 1003.93 751.503 1004.12C750.235 1004.31 749.055 1003.43 748.866 1002.16C745.026 976.329 741.835 934.538 744.731 892.999C747.618 851.589 756.586 809.872 777.505 784.684C778.324 783.698 779.788 783.562 780.774 784.381Z" fill="#2A1C7C"/>
<path fill-rule="evenodd" clip-rule="evenodd" d="M760.39 754.968C761.51 755.593 761.911 757.007 761.286 758.126C741.553 793.48 734.455 839.136 733.685 882.041C732.916 924.907 738.468 964.752 743.812 988.284C744.096 989.534 743.312 990.777 742.062 991.061C740.812 991.345 739.569 990.562 739.285 989.312C733.864 965.441 728.268 925.223 729.044 881.957C729.819 838.731 736.959 792.186 757.232 755.864C757.857 754.744 759.271 754.343 760.39 754.968Z" fill="#2A1C7C"/>
<path fill-rule="evenodd" clip-rule="evenodd" d="M737.017 752.799C738.184 753.329 738.7 754.705 738.169 755.872C720.187 795.433 718.061 851.847 720.533 899.669C721.766 923.52 724.136 945.125 726.199 961.262C727.172 968.88 728.077 975.276 728.763 980.122L728.882 980.966C729.231 983.43 729.517 985.468 729.717 987.013C729.907 988.491 730.043 989.691 730.043 990.361C730.043 991.643 729.004 992.682 727.722 992.682C726.44 992.682 725.4 991.643 725.4 990.361C725.4 990.054 725.316 989.187 725.112 987.607C724.918 986.096 724.635 984.087 724.286 981.616L724.166 980.77C723.481 975.924 722.572 969.501 721.594 961.851C719.522 945.643 717.138 923.915 715.897 899.908C713.421 852.014 715.462 794.61 733.943 753.951C734.473 752.784 735.85 752.268 737.017 752.799Z" fill="#2A1C7C"/>
<path fill-rule="evenodd" clip-rule="evenodd" d="M703.048 725.095C704.269 724.702 705.576 725.372 705.969 726.593C719.233 767.781 743.71 878.375 735.767 992.086C735.678 993.364 734.568 994.329 733.29 994.239C732.011 994.15 731.047 993.041 731.136 991.762C739.028 878.775 714.679 768.783 701.55 728.016C701.157 726.796 701.828 725.488 703.048 725.095Z" fill="#2A1C7C"/>
<path fill-rule="evenodd" clip-rule="evenodd" d="M681.772 786.234C682.885 785.598 684.303 785.985 684.939 787.098C699.776 813.062 725.921 888.997 713.355 987.01C713.192 988.281 712.029 989.18 710.757 989.017C709.486 988.854 708.587 987.691 708.75 986.419C721.188 889.405 695.242 814.486 680.908 789.401C680.272 788.288 680.659 786.87 681.772 786.234Z" fill="#2A1C7C"/>
<path fill-rule="evenodd" clip-rule="evenodd" d="M673.317 744.854C674.269 743.996 675.737 744.071 676.596 745.022C701.131 772.205 748.782 856.269 745.431 976.882C745.396 978.163 744.328 979.173 743.047 979.138C741.765 979.102 740.755 978.034 740.791 976.753C744.108 857.333 696.885 774.43 673.149 748.133C672.29 747.181 672.366 745.713 673.317 744.854Z" fill="#2A1C7C"/>
<path fill-rule="evenodd" clip-rule="evenodd" d="M648.787 698.017C649.715 697.132 651.184 697.166 652.069 698.093C688.805 736.578 762.305 846.751 763.143 980.449C763.151 981.731 762.118 982.777 760.836 982.785C759.554 982.793 758.509 981.76 758.501 980.478C757.672 848.306 684.902 739.212 648.711 701.298C647.826 700.371 647.86 698.902 648.787 698.017Z" fill="#2A1C7C"/>
<path d="M686.901 696.573C692.63 701.438 699.446 706.569 705.441 710.344C695.072 700.881 686.857 687.325 684.348 674.011C688.966 673.987 694.407 675.317 699.58 677.738C680.795 669.679 664.964 654.261 655.638 635.816C668.428 640.099 680.951 645.471 693.474 650.844C680.929 640.848 668.384 630.851 657.193 620.032C648.467 613.279 640.273 604.348 639.408 593.745C639.097 585.587 642.05 578.227 645.825 572.223C653.108 561.305 663.389 552.274 675.868 548.399C678.311 547.842 682.108 546.462 684.017 548.084C685.927 549.705 685.394 551.884 686.216 553.24C688.214 573.356 688.036 592.94 684.327 612.815C699.471 598.046 698.539 573.572 709.863 555.56C715.903 568.583 716.524 584.899 713.06 599.061C709.596 613.223 703.955 626.853 698.049 641.572C708.841 625.738 718.278 610.728 729.069 594.895C734.532 600.85 732.4 609.565 729.713 615.835C725.427 628.641 720.053 641.181 713.592 653.456C718.188 648.807 723.873 644.425 728.203 640.866C729.379 659.626 724.849 678.146 715.967 695.601C719.497 695.31 722.206 693.663 725.182 690.927C725.781 702.62 725.292 714.046 723.449 726.295C720.518 738.278 713.812 756.265 700.978 742.735C692.496 730.269 688.322 709.62 686.901 696.573Z" fill="#94B9FF"/>
<path d="M655.774 771.051C654.654 771.051 653.533 769.93 652.413 771.051C651.293 771.051 651.293 772.173 650.173 773.294C649.053 777.78 646.813 783.388 646.813 787.874C643.453 783.388 640.092 780.023 635.612 776.659C617.69 792.36 605.369 814.789 602.009 838.341C604.249 838.341 607.61 837.219 609.85 837.219C603.129 847.313 602.009 859.649 603.129 871.986C604.249 884.322 607.61 895.537 609.85 907.874C612.09 921.331 612.09 934.789 609.85 947.126C615.45 946.004 621.051 943.761 625.531 940.397C640.092 930.303 646.813 912.36 650.173 894.416C653.533 877.593 653.533 859.649 658.014 841.705C662.494 823.761 669.215 806.939 683.776 796.846C686.016 795.724 688.256 793.481 689.377 791.238C696.097 781.145 681.536 783.388 677.055 782.266C670.335 782.266 663.614 774.416 655.774 771.051Z" fill="#94B9FF"/>
<path d="M809.712 770.517C810.832 770.517 811.952 769.396 813.072 770.517C814.192 770.517 814.192 771.639 815.312 772.76C816.433 777.246 818.673 782.854 818.673 787.34C822.033 782.854 825.393 779.489 829.874 776.125C847.795 791.826 860.116 814.256 863.477 837.807C861.236 837.807 857.876 836.686 855.636 836.686C862.356 846.779 863.477 859.116 862.356 871.452C861.236 883.788 857.876 895.003 855.636 907.34C853.396 920.798 853.396 934.256 855.636 946.592C850.035 945.471 844.435 943.228 839.955 939.863C825.393 929.77 818.673 911.826 815.312 893.882C811.952 877.06 811.952 859.116 807.472 841.172C802.991 823.228 796.271 806.405 781.71 796.312C779.469 795.19 777.229 792.947 776.109 790.704C769.388 780.611 783.95 782.854 788.43 781.732C795.151 781.732 801.871 773.882 809.712 770.517Z" fill="#94B9FF"/>
<path d="M626.278 715.845C627.398 721.452 629.638 728.181 631.878 733.789C621.798 729.303 609.476 731.546 600.516 738.275C591.555 745.004 585.954 755.097 583.714 766.312C604.996 760.705 626.278 755.097 648.68 752.854C654.28 751.733 659.881 751.733 665.481 751.733C671.082 751.733 676.682 756.219 682.283 756.219C690.123 756.219 686.763 747.247 682.283 742.761C668.842 727.06 646.44 716.966 626.278 715.845Z" fill="#94B9FF"/>
<path d="M740.479 765.099C766.793 699.953 798.813 635.048 849.662 587.449C854.259 582.801 858.855 578.152 859.1 572.439C842.513 569.537 824.572 567.457 807.985 564.554C806.897 564.288 805.809 564.022 804.454 564.845C803.1 565.668 802.833 566.758 802.567 567.847C799.636 579.83 802.145 593.144 803.832 605.103C799.169 595.88 794.773 585.568 790.11 576.346C782.56 588.354 772.013 598.474 761.732 607.504C758.756 610.24 755.781 612.976 753.894 615.978C752.006 618.98 752.028 623.604 752.05 628.227C753.493 645.899 757.379 663.013 766.149 679.013C753.604 669.017 745.655 654.372 744.767 639.146C739.616 641.349 736.929 647.62 736.951 652.243C736.706 657.956 737.816 662.846 740.015 668.002C743.878 680.493 748.563 694.339 752.426 706.829C747.763 697.607 743.101 688.384 739.792 678.339C734.196 701.216 730.776 724.625 730.887 747.743C730.931 756.99 732.063 766.504 736.993 774.637C737.237 768.924 737.792 771.369 740.479 765.099Z" fill="#94B9FF"/>
<path d="M913.943 678.219C915.031 678.485 916.385 677.662 917.74 676.838C919.094 676.015 919.361 674.926 919.894 672.747C920.96 668.389 917.674 662.967 913.854 659.724C910.035 656.481 904.595 655.15 899.977 655.175C880.126 651.474 858.388 650.774 838.026 653.875C835.583 654.433 833.141 654.99 831.786 655.813C829.077 657.459 828.545 659.638 826.657 662.64C822.349 670.823 818.041 679.006 814.822 687.454C812.623 682.298 811.78 676.319 812.024 670.606C792.528 684.31 778.495 703.969 771.81 726.579C770.434 722.779 770.145 719.245 769.857 715.71C770.434 722.779 761.796 734.521 760.197 741.057C759.398 744.325 751.071 764.225 752.714 766.936C758.176 772.89 779.515 746.937 783.845 743.378C807.382 722.581 834.472 706.116 864.027 693.718C880.569 687.373 896.845 682.118 913.943 678.219Z" fill="#94B9FF"/>
<path d="M663.388 659.171C664.508 650.199 664.508 640.105 660.028 632.255C648.827 644.591 653.308 665.9 640.986 677.115C643.227 661.414 644.347 644.591 643.227 628.89C643.227 625.526 642.107 621.04 638.746 621.04C630.906 634.498 624.185 647.956 616.344 661.414C612.984 651.32 610.744 641.227 607.384 632.255C607.384 631.133 606.264 628.89 605.143 627.769C602.903 626.647 601.783 627.769 599.543 628.89C580.501 638.984 562.58 649.077 543.538 659.171C542.418 659.171 542.418 660.292 541.298 660.292C540.178 662.535 542.418 664.778 544.658 665.9C560.34 673.75 577.141 677.115 595.063 674.872C600.663 673.75 606.263 672.629 611.864 673.75C617.464 674.872 623.065 677.115 625.305 682.722C611.864 687.208 596.183 688.329 582.741 683.844C591.702 695.058 605.143 701.787 618.585 705.152C627.545 707.395 649.947 716.367 657.788 707.395C661.148 702.909 661.148 691.694 662.268 684.965C662.268 675.993 663.388 668.143 663.388 659.171Z" fill="#94B9FF"/>
<rect x="568.087" y="966.92" width="326.086" height="41.6724" rx="10" fill="#EF6A77"/>
<rect x="613.927" y="987.757" width="235.449" height="228.156" rx="5" fill="#EF6A77"/>
<path fill-rule="evenodd" clip-rule="evenodd" d="M2445.77 784.381C2446.76 785.2 2446.9 786.664 2446.08 787.65C2426.16 811.635 2417.24 852.048 2414.36 893.322C2411.49 934.468 2414.66 975.918 2418.46 1001.48C2418.65 1002.75 2417.77 1003.93 2416.5 1004.12C2415.24 1004.31 2414.05 1003.43 2413.87 1002.16C2410.03 976.329 2406.84 934.538 2409.73 892.999C2412.62 851.589 2421.59 809.872 2442.51 784.684C2443.32 783.698 2444.79 783.562 2445.77 784.381Z" fill="#2A1C7C"/>
<path fill-rule="evenodd" clip-rule="evenodd" d="M2425.39 754.968C2426.51 755.593 2426.91 757.007 2426.29 758.126C2406.55 793.48 2399.46 839.136 2398.69 882.041C2397.92 924.907 2403.47 964.752 2408.81 988.284C2409.1 989.534 2408.31 990.777 2407.06 991.061C2405.81 991.345 2404.57 990.562 2404.28 989.312C2398.86 965.441 2393.27 925.223 2394.04 881.957C2394.82 838.731 2401.96 792.186 2422.23 755.864C2422.86 754.744 2424.27 754.343 2425.39 754.968Z" fill="#2A1C7C"/>
<path fill-rule="evenodd" clip-rule="evenodd" d="M2402.02 752.799C2403.18 753.329 2403.7 754.705 2403.17 755.872C2385.19 795.433 2383.06 851.847 2385.53 899.669C2386.77 923.52 2389.14 945.125 2391.2 961.262C2392.17 968.88 2393.08 975.276 2393.76 980.122L2393.88 980.966C2394.23 983.43 2394.52 985.468 2394.72 987.013C2394.91 988.491 2395.04 989.691 2395.04 990.361C2395.04 991.643 2394 992.682 2392.72 992.682C2391.44 992.682 2390.4 991.643 2390.4 990.361C2390.4 990.054 2390.32 989.187 2390.11 987.607C2389.92 986.096 2389.64 984.087 2389.29 981.616L2389.17 980.77C2388.48 975.924 2387.57 969.501 2386.59 961.851C2384.52 945.643 2382.14 923.915 2380.9 899.908C2378.42 852.014 2380.46 794.61 2398.94 753.951C2399.47 752.784 2400.85 752.268 2402.02 752.799Z" fill="#2A1C7C"/>
<path fill-rule="evenodd" clip-rule="evenodd" d="M2368.05 725.095C2369.27 724.702 2370.58 725.372 2370.97 726.593C2384.23 767.781 2408.71 878.375 2400.77 992.086C2400.68 993.364 2399.57 994.329 2398.29 994.239C2397.01 994.15 2396.05 993.041 2396.14 991.762C2404.03 878.775 2379.68 768.783 2366.55 728.016C2366.16 726.796 2366.83 725.488 2368.05 725.095Z" fill="#2A1C7C"/>
<path fill-rule="evenodd" clip-rule="evenodd" d="M2346.77 786.234C2347.89 785.598 2349.3 785.985 2349.94 787.098C2364.78 813.062 2390.92 888.997 2378.35 987.01C2378.19 988.281 2377.03 989.18 2375.76 989.017C2374.49 988.854 2373.59 987.691 2373.75 986.419C2386.19 889.405 2360.24 814.486 2345.91 789.401C2345.27 788.288 2345.66 786.87 2346.77 786.234Z" fill="#2A1C7C"/>
<path fill-rule="evenodd" clip-rule="evenodd" d="M2338.32 744.854C2339.27 743.996 2340.74 744.071 2341.6 745.022C2366.13 772.205 2413.78 856.269 2410.43 976.882C2410.4 978.163 2409.33 979.173 2408.05 979.138C2406.77 979.102 2405.76 978.034 2405.79 976.753C2409.11 857.333 2361.88 774.43 2338.15 748.133C2337.29 747.181 2337.37 745.713 2338.32 744.854Z" fill="#2A1C7C"/>
<path fill-rule="evenodd" clip-rule="evenodd" d="M2313.79 698.017C2314.71 697.132 2316.18 697.166 2317.07 698.093C2353.81 736.578 2427.3 846.751 2428.14 980.449C2428.15 981.731 2427.12 982.777 2425.84 982.785C2424.55 982.793 2423.51 981.76 2423.5 980.478C2422.67 848.306 2349.9 739.212 2313.71 701.298C2312.83 700.371 2312.86 698.902 2313.79 698.017Z" fill="#2A1C7C"/>
<path d="M2351.9 696.573C2357.63 701.438 2364.45 706.569 2370.44 710.344C2360.07 700.881 2351.86 687.325 2349.35 674.011C2353.97 673.987 2359.41 675.317 2364.58 677.738C2345.8 669.679 2329.96 654.261 2320.64 635.816C2333.43 640.099 2345.95 645.471 2358.47 650.844C2345.93 640.848 2333.38 630.851 2322.19 620.032C2313.47 613.279 2305.27 604.348 2304.41 593.745C2304.1 585.587 2307.05 578.227 2310.82 572.223C2318.11 561.305 2328.39 552.274 2340.87 548.399C2343.31 547.842 2347.11 546.462 2349.02 548.084C2350.93 549.705 2350.39 551.884 2351.22 553.24C2353.21 573.356 2353.04 592.94 2349.33 612.815C2364.47 598.046 2363.54 573.572 2374.86 555.56C2380.9 568.583 2381.52 584.899 2378.06 599.061C2374.6 613.223 2368.96 626.853 2363.05 641.572C2373.84 625.738 2383.28 610.728 2394.07 594.895C2399.53 600.85 2397.4 609.565 2394.71 615.835C2390.43 628.641 2385.05 641.181 2378.59 653.456C2383.19 648.807 2388.87 644.425 2393.2 640.866C2394.38 659.626 2389.85 678.146 2380.97 695.601C2384.5 695.31 2387.21 693.663 2390.18 690.927C2390.78 702.62 2390.29 714.046 2388.45 726.295C2385.52 738.278 2378.81 756.265 2365.98 742.735C2357.5 730.269 2353.32 709.62 2351.9 696.573Z" fill="#94B9FF"/>
<path d="M2320.77 771.051C2319.65 771.051 2318.53 769.93 2317.41 771.051C2316.29 771.051 2316.29 772.173 2315.17 773.294C2314.05 777.78 2311.81 783.388 2311.81 787.874C2308.45 783.388 2305.09 780.023 2300.61 776.659C2282.69 792.36 2270.37 814.789 2267.01 838.341C2269.25 838.341 2272.61 837.219 2274.85 837.219C2268.13 847.313 2267.01 859.649 2268.13 871.986C2269.25 884.322 2272.61 895.537 2274.85 907.874C2277.09 921.331 2277.09 934.789 2274.85 947.126C2280.45 946.004 2286.05 943.761 2290.53 940.397C2305.09 930.303 2311.81 912.36 2315.17 894.416C2318.53 877.593 2318.53 859.649 2323.01 841.705C2327.49 823.761 2334.21 806.939 2348.78 796.846C2351.02 795.724 2353.26 793.481 2354.38 791.238C2361.1 781.145 2346.54 783.388 2342.06 782.266C2335.33 782.266 2328.61 774.416 2320.77 771.051Z" fill="#94B9FF"/>
<path d="M2474.71 770.517C2475.83 770.517 2476.95 769.396 2478.07 770.517C2479.19 770.517 2479.19 771.639 2480.31 772.76C2481.43 777.246 2483.67 782.854 2483.67 787.34C2487.03 782.854 2490.39 779.489 2494.87 776.125C2512.8 791.826 2525.12 814.256 2528.48 837.807C2526.24 837.807 2522.88 836.686 2520.64 836.686C2527.36 846.779 2528.48 859.116 2527.36 871.452C2526.24 883.788 2522.88 895.003 2520.64 907.34C2518.4 920.798 2518.4 934.256 2520.64 946.592C2515.04 945.471 2509.43 943.228 2504.95 939.863C2490.39 929.77 2483.67 911.826 2480.31 893.882C2476.95 877.06 2476.95 859.116 2472.47 841.172C2467.99 823.228 2461.27 806.405 2446.71 796.312C2444.47 795.19 2442.23 792.947 2441.11 790.704C2434.39 780.611 2448.95 782.854 2453.43 781.732C2460.15 781.732 2466.87 773.882 2474.71 770.517Z" fill="#94B9FF"/>
<path d="M2291.28 715.845C2292.4 721.452 2294.64 728.181 2296.88 733.789C2286.8 729.303 2274.48 731.546 2265.52 738.275C2256.55 745.004 2250.95 755.097 2248.71 766.312C2270 760.705 2291.28 755.097 2313.68 752.854C2319.28 751.733 2324.88 751.733 2330.48 751.733C2336.08 751.733 2341.68 756.219 2347.28 756.219C2355.12 756.219 2351.76 747.247 2347.28 742.761C2333.84 727.06 2311.44 716.966 2291.28 715.845Z" fill="#94B9FF"/>
<path d="M2405.48 765.099C2431.79 699.953 2463.81 635.048 2514.66 587.449C2519.26 582.801 2523.86 578.152 2524.1 572.439C2507.51 569.537 2489.57 567.457 2472.98 564.554C2471.9 564.288 2470.81 564.022 2469.45 564.845C2468.1 565.668 2467.83 566.758 2467.57 567.847C2464.64 579.83 2467.14 593.144 2468.83 605.103C2464.17 595.88 2459.77 585.568 2455.11 576.346C2447.56 588.354 2437.01 598.474 2426.73 607.504C2423.76 610.24 2420.78 612.976 2418.89 615.978C2417.01 618.98 2417.03 623.604 2417.05 628.227C2418.49 645.899 2422.38 663.013 2431.15 679.013C2418.6 669.017 2410.65 654.372 2409.77 639.146C2404.62 641.349 2401.93 647.62 2401.95 652.243C2401.71 657.956 2402.82 662.846 2405.01 668.002C2408.88 680.493 2413.56 694.339 2417.43 706.829C2412.76 697.607 2408.1 688.384 2404.79 678.339C2399.2 701.216 2395.78 724.625 2395.89 747.743C2395.93 756.99 2397.06 766.504 2401.99 774.637C2402.24 768.924 2402.79 771.369 2405.48 765.099Z" fill="#94B9FF"/>
<path d="M2578.94 678.219C2580.03 678.485 2581.39 677.662 2582.74 676.838C2584.09 676.015 2584.36 674.926 2584.89 672.747C2585.96 668.389 2582.67 662.967 2578.85 659.724C2575.04 656.481 2569.6 655.15 2564.98 655.175C2545.13 651.474 2523.39 650.774 2503.03 653.875C2500.58 654.433 2498.14 654.99 2496.79 655.813C2494.08 657.459 2493.54 659.638 2491.66 662.64C2487.35 670.823 2483.04 679.006 2479.82 687.454C2477.62 682.298 2476.78 676.319 2477.02 670.606C2457.53 684.31 2443.49 703.969 2436.81 726.579C2435.43 722.779 2435.15 719.245 2434.86 715.71C2435.43 722.779 2426.8 734.521 2425.2 741.057C2424.4 744.325 2416.07 764.225 2417.71 766.936C2423.18 772.89 2444.51 746.937 2448.84 743.378C2472.38 722.581 2499.47 706.116 2529.03 693.718C2545.57 687.373 2561.85 682.118 2578.94 678.219Z" fill="#94B9FF"/>
<path d="M2328.39 659.171C2329.51 650.199 2329.51 640.105 2325.03 632.255C2313.83 644.591 2318.31 665.9 2305.99 677.115C2308.23 661.414 2309.35 644.591 2308.23 628.89C2308.23 625.526 2307.11 621.04 2303.75 621.04C2295.91 634.498 2289.19 647.956 2281.34 661.414C2277.98 651.32 2275.74 641.227 2272.38 632.255C2272.38 631.133 2271.26 628.89 2270.14 627.769C2267.9 626.647 2266.78 627.769 2264.54 628.89C2245.5 638.984 2227.58 649.077 2208.54 659.171C2207.42 659.171 2207.42 660.292 2206.3 660.292C2205.18 662.535 2207.42 664.778 2209.66 665.9C2225.34 673.75 2242.14 677.115 2260.06 674.872C2265.66 673.75 2271.26 672.629 2276.86 673.75C2282.46 674.872 2288.06 677.115 2290.31 682.722C2276.86 687.208 2261.18 688.329 2247.74 683.844C2256.7 695.058 2270.14 701.787 2283.58 705.152C2292.55 707.395 2314.95 716.367 2322.79 707.395C2326.15 702.909 2326.15 691.694 2327.27 684.965C2327.27 675.993 2328.39 668.143 2328.39 659.171Z" fill="#94B9FF"/>
<rect x="2233.09" y="966.92" width="326.086" height="41.6724" rx="10" fill="#EF6A77"/>
<rect x="2278.93" y="987.757" width="235.449" height="228.156" rx="5" fill="#EF6A77"/>
<rect x="1039" y="-240" width="1022.09" height="943" rx="20" fill="#94B9FF"/>
<rect x="1080.07" y="-191.329" width="939.958" height="844.137" rx="20" fill="#E2F3FF"/>
<rect x="1183.49" y="-112.239" width="235.75" height="270.732" rx="10" fill="#1C85E8"/>
<rect x="1607.03" y="11.9661" width="185.558" height="197.726" rx="10" transform="rotate(11.56 1607.03 11.9661)" fill="#2A1C7C"/>
<rect x="1461.83" y="316.674" width="149.055" height="158.181" rx="10" fill="#FF971D"/>
<rect x="1164.96" y="267.285" width="149.055" height="158.181" rx="10" transform="rotate(-15.0829 1164.96 267.285)" fill="#5661AE"/>
<rect x="1294.52" y="482.46" width="127.761" height="135.366" rx="10" fill="#CF4D4D"/>
<rect x="1761.46" y="272.566" width="215.977" height="337.655" rx="10" fill="#5661AE"/>
<rect x="1166.76" y="-127.448" width="235.75" height="270.732" rx="10" fill="#77B6F1"/>
<rect x="1595.75" y="-1.20801" width="185.558" height="197.726" rx="10" transform="rotate(11.56 1595.75 -1.20801)" fill="#525DC1"/>
<rect x="1451.18" y="307.548" width="149.055" height="158.181" rx="10" fill="#FFD76F"/>
<rect x="1152.31" y="261.244" width="149.055" height="158.181" rx="10" transform="rotate(-15.0829 1152.31 261.244)" fill="#A7A1E7"/>
<rect x="1285.4" y="474.855" width="127.761" height="135.366" rx="10" fill="#EF6A77"/>
<rect x="1744.73" y="252.793" width="215.977" height="339.176" rx="10" fill="#A7A1E7"/>
<circle cx="1632.94" cy="565.352" r="44.8685" fill="#694FFD"/>
<circle cx="1886.94" cy="142.523" r="44.8685" fill="#694FFD"/>
<circle cx="1421.52" cy="232.26" r="44.8685" fill="#FF971D"/>
<path d="M1630.88 532.873C1631.83 530.23 1635.57 530.23 1636.52 532.873L1642.54 549.559C1642.95 550.716 1644.04 551.501 1645.26 551.54L1662.99 552.106C1665.8 552.196 1666.96 555.751 1664.74 557.474L1650.73 568.353C1649.76 569.107 1649.34 570.377 1649.69 571.558L1654.63 588.594C1655.41 591.293 1652.38 593.49 1650.06 591.912L1635.38 581.949C1634.37 581.259 1633.03 581.259 1632.01 581.949L1617.34 591.912C1615.01 593.49 1611.99 591.293 1612.77 588.594L1617.71 571.558C1618.05 570.377 1617.64 569.107 1616.67 568.353L1602.66 557.474C1600.44 555.751 1601.6 552.196 1604.4 552.106L1622.13 551.54C1623.36 551.501 1624.44 550.716 1624.86 549.559L1630.88 532.873Z" fill="#F3F7FF"/>
<path d="M1884.88 110.044C1885.83 107.401 1889.57 107.401 1890.52 110.044L1896.54 126.73C1896.96 127.887 1898.04 128.672 1899.27 128.711L1916.99 129.277C1919.8 129.367 1920.96 132.922 1918.74 134.645L1904.73 145.524C1903.76 146.278 1903.34 147.548 1903.69 148.729L1908.63 165.765C1909.41 168.464 1906.39 170.661 1904.06 169.083L1889.38 159.12C1888.37 158.43 1887.03 158.43 1886.01 159.12L1871.34 169.083C1869.01 170.661 1865.99 168.464 1866.77 165.765L1871.71 148.729C1872.06 147.548 1871.64 146.278 1870.67 145.524L1856.66 134.645C1854.44 132.922 1855.6 129.367 1858.41 129.277L1876.13 128.711C1877.36 128.672 1878.44 127.887 1878.86 126.73L1884.88 110.044Z" fill="#F3F7FF"/>
<path d="M1419.46 199.781C1420.41 197.138 1424.15 197.138 1425.11 199.781L1431.12 216.467C1431.54 217.624 1432.62 218.409 1433.85 218.448L1451.58 219.014C1454.39 219.104 1455.54 222.659 1453.32 224.382L1439.31 235.261C1438.34 236.015 1437.93 237.285 1438.27 238.466L1443.21 255.502C1443.99 258.201 1440.97 260.398 1438.64 258.82L1423.97 248.857C1422.95 248.167 1421.62 248.167 1420.6 248.857L1405.92 258.82C1403.6 260.398 1400.57 258.201 1401.36 255.502L1406.3 238.466C1406.64 237.285 1406.23 236.015 1405.26 235.261L1391.25 224.382C1389.03 222.659 1390.18 219.104 1392.99 219.014L1410.72 218.448C1411.95 218.409 1413.03 217.624 1413.44 216.467L1419.46 199.781Z" fill="#F3F7FF"/>
<path d="M1198.7 9.43871C1208.93 -8.8129 1219.15 -8.8129 1229.37 9.43871C1239.6 27.6903 1249.82 27.6903 1260.05 9.43871C1270.27 -8.8129 1280.5 -8.8129 1290.72 9.43871C1300.94 27.6903 1311.17 27.6903 1321.39 9.43871C1331.62 -8.8129 1341.84 -8.8129 1352.07 9.43871C1362.29 27.6903 1372.51 27.6903 1382.74 9.43871" stroke="white" stroke-width="6" stroke-linecap="round"/>
<path d="M1772.11 337.968C1782.75 356.219 1793.4 356.219 1804.05 337.968C1814.69 319.716 1825.34 319.716 1835.99 337.968C1846.63 356.219 1857.28 356.219 1867.93 337.968C1878.57 319.716 1889.22 319.716 1899.87 337.968C1910.51 356.219 1921.16 356.219 1931.81 337.968" stroke="white" stroke-width="6" stroke-linecap="round"/>
<path d="M1772.11 386.639C1782.75 404.89 1793.4 404.89 1804.05 386.639C1814.69 368.387 1825.34 368.387 1835.99 386.639C1846.63 404.89 1857.28 404.89 1867.93 386.639C1878.57 368.387 1889.22 368.387 1899.87 386.639C1910.51 404.89 1921.16 404.89 1931.81 386.639" stroke="white" stroke-width="6" stroke-linecap="round"/>
<rect x="1466.39" y="351.656" width="114.073" height="10.6468" rx="5.32339" fill="#FF971D"/>
<rect x="1778.19" y="511.358" width="114.073" height="10.6468" rx="5.32339" fill="#EEF6FE"/>
<rect x="1466.39" y="380.555" width="74.5274" height="10.6468" rx="5.32339" fill="#FF971D"/>
<rect x="1778.19" y="540.256" width="74.5274" height="10.6468" rx="5.32339" fill="#EEF6FE"/>
<path d="M1411.17 506.807L1522.61 472.794H1586.44L1726.13 513.087C1726.13 584.777 1688.98 671.119 1688.98 742.81C1688.98 811.36 1726.13 865.259 1726.13 933.81C1620.97 933.81 1515.81 933.81 1410.65 933.81C1410.65 861.596 1434.72 808.744 1434.72 736.53C1434.72 666.41 1411.17 576.928 1411.17 506.807Z" fill="#FFD76F"/>
<path d="M1506.53 440.16C1501.31 457.396 1496.62 474.109 1491.41 491.345C1513.3 509.104 1534.66 527.384 1556.55 545.143C1577.92 524.251 1598.76 503.358 1620.13 482.466C1612.83 466.797 1605.01 450.606 1597.72 434.937C1566.97 436.503 1536.75 438.07 1506.53 440.16Z" fill="#93523E"/>
<path d="M1358.33 277.255C1351.53 268.367 1348.39 257.387 1349.44 246.408C1350.48 233.337 1359.9 219.22 1373.49 216.606C1367.74 204.581 1373.49 190.465 1379.77 178.44C1387.09 164.846 1396.51 151.252 1409.58 142.887C1422.66 134.522 1441.49 131.385 1455.09 139.75C1463.45 121.451 1482.81 108.38 1503.73 106.289C1524.65 104.197 1545.57 113.608 1556.55 129.816C1560.74 125.111 1564.92 120.928 1570.67 118.314C1575.9 116.745 1583.75 117.268 1586.89 121.974C1590.55 126.679 1588.46 133.476 1586.36 139.227C1595.78 137.136 1605.19 140.796 1613.04 144.978C1625.59 151.775 1636.57 162.232 1641.28 175.825C1645.99 189.419 1643.9 204.581 1633.96 215.561C1640.23 220.266 1643.37 228.109 1642.85 235.951C1642.33 243.793 1638.66 251.113 1634.48 257.387C1627.16 268.367 1617.22 277.778 1605.19 284.052C1595.25 289.28 1584.27 291.894 1573.29 293.985C1551.32 298.168 1529.35 299.214 1506.86 300.259C1491.17 301.305 1475.48 301.828 1459.79 302.873C1446.72 303.396 1433.12 306.01 1420.57 303.396C1398.08 299.736 1372.45 295.554 1358.33 277.255Z" fill="#1F2D49"/>
<path d="M1654.17 332.698C1653.65 329.037 1652.08 324.854 1648.94 323.808C1645.81 322.762 1643.19 324.854 1640.58 326.423C1638.49 327.991 1636.4 330.083 1634.83 331.652C1630.64 290.339 1614.96 252.165 1578.36 226.017C1552.75 207.714 1530.27 208.237 1503.08 222.357C1477.99 235.43 1435.64 259.486 1425.18 287.202C1422.05 296.615 1423.09 306.551 1424.14 315.964C1425.7 326.946 1427.8 337.927 1430.93 348.909C1426.23 346.295 1421.52 344.726 1417.86 345.772C1403.75 349.955 1416.82 378.194 1421.52 387.084C1429.36 401.204 1441.91 413.231 1456.55 420.03C1459.16 424.736 1461.26 429.966 1463.87 434.672C1469.1 444.085 1474.85 453.498 1484.26 459.773C1494.19 466.049 1506.74 467.095 1518.76 467.618C1542.29 468.141 1566.34 467.095 1589.87 463.957C1597.19 462.911 1605.03 461.865 1610.78 457.159C1619.67 450.883 1623.33 439.379 1625.94 428.397C1626.98 423.69 1628.03 418.461 1629.08 413.231C1630.12 413.231 1631.17 412.186 1632.21 411.14C1650.51 390.222 1658.88 360.414 1654.17 332.698Z" fill="#BC775C"/>
<path d="M1519.25 381.593C1525.52 382.639 1530.76 383.686 1535.46 384.209C1540.17 384.732 1543.84 385.255 1547.5 384.732C1550.64 384.732 1553.78 383.686 1557.44 382.116C1561.1 380.547 1564.76 378.454 1567.9 372.699H1568.95C1569.99 378.454 1567.38 384.209 1563.72 388.394C1559.53 392.579 1554.3 395.195 1548.54 395.718C1542.79 396.242 1537.03 394.672 1532.33 392.056C1527.09 389.44 1522.91 386.301 1518.72 382.639L1519.25 381.593Z" fill="#93523E"/>
<path d="M1504.34 348.745C1505.43 341.604 1503.07 335.321 1499.08 334.71C1495.08 334.099 1490.95 339.392 1489.86 346.533C1488.77 353.673 1491.13 359.957 1495.13 360.567C1499.12 361.178 1503.25 355.885 1504.34 348.745Z" fill="#1F2D49"/>
<path d="M1582.5 349.63C1586.06 347.713 1586.17 341.003 1582.75 334.641C1579.33 328.279 1573.67 324.676 1570.11 326.592C1566.54 328.508 1566.43 335.218 1569.85 341.58C1573.27 347.942 1578.93 351.546 1582.5 349.63Z" fill="#1F2D49"/>
<path d="M1475.82 320.906C1475.3 317.767 1476.35 314.628 1477.92 312.012C1479.48 309.396 1481.58 307.304 1484.19 305.734C1486.81 304.165 1489.95 303.118 1492.56 303.118C1495.7 303.118 1498.84 303.642 1501.46 305.211C1501.46 305.211 1501.46 305.211 1501.46 305.734C1496.23 305.734 1490.99 307.304 1486.81 309.92C1482.1 313.059 1478.44 316.721 1475.82 320.906C1476.35 321.429 1475.82 321.429 1475.82 320.906C1475.82 321.429 1475.82 321.429 1475.82 320.906Z" fill="#1F2D49"/>
<path d="M1556.39 294.223C1558.48 291.607 1561.62 290.037 1564.24 289.514C1567.38 288.468 1570.52 288.991 1573.66 289.514C1576.79 290.037 1579.93 291.607 1582.03 293.7C1584.64 295.792 1586.21 298.408 1587.26 301.547C1587.26 301.547 1587.26 301.547 1587.26 302.07C1583.07 298.408 1578.36 295.792 1572.61 294.746C1567.38 293.176 1562.15 293.176 1556.39 294.223C1556.39 294.746 1556.39 294.746 1556.39 294.223C1556.39 294.746 1556.39 294.746 1556.39 294.223Z" fill="#1F2D49"/>
<path d="M1489.73 487.937C1491.3 487.937 1557.03 544.085 1557.03 544.085L1508.51 593.937L1489.73 487.937Z" fill="#FF971D"/>
<path d="M1556.19 544.524L1622.65 478.682L1614.21 597.301L1556.19 544.524Z" fill="#FF971D"/>
<path d="M1444.36 375.206C1434.96 357.416 1436.52 354.276 1428.68 318.696C1421.89 286.254 1417.71 268.464 1423.46 248.057C1436.52 203.058 1491.93 164.861 1546.81 173.757C1579.74 178.989 1612.67 200.442 1627.31 231.837C1635.15 248.057 1635.67 262.185 1637.24 285.731C1639.33 322.882 1635.15 335.44 1630.45 355.323C1631.49 340.672 1630.97 336.486 1625.22 310.324C1619.47 282.592 1614.76 262.708 1597.52 245.441C1595.42 243.348 1569.29 218.756 1532.7 222.418C1515.45 223.988 1502.91 231.837 1495.59 236.023C1495.59 236.023 1474.68 248.581 1460.57 271.604C1429.73 321.312 1443.32 371.544 1444.36 375.206Z" fill="#EF6A77"/>
<path d="M1458.8 427.365C1449.39 409.549 1436.85 381.777 1429.53 346.669C1422.73 314.181 1418.55 296.365 1424.3 275.929C1437.37 230.864 1492.79 192.612 1547.68 201.52C1580.62 206.76 1613.55 228.244 1628.19 259.685C1636.03 275.929 1636.56 290.077 1638.12 313.657C1640.22 350.861 1635.51 381.777 1630.81 401.689C1631.85 387.017 1631.85 364.485 1626.1 338.285C1620.35 310.513 1615.64 290.601 1598.39 273.309C1596.3 271.213 1570.16 246.585 1533.56 250.253C1516.31 251.825 1503.76 259.685 1496.45 263.877C1496.45 263.877 1475.53 276.453 1461.42 299.509C1430.05 349.289 1457.24 424.221 1458.8 427.365Z" fill="#1F2D49"/>
<path d="M1503.55 686.601C1500.93 690.786 1501.98 696.018 1505.12 705.435C1506.69 709.62 1508.26 714.852 1510.88 720.607C1483.67 713.282 1456.47 715.375 1449.66 727.931C1447.05 732.64 1448.09 739.964 1449.14 745.719C1449.66 748.335 1452.8 766.646 1467.45 778.679C1478.44 787.572 1494.13 788.096 1525 788.096C1540.17 788.096 1552.73 787.572 1560.58 787.049C1563.19 777.632 1565.81 768.215 1568.95 758.275C1566.33 754.613 1562.15 749.904 1556.91 744.672C1550.11 737.348 1544.36 730.547 1540.7 725.315C1527.09 707.004 1523.43 696.018 1522.38 692.355C1520.82 687.647 1520.29 683.462 1519.77 680.846C1515.58 681.369 1507.21 680.846 1503.55 686.601Z" fill="#BC775C"/>
<path d="M1459.08 766.646C1465.88 764.553 1472.68 764.553 1479.48 765.076C1486.29 765.599 1493.09 766.646 1499.37 769.785L1478.96 768.215L1459.08 766.646C1458.56 766.646 1458.56 766.646 1459.08 766.646C1458.56 766.646 1458.56 766.646 1459.08 766.646Z" fill="#93523E"/>
<path d="M1453.85 749.903C1462.22 747.81 1470.07 747.81 1477.92 748.334C1485.76 748.857 1493.61 750.426 1501.46 753.565L1477.39 751.996L1453.85 749.903C1453.33 749.903 1453.33 749.903 1453.85 749.903C1453.33 749.903 1453.33 749.903 1453.85 749.903Z" fill="#93523E"/>
<path d="M1452.28 732.639C1461.7 730.546 1471.11 731.069 1480.01 731.592C1489.42 732.639 1498.32 733.685 1507.74 736.824L1480.01 734.731L1452.28 732.639Z" fill="#93523E"/>
<path d="M1690.64 500.555C1695.89 547.671 1694.84 585.363 1693.26 611.015C1691.17 638.237 1688.55 654.99 1681.21 722.522C1674.4 789.007 1673.87 807.329 1686.98 821.988C1705.32 841.881 1736.77 839.787 1742.53 839.263C1748.3 838.74 1781.84 836.646 1795.47 813.088C1804.9 796.859 1800.19 779.06 1796.52 763.355C1786.04 719.904 1779.22 675.93 1768.74 632.479C1751.97 559.188 1752.49 534.06 1727.33 515.214C1714.23 504.743 1700.6 501.602 1690.64 500.555Z" fill="#FF971D"/>
<path d="M1434.36 500.555C1429.11 547.671 1430.16 585.363 1431.74 611.015C1433.83 638.237 1436.45 654.99 1443.79 722.522C1450.6 789.007 1451.13 807.329 1438.02 821.988C1419.68 841.881 1388.23 839.787 1382.47 839.263C1376.7 838.74 1343.16 836.646 1329.53 813.088C1320.1 796.859 1324.81 779.06 1328.48 763.355C1338.96 719.904 1345.78 675.93 1356.26 632.479C1373.03 559.188 1372.51 534.06 1397.67 515.214C1410.25 504.743 1424.4 501.602 1434.36 500.555Z" fill="#FF971D"/>
<path d="M1549.34 732.746C1551.43 738.523 1554.04 747.976 1554.04 759.53C1554.04 773.185 1550.39 783.689 1547.78 789.991C1579.1 807.322 1606.76 818.351 1627.12 824.653C1673.05 839.359 1715.85 853.013 1760.22 835.682C1786.84 825.179 1791.54 819.401 1793.1 816.776C1800.41 796.818 1772.23 763.207 1740.38 749.552C1716.9 739.573 1699.15 743.775 1668.35 745.35C1640.17 746.401 1599.97 745.35 1549.34 732.746Z" fill="#FF971D"/>
<path d="M1262.04 596.46C1259.44 602.21 1254.74 610.573 1246.92 618.937C1237.53 628.868 1227.62 633.572 1221.37 636.186C1231.8 670.685 1243.79 697.343 1254.22 716.683C1276.65 759.545 1298.55 798.748 1341.84 817.043C1367.91 828.02 1375.74 827.497 1378.34 826.451C1397.64 817.565 1400.77 773.658 1387.21 741.773C1377.3 718.251 1361.66 709.365 1338.71 688.457C1317.85 670.162 1289.68 640.89 1262.04 596.46Z" fill="#FF971D"/>
<rect x="1179.08" y="613.936" width="181.695" height="284.059" rx="10" fill="#A7A1E7"/>
<rect x="1165" y="597.302" width="181.695" height="285.338" rx="10" fill="#E7E5FC"/>
<rect x="1193.15" y="814.824" width="95.9658" height="8.95681" rx="4.4784" fill="#694FFD"/>
<rect x="1193.15" y="839.135" width="62.6977" height="8.95681" rx="4.4784" fill="#694FFD"/>
<path d="M1224.7 567.841C1205.34 577.258 1193.31 589.814 1192.27 605.509C1191.74 615.449 1190.7 627.482 1199.07 633.76C1202.73 636.376 1208.48 638.469 1233.07 633.76C1267.6 626.959 1285.39 623.297 1290.1 610.217C1294.28 599.231 1286.96 587.721 1283.82 582.489C1270.22 561.563 1247.72 556.331 1224.7 567.841Z" fill="#BC775C"/>
<path d="M1212.15 636.898C1210.58 632.189 1209.53 625.388 1209.53 617.541C1210.05 605.508 1214.76 597.137 1217.9 592.952" fill="#93523E"/>
<path d="M1235.69 633.237C1234.12 628.529 1233.07 621.727 1233.07 613.88C1233.6 601.847 1238.3 593.476 1241.44 589.291" fill="#93523E"/>
<path d="M1260.8 628.005C1259.23 623.297 1258.19 616.496 1258.19 608.648C1258.71 596.615 1263.42 588.244 1266.56 584.059" fill="#93523E"/>
<path d="M1505.71 412.429C1512.5 415.022 1521.38 417.096 1531.82 417.615C1556.87 419.17 1575.67 409.836 1584.54 404.651C1585.06 408.281 1585.58 420.726 1577.23 432.135C1568.36 444.58 1551.13 451.321 1534.95 447.173C1519.29 443.024 1507.28 429.023 1505.71 412.429Z" fill="#93523E"/>
<ellipse rx="23.6649" ry="9.36195" transform="matrix(-0.968199 0.250181 0.250181 0.968199 1600.25 365.985)" fill="#A24C46"/>
<ellipse cx="1483.25" cy="374.985" rx="23.6649" ry="9.36195" transform="rotate(9.28266 1483.25 374.985)" fill="#A24C46"/>
<path d="M2727.63 668.539C2734.35 690.933 2741.06 722.286 2743.3 758.117C2745.54 798.428 2743.3 832.02 2736.59 858.893C2779.1 856.654 2821.62 852.175 2864.14 849.935C2866.38 825.301 2866.38 791.709 2857.43 753.638C2848.48 706.61 2832.81 670.778 2819.39 646.144C2790.29 650.623 2758.96 659.581 2727.63 668.539Z" fill="#93523E"/>
<path d="M2640.36 820.822C2678.4 814.103 2720.92 809.624 2765.68 807.385C2848.48 805.145 2920.09 811.864 2978.27 823.061C2993.94 941.753 3005.13 1076.12 3000.65 1223.93C2998.41 1288.87 2993.94 1351.57 2987.22 1409.8C2960.37 1418.76 2929.04 1425.48 2895.47 1432.2C2772.39 1450.11 2667.21 1423.24 2602.32 1400.84C2624.69 1297.83 2644.83 1176.9 2647.07 1038.05C2647.07 959.668 2644.83 885.766 2640.36 820.822Z" fill="#5661AE"/>
<path d="M2338.25 706.61C2331.54 708.849 2327.06 713.328 2320.35 726.765C2318.11 731.244 2313.63 740.202 2309.16 746.92C2289.02 711.089 2259.93 686.455 2239.79 690.933C2233.07 693.173 2228.6 702.131 2221.88 708.849C2219.65 711.089 2203.98 733.483 2206.22 760.357C2208.46 780.512 2224.12 796.188 2253.21 829.78C2268.88 845.457 2280.07 858.893 2289.02 865.612C2302.45 858.893 2313.63 852.175 2327.06 845.456C2327.06 838.738 2329.3 829.78 2329.3 818.583C2329.3 805.146 2331.54 791.709 2333.77 782.752C2338.25 749.16 2347.2 735.723 2349.44 731.244C2353.92 724.525 2356.15 720.046 2358.39 717.807C2356.15 713.328 2347.2 704.37 2338.25 706.61Z" fill="#BC775C"/>
<path d="M2210.69 737.962C2226.36 737.962 2233.07 744.681 2239.79 751.399C2246.5 760.357 2250.97 769.315 2248.74 782.751L2228.6 760.357L2210.69 737.962C2210.69 740.202 2210.69 737.962 2210.69 737.962Z" fill="#93523E"/>
<path d="M2224.12 717.807C2239.79 720.046 2248.74 726.765 2257.69 735.723C2264.4 744.68 2268.88 755.878 2268.88 771.554L2246.5 744.68L2224.12 717.807C2221.88 717.807 2221.88 717.807 2224.12 717.807C2221.88 717.807 2221.88 715.567 2224.12 717.807Z" fill="#93523E"/>
<path d="M2239.79 697.652C2257.69 699.891 2266.64 708.849 2275.59 720.046C2284.54 731.244 2289.02 742.441 2289.02 760.357L2262.16 731.244L2239.79 697.652C2239.79 699.891 2239.79 699.891 2239.79 697.652Z" fill="#93523E"/>
<path d="M2644.83 818.583C2642.6 818.583 2638.12 818.583 2617.98 836.498C2582.17 870.09 2562.03 903.682 2546.37 928.316C2532.94 948.471 2515.04 975.345 2488.19 1006.7C2438.95 939.514 2389.72 870.09 2340.49 802.906C2293.49 834.259 2313.63 820.822 2266.64 849.935C2333.77 959.669 2398.67 1069.4 2465.81 1181.38C2468.05 1185.85 2474.76 1185.85 2477 1183.62C2537.42 1132.11 2597.84 1078.36 2660.5 1026.85C2667.21 914.879 2667.21 825.301 2644.83 818.583Z" fill="#5661AE"/>
<path d="M2969.32 820.822C2980.51 825.3 2996.17 834.258 3014.08 847.695C3049.88 876.808 3063.31 914.879 3072.26 943.992C3092.4 1006.7 3123.73 1143.3 3155.06 1322.46C3114.78 1331.42 3076.74 1340.38 3036.45 1349.34C3014.08 1172.42 2991.7 997.739 2969.32 820.822Z" fill="#5661AE"/>
<path d="M2799.25 487.142C2772.39 487.142 2752.25 498.339 2747.77 500.579C2745.54 502.818 2707.49 525.213 2698.54 565.523C2696.3 578.96 2698.54 583.439 2694.07 612.552C2691.83 632.707 2687.35 643.904 2687.35 650.623C2682.88 670.778 2685.12 699.891 2709.73 744.68C2723.16 742.441 2741.06 740.201 2765.68 737.962C2823.86 729.004 2852.95 726.764 2866.38 717.807C2906.66 697.651 2942.47 634.946 2924.56 574.481C2904.42 516.255 2846.24 487.142 2799.25 487.142Z" fill="#BC775C"/>
<path d="M2911.14 601.354C2917.85 572.241 2906.66 540.889 2886.52 518.494C2879.81 511.776 2873.09 505.057 2866.38 498.339C2873.09 478.184 2873.09 458.029 2857.43 440.113C2852.95 435.634 2848.48 431.155 2841.76 426.676C2835.05 422.197 2828.34 424.437 2823.86 428.916C2819.38 433.395 2817.15 440.113 2814.91 446.831C2794.77 428.916 2770.15 413.239 2743.3 411C2734.35 411 2725.4 411 2718.68 415.479C2707.49 424.437 2707.49 440.113 2718.68 451.31C2703.02 449.071 2687.35 451.31 2676.16 458.029C2662.74 464.747 2656.02 480.423 2658.26 493.86C2660.5 505.057 2671.69 516.255 2682.88 520.734C2682.88 522.973 2685.11 522.973 2685.11 522.973C2720.92 563.284 2774.63 583.439 2810.43 619.27C2817.15 625.989 2821.62 632.707 2823.86 639.425C2828.34 655.102 2821.62 670.778 2814.91 684.215C2810.43 690.933 2803.72 702.13 2808.2 708.849C2812.67 715.567 2821.62 717.807 2828.34 715.567C2835.05 713.328 2839.53 708.849 2846.24 702.13C2861.9 684.215 2875.33 666.299 2888.76 646.144C2897.71 634.946 2908.9 619.27 2911.14 601.354Z" fill="#1F2D49"/>
<path d="M2835.05 773.793C2823.86 776.032 2810.43 758.117 2803.72 740.201C2799.24 722.285 2805.96 717.806 2805.96 688.693C2805.96 679.735 2805.96 661.82 2797.01 643.904C2792.53 632.707 2785.82 619.27 2763.44 599.115C2718.68 558.804 2691.83 558.804 2689.59 540.889C2687.35 518.494 2727.63 496.099 2758.96 487.142C2770.15 484.902 2841.76 464.747 2893.23 514.015C2940.23 558.804 2931.28 623.749 2931.28 637.186C2929.04 648.383 2924.56 695.412 2884.28 726.764C2870.85 737.962 2855.19 744.68 2846.24 749.159C2848.48 753.638 2846.24 771.554 2835.05 773.793Z" fill="#1F2D49"/>
<path d="M2859.67 630.468C2866.38 628.228 2875.33 625.989 2879.81 630.468C2882.04 632.707 2882.04 634.947 2884.28 637.186C2886.52 646.144 2884.28 652.862 2879.81 661.82C2866.38 690.933 2832.81 711.088 2799.24 708.849C2801.48 708.849 2826.1 664.06 2828.34 659.581C2837.29 643.905 2844 637.186 2859.67 630.468Z" fill="#93523E"/>
<path d="M2736.59 773.793C2754.49 773.793 2774.63 773.793 2797.01 773.793C2823.86 773.793 2848.48 771.554 2870.86 767.075C2873.09 776.033 2877.57 784.991 2879.81 796.188C2882.04 805.146 2886.52 814.104 2888.76 823.062C2868.62 827.54 2844 832.019 2814.91 829.78C2776.87 829.78 2745.54 823.062 2723.16 816.343C2727.63 802.906 2732.11 789.47 2736.59 773.793Z" fill="#5661AE"/>
<path d="M3128.21 1687.49H2767.92C2741.06 1687.49 2718.68 1665.1 2720.92 1635.99L2774.63 1049.25C2776.87 1024.61 2797.01 1006.7 2821.62 1006.7H3186.39C3213.24 1006.7 3235.62 1031.33 3233.38 1058.21L3177.44 1644.95C3172.96 1669.58 3152.82 1687.49 3128.21 1687.49Z" fill="#5CA4E6"/>
<path d="M3148.35 1687.49H2788.06C2761.2 1687.49 2738.82 1665.1 2741.06 1635.99L2794.77 1049.25C2797.01 1024.61 2817.15 1006.7 2841.76 1006.7H3206.53C3233.38 1006.7 3255.76 1031.33 3253.53 1058.21L3197.58 1644.95C3193.1 1669.58 3172.96 1687.49 3148.35 1687.49Z" fill="#F6FAFF"/>
<path d="M234.884 748.465C226.404 752.704 215.805 752.704 207.326 750.585C196.727 748.465 186.128 739.988 186.128 729.39C175.529 731.51 162.81 727.271 154.331 720.912C143.732 714.554 133.133 706.076 128.893 695.478C124.653 684.881 122.533 672.164 133.133 663.686C118.294 655.208 111.934 640.371 111.934 625.535C111.934 610.698 124.653 597.981 141.612 591.623C137.372 589.503 135.252 585.264 133.133 581.025C133.133 576.786 133.133 572.547 139.492 570.428C143.732 568.308 150.091 570.428 154.331 572.547C154.331 566.189 158.57 559.83 164.93 555.591C171.289 547.113 181.888 540.755 194.607 538.635C207.326 536.516 220.045 538.635 228.524 547.113C232.764 542.874 241.243 542.874 247.603 542.874C253.962 544.994 260.321 547.113 264.561 551.352C273.04 557.711 279.4 566.189 281.52 574.667C283.639 583.145 283.639 589.503 283.639 597.981C283.639 612.818 281.52 629.774 277.28 644.61C275.16 655.208 273.04 665.805 270.921 678.522C268.801 687 268.801 697.598 264.561 706.076C260.321 723.032 251.842 739.988 234.884 748.465Z" fill="#1F2D49"/>
<path d="M427.787 727.271C421.427 742.107 417.188 759.063 415.068 780.258C412.948 803.572 415.068 824.767 419.308 839.604C385.391 837.484 351.474 835.365 317.557 833.245C315.437 818.409 315.437 797.214 321.796 776.019C328.156 748.466 340.874 727.271 353.593 712.434C376.911 716.673 402.349 720.912 427.787 727.271Z" fill="#93523E"/>
<path d="M518.939 807.811C482.902 801.453 442.626 797.214 400.229 795.094C321.796 792.975 253.962 799.333 198.847 809.931C184.008 922.264 173.409 1049.43 177.649 1189.32C179.769 1250.79 184.008 1310.13 190.368 1365.24C215.805 1373.72 245.483 1380.08 277.28 1386.43C393.87 1403.39 493.501 1377.96 554.976 1356.76C533.778 1259.26 514.699 1144.81 512.58 1013.4C510.46 939.22 512.58 871.396 518.939 807.811Z" fill="#EF6A77"/>
<path d="M809.354 903.189C813.593 907.428 813.593 915.906 811.474 928.623C809.354 934.981 809.354 941.34 807.234 949.818C841.151 934.981 879.308 930.742 889.907 947.698C894.146 954.057 894.146 962.535 894.146 971.013C894.146 975.252 894.146 1000.69 877.188 1019.76C864.469 1032.48 843.271 1036.72 800.875 1043.08C779.676 1047.31 764.838 1047.31 752.119 1049.43C745.759 1036.72 741.52 1024 735.16 1013.4C737.28 1007.04 743.64 1000.69 747.879 992.208C756.358 981.61 760.598 971.013 764.838 962.535C779.676 934.981 781.796 920.145 783.916 915.906C783.916 909.547 786.036 903.189 786.036 901.069C792.395 896.83 802.994 894.711 809.354 903.189Z" fill="#BC775C"/>
<path d="M885.667 1000.69C879.308 1013.4 870.828 1017.64 862.349 1019.76C853.87 1021.88 843.271 1021.88 832.672 1013.4L860.229 1007.04L885.667 1000.69Z" fill="#93523E"/>
<path d="M889.907 977.371C881.428 990.088 870.828 994.327 862.349 998.566C851.75 1000.69 841.151 1000.69 828.432 992.208L860.229 983.73L889.907 977.371C889.907 975.252 889.907 977.371 889.907 977.371Z" fill="#93523E"/>
<path d="M887.787 954.057C877.188 966.774 866.589 973.132 853.87 975.252C841.151 977.371 828.432 977.371 813.593 971.013L849.63 962.535L887.787 954.057C887.787 951.937 887.787 954.057 887.787 954.057Z" fill="#93523E"/>
<path d="M516.819 807.811C518.939 807.811 523.179 812.05 527.418 837.484C535.898 884.113 544.377 918.025 546.497 947.698C548.616 971.013 554.976 992.208 554.976 1030.36C631.289 1007.04 675.805 994.327 752.119 971.013C769.077 1021.88 762.718 998.566 779.676 1049.43C667.326 1093.94 614.331 1100.3 499.861 1144.81C495.621 1146.93 491.381 1138.45 487.142 1134.21C436.266 1062.15 398.109 1028.24 383.271 954.057C442.626 867.157 495.621 799.333 516.819 807.811Z" fill="#CF4D4D"/>
<path d="M205.206 809.931C194.607 814.17 179.768 822.648 162.81 835.365C128.893 862.918 116.174 898.95 107.695 926.503C88.6164 985.849 58.939 1113.02 31.3814 1284.7C67.4183 1293.18 105.575 1301.65 143.732 1310.13C164.93 1142.69 184.008 977.371 205.206 809.931Z" fill="#EF6A77"/>
<path d="M366.312 506.843C391.75 506.843 410.828 517.44 415.068 519.56C419.308 521.679 453.225 542.874 461.704 581.025C463.824 593.742 461.704 597.981 465.944 625.535C468.063 644.61 472.303 655.208 472.303 661.566C476.543 680.641 474.423 708.195 451.105 750.585C438.386 748.465 421.427 746.346 398.109 744.226C342.994 735.748 315.437 733.629 302.718 725.151C264.561 706.075 230.644 646.73 247.603 589.503C266.681 534.396 323.916 506.843 366.312 506.843Z" fill="#BC775C"/>
<path d="M326.036 761.182C334.515 763.302 349.354 748.465 353.593 731.509C357.833 716.673 351.474 710.314 351.474 684.881C351.474 676.403 351.474 661.566 359.953 644.61C364.192 636.132 370.552 623.415 391.75 604.34C432.027 568.308 457.464 568.308 457.464 551.352C459.584 532.277 421.427 511.082 393.87 502.604C385.391 500.484 319.676 481.409 270.921 528.038C228.524 568.308 234.884 627.654 237.003 638.252C239.123 648.849 243.363 689.12 279.4 718.792C292.119 729.39 304.838 735.748 315.437 737.868C313.317 742.107 317.556 759.063 326.036 761.182Z" fill="#1F2D49"/>
<path d="M298.478 731.509C304.838 699.717 309.077 674.283 311.197 659.447C319.676 591.623 323.916 564.069 336.635 511.082C336.635 506.843 340.874 496.245 349.354 489.887C364.192 479.289 393.87 483.528 402.349 498.365C406.589 506.843 402.349 517.44 400.229 521.679C370.552 589.503 351.474 621.296 342.994 644.61C321.796 695.478 323.916 737.868 311.197 737.868C304.838 742.107 300.598 735.748 298.478 731.509Z" fill="#694FFD"/>
<path d="M287.605 639.106C282.023 637.257 274.581 637.257 270.86 642.803C269 644.652 269 646.501 269 648.349C269 655.744 270.86 661.29 276.442 666.836C293.186 689.021 322.953 700.113 349 692.719C347.14 692.719 321.093 661.29 317.372 657.593C308.07 646.501 302.488 642.803 287.605 639.106Z" fill="#93523E"/>
<path d="M90.7363 1494.53H432.027C457.464 1494.53 478.663 1473.33 476.543 1445.78L425.667 890.472C423.547 867.157 404.469 850.201 381.151 850.201H37.7409C12.3031 850.201 -8.89507 873.516 -6.77525 898.95L46.2201 1454.26C48.34 1477.57 67.4183 1494.53 90.7363 1494.53Z" fill="#5CA4E6"/>
<path d="M71.6579 1494.53H412.948C438.386 1494.53 459.584 1473.33 457.464 1445.78L406.589 890.472C404.469 867.157 385.391 850.201 362.073 850.201H18.6625C-6.77529 850.201 -27.9734 873.516 -25.8536 898.95L27.1418 1454.26C29.2616 1477.57 48.3399 1494.53 71.6579 1494.53Z" fill="#F6FAFF"/>
<path d="M1568.96 2318L3357 1777.4L2077.17 904H1082.93L-257 1777.4L1568.96 2318Z" fill="#DFEAFF"/>
</g>
<defs>
<clipPath id="clip0_96_131">
<rect width="3099" height="1334" fill="white"/>
</clipPath>
</defs>
</svg>
