<svg width="5806" height="2461" viewBox="0 0 5806 2461" fill="none" xmlns="http://www.w3.org/2000/svg">
<g clip-path="url(#clip0_96_82)">
<rect width="5806" height="2461" fill="white"/>
<rect y="1768" width="5806" height="693" fill="#A7A1E7"/>
<rect y="-25" width="5806" height="1793" fill="#FFF7E1"/>
<rect x="-289" y="119" width="1526.09" height="1408" rx="20" fill="#94B9FF"/>
<rect x="-227.684" y="191.671" width="1403.46" height="1260.39" rx="20" fill="#E2F3FF"/>
<rect x="-73.2581" y="309.761" width="352" height="404.232" rx="10" fill="#1C85E8"/>
<rect x="559.129" y="495.212" width="277.058" height="295.226" rx="10" transform="rotate(11.56 559.129 495.212)" fill="#2A1C7C"/>
<rect x="340.058" y="257.529" width="190.761" height="202.116" rx="10" fill="#CF4D4D"/>
<rect x="342.329" y="950.174" width="222.555" height="236.181" rx="10" fill="#FF971D"/>
<rect x="-100.926" y="876.431" width="222.555" height="236.181" rx="10" transform="rotate(-15.0829 -100.926 876.431)" fill="#5661AE"/>
<rect x="92.5225" y="1197.71" width="190.761" height="202.116" rx="10" fill="#CF4D4D"/>
<rect x="882.819" y="268.884" width="190.761" height="202.116" rx="10" fill="#CF4D4D"/>
<rect x="789.71" y="884.316" width="322.477" height="504.155" rx="10" fill="#5661AE"/>
<rect x="-98.2388" y="287.052" width="352" height="404.232" rx="10" fill="#77B6F1"/>
<rect x="542.291" y="475.542" width="277.058" height="295.226" rx="10" transform="rotate(11.56 542.291 475.542)" fill="#525DC1"/>
<rect x="326.432" y="246.174" width="190.761" height="202.116" rx="10" fill="#EF6A77"/>
<rect x="326.432" y="936.548" width="222.555" height="236.181" rx="10" fill="#FFD76F"/>
<rect x="-119.82" y="867.411" width="222.555" height="236.181" rx="10" transform="rotate(-15.0829 -119.82 867.411)" fill="#A7A1E7"/>
<rect x="78.8967" y="1186.35" width="190.761" height="202.116" rx="10" fill="#EF6A77"/>
<rect x="869.194" y="257.529" width="190.761" height="202.116" rx="10" fill="#EF6A77"/>
<rect x="764.729" y="854.793" width="322.477" height="506.426" rx="10" fill="#A7A1E7"/>
<circle cx="597.813" cy="1321.48" r="66.9935" fill="#694FFD"/>
<circle cx="977.064" cy="690.148" r="66.9935" fill="#694FFD"/>
<circle cx="700.006" cy="335.877" r="66.9935" fill="#FF971D"/>
<circle cx="282.148" cy="824.136" r="66.9935" fill="#FF971D"/>
<path d="M596.126 1269.12C597.079 1266.48 600.817 1266.48 601.771 1269.12L612.487 1298.84C612.904 1300 613.985 1300.78 615.213 1300.82L646.789 1301.83C649.597 1301.92 650.752 1305.48 648.533 1307.2L623.581 1326.57C622.61 1327.33 622.197 1328.6 622.539 1329.78L631.337 1360.12C632.12 1362.82 629.096 1365.02 626.771 1363.44L600.633 1345.69C599.616 1345 598.281 1345 597.264 1345.69L571.126 1363.44C568.801 1365.02 565.777 1362.82 566.56 1360.12L575.358 1329.78C575.7 1328.6 575.287 1327.33 574.316 1326.57L549.364 1307.2C547.145 1305.48 548.3 1301.92 551.108 1301.83L582.684 1300.82C583.912 1300.78 584.993 1300 585.41 1298.84L596.126 1269.12Z" fill="#F3F7FF"/>
<path d="M975.378 637.794C976.331 635.151 980.069 635.151 981.022 637.794L991.739 667.512C992.156 668.669 993.236 669.454 994.465 669.493L1026.04 670.501C1028.85 670.591 1030 674.146 1027.78 675.869L1002.83 695.245C1001.86 695.999 1001.45 697.269 1001.79 698.45L1010.59 728.791C1011.37 731.49 1008.35 733.687 1006.02 732.109L979.885 714.365C978.868 713.675 977.532 713.675 976.515 714.365L950.377 732.109C948.053 733.687 945.029 731.49 945.811 728.791L954.609 698.45C954.952 697.269 954.539 695.999 953.568 695.245L928.616 675.869C926.396 674.146 927.552 670.591 930.36 670.501L961.935 669.493C963.164 669.454 964.244 668.669 964.661 667.512L975.378 637.794Z" fill="#F3F7FF"/>
<path d="M698.32 283.523C699.273 280.88 703.011 280.88 703.964 283.523L714.68 313.241C715.097 314.398 716.178 315.183 717.407 315.222L748.982 316.23C751.79 316.32 752.945 319.875 750.726 321.598L725.774 340.974C724.803 341.728 724.39 342.998 724.733 344.179L733.531 374.52C734.313 377.219 731.289 379.416 728.965 377.838L702.827 360.094C701.81 359.404 700.474 359.404 699.457 360.094L673.319 377.838C670.995 379.416 667.97 377.219 668.753 374.52L677.551 344.179C677.893 342.998 677.481 341.728 676.51 340.974L651.558 321.598C649.338 319.875 650.493 316.32 653.302 316.23L684.877 315.222C686.106 315.183 687.186 314.398 687.603 313.241L698.32 283.523Z" fill="#F3F7FF"/>
<path d="M280.462 771.781C281.415 769.138 285.153 769.138 286.106 771.781L296.823 801.499C297.24 802.656 298.32 803.441 299.549 803.48L331.124 804.489C333.932 804.578 335.087 808.133 332.868 809.857L307.916 829.232C306.945 829.986 306.532 831.256 306.875 832.437L315.673 862.779C316.455 865.477 313.431 867.674 311.107 866.096L284.969 848.353C283.952 847.662 282.616 847.662 281.599 848.353L255.461 866.096C253.137 867.674 250.112 865.477 250.895 862.779L259.693 832.437C260.035 831.256 259.623 829.986 258.652 829.232L233.7 809.857C231.48 808.133 232.636 804.578 235.444 804.489L267.019 803.48C268.248 803.441 269.328 802.656 269.745 801.499L280.462 771.781Z" fill="#F3F7FF"/>
<path d="M-50.5483 402.871C-35.2824 375.619 -20.0164 375.619 -4.75049 402.871C10.5155 430.122 25.7814 430.122 41.0474 402.871C56.3133 375.619 71.5793 375.619 86.8452 402.871C102.111 430.122 117.377 430.122 132.643 402.871C147.909 375.619 163.175 375.619 178.441 402.871C193.707 430.122 208.973 430.122 224.239 402.871" stroke="white" stroke-width="6" stroke-linecap="round"/>
<path d="M-50.5483 491.439C-35.2824 464.187 -20.0164 464.187 -4.75049 491.439C10.5155 518.69 25.7814 518.69 41.0474 491.439C56.3133 464.187 71.5793 464.187 86.8452 491.439C102.111 518.69 117.377 518.69 132.643 491.439C147.909 464.187 163.175 464.187 178.441 491.439C193.707 518.69 208.973 518.69 224.239 491.439" stroke="white" stroke-width="6" stroke-linecap="round"/>
<path d="M805.606 981.968C821.503 1009.22 837.4 1009.22 853.297 981.968C869.194 954.716 885.09 954.716 900.987 981.968C916.884 1009.22 932.781 1009.22 948.677 981.968C964.574 954.716 980.471 954.716 996.368 981.968C1012.26 1009.22 1028.16 1009.22 1044.06 981.968" stroke="white" stroke-width="6" stroke-linecap="round"/>
<path d="M805.606 1054.64C821.503 1081.89 837.4 1081.89 853.297 1054.64C869.194 1027.39 885.09 1027.39 900.987 1054.64C916.884 1081.89 932.781 1081.89 948.677 1054.64C964.574 1027.39 980.471 1027.39 996.368 1054.64C1012.26 1081.89 1028.16 1081.89 1044.06 1054.64" stroke="white" stroke-width="6" stroke-linecap="round"/>
<rect x="349.142" y="1002.41" width="170.323" height="15.8968" rx="7" fill="#FF971D"/>
<rect x="814.69" y="1240.86" width="170.323" height="15.8968" rx="7" fill="#EEF6FE"/>
<rect x="349.142" y="1045.55" width="111.277" height="15.8968" rx="7" fill="#FF971D"/>
<rect x="814.69" y="1284.01" width="111.277" height="15.8968" rx="7" fill="#EEF6FE"/>
<path fill-rule="evenodd" clip-rule="evenodd" d="M5040.36 1187.36C5042.04 1188.75 5042.27 1191.24 5040.88 1192.91C5007.04 1233.66 4991.89 1302.32 4987 1372.45C4982.12 1442.35 4987.5 1512.77 4993.96 1556.2C4994.28 1558.35 4992.79 1560.36 4990.64 1560.68C4988.48 1561 4986.48 1559.51 4986.15 1557.36C4979.63 1513.47 4974.21 1442.47 4979.13 1371.9C4984.04 1301.54 4999.27 1230.67 5034.81 1187.87C5036.2 1186.2 5038.69 1185.97 5040.36 1187.36Z" fill="#2A1C7C"/>
<path fill-rule="evenodd" clip-rule="evenodd" d="M5005.73 1137.39C5007.64 1138.45 5008.32 1140.85 5007.26 1142.75C4973.73 1202.82 4961.67 1280.39 4960.36 1353.28C4959.06 1426.11 4968.49 1493.8 4977.57 1533.78C4978.05 1535.9 4976.72 1538.02 4974.6 1538.5C4972.47 1538.98 4970.36 1537.65 4969.88 1535.53C4960.67 1494.97 4951.16 1426.64 4952.48 1353.14C4953.8 1279.7 4965.93 1200.62 5000.37 1138.91C5001.43 1137.01 5003.83 1136.33 5005.73 1137.39Z" fill="#2A1C7C"/>
<path fill-rule="evenodd" clip-rule="evenodd" d="M4966.02 1133.7C4968.01 1134.6 4968.88 1136.94 4967.98 1138.93C4937.43 1206.14 4933.82 1301.98 4938.02 1383.23C4940.11 1423.75 4944.14 1460.46 4947.64 1487.87C4949.3 1500.82 4950.84 1511.68 4952 1519.91L4952.2 1521.35C4952.8 1525.53 4953.28 1529 4953.62 1531.62C4953.94 1534.13 4954.17 1536.17 4954.17 1537.31C4954.17 1539.49 4952.41 1541.25 4950.23 1541.25C4948.05 1541.25 4946.29 1539.49 4946.29 1537.31C4946.29 1536.79 4946.14 1535.32 4945.8 1532.63C4945.47 1530.06 4944.99 1526.65 4944.39 1522.45L4944.19 1521.02C4943.03 1512.78 4941.48 1501.87 4939.82 1488.87C4936.3 1461.34 4932.25 1424.42 4930.14 1383.64C4925.93 1302.26 4929.4 1204.74 4960.8 1135.66C4961.7 1133.68 4964.04 1132.8 4966.02 1133.7Z" fill="#2A1C7C"/>
<path fill-rule="evenodd" clip-rule="evenodd" d="M4908.31 1086.63C4910.39 1085.97 4912.61 1087.11 4913.28 1089.18C4935.81 1159.16 4977.39 1347.05 4963.9 1540.24C4963.75 1542.41 4961.86 1544.05 4959.69 1543.9C4957.52 1543.75 4955.88 1541.86 4956.03 1539.69C4969.44 1347.73 4928.07 1160.86 4905.77 1091.6C4905.1 1089.52 4906.24 1087.3 4908.31 1086.63Z" fill="#2A1C7C"/>
<path fill-rule="evenodd" clip-rule="evenodd" d="M4872.16 1190.51C4874.06 1189.43 4876.46 1190.08 4877.55 1191.98C4902.75 1236.09 4947.17 1365.1 4925.82 1531.62C4925.55 1533.78 4923.57 1535.3 4921.41 1535.03C4919.25 1534.75 4917.72 1532.77 4918 1530.61C4939.13 1365.79 4895.05 1238.51 4870.7 1195.89C4869.62 1194 4870.27 1191.59 4872.16 1190.51Z" fill="#2A1C7C"/>
<path fill-rule="evenodd" clip-rule="evenodd" d="M4857.8 1120.21C4859.42 1118.75 4861.91 1118.87 4863.37 1120.49C4905.05 1166.67 4986.01 1309.49 4980.32 1514.41C4980.26 1516.59 4978.44 1518.3 4976.27 1518.24C4974.09 1518.18 4972.37 1516.37 4972.44 1514.19C4978.07 1311.3 4897.84 1170.45 4857.52 1125.78C4856.06 1124.16 4856.18 1121.66 4857.8 1120.21Z" fill="#2A1C7C"/>
<path fill-rule="evenodd" clip-rule="evenodd" d="M4816.13 1040.63C4817.7 1039.13 4820.2 1039.19 4821.7 1040.76C4884.11 1106.15 5008.99 1293.32 5010.41 1520.47C5010.42 1522.65 5008.67 1524.42 5006.49 1524.44C5004.31 1524.45 5002.54 1522.7 5002.52 1520.52C5001.12 1295.97 4877.48 1110.62 4816 1046.21C4814.49 1044.63 4814.55 1042.13 4816.13 1040.63Z" fill="#2A1C7C"/>
<path d="M4880.88 1038.18C4890.61 1046.44 4902.19 1055.16 4912.38 1061.57C4894.76 1045.5 4880.8 1022.47 4876.54 999.847C4884.39 999.805 4893.63 1002.07 4902.42 1006.18C4870.51 992.486 4843.61 966.291 4827.76 934.954C4849.49 942.231 4870.77 951.358 4892.05 960.486C4870.73 943.503 4849.42 926.52 4830.41 908.138C4815.58 896.666 4801.66 881.491 4800.19 863.478C4799.66 849.618 4804.68 837.114 4811.09 826.914C4823.47 808.364 4840.93 793.021 4862.13 786.438C4866.28 785.491 4872.74 783.146 4875.98 785.901C4879.22 788.656 4878.32 792.358 4879.71 794.661C4883.11 828.838 4882.81 862.11 4876.51 895.876C4902.23 870.785 4900.65 829.205 4919.89 798.604C4930.15 820.729 4931.21 848.449 4925.32 872.51C4919.44 896.57 4909.85 919.726 4899.82 944.733C4918.15 917.833 4934.19 892.332 4952.52 865.432C4961.8 875.548 4958.18 890.355 4953.61 901.007C4946.33 922.765 4937.2 944.07 4926.23 964.923C4934.03 957.026 4943.69 949.58 4951.05 943.534C4953.05 975.407 4945.35 1006.87 4930.26 1036.53C4936.26 1036.03 4940.86 1033.23 4945.92 1028.59C4946.93 1048.45 4946.1 1067.86 4942.97 1088.67C4937.99 1109.03 4926.6 1139.59 4904.79 1116.6C4890.38 1095.43 4883.29 1060.34 4880.88 1038.18Z" fill="#94B9FF"/>
<path d="M4828 1164.71C4826.09 1164.71 4824.19 1162.81 4822.29 1164.71C4820.38 1164.71 4820.38 1166.62 4818.48 1168.52C4816.58 1176.15 4812.77 1185.67 4812.77 1193.29C4807.06 1185.67 4801.35 1179.96 4793.74 1174.24C4763.29 1200.92 4742.36 1239.02 4736.65 1279.04C4740.46 1279.04 4746.17 1277.13 4749.97 1277.13C4738.55 1294.28 4736.65 1315.24 4738.55 1336.2C4740.46 1357.16 4746.17 1376.21 4749.97 1397.17C4753.78 1420.03 4753.78 1442.9 4749.97 1463.86C4759.49 1461.95 4769 1458.14 4776.61 1452.42C4801.35 1435.28 4812.77 1404.79 4818.48 1374.3C4824.19 1345.72 4824.19 1315.24 4831.8 1284.75C4839.41 1254.27 4850.83 1225.68 4875.57 1208.54C4879.38 1206.63 4883.18 1202.82 4885.08 1199.01C4896.5 1181.86 4871.76 1185.67 4864.15 1183.77C4852.73 1183.77 4841.32 1170.43 4828 1164.71Z" fill="#94B9FF"/>
<path d="M5089.53 1163.81C5091.43 1163.81 5093.34 1161.9 5095.24 1163.81C5097.14 1163.81 5097.14 1165.71 5099.04 1167.62C5100.95 1175.24 5104.75 1184.77 5104.75 1192.39C5110.46 1184.77 5116.17 1179.05 5123.78 1173.33C5154.23 1200.01 5175.16 1238.12 5180.87 1278.13C5177.07 1278.13 5171.36 1276.22 5167.55 1276.22C5178.97 1293.37 5180.87 1314.33 5178.97 1335.29C5177.07 1356.25 5171.36 1375.3 5167.55 1396.26C5163.75 1419.13 5163.75 1441.99 5167.55 1462.95C5158.04 1461.04 5148.52 1457.23 5140.91 1451.52C5116.17 1434.37 5104.75 1403.88 5099.04 1373.4C5093.34 1344.82 5093.34 1314.33 5085.72 1283.84C5078.11 1253.36 5066.69 1224.78 5041.95 1207.63C5038.15 1205.72 5034.34 1201.91 5032.44 1198.1C5021.02 1180.95 5045.76 1184.77 5053.37 1182.86C5064.79 1182.86 5076.21 1169.52 5089.53 1163.81Z" fill="#94B9FF"/>
<path d="M4777.88 1070.92C4779.79 1080.45 4783.59 1091.88 4787.4 1101.41C4770.27 1093.78 4749.34 1097.59 4734.11 1109.03C4718.89 1120.46 4709.38 1137.61 4705.57 1156.66C4741.73 1147.13 4777.88 1137.61 4815.94 1133.8C4825.46 1131.89 4834.97 1131.89 4844.49 1131.89C4854 1131.89 4863.52 1139.51 4873.03 1139.51C4886.35 1139.51 4880.64 1124.27 4873.03 1116.65C4850.2 1089.97 4812.14 1072.82 4777.88 1070.92Z" fill="#94B9FF"/>
<path d="M4971.91 1154.6C5016.61 1043.92 5071.01 933.65 5157.4 852.782C5165.21 844.884 5173.02 836.987 5173.44 827.281C5145.26 822.349 5114.78 818.816 5086.59 813.884C5084.75 813.432 5082.9 812.98 5080.6 814.378C5078.3 815.777 5077.84 817.628 5077.39 819.479C5072.41 839.837 5076.67 862.457 5079.54 882.774C5071.62 867.105 5064.15 849.586 5056.23 833.917C5043.4 854.318 5025.48 871.512 5008.01 886.854C5002.96 891.502 4997.9 896.15 4994.7 901.251C4991.49 906.351 4991.53 914.206 4991.56 922.062C4994.02 952.085 5000.62 981.161 5015.52 1008.34C4994.2 991.361 4980.7 966.481 4979.19 940.612C4970.44 944.356 4965.87 955.008 4965.91 962.864C4965.5 972.57 4967.38 980.877 4971.12 989.637C4977.68 1010.86 4985.64 1034.38 4992.2 1055.6C4984.28 1039.93 4976.36 1024.27 4970.74 1007.2C4961.23 1046.07 4955.42 1085.84 4955.61 1125.11C4955.68 1140.82 4957.61 1156.99 4965.98 1170.8C4966.4 1161.1 4967.34 1165.25 4971.91 1154.6Z" fill="#94B9FF"/>
<path d="M5266.61 1006.99C5268.46 1007.45 5270.76 1006.05 5273.06 1004.65C5275.36 1003.25 5275.82 1001.4 5276.72 997.698C5278.53 990.295 5272.95 981.083 5266.46 975.573C5259.97 970.063 5250.73 967.802 5242.88 967.844C5209.16 961.556 5172.23 960.368 5137.63 965.637C5133.48 966.583 5129.33 967.529 5127.03 968.928C5122.43 971.725 5121.52 975.427 5118.32 980.527C5111 994.429 5103.68 1008.33 5098.21 1022.69C5094.48 1013.93 5093.04 1003.77 5093.46 994.061C5060.33 1017.34 5036.49 1050.74 5025.14 1089.16C5022.8 1082.7 5022.31 1076.7 5021.82 1070.69C5022.8 1082.7 5008.12 1102.65 5005.41 1113.75C5004.05 1119.31 4989.9 1153.11 4992.69 1157.72C5001.97 1167.84 5038.23 1123.74 5045.58 1117.7C5085.57 1082.36 5131.6 1054.39 5181.81 1033.33C5209.91 1022.55 5237.56 1013.62 5266.61 1006.99Z" fill="#94B9FF"/>
<path d="M4840.93 974.633C4842.84 959.39 4842.84 942.241 4835.22 928.904C4816.19 949.863 4823.81 986.065 4802.87 1005.12C4806.68 978.443 4808.58 949.863 4806.68 923.188C4806.68 917.472 4804.78 909.85 4799.07 909.85C4785.75 932.715 4774.33 955.579 4761.01 978.443C4755.3 961.295 4751.49 944.147 4745.78 928.904C4745.78 926.998 4743.88 923.188 4741.98 921.282C4738.17 919.377 4736.27 921.282 4732.46 923.188C4700.11 940.336 4669.66 957.484 4637.31 974.633C4635.41 974.633 4635.41 976.538 4633.51 976.538C4631.6 980.349 4635.41 984.159 4639.22 986.065C4665.86 999.402 4694.4 1005.12 4724.85 1001.31C4734.36 999.402 4743.88 997.497 4753.39 999.402C4762.91 1001.31 4772.42 1005.12 4776.23 1014.65C4753.39 1022.27 4726.75 1024.17 4703.92 1016.55C4719.14 1035.6 4741.98 1047.04 4764.81 1052.75C4780.04 1056.56 4818.1 1071.81 4831.42 1056.56C4837.13 1048.94 4837.13 1029.89 4839.03 1018.46C4839.03 1003.21 4840.93 989.876 4840.93 974.633Z" fill="#94B9FF"/>
<rect x="4679.02" y="1497.48" width="554.006" height="70.7994" rx="10" fill="#EF6A77"/>
<rect x="4756.9" y="1532.88" width="400.017" height="387.627" rx="5" fill="#EF6A77"/>
<path d="M2003.65 1553.34L2006.48 2064.14L1981.36 2071.94L1958.8 1564.92L2003.65 1553.34Z" fill="#525DC1"/>
<path d="M2310.75 1527.97L2313.58 2038.77L2289.17 2046.51L2265.9 1539.55L2310.75 1527.97Z" fill="#525DC1"/>
<path d="M1893.05 1488.04L1895.52 1925.15L1874.66 1932.6L1855.19 1497.61L1893.05 1488.04Z" fill="#2A1C7C"/>
<path d="M2156.78 1466.25L2158.54 1903.42L2137.68 1910.87L2118.21 1475.88L2156.78 1466.25Z" fill="#2A1C7C"/>
<path d="M2137.52 825.838C2129.82 819.316 2120.11 814.393 1985.17 818.383C1968.76 819.023 1856.68 822.555 1723.2 852.907C1697.19 858.634 1660.75 868.086 1656.65 887.749C1653.09 905.221 1676.77 923.305 1682.87 927.812C1785.7 1011.65 1761.48 1489.61 1892.86 1589.69C1922.64 1612.28 1957.05 1621.61 1957.05 1621.61C2006.08 1634.73 2050.58 1618.89 2087.43 1614.41C2241.28 1596.69 2323.43 1612.1 2331.62 1581.36C2336.5 1562.35 2300.79 1537.38 2270.42 1516.27C2208.14 1472.75 2175.79 1479.72 2146.78 1457.78C2113.27 1433.35 2094.53 1379.78 2132.52 1103.24C2157.88 925.073 2178.31 860.402 2137.52 825.838Z" fill="#2A1C7C"/>
<path d="M2179.17 818.818C2171.47 812.297 2161.76 807.373 2026.76 810.652C2010.35 811.292 1898.27 814.825 1764.79 845.176C1738.78 850.903 1702.34 860.355 1698.3 880.729C1694.79 898.912 1718.47 916.997 1724.57 921.503C1827.46 1006.05 1803.66 1488.98 1935.15 1590.49C1964.99 1613.79 1999.34 1622.41 1999.34 1622.41C2048.38 1635.53 2092.87 1619.69 2129.78 1615.93C2283.63 1598.21 2365.78 1613.61 2373.92 1582.16C2378.79 1563.15 2343.03 1537.47 2312.66 1516.36C2250.31 1472.13 2217.96 1479.09 2188.95 1457.16C2155.39 1432.01 2136.65 1378.45 2174.4 1099.06C2199.59 918.764 2219.9 852.671 2179.17 818.818Z" fill="#525DC1"/>
<path d="M3710.59 1553.34L3707.76 2064.14L3732.88 2071.94L3755.44 1564.92L3710.59 1553.34Z" fill="#525DC1"/>
<path d="M3403.49 1527.97L3400.66 2038.77L3425.07 2046.51L3448.34 1539.55L3403.49 1527.97Z" fill="#525DC1"/>
<path d="M3821.19 1488.04L3818.72 1925.15L3839.58 1932.6L3859.05 1497.61L3821.19 1488.04Z" fill="#2A1C7C"/>
<path d="M3557.46 1466.25L3555.7 1903.42L3576.56 1910.87L3596.03 1475.88L3557.46 1466.25Z" fill="#2A1C7C"/>
<path d="M3576.72 825.838C3584.42 819.316 3594.13 814.393 3729.07 818.383C3745.48 819.023 3857.56 822.555 3991.04 852.907C4017.05 858.634 4053.49 868.086 4057.59 887.749C4061.15 905.221 4037.47 923.305 4031.37 927.812C3928.54 1011.65 3952.76 1489.61 3821.38 1589.69C3791.6 1612.28 3757.19 1621.61 3757.19 1621.61C3708.16 1634.73 3663.66 1618.89 3626.81 1614.41C3472.96 1596.69 3390.81 1612.1 3382.61 1581.36C3377.74 1562.35 3413.44 1537.38 3443.82 1516.27C3506.1 1472.75 3538.45 1479.72 3567.46 1457.78C3600.97 1433.35 3619.71 1379.78 3581.72 1103.24C3556.36 925.073 3535.93 860.402 3576.72 825.838Z" fill="#2A1C7C"/>
<path d="M3535.07 818.818C3542.77 812.297 3552.48 807.373 3687.48 810.652C3703.89 811.292 3815.97 814.825 3949.45 845.176C3975.46 850.903 4011.9 860.355 4015.94 880.729C4019.45 898.912 3995.77 916.997 3989.67 921.503C3886.78 1006.05 3910.58 1488.98 3779.09 1590.49C3749.25 1613.79 3714.9 1622.41 3714.9 1622.41C3665.86 1635.53 3621.37 1619.69 3584.46 1615.93C3430.61 1598.21 3348.46 1613.61 3340.32 1582.16C3335.45 1563.15 3371.21 1537.47 3401.58 1516.36C3463.93 1472.13 3496.28 1479.09 3525.29 1457.16C3558.85 1432.01 3577.59 1378.45 3539.84 1099.06C3514.65 918.764 3494.34 852.671 3535.07 818.818Z" fill="#525DC1"/>
<path d="M1162.59 1857.33H1237.83V1979.07H1162.59V1857.33Z" fill="#BC775C"/>
<path d="M1154.03 2042.69C1223.76 2042.69 1293.5 2042.69 1363.24 2042.69C1365.69 2041.47 1371.19 2037.18 1374.25 2029.84C1377.92 2020.67 1374.25 2012.72 1370.58 2008.43C1363.85 1999.26 1352.84 1999.26 1333.27 1993.75C1332.04 1993.14 1302.68 1982.74 1244.56 1961.33C1242.73 1960.72 1237.83 1958.88 1232.33 1959.49C1223.15 1960.72 1218.26 1967.45 1214.59 1969.89C1199.3 1982.13 1171.77 1956.44 1157.09 1964.39C1147.91 1969.28 1148.52 1983.96 1149.13 2009.04C1150.97 2023.73 1152.8 2034.74 1154.03 2042.69Z" fill="#5661AE"/>
<path d="M1311.85 1982.13C1308.8 1983.96 1304.51 1987.02 1301.46 1991.3C1294.11 2001.09 1294.11 2010.88 1294.11 2014.55" stroke="white" stroke-miterlimit="10" stroke-linecap="round"/>
<path d="M1295.95 1974.79C1292.89 1976.62 1288.61 1979.68 1285.55 1983.96C1278.21 1993.75 1278.21 2003.54 1278.21 2007.21" stroke="white" stroke-miterlimit="10" stroke-linecap="round"/>
<path d="M1331.43 1987.63C1328.37 1989.47 1324.09 1992.53 1321.03 1996.81C1313.69 2006.6 1313.69 2016.38 1313.69 2020.06" stroke="white" stroke-miterlimit="10" stroke-linecap="round"/>
<path d="M1114.32 1767.65L1161.78 1826.05L1067.3 1902.83L1019.85 1844.43L1114.32 1767.65Z" fill="#BC775C"/>
<path d="M965 1878.13C1009.04 1932.58 1053.09 1986.41 1097.13 2040.85C1099.58 2042.08 1106.31 2043.91 1113.65 2041.47C1122.83 2038.41 1127.11 2030.45 1128.33 2024.95C1131.39 2013.94 1124.66 2005.37 1116.1 1987.02C1115.49 1985.8 1105.7 1956.43 1084.9 1897.71C1084.29 1895.87 1082.45 1890.98 1078.78 1887.31C1072.05 1881.19 1064.1 1881.19 1059.82 1880.58C1040.86 1876.3 1043.3 1838.98 1028.01 1832.86C1018.22 1829.19 1007.82 1838.37 988.246 1854.89C977.846 1863.45 969.894 1872.01 965 1878.13Z" fill="#5661AE"/>
<path d="M1103.86 1942.98C1100.81 1941.75 1095.91 1940.53 1090.41 1940.53C1078.17 1940.53 1070.22 1947.26 1067.77 1949.71" stroke="white" stroke-miterlimit="10" stroke-linecap="round"/>
<path d="M1099.58 1925.85C1096.52 1924.62 1091.63 1923.4 1086.12 1923.4C1073.89 1923.4 1065.94 1930.13 1063.49 1932.58" stroke="white" stroke-miterlimit="10" stroke-linecap="round"/>
<path d="M1111.82 1961.33C1108.76 1960.11 1103.87 1958.88 1098.36 1958.88C1086.13 1958.88 1078.17 1965.61 1075.73 1968.06" stroke="white" stroke-miterlimit="10" stroke-linecap="round"/>
<path d="M1664.83 552.502C1670.33 553.726 1673.39 558.619 1678.9 568.407C1681.34 572.689 1683.79 578.195 1686.85 584.924C1701.53 557.396 1724.78 536.597 1740.68 540.879C1746.8 542.714 1751.69 548.832 1755.97 554.337C1757.81 556.173 1770.66 573.913 1768.82 594.712C1767.6 610.617 1755.36 623.463 1731.51 649.156C1719.88 661.391 1709.48 671.179 1702.75 677.296C1692.97 671.791 1683.18 666.897 1672.78 661.391C1672.17 656.497 1670.94 649.156 1671.56 641.204C1670.94 629.581 1669.72 620.405 1668.5 612.452C1664.21 586.759 1658.1 575.136 1656.26 571.466C1653.81 566.572 1650.76 562.902 1648.92 560.455C1650.76 558.619 1657.49 551.279 1664.83 552.502Z" fill="#BC775C"/>
<path d="M1765.15 578.807C1757.81 582.477 1752.3 587.983 1747.41 594.1C1742.52 600.217 1738.23 606.335 1735.79 614.287L1750.47 596.547L1765.15 578.807Z" fill="#93523E"/>
<path d="M1755.36 561.679C1747.41 566.573 1740.68 573.302 1735.18 580.031C1729.67 587.372 1724.16 594.713 1721.11 603.277L1738.23 582.478L1755.36 561.679C1755.97 561.679 1755.97 561.679 1755.36 561.679C1755.97 561.067 1755.36 561.067 1755.36 561.679Z" fill="#93523E"/>
<path d="M1742.52 546.996C1733.34 553.113 1726 561.066 1719.27 569.019C1712.54 576.971 1706.42 585.535 1702.14 595.935L1722.33 572.077L1742.52 546.996Z" fill="#93523E"/>
<path d="M1689.91 597.159C1694.19 605.723 1697.25 613.675 1697.86 621.628C1698.47 625.91 1697.86 630.192 1697.25 634.474C1696.64 638.757 1695.41 643.039 1694.19 647.933C1699.69 639.98 1702.75 630.804 1702.14 621.628C1701.53 612.452 1697.25 603.276 1689.91 597.159C1689.91 596.547 1689.91 596.547 1689.91 597.159Z" fill="#93523E"/>
<path d="M1057.98 1772.3C1105.7 1730.09 1186.45 1660.97 1247.62 1606.52L1236 1767.41C1200.52 1795.55 1165.04 1823.69 1129.56 1851.83C1106.31 1825.52 1082.45 1799.22 1057.98 1772.3Z" fill="#1F2D49"/>
<path d="M1328.37 1528.83C1335.1 1508.64 1239.06 1231.53 1198.07 1100.01C1274.54 1104.9 1349.17 1093.28 1425.64 1098.17C1441.54 1225.41 1459.28 1363.05 1475.19 1489.68C1477.63 1500.08 1481.92 1523.94 1473.35 1552.08C1464.79 1580.22 1448.27 1597.96 1440.32 1605.3C1385.26 1649.34 1329.59 1692.78 1274.54 1736.82V1582.05C1305.13 1555.14 1326.54 1534.34 1328.37 1528.83Z" fill="#1F2D49"/>
<path d="M1275.15 1582.67V1737.43C1262.3 1747.83 1249.46 1758.23 1236.61 1768.02L1248.23 1607.13C1257.41 1597.96 1266.59 1590.01 1275.15 1582.67Z" fill="#0D1B33"/>
<path d="M1282.49 1100.01L1252.52 1881.8H1146.69L1109.37 1100.01H1282.49Z" fill="#1F2D49"/>
<path d="M1429.31 660.779L1311.85 624.687H1244.56L1097.75 666.896V1109.18H1429.31V660.779Z" fill="white"/>
<path d="M1214.59 624.076C1228.66 661.392 1243.34 698.096 1257.41 735.412C1245.79 822.89 1240.89 927.496 1251.9 1043.73C1256.19 1085.32 1261.69 1124.48 1268.42 1161.18C1240.28 1163.01 1209.08 1163.63 1174.83 1162.4C1144.85 1161.18 1117.32 1158.12 1092.85 1153.84C1086.12 1060.24 1084.29 953.801 1092.85 837.571C1097.75 772.116 1105.7 710.942 1114.88 654.051C1147.91 644.263 1181.55 633.863 1214.59 624.076Z" fill="#5661AE"/>
<path d="M1152.19 1030.88C1165.04 1057.8 1172.38 1087.16 1177.27 1116.52C1180.33 1133.65 1182.78 1152 1193.18 1166.07C1201.13 1176.47 1212.75 1183.81 1219.48 1195.44C1226.82 1206.45 1228.05 1221.13 1225.6 1233.98C1222.54 1246.82 1215.81 1259.06 1206.64 1268.84C1199.29 1259.06 1192.57 1248.66 1185.23 1238.87C1172.38 1220.52 1158.92 1201.55 1146.07 1183.2C1127.11 1156.9 1112.43 1126.31 1097.14 1097.56C1080.01 1066.97 1062.88 1038.22 1050.03 1006.41C1047.58 1000.9 1045.75 994.787 1047.58 989.281C1048.81 985.611 1052.48 982.552 1056.15 980.105C1065.32 973.988 1076.34 968.482 1087.35 966.035C1097.14 964.2 1100.81 967.259 1108.15 973.376C1127.11 988.669 1141.79 1008.86 1152.19 1030.88Z" fill="#BC775C"/>
<path d="M1212.14 1262.73C1211.53 1257.83 1210.92 1251.1 1207.86 1244.38C1202.97 1233.36 1196.24 1226.02 1191.95 1222.35" fill="#93523E"/>
<path d="M1222.54 1246.82C1221.93 1241.93 1221.32 1235.2 1218.26 1228.47C1213.36 1217.46 1206.64 1210.12 1202.35 1206.45" fill="#93523E"/>
<path d="M1421.97 646.709C1423.8 646.098 1428.08 646.098 1443.99 661.391C1472.74 688.307 1488.03 715.224 1500.27 734.187C1510.06 750.093 1525.35 771.503 1546.15 796.584C1584.69 742.752 1623.84 688.919 1662.38 634.475C1699.08 658.944 1683.18 647.933 1719.88 672.402C1667.88 759.269 1615.28 846.747 1563.28 933.613C1561.44 936.672 1556.55 937.895 1554.1 934.837C1505.77 893.239 1458.06 852.252 1409.73 810.654C1403 723.176 1403.61 650.991 1421.97 646.709Z" fill="#2A1C7C"/>
<path d="M1369.97 628.358C1362.02 663.227 1354.06 698.707 1346.11 733.576C1349.17 808.82 1349.78 887.734 1347.95 970.93C1346.72 1034.55 1343.67 1095.72 1339.38 1154.45C1356.51 1150.78 1376.09 1145.89 1397.5 1137.93C1417.07 1130.59 1434.2 1122.64 1448.27 1115.3C1443.38 1069.42 1439.1 1022.32 1436.04 973.988C1428.08 859.594 1426.86 751.928 1429.92 650.992C1410.34 642.428 1390.16 635.699 1369.97 628.358Z" fill="#5661AE"/>
<path d="M1127.11 650.38C1113.65 651.604 1100.19 665.062 1097.75 666.897C1084.29 680.355 1080.01 696.26 1078.78 700.542C1070.83 728.682 1043.91 806.984 1005.37 915.261C1004.15 918.32 1004.15 921.991 1005.99 925.661C1049.42 1011.92 1093.46 1098.17 1136.9 1185.04C1180.94 1164.24 1161.37 1174.03 1205.41 1153.23C1173.6 1077.98 1141.79 1003.35 1109.37 928.108C1134.45 862.652 1160.14 797.197 1185.22 731.129C1176.05 680.355 1149.13 648.545 1127.11 650.38Z" fill="#2A1C7C"/>
<path d="M1333.88 562.291C1327.15 594.713 1329.59 613.676 1333.88 625.299C1334.49 627.746 1336.32 632.028 1333.88 636.311C1328.98 644.875 1310.63 645.487 1277.6 645.487C1243.34 646.098 1236.61 642.428 1234.16 638.758C1230.49 634.475 1232.33 628.97 1232.94 626.523C1236.61 614.9 1237.83 594.713 1231.72 559.232C1265.97 560.455 1299.62 561.067 1333.88 562.291Z" fill="#93523E"/>
<path d="M1322.25 331.666C1338.16 334.724 1353.45 342.677 1363.24 356.135C1368.75 364.087 1371.8 372.652 1374.25 381.828C1379.76 403.85 1380.37 425.873 1380.98 448.507C1381.59 472.365 1382.2 496.222 1379.76 520.08C1378.53 530.48 1376.7 541.491 1372.42 550.667C1360.79 574.524 1332.65 586.147 1306.35 589.206C1282.49 591.653 1258.63 587.983 1236.61 579.418C1229.88 576.36 1222.54 573.301 1217.65 567.184C1212.75 561.678 1210.31 553.725 1208.47 546.385C1194.4 494.999 1190.12 439.943 1198.07 387.333C1199.91 375.099 1202.97 361.641 1210.31 351.853C1217.65 342.065 1229.27 335.948 1240.89 332.889C1265.36 326.16 1297.78 326.16 1322.25 331.666Z" fill="#BC775C"/>
<path d="M1185.84 422.815C1180.94 417.921 1173.6 413.027 1166.87 416.086C1164.43 417.309 1162.59 419.144 1161.37 420.98C1156.47 427.709 1155.25 436.273 1155.86 444.226C1157.7 477.259 1182.17 507.846 1213.98 517.022C1211.53 516.41 1205.41 466.248 1204.8 461.354C1202.35 444.837 1198.07 435.05 1185.84 422.815Z" fill="#BC775C"/>
<path d="M1342.44 569.019C1335.1 566.572 1328.98 564.737 1322.25 562.902C1315.52 561.066 1309.41 559.231 1302.07 557.396C1308.18 561.678 1314.3 564.737 1321.64 567.184C1328.37 569.631 1335.71 570.242 1342.44 569.019C1343.05 569.631 1343.05 569.631 1342.44 569.019C1343.05 569.631 1343.05 569.019 1342.44 569.019Z" fill="#1F2D49"/>
<path d="M1361.2 503.65C1359.58 498.491 1360.63 493.573 1363.53 492.665C1366.43 491.757 1370.09 495.203 1371.71 500.362C1373.32 505.521 1372.28 510.44 1369.37 511.348C1366.47 512.256 1362.81 508.809 1361.2 503.65Z" fill="#1F2D49"/>
<path d="M1302.43 513.307C1299.57 512.288 1298.71 507.333 1300.52 502.24C1302.34 497.146 1306.13 493.844 1308.99 494.863C1311.86 495.882 1312.71 500.837 1310.9 505.931C1309.09 511.024 1305.3 514.326 1302.43 513.307Z" fill="#1F2D49"/>
<path d="M1376.7 474.2C1379.15 469.918 1379.15 466.859 1378.53 464.412C1377.92 461.354 1376.09 459.519 1373.64 458.295C1371.19 457.072 1368.75 457.072 1366.3 458.295C1363.85 459.519 1361.41 461.354 1359.57 465.636V466.248V466.859C1362.63 467.471 1365.69 468.083 1368.75 469.918C1371.8 471.141 1374.25 472.977 1376.7 475.424H1377.31L1376.7 474.2Z" fill="#1F2D49"/>
<path d="M1319.2 465.023C1317.36 460.741 1313.69 458.294 1310.63 457.071C1307.57 455.847 1303.9 455.847 1300.84 457.071C1297.79 458.294 1294.73 460.741 1293.5 463.8C1291.67 466.859 1291.06 470.529 1292.28 475.423V476.035C1292.28 476.035 1292.89 476.646 1292.89 476.035C1296.56 472.976 1300.23 469.917 1305.13 468.694C1309.41 466.859 1314.3 466.247 1319.2 466.247C1319.2 466.247 1319.81 466.247 1319.81 465.635C1319.2 465.635 1319.2 465.635 1319.2 465.023Z" fill="#1F2D49"/>
<path d="M1343.67 508.457C1344.28 510.904 1343.67 513.351 1343.67 516.41C1343.67 517.633 1344.28 519.469 1344.89 520.692C1345.5 521.916 1346.72 522.527 1347.95 523.751C1350.39 524.974 1352.23 526.198 1354.06 528.033C1355.29 529.868 1356.51 532.315 1356.51 534.15C1356.51 536.597 1355.9 538.432 1354.68 540.268C1353.45 542.103 1351.62 542.715 1349.78 543.326C1345.5 544.55 1339.38 542.715 1334.49 544.55C1339.99 545.161 1344.28 547.608 1350.39 546.997C1353.45 546.385 1356.51 545.161 1358.35 542.103C1360.18 539.656 1360.79 535.985 1360.18 532.927C1359.57 526.809 1354.06 521.916 1349.17 520.08C1346.72 518.857 1344.89 517.633 1344.89 515.186C1344.28 513.351 1344.89 510.904 1343.67 508.457C1343.67 507.846 1343.67 507.846 1343.67 508.457C1343.67 507.846 1343.67 508.457 1343.67 508.457Z" fill="#1F2D49"/>
<path d="M1191.95 367.758C1200.52 343.289 1221.32 324.937 1245.18 316.984C1252.52 314.537 1259.86 313.314 1267.81 312.09C1272.09 294.35 1281.27 279.057 1299.62 272.328C1304.51 270.492 1310.63 269.269 1315.52 270.492C1320.42 271.716 1325.92 275.386 1327.76 280.28C1329.59 285.786 1327.76 291.903 1325.31 297.409C1347.33 293.127 1371.19 293.738 1390.16 304.75C1396.27 308.42 1402.39 313.926 1404.84 320.655C1408.51 331.666 1401.17 344.512 1389.54 346.959C1400.56 352.465 1410.96 361.029 1416.46 372.652C1421.97 384.275 1420.74 398.957 1412.18 408.133C1404.84 416.086 1393.83 418.532 1383.43 417.309C1382.2 417.921 1381.59 418.532 1380.37 418.532C1339.99 430.767 1295.34 418.532 1254.35 429.544C1247.62 431.379 1240.89 433.826 1235.39 438.72C1224.99 447.896 1222.54 462.577 1222.54 476.647C1222.54 484.6 1222.54 494.388 1215.2 498.058C1209.69 501.117 1202.35 498.058 1198.68 493.164C1195.01 488.27 1193.79 482.153 1192.57 476.036C1188.9 455.237 1187.67 435.049 1187.06 414.25C1186.45 398.345 1187.06 382.44 1191.95 367.758Z" fill="#1F2D49"/>
<path d="M4407.41 1857.33H4332.17V1979.07H4407.41V1857.33Z" fill="#E3AE96"/>
<path d="M4266.18 1857.33H4190.94V1979.07H4266.18V1857.33Z" fill="#E3AE96"/>
<path d="M4274.75 2042.69C4205.01 2042.69 4135.27 2042.69 4065.53 2042.69C4063.08 2041.47 4057.58 2037.18 4054.52 2029.84C4050.85 2020.67 4054.52 2012.72 4058.19 2008.43C4064.92 1999.26 4075.93 1999.26 4095.51 1993.75C4096.73 1993.14 4126.09 1982.74 4184.21 1961.33C4186.04 1960.72 4190.94 1958.88 4196.44 1959.49C4205.62 1960.72 4210.51 1967.45 4214.18 1969.89C4229.48 1982.13 4257 1956.44 4271.69 1964.39C4280.86 1969.28 4280.25 1983.96 4279.64 2009.04C4277.8 2023.73 4275.97 2034.74 4274.75 2042.69Z" fill="#2A1C7C"/>
<path d="M4415.97 2042.69C4346.24 2042.69 4276.5 2042.69 4206.76 2042.69C4204.31 2041.47 4198.81 2037.18 4195.75 2029.84C4192.08 2020.67 4195.75 2012.72 4199.42 2008.43C4206.15 1999.26 4217.16 1999.26 4236.73 1993.75C4237.96 1993.14 4267.32 1982.74 4325.44 1961.33C4327.27 1960.72 4332.17 1958.88 4337.67 1959.49C4346.85 1960.72 4351.74 1967.45 4355.41 1969.89C4370.7 1982.13 4398.23 1956.44 4412.91 1964.39C4422.09 1969.28 4421.48 1983.96 4420.87 2009.04C4419.03 2023.73 4417.2 2034.74 4415.97 2042.69Z" fill="#5661AE"/>
<path fill-rule="evenodd" clip-rule="evenodd" d="M4256.43 1981.1C4257 1980.15 4258.23 1979.84 4259.17 1980.41C4262.33 1982.31 4266.87 1985.53 4270.16 1990.12C4277.89 2000.44 4277.89 2010.77 4277.89 2014.54V2014.55C4277.89 2015.65 4276.99 2016.55 4275.89 2016.55C4274.78 2016.55 4273.89 2015.65 4273.89 2014.55C4273.89 2010.98 4273.88 2001.75 4266.94 1992.5L4266.93 1992.48L4266.92 1992.47C4264.09 1988.51 4260.07 1985.62 4257.12 1983.84C4256.17 1983.27 4255.86 1982.04 4256.43 1981.1Z" fill="white"/>
<path fill-rule="evenodd" clip-rule="evenodd" d="M4272.34 1973.76C4272.9 1972.81 4274.13 1972.5 4275.08 1973.07C4278.24 1974.97 4282.78 1978.19 4286.06 1982.78C4293.79 1993.1 4293.79 2003.42 4293.79 2007.2V2007.21C4293.79 2008.31 4292.9 2009.21 4291.79 2009.21C4290.69 2009.21 4289.79 2008.31 4289.79 2007.21C4289.79 2003.64 4289.79 1994.41 4282.85 1985.16L4282.84 1985.14L4282.82 1985.12C4279.99 1981.16 4275.98 1978.28 4273.02 1976.5C4272.07 1975.93 4271.77 1974.7 4272.34 1973.76Z" fill="white"/>
<path fill-rule="evenodd" clip-rule="evenodd" d="M4236.86 1986.6C4237.42 1985.66 4238.65 1985.35 4239.6 1985.92C4242.76 1987.81 4247.3 1991.03 4250.58 1995.63C4258.31 2005.94 4258.31 2016.27 4258.31 2020.05V2020.06C4258.31 2021.16 4257.42 2022.06 4256.31 2022.06C4255.21 2022.06 4254.31 2021.16 4254.31 2020.06C4254.31 2016.48 4254.3 2007.26 4247.37 1998.01L4247.36 1997.99L4247.34 1997.97C4244.51 1994.01 4240.5 1991.12 4237.54 1989.35C4236.59 1988.78 4236.29 1987.55 4236.86 1986.6Z" fill="white"/>
<path fill-rule="evenodd" clip-rule="evenodd" d="M4115.2 1981.1C4115.77 1980.15 4117 1979.84 4117.95 1980.41C4121.1 1982.31 4125.64 1985.53 4128.93 1990.12C4136.66 2000.44 4136.66 2010.77 4136.66 2014.54V2014.55C4136.66 2015.65 4135.76 2016.55 4134.66 2016.55C4133.55 2016.55 4132.66 2015.65 4132.66 2014.55C4132.66 2010.98 4132.65 2001.75 4125.72 1992.5L4125.7 1992.48L4125.69 1992.47C4122.86 1988.51 4118.84 1985.62 4115.89 1983.84C4114.94 1983.27 4114.63 1982.04 4115.2 1981.1Z" fill="white"/>
<path fill-rule="evenodd" clip-rule="evenodd" d="M4131.11 1973.76C4131.68 1972.81 4132.9 1972.5 4133.85 1973.07C4137.01 1974.97 4141.55 1978.19 4144.84 1982.78C4152.56 1993.1 4152.56 2003.42 4152.56 2007.2V2007.21C4152.56 2008.31 4151.67 2009.21 4150.56 2009.21C4149.46 2009.21 4148.56 2008.31 4148.56 2007.21C4148.56 2003.64 4148.56 1994.41 4141.62 1985.16L4141.61 1985.14L4141.6 1985.12C4138.77 1981.16 4134.75 1978.28 4131.79 1976.5C4130.85 1975.93 4130.54 1974.7 4131.11 1973.76Z" fill="white"/>
<path fill-rule="evenodd" clip-rule="evenodd" d="M4095.63 1986.6C4096.2 1985.66 4097.42 1985.35 4098.37 1985.92C4101.53 1987.81 4106.07 1991.03 4109.36 1995.63C4117.08 2005.94 4117.08 2016.27 4117.08 2020.05V2020.06C4117.08 2021.16 4116.19 2022.06 4115.08 2022.06C4113.98 2022.06 4113.08 2021.16 4113.08 2020.06C4113.08 2016.48 4113.08 2007.26 4106.14 1998.01L4106.13 1997.99L4106.11 1997.97C4103.29 1994.01 4099.27 1991.12 4096.31 1989.35C4095.37 1988.78 4095.06 1987.55 4095.63 1986.6Z" fill="white"/>
<path d="M3903.17 565.183C3897.67 566.407 3894.61 571.301 3889.1 581.088C3886.66 585.371 3884.21 590.876 3881.15 597.605C3866.47 570.077 3843.22 549.278 3827.32 553.56C3821.2 555.396 3816.31 561.513 3812.03 567.018C3810.19 568.854 3797.34 586.594 3799.18 607.393C3800.4 623.298 3812.64 636.145 3836.49 661.837C3848.12 674.072 3858.52 683.86 3865.25 689.977C3875.03 684.472 3884.82 679.578 3895.22 674.072C3895.83 669.178 3897.06 661.837 3896.44 653.885C3897.06 642.262 3898.28 633.086 3899.5 625.133C3903.79 599.44 3909.9 587.817 3911.74 584.147C3914.19 579.253 3917.24 575.583 3919.08 573.136C3917.24 571.301 3910.51 563.96 3903.17 565.183Z" fill="#FACBB4"/>
<path d="M3802.85 591.488C3810.19 595.158 3815.7 600.664 3820.59 606.781C3825.48 612.899 3829.77 619.016 3832.21 626.968L3817.53 609.228L3802.85 591.488Z" fill="#FACBB4"/>
<path d="M3812.64 574.36C3820.59 579.254 3827.32 585.983 3832.82 592.712C3838.33 600.053 3843.84 607.394 3846.89 615.958L3829.77 595.159L3812.64 574.36C3812.03 574.36 3812.03 574.36 3812.64 574.36C3812.03 573.748 3812.64 573.748 3812.64 574.36Z" fill="#FACBB4"/>
<path d="M3825.48 559.677C3834.66 565.795 3842 573.747 3848.73 581.7C3855.46 589.652 3861.58 598.217 3865.86 608.616L3845.67 584.758L3825.48 559.677Z" fill="#FACBB4"/>
<path d="M3878.09 609.84C3873.81 618.404 3870.75 626.357 3870.14 634.309C3869.53 638.591 3870.14 642.873 3870.75 647.156C3871.36 651.438 3872.59 655.72 3873.81 660.614C3868.31 652.661 3865.25 643.485 3865.86 634.309C3866.47 625.133 3870.75 615.957 3878.09 609.84C3878.09 609.228 3878.09 609.228 3878.09 609.84Z" fill="#FACBB4"/>
<path d="M4287.51 1100.01L4317.48 1881.8H4423.31L4460.63 1100.01H4287.51Z" fill="#1F2D49"/>
<path d="M4146.28 1100.01L4176.26 1881.8H4282.09L4319.4 1100.01H4146.28Z" fill="#1F2D49"/>
<path d="M4146.03 659.39C4144.2 658.779 4139.92 658.779 4124.01 674.072C4095.26 700.988 4079.97 727.905 4067.73 746.869C4057.94 762.774 4042.65 784.184 4021.85 809.266C3983.31 755.433 3944.16 701.6 3905.62 647.156C3868.92 671.625 3884.82 660.614 3848.12 685.083C3900.12 771.95 3952.72 859.428 4004.72 946.294C4006.56 949.353 4011.45 950.576 4013.9 947.518C4062.23 905.92 4109.94 864.934 4158.27 823.336C4165 735.857 4164.39 663.673 4146.03 659.39Z" fill="#D26425"/>
<path d="M4140.69 660.779L4258.15 624.687H4325.44L4472.25 666.896V1109.18H4140.69V660.779Z" fill="#FF971D"/>
<path d="M4417.81 1030.88C4404.96 1057.8 4397.62 1087.16 4392.73 1116.52C4389.67 1133.65 4387.22 1152 4376.82 1166.07C4368.87 1176.47 4357.25 1183.81 4350.52 1195.44C4343.18 1206.45 4341.95 1221.13 4344.4 1233.98C4347.46 1246.82 4354.19 1259.06 4363.36 1268.84C4370.7 1259.06 4377.43 1248.66 4384.77 1238.87C4397.62 1220.52 4411.08 1201.55 4423.93 1183.2C4442.89 1156.9 4457.57 1126.31 4472.86 1097.56C4489.99 1066.97 4507.12 1038.22 4519.97 1006.41C4522.42 1000.9 4524.25 994.787 4522.42 989.281C4521.19 985.611 4517.52 982.552 4513.85 980.105C4504.67 973.988 4493.66 968.482 4482.65 966.035C4472.86 964.2 4469.19 967.259 4461.85 973.376C4442.89 988.669 4428.21 1008.86 4417.81 1030.88Z" fill="#FACBB4"/>
<path d="M4357.86 1262.73C4358.47 1257.83 4359.08 1251.1 4362.14 1244.38C4367.03 1233.36 4373.76 1226.02 4378.05 1222.35" fill="#93523E"/>
<path d="M4347.46 1246.82C4348.07 1241.93 4348.68 1235.2 4351.74 1228.47C4356.64 1217.46 4363.36 1210.12 4367.65 1206.45" fill="#93523E"/>
<path d="M4442.89 650.38C4456.35 651.604 4469.81 665.062 4472.25 666.897C4485.71 680.355 4489.99 696.26 4491.22 700.542C4499.17 728.682 4526.09 806.984 4564.63 915.261C4565.85 918.32 4565.85 921.991 4564.01 925.661C4520.58 1011.92 4476.54 1098.17 4433.1 1185.04C4389.06 1164.24 4408.63 1174.03 4364.59 1153.23C4396.4 1077.98 4428.21 1003.35 4460.63 928.108C4435.55 862.652 4409.86 797.197 4384.78 731.129C4393.95 680.355 4420.87 648.545 4442.89 650.38Z" fill="#D26425"/>
<path d="M4236.12 562.291C4242.85 594.713 4240.41 613.676 4236.12 625.299C4235.51 627.746 4233.68 632.028 4236.12 636.311C4241.02 644.875 4259.37 645.487 4292.4 645.487C4326.66 646.098 4333.39 642.428 4335.84 638.758C4339.51 634.475 4337.67 628.97 4337.06 626.523C4333.39 614.9 4332.17 594.713 4338.28 559.232C4304.03 560.455 4270.38 561.067 4236.12 562.291Z" fill="#E3AE96"/>
<path d="M4247.75 331.666C4231.84 334.724 4216.55 342.677 4206.76 356.135C4201.25 364.087 4198.2 372.652 4195.75 381.828C4190.24 403.85 4189.63 425.873 4189.02 448.507C4188.41 472.365 4187.8 496.222 4190.24 520.08C4191.47 530.48 4193.3 541.491 4197.58 550.667C4209.21 574.524 4237.35 586.147 4263.65 589.206C4287.51 591.653 4311.37 587.983 4333.39 579.418C4340.12 576.36 4347.46 573.301 4352.35 567.184C4357.25 561.678 4359.69 553.725 4361.53 546.385C4375.6 494.999 4379.88 439.943 4371.93 387.333C4370.09 375.099 4367.03 361.641 4359.69 351.853C4352.35 342.065 4340.73 335.948 4329.11 332.889C4304.64 326.16 4272.22 326.16 4247.75 331.666Z" fill="#FACBB4"/>
<path d="M4384.16 422.815C4389.06 417.921 4396.4 413.027 4403.13 416.086C4405.57 417.309 4407.41 419.144 4408.63 420.98C4413.53 427.709 4414.75 436.273 4414.14 444.226C4412.3 477.259 4387.83 507.846 4356.02 517.022C4358.47 516.41 4364.59 466.248 4365.2 461.354C4367.65 444.837 4371.93 435.05 4384.16 422.815Z" fill="#FACBB4"/>
<path d="M4227.56 569.019C4234.9 566.572 4241.02 564.737 4247.75 562.902C4254.48 561.066 4260.59 559.231 4267.93 557.396C4261.82 561.678 4255.7 564.737 4248.36 567.184C4241.63 569.631 4234.29 570.242 4227.56 569.019C4226.95 569.631 4226.95 569.631 4227.56 569.019C4226.95 569.631 4226.95 569.019 4227.56 569.019Z" fill="#1F2D49"/>
<path d="M4208.8 503.65C4210.42 498.491 4209.37 493.573 4206.47 492.665C4203.57 491.757 4199.91 495.203 4198.29 500.362C4196.68 505.521 4197.72 510.44 4200.63 511.348C4203.53 512.256 4207.19 508.809 4208.8 503.65Z" fill="#1F2D49"/>
<path d="M4267.57 513.307C4270.43 512.288 4271.29 507.333 4269.48 502.24C4267.66 497.146 4263.87 493.844 4261.01 494.863C4258.14 495.882 4257.29 500.837 4259.1 505.931C4260.91 511.024 4264.7 514.326 4267.57 513.307Z" fill="#1F2D49"/>
<path d="M4193.3 474.2C4190.85 469.918 4190.85 466.859 4191.47 464.412C4192.08 461.354 4193.91 459.519 4196.36 458.295C4198.81 457.072 4201.25 457.072 4203.7 458.295C4206.15 459.519 4208.59 461.354 4210.43 465.636V466.248V466.859C4207.37 467.471 4204.31 468.083 4201.25 469.918C4198.2 471.141 4195.75 472.977 4193.3 475.424H4192.69L4193.3 474.2Z" fill="#1F2D49"/>
<path d="M4250.8 465.023C4252.64 460.741 4256.31 458.294 4259.37 457.071C4262.43 455.847 4266.1 455.847 4269.16 457.071C4272.21 458.294 4275.27 460.741 4276.5 463.8C4278.33 466.859 4278.94 470.529 4277.72 475.423V476.035C4277.72 476.035 4277.11 476.646 4277.11 476.035C4273.44 472.976 4269.77 469.917 4264.87 468.694C4260.59 466.859 4255.7 466.247 4250.8 466.247C4250.8 466.247 4250.19 466.247 4250.19 465.635C4250.8 465.635 4250.8 465.635 4250.8 465.023Z" fill="#1F2D49"/>
<path d="M4226.33 508.457C4225.72 510.904 4226.33 513.351 4226.33 516.41C4226.33 517.633 4225.72 519.469 4225.11 520.692C4224.5 521.916 4223.28 522.527 4222.05 523.751C4219.61 524.974 4217.77 526.198 4215.94 528.033C4214.71 529.868 4213.49 532.315 4213.49 534.15C4213.49 536.597 4214.1 538.432 4215.32 540.268C4216.55 542.103 4218.38 542.715 4220.22 543.326C4224.5 544.55 4230.62 542.715 4235.51 544.55C4230.01 545.161 4225.72 547.608 4219.61 546.997C4216.55 546.385 4213.49 545.161 4211.65 542.103C4209.82 539.656 4209.21 535.985 4209.82 532.927C4210.43 526.809 4215.94 521.916 4220.83 520.08C4223.28 518.857 4225.11 517.633 4225.11 515.186C4225.72 513.351 4225.11 510.904 4226.33 508.457C4226.33 507.846 4226.33 507.846 4226.33 508.457C4226.33 507.846 4226.33 508.457 4226.33 508.457Z" fill="#1F2D49"/>
<path d="M4378.05 367.758C4369.48 343.289 4348.68 324.937 4324.82 316.984C4317.48 314.537 4310.14 313.314 4302.19 312.09C4297.91 294.35 4288.73 279.057 4270.38 272.328C4265.49 270.492 4259.37 269.269 4254.48 270.492C4249.58 271.716 4244.08 275.386 4242.24 280.28C4240.41 285.786 4242.24 291.903 4244.69 297.409C4222.67 293.127 4198.81 293.738 4179.84 304.75C4173.73 308.42 4167.61 313.926 4165.16 320.655C4161.49 331.666 4168.83 344.512 4180.46 346.959C4169.44 352.465 4159.04 361.029 4153.54 372.652C4148.03 384.275 4149.26 398.957 4157.82 408.133C4165.16 416.086 4176.17 418.532 4186.57 417.309C4187.8 417.921 4188.41 418.532 4189.63 418.532C4230.01 430.767 4274.66 418.532 4315.65 429.544C4322.38 431.379 4329.11 433.826 4334.61 438.72C4345.01 447.896 4347.46 462.577 4347.46 476.647C4347.46 484.6 4347.46 494.388 4354.8 498.058C4360.31 501.117 4367.65 498.058 4371.32 493.164C4374.99 488.27 4376.21 482.153 4377.43 476.036C4381.1 455.237 4382.33 435.049 4382.94 414.25C4383.55 398.345 4382.94 382.44 4378.05 367.758Z" fill="#1F2D49"/>
<path d="M1169.53 1839.67L1623.46 3234.28H1697.84L1301.88 1829.82L1169.53 1839.67Z" fill="#E2F3FF"/>
<path d="M1588.46 1701.85L1948.32 2804.41H2007.39L1693.46 1694.19L1588.46 1701.85Z" fill="#E2F3FF"/>
<path d="M-261.183 1707.31H1902.38L1492.2 1975.3H-877L-261.183 1707.31Z" fill="#6A88C2"/>
<path d="M-261.183 1657H1902.38L1492.2 1924.98H-877L-261.183 1657Z" fill="#E2F3FF"/>
<path d="M1902.38 1657V1707.32L1822.53 1709.5L1902.38 1657Z" fill="#6A88C2"/>
<path d="M4643.94 1858.22L4143.91 3394.45H4061.98L4498.15 1847.37L4643.94 1858.22Z" fill="#E2F3FF"/>
<path d="M4182.47 1706.4L3786.06 2920.93H3721L4066.8 1697.97L4182.47 1706.4Z" fill="#E2F3FF"/>
<path d="M6219.94 1712.42H3836.67L4288.5 2007.62H6898.29L6219.94 1712.42Z" fill="#6A88C2"/>
<path d="M6219.94 1657H3836.67L4288.5 1952.2H6898.29L6219.94 1657Z" fill="#E2F3FF"/>
<path d="M3836.67 1657V1712.42L3924.63 1714.83L3836.67 1657Z" fill="#6A88C2"/>
<rect x="5203.01" y="1138.74" width="98.4225" height="466.804" transform="rotate(-23.0408 5203.01 1138.74)" fill="#FF971D"/>
<rect x="5476" y="935" width="132" height="633" rx="10" fill="#94B9FF"/>
<path d="M5195.91 1122.07C5193.75 1116.98 5196.12 1111.11 5201.2 1108.95L5273.37 1078.26C5278.45 1076.09 5284.32 1078.46 5286.48 1083.54L5314.49 1149.39L5223.92 1187.91L5195.91 1122.07Z" fill="#EF6A77"/>
<rect x="5237" y="1355" width="391" height="450" rx="10" fill="#5661AE"/>
<rect x="5496" y="1156" width="56" height="22" rx="4" fill="#694FFD"/>
<rect x="5496" y="1195" width="56" height="22" rx="4" fill="#694FFD"/>
<rect x="5496" y="1234" width="56" height="23" rx="4" fill="#694FFD"/>
<rect x="5496" y="1038" width="56" height="22" rx="4" fill="#694FFD"/>
<rect x="5496" y="1273" width="56" height="23" rx="4" fill="#694FFD"/>
<rect x="5496" y="1076" width="56" height="23" rx="4" fill="#694FFD"/>
<rect x="5496" y="1313" width="92" height="22" rx="4" fill="#694FFD"/>
<rect x="5496" y="1116" width="92" height="23" rx="4" fill="#694FFD"/>
<path d="M2287.37 1039.21C2282.38 1052.3 2276.15 1065.39 2264.3 1076.62C2237.5 1101.55 2188.87 1112.15 2142.11 1114.02C2167.05 1102.18 2184.51 1084.72 2195.73 1066.64C2206.95 1047.94 2211.31 1027.99 2213.18 1008.04C2201.96 1036.72 2170.79 1062.28 2129.65 1075.99C2146.48 1061.03 2152.71 1041.71 2153.96 1023C2155.21 1004.3 2149.6 985.599 2145.23 966.897C2133.39 915.777 2124.66 862.788 2144.61 812.292C2150.84 796.707 2160.19 781.122 2176.4 769.277C2192.61 756.809 2216.3 748.705 2240.61 749.328C2312.93 751.822 2289.24 802.318 2289.24 832.864C2289.24 877.126 2298.59 921.388 2298.59 965.65C2299.21 990.586 2296.1 1015.52 2287.37 1039.21Z" fill="#BC775C"/>
<path d="M2220.66 660.182C2236.87 663.299 2252.46 671.403 2262.43 685.118C2268.04 693.223 2271.16 701.95 2273.65 711.301C2279.26 733.744 2279.89 756.187 2280.51 779.253C2281.13 803.565 2281.76 827.878 2279.26 852.191C2278.02 862.789 2276.15 874.01 2271.78 883.361C2259.94 907.674 2231.26 919.519 2204.46 922.636C2180.14 925.13 2155.83 921.389 2133.39 912.662C2126.53 909.545 2119.05 906.427 2114.06 900.193C2109.07 894.583 2106.58 886.479 2104.71 878.998C2090.37 826.632 2086.01 770.525 2094.11 716.912C2095.98 704.444 2099.1 690.729 2106.58 680.754C2114.06 670.78 2125.91 664.546 2137.75 661.429C2162.06 654.571 2195.1 654.571 2220.66 660.182Z" fill="#FACBB4"/>
<path d="M2160.19 965.024C2168.92 983.103 2183.88 997.441 2201.34 1007.42C2204.46 1009.29 2208.2 1011.16 2208.82 1014.27C2209.44 1016.14 2208.82 1018.64 2208.2 1020.51C2201.96 1041.7 2193.23 1063.52 2175.16 1075.37C2164.56 1082.85 2150.84 1085.34 2137.75 1085.97C2105.33 1087.21 2072.92 1074.74 2049.85 1051.68C2038.01 1039.83 2029.28 1021.13 2038.63 1008.04C2047.36 994.948 2066.68 996.195 2080.4 988.09C2094.74 979.986 2100.97 962.531 2104.09 946.946C2107.83 928.867 2109.7 910.788 2109.07 892.086C2109.07 890.216 2109.07 887.722 2110.32 885.852C2111.57 883.982 2113.44 883.358 2115.31 882.735C2124.04 880.241 2132.76 883.358 2140.24 888.969C2153.96 899.567 2154.58 907.048 2153.34 922.633C2151.47 936.971 2153.96 951.933 2160.19 965.024Z" fill="#FACCB4"/>
<path d="M2184.51 995.571C2182.01 998.688 2166.43 1022.38 2136.51 1025.49C2110.95 1027.99 2086.01 1014.9 2072.29 991.83C2058.58 991.207 2034.89 991.207 2008.08 1000.56C1982.52 1009.29 1964.45 1022.38 1953.85 1031.1C1953.85 1059.78 1957.59 1099.06 1971.93 1143.32C1976.29 1157.03 1992.5 1182.59 2008.08 1223.74C2016.19 1245.56 2018.06 1253.66 2018.68 1262.39C2019.93 1284.83 2012.45 1299.17 1998.73 1332.21C1992.5 1347.8 1982.52 1371.48 1971.3 1401.41C1981.9 1408.89 2039.25 1449.41 2112.82 1433.2C2151.47 1425.1 2178.27 1404.53 2191.37 1392.06C2186.38 1371.48 2196.35 1349.67 2190.12 1320.99C2183.88 1291.69 2179.52 1279.22 2179.52 1264.88C2178.9 1244.93 2181.39 1233.71 2195.11 1213.14C2207.57 1194.44 2238.74 1146.43 2251.84 1094.07C2254.95 1080.98 2258.69 1061.03 2258.69 1035.47C2249.34 1029.23 2237.5 1021.13 2224.41 1013.65C2210.07 1006.17 2196.35 999.934 2184.51 995.571Z" fill="white"/>
<path d="M2266.17 1343.43C2254.95 1296.05 2245.6 1258.02 2239.37 1233.09C2221.91 1166.38 2213.18 1138.95 2215.68 1099.68C2216.3 1085.96 2218.79 1048.56 2233.76 1037.96C2251.83 1024.87 2276.15 1060.4 2283.01 1069.76C2302.33 1097.81 2306.69 1129.6 2322.9 1215.63C2327.89 1242.44 2335.99 1287.32 2347.22 1345.3C2319.79 1344.68 2292.98 1344.05 2266.17 1343.43Z" fill="#EF6A77"/>
<path d="M2072.92 986.846C2055.46 988.093 2030.52 991.833 2001.85 1003.05C1975.67 1013.03 1963.2 1018.64 1953.85 1031.73C1933.9 1058.54 1950.11 1100.93 1962.57 1133.35C1971.92 1158.91 1977.54 1162.65 1990 1195.06C1999.35 1220.62 2006.21 1236.83 2008.08 1255.53C2011.2 1284.21 2000.6 1297.93 1980.65 1354.03C1973.79 1373.36 1964.44 1401.41 1956.34 1436.94C1994.99 1421.36 2034.27 1405.77 2072.92 1390.19C2080.4 1331.59 2085.38 1264.88 2085.38 1191.95C2085.38 1115.89 2080.4 1047.32 2072.92 986.846Z" fill="#EF6A77"/>
<path d="M2183.26 995.57C2194.48 996.817 2211.31 1000.56 2230.02 1011.78C2247.47 1021.75 2255.58 1027.36 2261.81 1040.46C2274.9 1067.26 2264.3 1109.65 2256.2 1142.07C2249.96 1167.63 2246.22 1171.37 2238.12 1203.79C2231.89 1229.35 2227.52 1245.56 2226.28 1264.26C2224.41 1292.94 2231.26 1306.65 2244.35 1362.76C2248.72 1382.08 2254.95 1410.14 2260.56 1445.67C2235 1430.08 2208.82 1414.5 2183.26 1398.91C2178.27 1340.31 2175.16 1273.61 2174.53 1200.67C2174.53 1124.62 2178.27 1055.42 2183.26 995.57Z" fill="#EF6A77"/>
<path d="M2003.72 1311.64C2008.08 1263.64 2012.45 1225.61 2014.94 1200.05C2023.04 1132.1 2028.66 1104.05 2016.81 1067.27C2013.69 1054.8 2002.47 1019.89 1981.28 1013.65C1955.09 1006.17 1931.4 1046.07 1924.55 1056.67C1905.84 1087.84 1906.47 1119.01 1903.97 1205.04C1903.35 1231.85 1902.1 1276.73 1899.61 1334.08C1935.14 1325.98 1969.43 1319.12 2003.72 1311.64Z" fill="#EF6A77"/>
<path d="M2069.18 748.706C2064.19 743.718 2056.71 738.731 2049.85 741.848C2047.36 743.095 2045.49 744.965 2044.24 746.835C2039.25 753.693 2038.01 762.42 2038.63 770.525C2040.5 804.189 2065.44 835.359 2097.85 844.71C2095.36 844.087 2089.13 792.967 2088.5 787.98C2085.39 771.148 2081.65 761.174 2069.18 748.706Z" fill="#FACCB4"/>
<path d="M2052.35 817.276C2040.5 869.642 2036.76 923.878 2028.03 976.868C2024.92 995.57 2021.17 1014.9 2010.58 1031.1C2002.47 1044.2 1990 1054.79 1978.16 1064.77C1988.76 1069.13 2000.6 1067.26 2011.2 1062.9C2021.8 1058.53 2030.53 1051.05 2039.25 1043.57C2037.38 1050.43 2034.89 1057.91 2033.02 1064.77C2038.01 1062.27 2042.99 1059.16 2047.36 1056.66C2084.76 1032.35 2104.09 987.466 2110.95 943.204C2117.8 898.942 2113.44 854.057 2115.31 809.171C2116.56 781.742 2119.67 754.312 2125.28 727.505C2128.4 711.92 2132.14 695.711 2128.4 680.126C2125.28 666.411 2105.33 695.711 2102.22 700.075C2093.49 711.297 2086.63 723.765 2080.4 736.856C2067.31 761.793 2058.58 789.222 2052.35 817.276Z" fill="#BC775C"/>
<path d="M2291.11 1541.68C2289.24 1524.22 2287.99 1506.77 2291.11 1489.94C2294.23 1473.1 2302.33 1456.27 2317.29 1446.92C2322.9 1443.18 2329.14 1440.69 2336 1441.93C2342.85 1442.56 2348.46 1446.92 2354.07 1451.29C2379.63 1473.1 2398.96 1502.4 2415.79 1531.08C2478.13 1635.19 2525.51 1747.4 2570.4 1860.24C2611.54 1870.21 2655.18 1868.97 2696.32 1859.62C2681.99 1893.28 2652.06 1919.46 2617.15 1929.44C2600.94 1934.43 2572.27 1949.39 2569.15 1955C2566.03 1961.23 2560.42 1964.97 2554.19 1967.47C2551.69 1968.09 2549.2 1969.34 2546.71 1968.71C2543.59 1968.09 2540.47 1965.6 2538.6 1962.48C2524.89 1943.78 2529.87 1916.97 2521.15 1895.15C2517.41 1885.8 2510.55 1877.7 2504.32 1869.59C2441.35 1791.04 2379.63 1711.25 2327.89 1625.22C2310.44 1597.79 2294.23 1573.47 2291.11 1541.68Z" fill="#E3AE96"/>
<path d="M2635.23 1865.23C2635.23 1869.59 2635.23 1877.07 2638.35 1884.55C2642.09 1894.53 2647.7 1901.39 2650.82 1904.5C2643.96 1908.87 2636.48 1913.23 2629.62 1917.59C2626.5 1913.23 2621.52 1905.75 2619.02 1895.15C2615.91 1882.06 2617.15 1870.84 2618.4 1865.23C2623.39 1865.23 2629 1865.23 2635.23 1865.23Z" fill="#5661AE"/>
<path d="M2665.15 1863.98C2660.79 1885.17 2651.44 1895.77 2645.83 1900.76C2627.13 1917.59 2599.07 1920.09 2582.86 1921.33C2573.51 1921.96 2563.54 1921.96 2548.58 1926.32C2539.23 1928.81 2531.75 1931.93 2527.38 1934.42C2528.63 1940.66 2531.12 1951.26 2537.98 1962.48C2545.46 1974.94 2554.81 1982.43 2560.42 1985.54C2566.66 1979.93 2576.01 1971.2 2587.85 1962.48C2597.83 1955 2605.93 1949.39 2619.02 1941.9C2668.27 1911.36 2673.88 1911.98 2683.23 1900.76C2690.09 1892.66 2698.82 1879.56 2701.94 1856.5C2689.47 1859.61 2677 1861.48 2665.15 1863.98Z" fill="#5661AE"/>
<path d="M2261.19 1525.47C2271.16 1511.13 2280.51 1496.79 2294.23 1485.57C2307.32 1474.35 2324.78 1466.87 2341.61 1468.74C2348.46 1469.36 2354.7 1471.85 2359.06 1476.84C2364.05 1481.83 2365.3 1488.69 2366.54 1495.54C2372.78 1529.21 2368.41 1562.87 2363.43 1596.54C2344.72 1716.23 2310.44 1833.43 2272.41 1948.76C2297.97 1983.05 2332.26 2009.23 2369.66 2029.18C2337.24 2045.39 2297.35 2046.64 2264.3 2032.3C2248.72 2025.44 2216.93 2018.58 2210.69 2021.7C2204.46 2024.19 2197.6 2023.57 2190.74 2021.7C2188.25 2021.08 2185.76 2019.83 2184.51 2017.96C2182.64 2015.46 2182.02 2011.72 2182.02 2007.98C2183.89 1984.92 2204.46 1967.46 2211.32 1945.02C2214.43 1935.05 2214.43 1925.07 2214.43 1914.47C2215.68 1814.1 2219.42 1713.11 2234.38 1613.37C2240.62 1581.57 2243.11 1552.27 2261.19 1525.47Z" fill="#FACCB4"/>
<path d="M2319.16 1994.27C2316.05 1997.39 2311.68 2003 2309.19 2011.1C2305.45 2021.08 2306.07 2029.8 2306.07 2034.79C2297.97 2033.54 2289.24 2032.3 2281.14 2031.05C2281.14 2025.44 2282.38 2016.71 2287.37 2006.74C2292.98 1994.27 2301.71 1986.79 2306.07 1983.05C2310.44 1987.41 2314.8 1991.15 2319.16 1994.27Z" fill="#5661AE"/>
<path d="M2343.48 2012.35C2326.64 2025.44 2312.31 2027.93 2304.82 2028.56C2279.89 2029.8 2256.82 2013.59 2243.11 2004.24C2235 1998.63 2227.52 1992.4 2213.81 1986.16C2205.08 1982.42 2196.98 1979.93 2191.99 1978.68C2188.87 1984.29 2183.88 1993.64 2182.01 2006.74C2180.14 2021.07 2182.64 2032.92 2184.51 2039.15C2192.61 2038.53 2205.08 2037.91 2220.66 2038.53C2233.13 2039.15 2243.11 2040.4 2258.07 2042.27C2315.42 2050.37 2319.16 2054.11 2333.5 2051.62C2343.48 2049.75 2359.06 2044.76 2375.89 2029.8C2365.3 2024.81 2354.7 2018.58 2343.48 2012.35Z" fill="#5661AE"/>
<path d="M2254.33 824.138C2257.43 824.138 2259.94 819.673 2259.94 814.164C2259.94 808.655 2257.43 804.189 2254.33 804.189C2251.23 804.189 2248.72 808.655 2248.72 814.164C2248.72 819.673 2251.23 824.138 2254.33 824.138Z" fill="#1F2D49"/>
<path d="M2197.6 824.138C2200.7 824.138 2203.21 819.673 2203.21 814.164C2203.21 808.655 2200.7 804.189 2197.6 804.189C2194.5 804.189 2191.99 808.655 2191.99 814.164C2191.99 819.673 2194.5 824.138 2197.6 824.138Z" fill="#1F2D49"/>
<path d="M2227.52 812.292C2229.39 817.903 2231.26 823.514 2233.76 829.124C2236.25 834.735 2238.12 839.722 2241.86 844.086C2243.73 845.956 2246.22 849.073 2246.22 852.814C2246.22 854.684 2245.6 857.178 2244.35 858.425C2243.11 859.671 2241.86 860.918 2240.61 861.542C2235.63 864.659 2230.02 867.152 2224.41 869.022C2228.77 864.659 2233.76 861.542 2238.12 857.801C2239.37 857.178 2240.61 855.931 2241.24 855.307C2241.86 854.684 2242.48 854.061 2242.48 852.814C2242.48 850.944 2241.24 848.45 2239.37 845.956C2236.25 840.969 2234.38 834.735 2232.51 829.124C2229.39 824.137 2228.15 817.903 2227.52 812.292C2226.9 812.292 2226.9 812.292 2227.52 812.292C2226.9 812.292 2227.52 812.292 2227.52 812.292Z" fill="#1F2D49"/>
<path d="M2243.11 890.22C2233.76 893.96 2223.16 893.337 2213.81 890.22C2204.46 887.102 2195.1 881.492 2189.49 873.388C2189.49 873.388 2189.49 873.388 2189.49 872.764C2196.97 878.375 2205.7 882.739 2214.43 885.856C2224.4 888.973 2233.76 890.22 2243.11 890.22C2243.11 889.596 2243.73 890.22 2243.11 890.22C2243.73 890.22 2243.11 890.22 2243.11 890.22Z" fill="#1F2D49"/>
<path d="M2269.91 779.253C2267.42 779.253 2265.55 779.253 2263.68 778.63C2261.81 778.63 2261.19 778.007 2259.94 777.383C2258.69 776.76 2257.45 776.136 2256.82 774.89C2255.58 773.643 2254.33 772.396 2252.46 770.526C2252.46 770.526 2252.46 770.526 2252.46 769.902C2256.2 769.902 2259.32 770.526 2262.43 771.773C2265.55 773.643 2268.04 776.136 2269.91 779.253C2270.54 779.253 2270.54 779.253 2269.91 779.253C2270.54 779.253 2269.91 779.253 2269.91 779.253Z" fill="#1F2D49"/>
<path d="M2218.79 768.03C2216.3 769.9 2213.81 771.147 2211.94 772.394C2210.07 773.641 2208.2 774.264 2206.33 774.887C2204.46 775.511 2202.58 776.134 2200.09 776.758C2197.6 777.381 2195.73 778.004 2191.99 778.004C2195.1 774.264 2199.47 771.147 2204.46 769.277C2208.2 766.783 2213.81 766.783 2218.79 768.03C2218.79 767.407 2218.79 767.407 2218.79 768.03C2218.79 767.407 2218.79 767.407 2218.79 768.03Z" fill="#1F2D49"/>
<path d="M2380.26 1460.64C2353.45 1446.92 2317.92 1429.47 2274.28 1414.5C2264.3 1410.76 2221.29 1396.43 2160.19 1383.96C2064.19 1365.25 2028.65 1373.98 2010.58 1380.22C1984.39 1388.94 1973.17 1398.92 1970.05 1402.04C1941.38 1430.09 1932.65 1480.58 1951.98 1514.25C1961.95 1531.08 1975.67 1538.56 2003.09 1552.28C2015.56 1558.51 2058.58 1579.71 2146.48 1589.68C2168.3 1592.17 2198.84 1594.67 2235 1594.67C2238.12 1578.46 2246.22 1550.41 2267.42 1522.98C2308.56 1472.48 2365.92 1462.51 2380.26 1460.64Z" fill="#2A1C7C"/>
<path d="M2271.16 688.235C2283.63 713.171 2289.86 741.847 2289.24 769.901C2289.24 771.771 2288.61 774.265 2286.74 774.888C2284.87 775.511 2283.63 774.265 2282.38 773.018C2276.15 767.407 2272.41 759.926 2268.04 753.069C2261.19 742.471 2253.7 732.496 2244.98 723.769C2239.37 718.158 2233.13 713.171 2228.14 706.937C2223.16 700.703 2220.04 693.222 2220.04 685.117C2220.04 678.26 2223.16 672.026 2227.52 667.039C2235.63 657.064 2242.48 657.064 2252.46 663.922C2260.56 670.156 2266.8 679.507 2271.16 688.235Z" fill="#BC775C"/>
<path d="M2077.28 711.302C2091 680.131 2120.92 654.572 2156.45 647.714C2171.42 645.221 2187 645.844 2201.96 647.091C2217.55 648.338 2233.13 650.208 2248.72 653.325C2251.21 653.948 2253.08 653.948 2254.95 655.819C2256.2 657.065 2256.82 658.936 2257.45 660.806C2262.43 682.625 2257.45 706.315 2246.85 726.264C2236.25 746.836 2220.66 764.291 2202.59 779.876C2172.66 806.06 2137.13 826.009 2098.48 838.477C2082.27 843.464 2069.8 845.958 2066.68 827.879C2063.57 811.047 2065.44 791.098 2065.44 773.642C2066.06 752.447 2068.55 731.251 2077.28 711.302Z" fill="#BC775C"/>
<path d="M2001.85 1293.56C2031.15 1303.53 2057.33 1319.74 2082.89 1337.2C2097.85 1347.17 2112.82 1358.39 2130.27 1360.89C2143.36 1362.76 2157.7 1359.64 2170.79 1362.76C2183.88 1365.87 2195.73 1374.6 2203.21 1386.45C2210.69 1397.67 2214.43 1411.38 2215.05 1425.1C2202.59 1423.23 2190.12 1420.73 2177.65 1418.86C2154.58 1415.12 2131.52 1411.38 2108.45 1407.02C2075.41 1401.41 2042.99 1390.19 2010.58 1381.46C1976.29 1371.48 1942.63 1363.38 1909.59 1350.29C1903.97 1347.8 1897.74 1345.3 1895.25 1339.69C1893.38 1335.95 1894 1331.59 1894.62 1327.22C1896.49 1316 1900.23 1304.16 1906.47 1294.18C1912.08 1285.45 1917.07 1285.45 1927.04 1284.21C1952.6 1281.09 1978.16 1284.83 2001.85 1293.56Z" fill="#FACCB4"/>
<path d="M2294.23 1315.38C2279.89 1324.73 2266.8 1339.07 2254.33 1354.65C2246.85 1364 2239.37 1373.98 2230.64 1376.47C2223.78 1378.34 2216.92 1375.23 2210.69 1377.72C2203.83 1380.21 2198.22 1388.32 2194.48 1398.91C2190.74 1409.51 2188.87 1421.98 2188.87 1433.83C2195.1 1431.96 2201.34 1430.09 2207.57 1428.21C2218.79 1424.47 2230.64 1421.36 2241.86 1417.62C2258.07 1412.63 2274.28 1402.66 2290.49 1394.55C2307.32 1385.82 2324.15 1378.34 2340.36 1365.87C2342.85 1364 2345.97 1361.51 2347.22 1356.52C2347.84 1352.78 2347.84 1349.04 2347.22 1345.3C2345.97 1335.33 2344.1 1324.11 2340.98 1315.38C2338.49 1307.9 2335.37 1307.27 2331.01 1306.03C2318.54 1304.16 2306.07 1307.9 2294.23 1315.38Z" fill="#FACCB4"/>
<path d="M2213.19 693.842C2208.2 715.038 2196.98 734.364 2183.26 751.196C2176.4 759.3 2168.92 767.404 2160.2 773.638C2155.83 776.756 2151.47 779.873 2147.1 782.99C2142.12 785.483 2137.75 788.6 2132.77 790.47H2132.14C2132.14 790.47 2132.14 790.47 2132.14 789.847C2149.6 777.379 2165.18 763.041 2178.27 746.209C2192.61 731.247 2203.83 713.168 2213.19 693.842C2212.56 693.842 2213.19 693.219 2213.19 693.842Z" fill="#93523E"/>
<path d="M2189.49 695.092C2188.87 699.456 2187 703.82 2185.13 708.184C2183.26 712.547 2181.39 716.288 2179.52 720.652C2175.16 728.756 2169.55 736.237 2163.93 743.094C2157.7 749.952 2151.47 756.809 2144.61 762.42C2140.87 765.537 2137.13 768.031 2133.39 770.524C2129.65 773.018 2125.91 775.511 2121.54 777.382C2150.22 755.562 2173.91 727.509 2189.49 695.092C2189.49 694.469 2189.49 694.469 2189.49 695.092C2189.49 694.469 2189.49 695.092 2189.49 695.092Z" fill="#93523E"/>
<path d="M3655.35 770.866C3663.96 772.084 3672.61 776.444 3678.45 783.54C3685.68 791.441 3688.76 804.417 3682.91 813.499C3693.3 816.993 3698.65 828.167 3701.87 838.736C3705.75 850.309 3708.82 863.284 3706.16 875.447C3703.96 887.879 3695.3 899.698 3683.34 902.152C3689.21 916.736 3686.65 935.184 3676.51 947.402C3666.38 959.62 3649.13 965.876 3633.4 963.041C3633.84 967.655 3634.02 972.737 3632.33 976.745C3630.37 981.221 3625.82 984.824 3621.28 984.081C3616.28 983.07 3613.44 978.318 3611.52 974.103C3607.29 980.381 3600.6 983.378 3593.25 985.371C3582.22 988.361 3569.95 988.14 3559.63 983.443C3549.31 978.746 3541.02 968.369 3540 957.203C3533.92 958.062 3527.6 955.042 3523.28 950.69C3518.97 946.337 3516.46 939.914 3515.16 933.561C3512.87 923.528 3512.33 912.63 3515.58 902.674C3518.02 894.12 3522.33 886.64 3527.57 879.695C3537.58 865.538 3548.72 852.654 3560.32 840.037C3568.58 831.092 3576.36 821.879 3584.61 812.934C3591.32 805.591 3597.64 796.776 3605.94 790.974C3620.34 779.967 3636.48 768.093 3655.35 770.866Z" fill="#1B0C44"/>
<path d="M3382 1805H3310V1939H3382V1805Z" fill="#E3AE96"/>
<path d="M3390.01 1987C3323.02 1987 3256.03 1987 3189.04 1987C3186.69 1985.24 3181.4 1981.12 3178.46 1972.9C3174.93 1962.91 3178.46 1954.09 3181.99 1948.8C3188.45 1938.81 3199.03 1938.81 3217.83 1932.93C3219.01 1932.35 3247.21 1920.59 3303.04 1897.09C3304.8 1896.5 3309.5 1894.15 3314.79 1895.32C3323.6 1896.5 3328.3 1903.55 3331.83 1907.08C3346.52 1920.59 3372.96 1891.8 3387.07 1901.2C3395.88 1906.49 3395.29 1922.36 3394.71 1950.56C3393.53 1965.84 3391.77 1978.77 3390.01 1987Z" fill="#465393"/>
<path fill-rule="evenodd" clip-rule="evenodd" d="M3253.07 1910.44C3254.12 1909.04 3256.11 1908.75 3257.51 1909.8C3259.99 1911.66 3263.81 1914.83 3267.02 1919.33L3267.04 1919.36L3267.05 1919.38C3274.09 1929.61 3274.15 1939.9 3273.46 1944.08C3273.17 1945.81 3271.54 1946.97 3269.81 1946.69C3268.08 1946.4 3266.91 1944.76 3267.2 1943.03C3267.68 1940.15 3267.75 1931.61 3261.84 1923C3259.17 1919.26 3255.93 1916.55 3253.7 1914.88C3252.3 1913.83 3252.02 1911.84 3253.07 1910.44Z" fill="white"/>
<path fill-rule="evenodd" clip-rule="evenodd" d="M3266.61 1902.78C3267.66 1901.38 3269.65 1901.1 3271.06 1902.15C3273.53 1904.01 3277.35 1907.18 3280.57 1911.68L3280.58 1911.7L3280.6 1911.72C3287.63 1921.95 3287.7 1932.24 3287 1936.42C3286.72 1938.15 3285.08 1939.32 3283.35 1939.03C3281.62 1938.74 3280.45 1937.11 3280.74 1935.38C3281.22 1932.49 3281.29 1923.95 3275.38 1915.34C3272.71 1911.61 3269.47 1908.9 3267.25 1907.23C3265.84 1906.18 3265.56 1904.19 3266.61 1902.78Z" fill="white"/>
<path fill-rule="evenodd" clip-rule="evenodd" d="M3237.17 1915.15C3238.22 1913.75 3240.21 1913.46 3241.61 1914.52C3244.09 1916.37 3247.91 1919.55 3251.12 1924.04L3251.14 1924.07L3251.16 1924.09C3258.19 1934.32 3258.26 1944.61 3257.56 1948.79C3257.27 1950.52 3255.64 1951.68 3253.91 1951.4C3252.18 1951.11 3251.01 1949.47 3251.3 1947.74C3251.78 1944.86 3251.85 1936.32 3245.94 1927.71C3243.27 1923.98 3240.03 1921.27 3237.8 1919.59C3236.4 1918.54 3236.12 1916.55 3237.17 1915.15Z" fill="white"/>
<path d="M3436 1802H3363V1937H3436V1802Z" fill="#FACCB4"/>
<path d="M3444.01 2008C3377.02 2008 3310.03 2008 3243.04 2008C3240.69 2006.24 3235.4 2002.12 3232.46 1993.9C3228.93 1983.91 3232.46 1975.09 3235.99 1969.8C3242.45 1959.81 3253.03 1959.81 3271.83 1953.93C3273.01 1953.35 3301.21 1941.59 3357.04 1918.09C3358.8 1917.5 3363.5 1915.15 3368.79 1916.32C3377.6 1917.5 3382.3 1924.55 3385.83 1928.08C3400.52 1941.59 3426.96 1912.8 3441.07 1922.2C3449.88 1927.49 3449.29 1943.36 3448.71 1971.56C3446.94 1986.84 3445.18 1999.19 3444.01 2008Z" fill="#5661AE"/>
<path fill-rule="evenodd" clip-rule="evenodd" d="M3299.59 1939.29C3300.64 1937.89 3302.63 1937.61 3304.03 1938.66C3306.51 1940.52 3310.33 1943.69 3313.54 1948.19L3313.56 1948.21L3313.58 1948.23C3320.61 1958.46 3320.68 1968.75 3319.98 1972.93C3319.69 1974.66 3318.06 1975.83 3316.33 1975.54C3314.6 1975.25 3313.43 1973.62 3313.72 1971.89C3314.2 1969 3314.27 1960.46 3308.36 1951.85C3305.69 1948.12 3302.45 1945.41 3300.22 1943.74C3298.82 1942.69 3298.54 1940.7 3299.59 1939.29Z" fill="white"/>
<path fill-rule="evenodd" clip-rule="evenodd" d="M3313.13 1932.23C3314.18 1930.83 3316.17 1930.54 3317.58 1931.59C3320.05 1933.45 3323.88 1936.62 3327.09 1941.12L3327.1 1941.14L3327.12 1941.17C3334.15 1951.39 3334.22 1961.69 3333.52 1965.86C3333.24 1967.59 3331.6 1968.76 3329.87 1968.47C3328.14 1968.18 3326.98 1966.55 3327.26 1964.82C3327.74 1961.93 3327.81 1953.4 3321.91 1944.79C3319.23 1941.05 3316 1938.34 3313.77 1936.67C3312.37 1935.62 3312.08 1933.63 3313.13 1932.23Z" fill="white"/>
<path fill-rule="evenodd" clip-rule="evenodd" d="M3283.69 1944.59C3284.74 1943.19 3286.73 1942.91 3288.13 1943.96C3290.61 1945.82 3294.43 1948.99 3297.64 1953.49L3297.66 1953.51L3297.68 1953.53C3304.71 1963.76 3304.78 1974.05 3304.08 1978.23C3303.79 1979.96 3302.16 1981.13 3300.43 1980.84C3298.7 1980.55 3297.53 1978.92 3297.82 1977.19C3298.3 1974.3 3298.37 1965.76 3292.46 1957.15C3289.79 1953.42 3286.55 1950.71 3284.32 1949.04C3282.92 1947.99 3282.64 1946 3283.69 1944.59Z" fill="white"/>
<path d="M3285.34 1872L3240 1515H3409L3378.38 1872H3285.34Z" fill="#0D1B33"/>
<path d="M3355.34 1883L3310 1526H3479L3448.38 1883H3355.34Z" fill="#1F2D49"/>
<path d="M3641.19 1504.04L3276.49 1558.7C3259.4 1561.05 3243.49 1549.3 3241.14 1532.25L3232.3 1475.23C3229.94 1458.19 3241.73 1442.32 3258.81 1439.96L3623.51 1385.3C3640.6 1382.95 3656.51 1394.7 3658.86 1411.75L3667.7 1468.77C3670.06 1485.81 3658.27 1501.68 3641.19 1504.04Z" fill="#0D1B33"/>
<path d="M3742.26 1530.56L3352.17 1609.44C3333.8 1612.93 3316.7 1599.67 3312.9 1579.43L3301.51 1511.72C3298.34 1491.47 3310.37 1472.63 3328.74 1468.44L3734 1388C3752.36 1384.51 3769.7 1429.76 3773.5 1450L3776.5 1469.5V1489.5C3773.5 1516 3760.63 1527.07 3742.26 1530.56Z" fill="#1F2D49"/>
<path d="M3493.27 650.182C3477.06 653.299 3461.48 661.403 3451.5 675.118C3445.89 683.223 3442.77 691.95 3440.28 701.301C3434.67 723.744 3434.05 746.187 3433.42 769.253C3432.8 793.565 3432.18 817.878 3434.67 842.191C3435.92 852.789 3437.79 864.01 3442.15 873.361C3454 897.674 3482.67 909.519 3509.48 912.636C3533.79 915.13 3558.11 911.389 3580.55 902.662C3587.41 899.545 3594.89 896.427 3599.87 890.193C3604.86 884.583 3607.35 876.479 3609.22 868.998C3623.56 816.632 3627.93 760.525 3619.82 706.912C3617.95 694.444 3614.84 680.729 3607.35 670.754C3599.87 660.78 3588.03 654.546 3576.18 651.429C3551.87 644.571 3518.83 644.571 3493.27 650.182Z" fill="#FACBB4"/>
<path d="M3553.74 955.024C3545.01 973.103 3530.05 987.441 3512.6 997.416C3509.48 999.286 3505.74 1001.16 3505.12 1004.27C3504.49 1006.14 3505.12 1008.64 3505.74 1010.51C3511.97 1031.7 3520.7 1053.52 3538.78 1065.37C3549.38 1072.85 3563.09 1075.34 3576.18 1075.97C3608.6 1077.21 3641.02 1064.74 3664.08 1041.68C3675.93 1029.83 3684.66 1011.13 3675.31 998.039C3666.58 984.948 3647.25 986.195 3633.54 978.09C3619.2 969.986 3612.97 952.531 3609.85 936.946C3606.11 918.867 3604.24 900.788 3604.86 882.086C3604.86 880.216 3604.86 877.722 3603.61 875.852C3602.37 873.982 3600.5 873.358 3598.63 872.735C3589.9 870.241 3581.17 873.358 3573.69 878.969C3559.98 889.567 3559.35 897.048 3560.6 912.633C3562.47 926.971 3559.98 941.933 3553.74 955.024Z" fill="#FACCB4"/>
<path d="M3475.07 1322.06C3486.29 1273.04 3495.65 1233.68 3501.88 1207.88C3519.34 1138.85 3528.08 1110.47 3525.58 1069.83C3524.96 1055.64 3522.46 1016.93 3507.5 1005.96C3489.41 992.415 3465.09 1029.19 3458.23 1038.86C3438.9 1067.89 3434.53 1100.79 3418.32 1189.82C3413.33 1217.56 3405.22 1264 3394 1324C3421.44 1323.35 3448.25 1322.71 3475.07 1322.06Z" fill="#CF4D4D"/>
<path d="M3529.43 985.571C3531.92 988.688 3547.51 1012.38 3577.43 1015.49C3602.99 1017.99 3627.93 1004.9 3641.64 981.83C3655.36 981.207 3679.04 981.207 3705.85 990.558C3731.41 999.286 3749.49 1012.38 3760.09 1021.1C3760.09 1049.78 3756.35 1089.06 3742.01 1133.32C3737.64 1147.03 3721.44 1172.59 3705.85 1213.74C3697.75 1235.56 3695.88 1243.66 3695.25 1252.39C3694.01 1274.83 3701.49 1289.17 3715.2 1322.21C3721.44 1337.8 3731.41 1361.48 3742.63 1391.41C3732.03 1398.89 3674.68 1439.41 3601.12 1423.2C3562.47 1415.1 3535.66 1394.53 3522.57 1382.06C3527.56 1361.48 3517.58 1339.67 3523.82 1310.99C3530.05 1281.69 3534.41 1269.22 3534.41 1254.88C3535.04 1234.93 3532.54 1223.71 3518.83 1203.14C3506.36 1184.44 3475.19 1136.43 3462.1 1084.07C3458.98 1070.98 3455.24 1051.03 3455.24 1025.47C3464.59 1019.23 3476.44 1011.13 3489.53 1003.65C3503.87 996.169 3517.58 989.934 3529.43 985.571Z" fill="#7D47D4"/>
<path d="M3710.22 1301.64C3705.85 1253.64 3701.49 1215.61 3699 1190.05C3690.89 1122.1 3685.28 1094.05 3697.12 1057.27C3700.24 1044.8 3711.46 1009.89 3732.66 1003.65C3758.84 996.173 3782.53 1036.07 3789.39 1046.67C3808.09 1077.84 3807.47 1109.01 3809.96 1195.04C3810.58 1221.85 3811.83 1266.73 3814.33 1324.08C3778.79 1315.98 3744.5 1309.12 3710.22 1301.64Z" fill="#CF4D4D"/>
<path d="M3644.76 738.706C3649.74 733.718 3657.23 728.731 3664.08 731.848C3666.58 733.095 3668.45 734.965 3669.69 736.835C3674.68 743.693 3675.93 752.42 3675.3 760.525C3673.43 794.189 3648.5 825.359 3616.08 834.71C3618.57 834.087 3624.81 782.967 3625.43 777.98C3628.55 761.148 3632.29 751.174 3644.76 738.706Z" fill="#FACCB4"/>
<path d="M3459.61 814.138C3456.51 814.138 3454 809.673 3454 804.164C3454 798.655 3456.51 794.189 3459.61 794.189C3462.71 794.189 3465.22 798.655 3465.22 804.164C3465.22 809.673 3462.71 814.138 3459.61 814.138Z" fill="#1F2D49"/>
<path d="M3516.34 814.138C3513.24 814.138 3510.73 809.673 3510.73 804.164C3510.73 798.655 3513.24 794.189 3516.34 794.189C3519.44 794.189 3521.95 798.655 3521.95 804.164C3521.95 809.673 3519.44 814.138 3516.34 814.138Z" fill="#1F2D49"/>
<path d="M3486.41 802.292C3484.54 807.903 3482.67 813.514 3480.18 819.124C3477.69 824.735 3475.81 829.722 3472.07 834.086C3470.2 835.956 3467.71 839.073 3467.71 842.814C3467.71 844.684 3468.33 847.178 3469.58 848.425C3470.83 849.671 3472.07 850.918 3473.32 851.542C3478.31 854.659 3483.92 857.152 3489.53 859.022C3485.17 854.659 3480.18 851.542 3475.81 847.801C3474.57 847.178 3473.32 845.931 3472.7 845.307C3472.07 844.684 3471.45 844.061 3471.45 842.814C3471.45 840.944 3472.7 838.45 3474.57 835.956C3477.69 830.969 3479.56 824.735 3481.43 819.124C3484.54 814.137 3485.79 807.903 3486.41 802.292C3487.04 802.292 3487.04 802.292 3486.41 802.292C3487.04 802.292 3486.41 802.292 3486.41 802.292Z" fill="#1F2D49"/>
<path d="M3470.83 880.22C3480.18 883.96 3490.78 883.337 3500.13 880.22C3509.48 877.102 3518.83 871.492 3524.44 863.388C3524.44 863.388 3524.44 863.388 3524.44 862.764C3516.96 868.375 3508.23 872.739 3499.5 875.856C3489.53 878.973 3480.18 880.22 3470.83 880.22C3470.83 879.596 3470.2 880.22 3470.83 880.22C3470.2 880.22 3470.83 880.22 3470.83 880.22Z" fill="#1F2D49"/>
<path d="M3444.02 769.253C3446.51 769.253 3448.39 769.253 3450.26 768.63C3452.13 768.63 3452.75 768.007 3454 767.383C3455.24 766.76 3456.49 766.136 3457.11 764.89C3458.36 763.643 3459.61 762.396 3461.48 760.526C3461.48 760.526 3461.48 760.526 3461.48 759.902C3457.74 759.902 3454.62 760.526 3451.5 761.773C3448.39 763.643 3445.89 766.136 3444.02 769.253C3443.4 769.253 3443.4 769.253 3444.02 769.253C3443.4 769.253 3444.02 769.253 3444.02 769.253Z" fill="#1F2D49"/>
<path d="M3495.14 758.03C3497.64 759.9 3500.13 761.147 3502 762.394C3503.87 763.641 3505.74 764.264 3507.61 764.887C3509.48 765.511 3511.35 766.134 3513.84 766.758C3516.34 767.381 3518.21 768.004 3521.95 768.004C3518.83 764.264 3514.47 761.147 3509.48 759.277C3505.74 756.783 3500.13 756.783 3495.14 758.03C3495.14 757.407 3495.14 757.407 3495.14 758.03C3495.14 757.407 3495.14 757.407 3495.14 758.03Z" fill="#1F2D49"/>
<path d="M3442.78 678.235C3430.31 703.171 3424.07 731.847 3424.7 759.901C3424.7 761.771 3425.32 764.265 3427.19 764.888C3429.06 765.511 3430.31 764.265 3431.55 763.018C3437.79 757.407 3441.53 749.926 3445.89 743.069C3452.75 732.471 3460.23 722.496 3468.96 713.769C3474.57 708.158 3480.8 703.171 3485.79 696.937C3490.78 690.703 3493.89 683.222 3493.89 675.117C3493.89 668.26 3490.78 662.026 3486.41 657.039C3478.31 647.064 3471.45 647.064 3461.48 653.922C3453.37 660.156 3447.14 669.507 3442.78 678.235Z" fill="#1B0C44"/>
<path d="M3636.65 701.302C3622.94 670.131 3593.02 644.572 3557.48 637.714C3542.52 635.221 3526.93 635.844 3511.97 637.091C3496.39 638.338 3480.8 640.208 3465.22 643.325C3462.72 643.948 3460.85 643.948 3458.98 645.819C3457.74 647.065 3457.11 648.936 3456.49 650.806C3451.5 672.625 3456.49 696.315 3467.09 716.264C3477.69 736.836 3493.27 754.291 3511.35 769.876C3541.27 796.06 3576.81 816.009 3615.46 828.477C3631.67 833.464 3644.13 835.958 3647.25 817.879C3650.37 801.047 3648.5 781.098 3648.5 763.642C3647.88 742.447 3645.38 721.251 3636.65 701.302Z" fill="#1B0C44"/>
<path d="M3712.09 1283.56C3682.79 1293.53 3656.6 1309.74 3631.04 1327.2C3616.08 1337.17 3601.12 1348.39 3583.66 1350.89C3570.57 1352.76 3556.23 1349.64 3543.14 1352.76C3530.05 1355.87 3518.21 1364.6 3510.73 1376.45C3503.24 1387.67 3499.5 1401.38 3498.88 1415.1C3511.35 1413.23 3523.82 1410.73 3536.29 1408.86C3559.35 1405.12 3582.42 1401.38 3605.48 1397.02C3638.52 1391.41 3670.94 1380.19 3703.36 1371.46C3737.65 1361.48 3771.31 1353.38 3804.35 1340.29C3809.96 1337.8 3816.19 1335.3 3818.69 1329.69C3820.56 1325.95 3819.94 1321.59 3819.31 1317.22C3817.44 1306 3813.7 1294.16 3807.47 1284.18C3801.86 1275.45 3796.87 1275.45 3786.89 1274.21C3761.33 1271.09 3735.78 1274.83 3712.09 1283.56Z" fill="#FACCB4"/>
<path d="M3447.46 1289.83C3461.8 1299.18 3474.89 1313.52 3487.36 1329.1C3494.84 1338.45 3502.32 1348.43 3511.04 1350.92C3517.9 1352.79 3524.76 1349.67 3530.99 1352.17C3537.85 1354.66 3543.46 1362.77 3547.2 1373.36C3550.94 1383.96 3552.81 1396.43 3552.81 1408.27C3546.58 1406.4 3540.34 1404.53 3534.11 1402.66C3522.89 1398.92 3511.04 1395.81 3499.82 1392.07C3483.61 1387.08 3467.41 1377.1 3451.2 1369C3434.37 1360.27 3417.53 1352.79 3401.33 1340.32C3398.83 1338.45 3395.71 1335.96 3394.47 1330.97C3393.84 1327.23 3393.84 1323.49 3394.47 1319.75C3395.71 1309.78 3397.58 1298.56 3400.7 1289.83C3403.2 1282.35 3406.31 1281.72 3410.68 1280.48C3423.14 1278.61 3435.61 1282.35 3447.46 1289.83Z" fill="#FACCB4"/>
<path d="M3500.75 683.842C3505.74 705.038 3516.96 724.364 3530.67 741.196C3537.53 749.3 3545.01 757.404 3553.74 763.638C3558.1 766.756 3562.47 769.873 3566.83 772.99C3571.82 775.483 3576.18 778.6 3581.17 780.47H3581.79C3581.79 780.47 3581.79 780.47 3581.79 779.847C3564.34 767.379 3548.75 753.041 3535.66 736.209C3521.32 721.247 3510.1 703.168 3500.75 683.842C3501.37 683.842 3500.75 683.219 3500.75 683.842Z" fill="#E0E3FF"/>
<path d="M3524.44 685.092C3525.06 689.456 3526.93 693.82 3528.8 698.184C3530.67 702.547 3532.54 706.288 3534.41 710.652C3538.78 718.756 3544.39 726.237 3550 733.094C3556.23 739.952 3562.47 746.809 3569.33 752.42C3573.07 755.537 3576.81 758.031 3580.55 760.524C3584.29 763.018 3588.03 765.511 3592.39 767.382C3563.71 745.562 3540.03 717.509 3524.44 685.092C3524.44 684.469 3524.44 684.469 3524.44 685.092C3524.44 684.469 3524.44 685.092 3524.44 685.092Z" fill="#E0E3FF"/>
<path d="M2858.42 1686.44H2769.14V1855.17H2858.42V1686.44Z" fill="#BC775C"/>
<path d="M3003.7 1684.17H2914.41V1852.15H3003.7V1684.17Z" fill="#BC775C"/>
<path d="M2878.85 1068.27L2907.59 1743.95H3009.05L3044.55 1068.27H2878.85Z" fill="#1B0C44"/>
<path d="M2733.57 1068.27L2760.56 1743.95H2860.08L2895.5 1068.27H2733.57Z" fill="#1B0C44"/>
<path d="M3072.34 1942.77C3020.34 1942.77 2968.33 1942.77 2916.32 1942.77C2913.47 1942.06 2909.2 1940.64 2906.35 1937.07C2902.78 1932.79 2902.78 1927.8 2902.07 1925.66C2900.65 1904.27 2899.93 1892.15 2902.78 1852.22C2902.78 1847.95 2903.5 1841.53 2908.48 1837.96C2912.76 1834.4 2919.17 1836.54 2922.73 1837.25C2934.13 1840.1 2949.8 1842.24 2959.78 1841.53C2971.18 1841.53 2983.29 1838.68 2999.67 1834.4C3001.81 1833.69 3006.8 1832.97 3012.5 1833.69C3018.91 1834.4 3023.9 1837.25 3028.17 1840.82C3059.52 1863.63 3068.78 1889.3 3068.78 1889.3C3077.33 1912.83 3073.77 1933.51 3072.34 1942.77Z" fill="#525DC1"/>
<path fill-rule="evenodd" clip-rule="evenodd" d="M3044.46 1854.9L3044.56 1854.9C3046.23 1854.9 3047.58 1856.26 3047.58 1857.93C3047.58 1859.6 3046.23 1860.95 3044.56 1860.95C3040.26 1860.95 3034.31 1860.97 3028.42 1862.94L3028.35 1862.96L3028.29 1862.98C3014.1 1867.03 3005.38 1875.82 3002.14 1880.36C3001.17 1881.72 2999.28 1882.04 2997.92 1881.07C2996.56 1880.1 2996.24 1878.21 2997.21 1876.85C3001.09 1871.41 3010.87 1861.68 3026.56 1857.17C3033.42 1854.9 3040.21 1854.9 3044.46 1854.9Z" fill="white"/>
<path fill-rule="evenodd" clip-rule="evenodd" d="M3055.14 1865.6L3055.24 1865.6C3056.92 1865.6 3058.27 1866.95 3058.27 1868.62C3058.27 1870.29 3056.92 1871.65 3055.24 1871.65C3050.95 1871.65 3044.99 1871.67 3039.1 1873.63L3039.04 1873.65L3038.98 1873.67C3024.79 1877.73 3016.06 1886.52 3012.82 1891.06C3011.85 1892.42 3009.96 1892.73 3008.6 1891.76C3007.24 1890.79 3006.93 1888.9 3007.9 1887.54C3011.78 1882.11 3021.55 1872.38 3037.25 1867.87C3044.11 1865.6 3050.9 1865.6 3055.14 1865.6Z" fill="white"/>
<path fill-rule="evenodd" clip-rule="evenodd" d="M3033.06 1843.49L3033.16 1843.49C3034.83 1843.49 3036.19 1844.85 3036.19 1846.52C3036.19 1848.19 3034.83 1849.55 3033.16 1849.55C3028.86 1849.55 3022.91 1849.56 3017.02 1851.53L3016.96 1851.55L3016.89 1851.57C3002.7 1855.63 2993.98 1864.42 2990.74 1868.95C2989.77 1870.32 2987.88 1870.63 2986.52 1869.66C2985.16 1868.69 2984.84 1866.8 2985.81 1865.44C2989.69 1860 2999.47 1850.27 3015.17 1845.77C3022.02 1843.49 3028.81 1843.49 3033.06 1843.49Z" fill="white"/>
<path d="M2699 1942.77C2751.01 1942.77 2803.01 1942.77 2855.02 1942.77C2857.87 1942.06 2862.15 1940.64 2865 1937.07C2868.56 1932.79 2868.56 1927.8 2869.27 1925.66C2870.7 1904.27 2871.41 1892.15 2868.56 1852.22C2868.56 1847.95 2867.85 1841.53 2862.86 1837.96C2858.58 1834.4 2852.17 1836.54 2848.61 1837.25C2837.21 1840.1 2821.54 1842.24 2811.56 1841.53C2800.16 1841.53 2788.05 1838.68 2771.67 1834.4C2769.53 1833.69 2764.54 1832.97 2758.84 1833.69C2752.43 1834.4 2747.44 1837.25 2743.17 1840.82C2711.82 1863.63 2702.56 1889.3 2702.56 1889.3C2694.01 1912.83 2697.57 1933.51 2699 1942.77Z" fill="#525DC1"/>
<path fill-rule="evenodd" clip-rule="evenodd" d="M2726.89 1854.9L2726.78 1854.9C2725.11 1854.9 2723.76 1856.26 2723.76 1857.93C2723.76 1859.6 2725.11 1860.95 2726.78 1860.95C2731.08 1860.95 2737.04 1860.97 2742.93 1862.94L2742.99 1862.96L2743.05 1862.98C2757.24 1867.03 2765.96 1875.82 2769.2 1880.36C2770.18 1881.72 2772.07 1882.04 2773.43 1881.07C2774.79 1880.1 2775.1 1878.21 2774.13 1876.85C2770.25 1871.41 2760.48 1861.68 2744.78 1857.17C2737.92 1854.9 2731.13 1854.9 2726.89 1854.9Z" fill="white"/>
<path fill-rule="evenodd" clip-rule="evenodd" d="M2716.2 1865.6L2716.1 1865.6C2714.43 1865.6 2713.07 1866.95 2713.07 1868.62C2713.07 1870.29 2714.43 1871.65 2716.1 1871.65C2720.4 1871.65 2726.35 1871.67 2732.24 1873.63L2732.3 1873.65L2732.36 1873.67C2746.55 1877.73 2755.28 1886.52 2758.52 1891.06C2759.49 1892.42 2761.38 1892.73 2762.74 1891.76C2764.1 1890.79 2764.42 1888.9 2763.44 1887.54C2759.57 1882.11 2749.79 1872.38 2734.09 1867.87C2727.23 1865.6 2720.44 1865.6 2716.2 1865.6Z" fill="white"/>
<path fill-rule="evenodd" clip-rule="evenodd" d="M2738.28 1843.49L2738.18 1843.49C2736.51 1843.49 2735.16 1844.85 2735.16 1846.52C2735.16 1848.19 2736.51 1849.55 2738.18 1849.55C2742.48 1849.55 2748.43 1849.56 2754.32 1851.53L2754.39 1851.55L2754.45 1851.57C2768.64 1855.63 2777.36 1864.42 2780.6 1868.95C2781.57 1870.32 2783.46 1870.63 2784.82 1869.66C2786.19 1868.69 2786.5 1866.8 2785.53 1865.44C2781.65 1860 2771.87 1850.27 2756.18 1845.77C2749.32 1843.49 2742.53 1843.49 2738.28 1843.49Z" fill="white"/>
<path d="M2719.87 624.192L2837.06 588.42H2904.19L3051.1 630.796C3051.1 706.191 3012.03 796.996 3012.03 872.392C3012.03 944.485 3051.1 1001.17 3051.1 1073.26C2939.54 1087.18 2837.06 1090.21 2719.32 1073.26C2719.32 997.317 2744.63 941.734 2744.63 865.788C2744.63 792.043 2719.87 697.936 2719.87 624.192Z" fill="#FFD76F"/>
<path d="M2820.14 554.099C2814.66 572.226 2809.73 589.803 2804.25 607.93C2827.27 626.607 2849.74 645.832 2872.76 664.508C2895.23 642.536 2917.15 620.564 2939.62 598.592C2931.95 582.113 2923.72 565.085 2916.05 548.606C2883.72 550.254 2851.93 551.902 2820.14 554.099Z" fill="#93523E"/>
<path d="M2671.12 418.178C2661.46 411.462 2654.79 401.476 2652.31 390.145C2649.16 376.719 2654.05 359.558 2666.83 352.571C2657.2 342.378 2658.43 326.393 2660.85 312.335C2663.81 296.369 2668.87 279.732 2679.28 267.154C2689.69 254.576 2707.53 245.385 2723.84 249.393C2726.34 228.379 2741.52 209.072 2761.8 200.256C2782.08 191.44 2806.05 194.143 2822.26 206.845C2824.93 200.788 2827.78 195.255 2832.7 190.789C2837.44 187.538 2845.46 185.541 2850.11 189.245C2855.29 192.78 2855.38 200.259 2855.13 206.69C2863.89 201.571 2874.49 202.211 2883.69 203.879C2898.45 206.653 2912.81 213.595 2921.89 225.695C2930.97 237.796 2933.74 253.651 2927.32 267.839C2935.12 270.535 2940.78 277.38 2942.78 285.401C2944.77 293.423 2943.46 301.929 2941.28 309.556C2937.48 322.904 2930.55 335.521 2920.52 345.669C2912.25 354.097 2902.09 360.244 2891.76 365.867C2871.11 377.113 2849.45 385.218 2827.26 393.491C2811.88 399.579 2796.34 405.144 2780.96 411.233C2768.04 415.957 2755.26 422.944 2741.85 424.359C2718.15 427.92 2691.14 431.966 2671.12 418.178Z" fill="#1F2D49"/>
<path d="M2898.41 341.731C2915.24 344.511 2931.41 351.738 2941.77 363.968C2947.59 371.195 2950.82 378.978 2953.41 387.317C2959.24 407.33 2959.88 427.343 2960.53 447.912C2961.18 469.593 2961.82 491.274 2959.24 512.955C2957.94 522.405 2956 532.412 2951.47 540.75C2939.18 562.431 2909.41 572.994 2881.59 575.773C2856.36 577.997 2831.12 574.662 2807.83 566.879C2800.71 564.099 2792.94 561.319 2787.77 555.76C2782.59 550.757 2780 543.53 2778.06 536.859C2763.18 490.162 2758.65 440.129 2767.06 392.32C2769 381.202 2772.24 368.971 2780 360.077C2787.77 351.182 2800.06 345.623 2812.36 342.843C2838.24 336.728 2872.53 336.728 2898.41 341.731Z" fill="#BC775C"/>
<path d="M2872.37 499.546C2878.98 500.646 2884.48 501.747 2889.43 502.297C2894.38 502.847 2898.23 503.397 2902.09 502.847C2905.39 502.847 2908.69 501.747 2912.54 500.096C2916.39 498.446 2920.24 496.245 2923.54 490.192H2924.64C2925.75 496.245 2922.99 502.297 2919.14 506.699C2914.74 511.1 2909.24 513.851 2903.19 514.402C2897.13 514.952 2891.08 513.301 2886.13 510.55C2880.63 507.799 2876.23 504.498 2871.82 500.646L2872.37 499.546Z" fill="#93523E"/>
<path d="M2855.08 457.691C2856.23 450.181 2853.75 443.573 2849.54 442.93C2845.34 442.288 2841 447.855 2839.85 455.364C2838.71 462.874 2841.18 469.482 2845.39 470.125C2849.6 470.767 2853.93 465.2 2855.08 457.691Z" fill="#1F2D49"/>
<path d="M2927.2 467.375C2930.95 465.359 2931.07 458.302 2927.47 451.611C2923.87 444.921 2917.92 441.131 2914.17 443.146C2910.42 445.161 2910.3 452.219 2913.9 458.909C2917.5 465.6 2923.46 469.39 2927.2 467.375Z" fill="#1F2D49"/>
<path d="M2828.08 415.833C2827.53 412.531 2828.63 409.23 2830.28 406.479C2831.93 403.728 2834.13 401.527 2836.89 399.877C2839.64 398.226 2842.94 397.125 2845.69 397.125C2848.99 397.125 2852.29 397.676 2855.04 399.326C2855.04 399.326 2855.04 399.326 2855.04 399.877C2849.54 399.877 2844.04 401.527 2839.64 404.278C2834.69 407.579 2830.83 411.431 2828.08 415.833C2828.63 416.383 2828.08 416.383 2828.08 415.833C2828.08 416.383 2828.08 416.383 2828.08 415.833Z" fill="#1F2D49"/>
<path d="M2902.09 401.867C2903.89 399.16 2906.58 397.535 2908.82 396.994C2911.52 395.911 2914.21 396.452 2916.9 396.994C2919.6 397.535 2922.29 399.16 2924.08 401.325C2926.33 403.491 2927.68 406.198 2928.57 409.447C2928.57 409.447 2928.57 409.447 2928.57 409.988C2924.98 406.198 2920.94 403.491 2916 402.408C2911.52 400.784 2907.03 400.784 2902.09 401.867C2902.09 402.408 2902.09 402.408 2902.09 401.867C2902.09 402.408 2902.09 402.408 2902.09 401.867Z" fill="#1F2D49"/>
<path d="M2802.48 604.345C2804.13 604.345 2873.26 663.395 2873.26 663.395L2822.23 715.823L2802.48 604.345Z" fill="#FF971D"/>
<path d="M2872.38 663.857L2942.27 594.613L2933.4 719.363L2872.38 663.857Z" fill="#FF971D"/>
<path d="M2755.35 485.652C2745.08 466.93 2746.79 463.625 2738.24 426.18C2730.82 392.038 2726.26 373.315 2732.53 351.839C2746.79 304.481 2807.25 264.282 2867.13 273.644C2903.06 279.15 2939 301.728 2954.97 334.768C2963.52 351.839 2964.09 366.707 2965.8 391.487C2968.08 430.585 2963.52 443.801 2958.39 464.727C2959.53 449.308 2958.96 444.903 2952.68 417.369C2946.41 388.183 2941.28 367.258 2922.46 349.086C2920.17 346.883 2891.66 321.001 2851.73 324.856C2832.91 326.508 2819.22 334.768 2811.24 339.174C2811.24 339.174 2788.43 352.39 2773.03 376.619C2739.38 428.933 2754.21 481.798 2755.35 485.652Z" fill="#EF6A77"/>
<path d="M2783.07 540.887C2773.75 522.134 2761.33 492.9 2754.08 455.944C2747.35 421.745 2743.21 402.992 2748.91 381.48C2761.85 334.044 2816.71 293.778 2871.06 303.155C2903.67 308.671 2936.28 331.286 2950.77 364.381C2958.53 381.48 2964.1 396.138 2965.65 420.96C2967.72 460.122 2965.26 476.42 2960.6 497.381C2961.64 481.936 2958.86 464.05 2953.16 436.471C2947.47 407.237 2938.35 396.924 2921.27 378.722C2919.2 376.516 2893.32 350.591 2857.08 354.452C2840 356.107 2827.58 364.381 2820.33 368.794C2820.33 368.794 2799.63 382.031 2785.66 406.301C2754.6 458.702 2781.51 537.578 2783.07 540.887Z" fill="#1F2D49"/>
<path d="M2958.48 1177.47C2963.04 1179.95 2968.46 1178.51 2978.15 1174.61C2982.44 1172.7 2987.83 1170.72 2993.71 1167.6C2987.76 1196.63 2991.7 1225.05 3005.32 1231.39C3010.43 1233.83 3018.05 1232.26 3024.02 1230.8C3026.74 1230.08 3045.76 1225.61 3057.45 1209.46C3066.08 1197.36 3065.62 1180.85 3063.65 1148.45C3062.67 1132.52 3061.32 1119.37 3060.27 1111.17C3050.21 1109.03 3040.16 1106.89 3029.53 1104.23C3025.85 1107.21 3021.17 1111.9 3016.02 1117.73C3008.76 1125.34 3001.99 1131.82 2996.74 1136C2978.39 1151.45 2967.09 1156 2963.31 1157.33C2958.47 1159.28 2954.11 1160.1 2951.4 1160.81C2952.21 1165.17 2952.2 1173.99 2958.48 1177.47Z" fill="#BC775C"/>
<path d="M3045.35 1219.02C3042.72 1212.01 3042.28 1204.87 3042.4 1197.7C3042.51 1190.53 3043.17 1183.32 3046.07 1176.53L3045.73 1198.05L3045.35 1219.02C3045.39 1219.57 3045.39 1219.57 3045.35 1219.02C3045.39 1219.57 3045.39 1219.57 3045.35 1219.02Z" fill="#93523E"/>
<path d="M3028.11 1225.58C3025.38 1216.93 3024.88 1208.69 3024.92 1200.42C3024.97 1192.15 3026.11 1183.81 3028.91 1175.37L3028.8 1200.74L3028.11 1225.58C3028.15 1226.13 3028.15 1226.13 3028.11 1225.58C3028.15 1226.13 3028.15 1226.13 3028.11 1225.58Z" fill="#93523E"/>
<path d="M3010.09 1228.34C3007.29 1218.59 3007.24 1208.67 3007.22 1199.3C3007.71 1189.35 3008.24 1179.94 3010.93 1169.86L3010.51 1199.1L3010.09 1228.34Z" fill="#93523E"/>
<path d="M2804.24 1177.47C2799.68 1179.95 2794.25 1178.51 2784.57 1174.61C2780.28 1172.7 2774.88 1170.72 2769.01 1167.6C2774.96 1196.63 2771.02 1225.05 2757.4 1231.39C2752.29 1233.83 2744.67 1232.26 2738.69 1230.8C2735.98 1230.08 2716.96 1225.61 2705.27 1209.46C2696.64 1197.36 2697.09 1180.85 2699.07 1148.45C2700.04 1132.52 2701.4 1119.37 2702.45 1111.17C2712.5 1109.03 2722.56 1106.89 2733.19 1104.23C2736.87 1107.21 2741.54 1111.9 2746.7 1117.73C2753.95 1125.34 2760.72 1131.82 2765.98 1136C2784.33 1151.45 2795.63 1156 2799.41 1157.33C2804.25 1159.28 2808.61 1160.1 2811.32 1160.81C2810.5 1165.17 2810.52 1173.99 2804.24 1177.47Z" fill="#BC775C"/>
<path d="M2717.36 1219.02C2720 1212.01 2720.43 1204.87 2720.32 1197.7C2720.21 1190.53 2719.54 1183.32 2716.65 1176.53L2716.99 1198.05L2717.36 1219.02C2717.33 1219.57 2717.33 1219.57 2717.36 1219.02C2717.33 1219.57 2717.33 1219.57 2717.36 1219.02Z" fill="#93523E"/>
<path d="M2734.6 1225.58C2737.34 1216.93 2737.84 1208.69 2737.79 1200.42C2737.75 1192.15 2736.6 1183.81 2733.81 1175.37L2733.92 1200.74L2734.6 1225.58C2734.57 1226.13 2734.57 1226.13 2734.6 1225.58C2734.57 1226.13 2734.57 1226.13 2734.6 1225.58Z" fill="#93523E"/>
<path d="M2752.63 1228.34C2755.43 1218.59 2755.48 1208.67 2755.5 1199.3C2755.01 1189.35 2754.48 1179.94 2751.79 1169.86L2752.21 1199.1L2752.63 1228.34Z" fill="#93523E"/>
<path d="M3013.78 617.616C3019.29 667.167 3018.19 706.807 3016.54 733.785C3014.33 762.414 3011.58 780.032 3003.86 851.055C2996.69 920.976 2996.14 940.246 3009.92 955.662C3029.21 976.583 3062.29 974.381 3068.35 973.83C3074.41 973.28 3109.69 971.077 3124.02 946.302C3133.95 929.235 3128.99 910.515 3125.13 893.999C3114.1 848.302 3106.94 802.055 3095.91 756.358C3078.27 679.279 3078.82 652.852 3052.37 633.032C3038.59 622.021 3024.25 618.717 3013.78 617.616Z" fill="#FF971D"/>
<path d="M2744.25 617.616C2738.73 667.167 2739.84 706.807 2741.49 733.785C2743.69 762.414 2746.45 780.032 2754.17 851.055C2761.33 920.976 2761.88 940.246 2748.1 955.662C2728.81 976.583 2695.74 974.381 2689.67 973.83C2683.61 973.28 2648.33 971.077 2634 946.302C2624.08 929.235 2629.04 910.515 2632.9 893.999C2643.92 848.302 2651.09 802.055 2662.11 756.358C2679.75 679.279 2679.2 652.852 2705.66 633.032C2718.89 622.021 2733.77 618.717 2744.25 617.616Z" fill="#FF971D"/>
<path d="M2993.15 1121.94C3000.84 1119.27 3013.47 1115.75 3029.12 1114.79C3047.61 1113.66 3062.06 1116.63 3070.76 1118.85C3092.22 1084.54 3105.38 1054.59 3112.61 1032.7C3129.58 983.265 3145.32 937.206 3119.01 892.064C3103.09 864.988 3094.96 860.534 3091.31 859.108C3063.82 853.086 3020.11 885.453 3003.67 920.005C2991.66 945.487 2998.49 963.769 3002.59 995.967C3005.82 1025.47 3006.98 1067.75 2993.15 1121.94Z" fill="#FF971D"/>
<path d="M2769.56 1121.94C2761.87 1119.27 2749.24 1115.75 2733.6 1114.79C2715.11 1113.66 2700.65 1116.63 2691.95 1118.85C2670.49 1084.54 2657.33 1054.59 2650.11 1032.7C2633.14 983.265 2617.39 937.206 2643.7 892.064C2659.63 864.988 2667.75 860.534 2671.41 859.108C2698.9 853.086 2742.6 885.453 2759.05 920.005C2771.06 945.487 2764.23 963.769 2760.12 995.967C2756.9 1025.47 2755.74 1067.75 2769.56 1121.94Z" fill="#FF971D"/>
<path d="M2844.61 513.958C2850.52 518.805 2858.68 523.831 2868.92 527.828C2893.4 537.729 2915.26 534.68 2925.84 532.464C2925.15 536.259 2921.52 548.847 2909.39 557.444C2896.39 566.902 2876.96 567.886 2862.2 558.356C2847.96 548.999 2840.65 531.032 2844.61 513.958Z" fill="#93523E"/>
<path d="M2752.62 435.244C2747.16 429.757 2738.96 424.269 2731.44 427.699C2728.71 429.071 2726.66 431.129 2725.29 433.186C2719.83 440.732 2718.46 450.336 2719.15 459.254C2721.2 496.298 2748.53 530.597 2784.05 540.887C2781.32 540.201 2774.49 483.95 2773.81 478.462C2771.07 459.94 2766.29 448.964 2752.62 435.244Z" fill="#BC775C"/>
</g>
<defs>
<clipPath id="clip0_96_82">
<rect width="5806" height="2461" fill="white"/>
</clipPath>
</defs>
</svg>
