<svg width="2541" height="1334" viewBox="0 0 2541 1334" fill="none" xmlns="http://www.w3.org/2000/svg">
<g clip-path="url(#clip0_96_190)">
<rect width="2541" height="1334" fill="#FF971D"/>
<path d="M394.875 931.864L-263.316 2954.02H-371.164L202.969 917.59L394.875 931.864Z" fill="#E2F3FF"/>
<path d="M2358.35 977.855L3016.54 3000.01H3125.98L2550.26 963.581L2358.35 977.855Z" fill="#E2F3FF"/>
<path d="M2518.54 774.848L3040.33 2371.95H3125.98L2670.79 763.746L2518.54 774.848Z" fill="#E2F3FF"/>
<path d="M2469.37 739.955H-667.745L-72.9943 1128.53H3362.29L2469.37 739.955Z" fill="#6A88C2"/>
<path d="M2469.37 667H-667.745L-72.9943 1055.57H3362.29L2469.37 667Z" fill="#E2F3FF"/>
<path d="M1016.56 1100.99C1039.38 1060.75 1041.7 1020.55 1013.43 985.054C995.051 961.657 973.003 934.881 944.603 929.15C931.108 926.684 915.385 928.143 870.908 963.885C810.776 1014.1 779.727 1039.29 794.504 1072.32C806.725 1100.01 844.462 1118.82 861.921 1127.43C930.352 1161.06 989.277 1149.08 1016.56 1100.99Z" fill="#93523E"/>
<path d="M633.567 473.121L1075.06 326.521C1089.67 322.739 1104.09 327.25 1112.07 339.9L1293.31 641.165C1303.32 655.941 1296.58 676.521 1279.78 684.398L842.844 897.51C828.121 905.44 809.615 898.75 801.685 884.026L615.884 516.25C605.933 499.401 614.749 478.873 633.567 473.121Z" fill="#CEDFFF"/>
<path d="M652.533 461.147L1094.02 314.547C1108.64 310.765 1123.05 315.277 1131.03 327.927L1312.28 629.192C1322.28 643.967 1315.54 664.547 1298.74 672.424L863.884 885.588C849.16 893.518 830.654 886.828 822.724 872.105L634.85 504.276C626.973 487.479 635.788 466.951 652.533 461.147Z" fill="#DFEAFF"/>
<path d="M720.654 475.311L1086.82 353.792C1097.29 349.905 1111.7 354.417 1117.66 364.941L1269.05 615.658C1277.03 628.308 1272.47 644.793 1257.75 652.723L894.326 830.333C881.728 836.241 867.317 831.729 859.335 819.079L705.201 512.271C697.271 497.547 703.909 481.115 720.654 475.311Z" fill="white"/>
<path d="M1302.79 676.681C1273.35 692.54 943.52 854.395 838.486 905.704C830.088 909.643 831.849 922.136 842.217 922.397L1391.41 948.645C1393.48 948.697 1395.55 948.749 1395.61 946.675L1793.4 722.206C1801.8 718.267 1797.97 705.721 1789.67 705.513L1306.94 676.785C1306.99 674.711 1304.92 674.659 1302.79 676.681Z" fill="#4F5E6F"/>
<path d="M1303.21 660.089C1273.76 675.949 943.937 837.804 838.903 889.112C830.504 893.051 832.265 905.545 842.633 905.805L1391.82 932.053C1393.9 932.105 1395.97 932.157 1396.02 930.084L1793.82 705.614C1802.22 701.676 1798.38 689.13 1790.09 688.921L1307.36 660.194C1307.36 660.194 1305.28 660.141 1303.21 660.089Z" fill="#CEDFFF"/>
<path d="M1060.11 838.646C1055.91 840.615 1011.84 860.257 999.245 866.166C997.172 866.113 999.193 868.239 999.193 868.239L1071.66 874.21L1124.23 846.482C1126.31 846.534 1124.29 844.408 1124.29 844.408L1060.11 838.646Z" fill="white"/>
<path d="M1129.47 803.045C1125.27 805.014 1081.21 824.656 1068.61 830.564C1066.54 830.512 1068.56 832.638 1068.56 832.638L1141.03 838.608L1193.6 810.88C1195.67 810.932 1193.65 808.807 1193.65 808.807L1129.47 803.045Z" fill="white"/>
<path d="M1203.04 765.468C1198.84 767.438 1154.77 787.08 1142.17 792.988C1140.1 792.936 1142.12 795.061 1142.12 795.061L1214.59 801.032L1267.16 773.304C1269.24 773.356 1267.22 771.231 1267.22 771.231L1203.04 765.468C1205.16 763.447 1205.16 763.447 1203.04 765.468Z" fill="white"/>
<path d="M1276.65 725.817C1272.46 727.787 1228.39 747.428 1215.79 753.337C1213.72 753.285 1215.74 755.41 1215.74 755.41L1288.21 761.381L1340.78 733.653C1342.85 733.705 1340.83 731.579 1340.83 731.579L1276.65 725.817Z" fill="white"/>
<path d="M1346.03 690.212C1341.83 692.181 1297.76 711.823 1285.17 717.731C1283.09 717.679 1285.11 719.805 1285.11 719.805L1357.59 725.775L1410.15 698.047C1412.23 698.1 1410.21 695.974 1410.21 695.974L1346.03 690.212Z" fill="white"/>
<path d="M1151.14 849.236C1146.94 851.205 1102.87 870.847 1090.27 876.755C1088.2 876.703 1090.22 878.829 1090.22 878.829L1162.69 884.8L1215.26 857.072C1217.34 857.124 1215.31 854.998 1215.31 854.998L1151.14 849.236Z" fill="white"/>
<path d="M1220.5 813.629C1216.3 815.598 1172.24 835.24 1159.64 841.148C1157.56 841.096 1159.59 843.222 1159.59 843.222L1232.06 849.193L1284.63 821.465C1286.7 821.517 1284.68 819.391 1284.68 819.391L1220.5 813.629C1220.55 811.555 1220.55 811.555 1220.5 813.629Z" fill="white"/>
<path d="M1294.12 773.98C1289.92 775.95 1245.85 795.592 1233.25 801.5C1231.18 801.448 1233.2 803.573 1233.2 803.573L1305.67 809.544L1358.24 781.816C1360.32 781.868 1358.3 779.743 1358.3 779.743L1294.12 773.98Z" fill="white"/>
<path d="M1367.73 734.331C1363.54 736.3 1319.47 755.942 1306.87 761.85C1304.8 761.798 1306.82 763.924 1306.82 763.924L1379.29 769.895L1431.86 742.167C1433.93 742.219 1431.91 740.093 1431.91 740.093L1367.73 734.331Z" fill="white"/>
<path d="M1435.03 698.673C1430.83 700.642 1386.77 720.284 1374.17 726.192C1372.1 726.14 1374.12 728.266 1374.12 728.266L1446.59 734.237L1499.16 706.509C1501.23 706.561 1499.21 704.435 1499.21 704.435L1435.03 698.673C1437.11 698.725 1437.11 698.725 1435.03 698.673Z" fill="white"/>
<path d="M1248.44 857.906C1244.25 859.875 1200.18 879.517 1187.58 885.425C1185.51 885.373 1187.53 887.499 1187.53 887.499L1260 893.47L1312.57 865.742C1314.64 865.794 1312.62 863.668 1312.62 863.668L1248.44 857.906Z" fill="white"/>
<path d="M1317.86 820.223C1313.66 822.193 1269.59 841.835 1256.99 847.743C1254.92 847.691 1256.94 849.817 1256.94 849.817L1329.41 855.787L1381.98 828.059C1384.06 828.111 1382.03 825.986 1382.03 825.986L1317.86 820.223Z" fill="white"/>
<path d="M1391.43 782.65C1387.23 784.62 1343.16 804.262 1330.56 810.17C1328.49 810.118 1330.51 812.244 1330.51 812.244L1402.98 818.214L1455.55 790.486C1457.63 790.538 1455.6 788.413 1455.6 788.413L1391.43 782.65Z" fill="white"/>
<path d="M1462.97 742.951C1458.77 744.921 1414.7 764.563 1402.1 770.471C1400.03 770.419 1402.05 772.544 1402.05 772.544L1474.52 778.515L1527.09 750.787C1529.17 750.839 1527.14 748.714 1527.14 748.714L1462.97 742.951Z" fill="white"/>
<path d="M1532.39 705.269C1528.19 707.239 1484.13 726.88 1471.53 732.789C1469.46 732.736 1471.48 734.862 1471.48 734.862L1543.95 740.833L1596.52 713.105C1598.59 713.157 1596.57 711.031 1596.57 711.031L1532.39 705.269Z" fill="white"/>
<path fill-rule="evenodd" clip-rule="evenodd" d="M656.49 113.824C657.931 116.499 656.931 119.834 654.256 121.275L133.991 401.547L287.867 789.582C288.987 792.406 287.606 795.602 284.782 796.722C281.958 797.842 278.762 796.46 277.642 793.637L120.158 396.504L649.039 111.591C651.714 110.15 655.049 111.15 656.49 113.824Z" fill="#D4DCF4"/>
<path fill-rule="evenodd" clip-rule="evenodd" d="M629.415 105.364C630.856 108.038 629.856 111.373 627.182 112.814L106.916 393.086L260.792 781.121C261.912 783.945 260.531 787.141 257.707 788.261C254.884 789.381 251.687 788 250.567 785.176L93.0835 388.043L621.965 103.13C624.639 101.689 627.975 102.689 629.415 105.364Z" fill="#D4DCF4"/>
<rect x="116.922" y="754.382" width="321.513" height="60.9182" rx="3" fill="#EF6A77"/>
<rect x="653.646" y="67.6616" width="71.0585" height="60.9182" rx="3" transform="rotate(60 653.646 67.6616)" fill="#EF6A77"/>
<circle cx="739.641" cy="250.115" r="57.5338" fill="#FED6BF"/>
<path fill-rule="evenodd" clip-rule="evenodd" d="M883.995 189.295L601.784 352.23C601.564 351.856 601.345 351.481 601.128 351.104C556.134 273.171 582.835 173.519 660.768 128.524C738.701 83.5296 838.354 110.231 883.348 188.164C883.566 188.541 883.781 188.918 883.995 189.295Z" fill="#EF6A77"/>
<rect x="2099" y="433.354" width="71.5595" height="339.396" transform="rotate(-23.0408 2099 433.354)" fill="#1B0C44"/>
<rect x="993.5" y="790.197" width="91.9773" height="436.235" transform="rotate(32.3617 993.5 790.197)" fill="#1B0C44"/>
<rect x="2297.59" y="286" width="96.0941" height="460.025" rx="10" fill="#94B9FF"/>
<path d="M2094.91 423.742C2092.75 418.66 2095.12 412.788 2100.2 410.626L2147.65 390.447C2152.73 388.285 2158.6 390.653 2160.76 395.735L2180.06 441.095L2114.21 469.102L2094.91 423.742Z" fill="#EF6A77"/>
<path d="M1002.21 776.447C1005.17 771.782 1011.35 770.396 1016.01 773.353L1076.81 811.879C1081.48 814.836 1082.86 821.014 1079.91 825.679L1044.47 881.605L966.775 832.373L1002.21 776.447Z" fill="#EF6A77"/>
<rect x="2123.81" y="590.639" width="284.193" height="327.129" rx="10" fill="#5661AE"/>
<rect x="2311.91" y="445.475" width="40.8911" height="16.3564" rx="4" fill="#694FFD"/>
<rect x="2311.91" y="302.356" width="40.8911" height="16.3564" rx="4" fill="#694FFD"/>
<rect x="2311.91" y="474.099" width="40.8911" height="16.3564" rx="4" fill="#694FFD"/>
<rect x="2311.91" y="330.98" width="40.8911" height="16.3564" rx="4" fill="#694FFD"/>
<rect x="2311.91" y="502.723" width="40.8911" height="16.3564" rx="4" fill="#694FFD"/>
<rect x="2311.91" y="359.604" width="40.8911" height="16.3564" rx="4" fill="#694FFD"/>
<rect x="2311.91" y="531.347" width="40.8911" height="16.3564" rx="4" fill="#694FFD"/>
<rect x="2311.91" y="388.228" width="40.8911" height="16.3564" rx="4" fill="#694FFD"/>
<rect x="2311.91" y="559.97" width="67.4703" height="16.3564" rx="4" fill="#694FFD"/>
<rect x="2311.91" y="416.852" width="67.4703" height="16.3564" rx="4" fill="#694FFD"/>
<path d="M1467.13 433.492C1357.46 442.71 1290.59 454.563 1215.7 441.393C1183.6 436.126 1154.18 426.907 1095.34 407.153C1056.55 393.984 1047.19 390.033 1047.19 383.448C1047.19 367.645 1106.03 353.159 1178.25 337.355C1361.47 295.213 1389.56 291.263 1460.44 274.142C1539.34 255.705 1620.92 245.17 1701.17 229.367C1722.57 225.416 1777.4 213.563 1818.86 242.536C1829.56 250.438 1833.57 254.388 1834.91 257.022C1852.29 289.946 1797.46 357.109 1749.31 391.35C1698.49 428.224 1669.07 415.055 1467.13 433.492Z" fill="#1B0C44"/>
<path d="M1514.72 715.046C1528.33 728.585 1546.03 747.539 1559.64 775.969C1570.53 796.277 1575.98 813.877 1580.06 830.123C1605.93 824.708 1649.49 811.169 1691.69 774.616C1774.73 702.862 1778.81 598.616 1778.81 579.662C1765.2 578.308 1747.5 574.246 1728.44 566.123C1701.22 553.939 1683.52 537.693 1672.63 526.862C1620.9 589.139 1567.81 651.416 1514.72 715.046Z" fill="#93523E"/>
<path d="M1456.69 164.211C1427.45 168.231 1303.82 191.01 1273.25 272.744C1255.97 316.961 1267.93 379.936 1278.57 446.932C1281.22 461.671 1285.21 483.109 1290.53 519.287C1299.83 580.923 1297.18 582.262 1302.49 603.701C1305.15 618.44 1331.74 739.032 1423.46 775.209C1428.78 777.889 1436.75 780.569 1447.39 781.909C1520.5 793.968 1585.63 728.312 1613.55 698.834C1691.97 618.44 1709.25 521.967 1711.91 503.208C1719.89 457.651 1737.17 343.759 1661.4 253.985C1586.96 168.231 1476.63 165.551 1456.69 164.211Z" fill="#BC775C"/>
<path d="M1687.66 415.765C1682.3 370.18 1697.03 332.64 1723.81 320.573C1727.83 319.232 1742.56 312.529 1755.94 317.892C1788.08 332.64 1777.37 407.721 1776.03 419.787C1773.35 438.557 1769.33 469.394 1747.91 500.231C1730.5 524.364 1711.76 539.112 1698.37 545.816C1694.35 502.912 1691.67 458.668 1687.66 415.765Z" fill="#BC775C"/>
<path d="M1708.78 220.459C1691.5 171.332 1647.62 132.827 1598.43 115.566C1583.8 110.255 1567.85 107.599 1551.9 106.272C1542.59 70.4221 1523.97 38.556 1485.42 23.9506C1474.78 19.9674 1462.81 17.3118 1452.18 19.9674C1441.54 22.6229 1430.91 29.2617 1426.92 39.8837C1422.93 51.8335 1426.92 63.7834 1432.23 75.7332C1387.03 67.7666 1337.84 67.7666 1299.28 91.6663C1285.98 99.6328 1274.02 110.255 1268.7 124.86C1260.72 147.432 1276.68 173.987 1300.61 179.298C1278.01 191.248 1255.4 208.509 1244.77 232.409C1234.13 256.308 1235.46 286.847 1252.74 305.435C1267.37 321.368 1291.3 326.679 1312.57 325.352C1315.23 326.679 1316.56 326.679 1319.22 328.007C1402.98 353.234 1496.05 328.007 1581.15 350.579C1595.77 354.562 1609.07 359.873 1619.7 369.168C1640.98 387.756 1646.29 419.622 1646.29 447.505C1646.29 463.438 1646.29 484.682 1660.92 491.321C1672.89 497.96 1687.51 491.321 1695.49 482.027C1703.47 472.733 1706.12 459.455 1708.78 446.177C1715.43 403.689 1719.42 361.201 1719.42 317.385C1719.42 284.191 1719.42 250.997 1708.78 220.459Z" fill="#1F2D49"/>
<path d="M1360.13 478.378C1362.85 462.363 1357.97 448.178 1349.23 446.696C1340.5 445.213 1331.21 456.995 1328.49 473.01C1325.78 489.025 1330.65 503.21 1339.39 504.692C1348.13 506.174 1357.41 494.393 1360.13 478.378Z" fill="#1F2D49"/>
<path d="M1509.28 475.285C1517.15 471.218 1517.49 456.222 1510.03 441.791C1502.58 427.359 1490.15 418.957 1482.28 423.024C1474.41 427.091 1474.07 442.087 1481.53 456.519C1488.98 470.95 1501.41 479.352 1509.28 475.285Z" fill="#1F2D49"/>
<path d="M1283.47 427.958C1278.12 418.599 1278.12 410.577 1279.46 403.893C1280.8 397.208 1286.15 390.523 1291.49 386.512C1296.84 382.501 1304.86 381.165 1311.55 381.165C1318.23 382.502 1326.25 385.175 1332.94 393.197L1334.28 394.534V395.871C1324.92 398.545 1315.56 401.219 1307.54 407.904C1299.52 413.251 1292.83 419.936 1287.48 427.958H1286.15C1283.47 429.295 1283.47 429.295 1283.47 427.958Z" fill="#1F2D49"/>
<path d="M1413.16 373.145C1418.51 362.449 1426.53 355.765 1435.89 353.091C1445.24 349.08 1454.6 349.08 1463.96 351.754C1473.32 354.428 1481.34 358.438 1488.03 365.123C1494.71 371.808 1498.72 381.167 1498.72 393.199V394.536C1498.72 394.536 1498.72 395.873 1497.39 395.873C1485.35 387.851 1471.98 379.83 1458.61 377.156C1443.91 373.145 1429.2 374.482 1415.83 375.819C1415.83 375.819 1414.49 375.819 1414.49 374.482C1413.16 374.482 1413.16 374.482 1413.16 373.145Z" fill="#1F2D49"/>
<path d="M1381.07 482.774C1379.74 490.796 1382.41 498.818 1383.75 506.839C1383.75 510.85 1383.75 514.861 1381.07 518.872C1378.4 522.883 1375.72 525.557 1373.05 528.23C1366.37 533.578 1361.02 537.589 1357.01 544.274C1353 550.959 1351.66 557.643 1351.66 564.328C1353 571.013 1355.67 577.698 1361.02 583.045C1366.37 588.393 1371.71 589.73 1378.4 591.067C1391.77 592.404 1409.15 585.719 1425.19 587.056C1409.15 591.067 1395.78 599.089 1378.4 600.426C1374.39 600.426 1369.04 599.089 1365.03 597.752C1361.02 596.415 1357.01 593.741 1354.33 589.73C1347.65 583.045 1344.97 573.687 1344.97 565.665C1343.64 546.948 1357.01 532.241 1370.38 524.22C1377.06 520.209 1381.07 514.861 1381.07 506.839C1381.07 498.818 1378.4 490.796 1381.07 482.774C1381.07 482.774 1379.74 482.774 1381.07 482.774Z" fill="#1F2D49"/>
<path d="M1357.01 657.915C1374.39 659.252 1391.77 659.252 1407.81 656.578C1423.86 655.241 1439.9 651.23 1454.61 647.219C1469.31 641.871 1484.02 635.187 1498.72 628.502C1505.41 624.491 1513.43 620.48 1520.12 615.132C1528.14 611.122 1534.82 605.774 1541.51 600.426H1542.84C1542.84 600.426 1542.84 600.426 1542.84 601.763C1520.12 627.165 1492.04 648.556 1458.62 659.252C1425.19 671.284 1389.09 669.947 1357.01 657.915C1355.67 659.252 1355.67 659.252 1357.01 657.915C1357.01 657.915 1355.67 657.915 1357.01 657.915Z" fill="#1F2D49"/>
<path fill-rule="evenodd" clip-rule="evenodd" d="M1406.68 612.786C1408.43 612.786 1409.84 614.133 1409.84 615.794V635.046L1406.68 635.049L1403.52 635.049V615.801C1403.52 614.14 1404.94 612.786 1406.68 612.786ZM1406.68 638.057C1404.94 638.057 1403.52 636.71 1403.52 635.049L1406.68 635.049L1409.84 635.046C1409.84 636.707 1408.43 638.057 1406.68 638.057Z" fill="#1F2D49"/>
<path fill-rule="evenodd" clip-rule="evenodd" d="M1434.87 607.966C1434.63 606.388 1433.66 605.204 1432.49 605.204C1431.15 605.204 1430.06 606.767 1430.06 608.696C1430.06 609.222 1430.14 609.649 1430.17 609.818C1430.22 610.043 1430.27 610.249 1430.31 610.415C1430.4 610.748 1430.52 611.109 1430.64 611.46C1430.88 612.172 1431.2 613.059 1431.58 614.026C1432.32 615.973 1433.31 618.41 1434.29 620.775C1435.26 623.147 1436.24 625.472 1436.97 627.202C1437.34 628.068 1437.64 628.786 1437.86 629.288L1438.19 630.077C1438.9 631.719 1440.39 632.232 1441.54 631.221C1442.68 630.211 1443.04 628.06 1442.33 626.418L1442 625.642C1441.79 625.146 1441.49 624.434 1441.13 623.576C1440.4 621.859 1439.43 619.557 1438.47 617.215C1437.5 614.868 1436.54 612.504 1435.83 610.653C1435.47 609.722 1435.19 608.961 1435.01 608.413C1434.94 608.211 1434.89 608.064 1434.87 607.966Z" fill="#1F2D49"/>
<path fill-rule="evenodd" clip-rule="evenodd" d="M1450.38 601.648C1450.01 600.07 1448.45 598.886 1446.58 598.886C1444.43 598.886 1442.69 600.449 1442.69 602.378C1442.69 602.904 1442.82 603.331 1442.87 603.5C1442.94 603.725 1443.03 603.931 1443.1 604.097C1443.24 604.43 1443.43 604.791 1443.62 605.142C1444 605.855 1444.53 606.741 1445.12 607.709C1446.32 609.655 1447.9 612.092 1449.46 614.458C1451.02 616.829 1452.59 619.154 1453.76 620.884C1454.34 621.75 1454.83 622.468 1455.17 622.97L1455.71 623.759C1456.84 625.401 1459.23 625.914 1461.06 624.903C1462.89 623.893 1463.46 621.742 1462.33 620.1L1461.8 619.324C1461.47 618.828 1460.98 618.117 1460.4 617.258C1459.24 615.541 1457.69 613.239 1456.15 610.898C1454.6 608.55 1453.07 606.186 1451.93 604.335C1451.36 603.404 1450.91 602.643 1450.61 602.096C1450.51 601.893 1450.43 601.746 1450.38 601.648Z" fill="#1F2D49"/>
<path fill-rule="evenodd" clip-rule="evenodd" d="M1462.43 595.296C1462.01 593.725 1460.61 592.568 1458.94 592.568C1456.95 592.568 1455.33 594.218 1455.33 596.254C1455.33 596.884 1455.48 597.386 1455.55 597.585C1455.63 597.845 1455.73 598.077 1455.81 598.256C1455.97 598.617 1456.17 598.995 1456.38 599.351C1456.79 600.074 1457.34 600.96 1457.97 601.914C1459.22 603.836 1460.88 606.229 1462.51 608.542C1464.15 610.863 1465.78 613.134 1467 614.823C1467.62 615.668 1468.13 616.368 1468.48 616.858L1468.9 617.427L1469.05 617.628C1470.24 619.257 1472.51 619.588 1474.1 618.367C1475.7 617.145 1476.02 614.835 1474.83 613.207L1474.68 613.012L1474.27 612.452C1473.92 611.969 1473.41 611.276 1472.81 610.439C1471.6 608.765 1469.98 606.521 1468.37 604.235C1466.75 601.942 1465.16 599.635 1463.97 597.826C1463.38 596.914 1462.92 596.176 1462.62 595.65C1462.53 595.495 1462.47 595.378 1462.43 595.296Z" fill="#1F2D49"/>
<path fill-rule="evenodd" clip-rule="evenodd" d="M1395.25 617.391C1396.35 616.229 1396.14 614.678 1394.62 613.667C1392.86 612.492 1390 612.492 1388.24 613.667C1387.4 614.228 1387.01 614.898 1386.87 615.146C1386.67 615.505 1386.5 615.892 1386.37 616.256C1386.1 616.991 1385.86 617.896 1385.64 618.86C1385.2 620.802 1384.8 623.235 1384.45 625.583C1384.11 627.941 1383.83 630.256 1383.63 631.979C1383.53 632.841 1383.45 633.557 1383.4 634.057L1383.34 634.639L1383.32 634.847C1383.15 636.505 1385.03 637.94 1387.52 638.051C1390.01 638.161 1392.16 636.907 1392.32 635.249L1392.34 635.052L1392.4 634.484C1392.45 633.993 1392.53 633.289 1392.63 632.44C1392.82 630.741 1393.1 628.468 1393.44 626.163C1393.77 623.847 1394.16 621.542 1394.56 619.761C1394.77 618.863 1394.96 618.16 1395.14 617.678C1395.19 617.552 1395.23 617.458 1395.25 617.391ZM1395.3 617.289C1395.31 617.282 1395.31 617.276 1395.31 617.272C1395.34 617.22 1395.34 617.233 1395.3 617.289Z" fill="#1F2D49"/>
<path fill-rule="evenodd" clip-rule="evenodd" d="M1376.64 617.391C1377.19 616.229 1377.08 614.678 1376.33 613.667C1375.45 612.492 1374.02 612.492 1373.14 613.667C1372.71 614.228 1372.52 614.898 1372.45 615.146C1372.35 615.505 1372.27 615.892 1372.2 616.256C1372.07 616.991 1371.95 617.896 1371.84 618.86C1371.62 620.802 1371.41 623.235 1371.24 625.583C1371.07 627.941 1370.93 630.256 1370.83 631.979C1370.78 632.841 1370.74 633.557 1370.72 634.057L1370.69 634.639L1370.67 634.847C1370.59 636.505 1371.53 637.94 1372.78 638.051C1374.02 638.161 1375.09 636.907 1375.18 635.249L1375.19 635.052L1375.22 634.484C1375.24 633.993 1375.28 633.289 1375.33 632.44C1375.43 630.741 1375.57 628.468 1375.74 626.163C1375.9 623.847 1376.1 621.542 1376.3 619.761C1376.4 618.863 1376.5 618.16 1376.59 617.678C1376.61 617.552 1376.63 617.458 1376.64 617.391ZM1376.67 617.289C1376.67 617.282 1376.67 617.276 1376.67 617.272C1376.69 617.22 1376.69 617.233 1376.67 617.289Z" fill="#1F2D49"/>
<path d="M1192.5 342.378C1193.85 303.452 1200.56 272.58 1204.59 252.446C1216.68 200.098 1234.15 162.514 1265.04 99.4279C1282.51 63.1867 1291.91 45.7373 1301.31 34.9992C1321.46 13.523 1337.58 16.2075 1449.08 -6.61094C1505.5 -18.6913 1525.65 -24.0604 1557.89 -17.349C1588.79 -11.98 1610.28 1.44264 1617 5.46943C1629.09 13.523 1657.3 32.3147 1692.22 96.7433C1709.69 128.958 1732.52 178.621 1745.96 244.392C1561.92 276.607 1376.54 310.163 1192.5 342.378Z" fill="#1B0C44"/>
<path d="M1162.17 394.885C1238.38 380.365 1239.72 376.405 1362.72 347.366C1483.05 319.647 1539.21 310.407 1599.37 307.767C1640.82 305.127 1675.58 306.447 1714.35 319.647C1745.1 330.206 1771.84 347.366 1787.89 359.246C1821.31 324.927 1848.05 281.368 1834.68 257.608C1833.34 254.969 1829.33 251.009 1818.64 243.089C1775.85 214.05 1721.04 224.609 1700.98 229.889C1620.76 245.729 1539.21 256.289 1460.32 274.768C1389.46 291.928 1361.38 295.887 1178.22 338.126C1106.02 353.966 1047.19 368.485 1047.19 384.325C1047.19 389.605 1056.55 394.885 1093.99 408.084C1107.36 404.124 1130.08 400.164 1162.17 394.885Z" fill="#2A1C7C"/>
<path d="M2046.86 1293.6C2054.36 1187.78 2052.86 1009.64 1991.32 830.153C1952.3 717.641 1905.78 658.705 1842.74 618.522C1808.22 595.752 1775.2 583.697 1751.19 577C1691.15 638.614 1605.6 733.714 1518.56 862.3C1508.05 878.373 1493.04 899.804 1482.53 917.216C1440.51 988.206 1383.48 1128.85 1442.01 1382C1640.12 1379.32 1838.24 1375.3 2037.85 1372.62C2039.35 1345.84 2043.85 1320.39 2046.86 1293.6Z" fill="#94B9FF"/>
<path d="M1747.5 539.498C1705.99 598.886 1663.13 659.625 1614.92 721.713C1590.81 754.107 1565.36 785.151 1541.25 816.195C1541.25 862.086 1542.59 909.327 1542.59 955.219C1580.09 930.923 1624.29 898.529 1667.15 853.988C1771.61 744.659 1814.47 623.182 1831.88 552.995C1803.75 548.946 1775.63 544.897 1747.5 539.498Z" fill="#6A88C2"/>
<path d="M965.556 1060.99C988.381 1020.75 990.702 980.55 962.429 945.054C944.051 921.657 922.003 894.881 893.603 889.15C880.108 886.684 864.385 888.143 819.908 923.885C759.776 974.096 728.727 999.293 743.504 1032.32C755.725 1060.01 793.462 1078.82 810.921 1087.43C879.352 1121.06 938.277 1109.08 965.556 1060.99Z" fill="#BC775C"/>
<path d="M876.041 902.269C892.795 914.846 912.504 930.637 930.722 953.267C959.612 986.562 967.131 1015.42 970.231 1031.01" fill="#93523E"/>
<path d="M822.377 937.921C839.131 950.498 858.84 966.289 877.058 988.919C905.949 1022.21 913.468 1051.07 916.568 1066.66" fill="#93523E"/>
<path d="M769.682 980.273C784.629 991.826 806.145 1008.64 825.023 1030.11C853.913 1063.4 861.432 1092.26 864.532 1107.85" fill="#93523E"/>
<path d="M1861.44 772.484C1816.14 759.168 1754.86 824.415 1725.55 881.672C1696.24 937.598 1697.57 989.529 1698.9 1033.47C1698.9 1109.37 1696.24 1217.23 1680.25 1357.04C1760.19 1355.71 1838.79 1354.38 1918.73 1353.05C1922.73 1318.42 1926.72 1269.16 1930.72 1210.57C1937.38 1104.04 1940.05 1040.13 1930.72 962.897C1918.73 872.351 1906.74 785.799 1861.44 772.484Z" fill="#6A88C2"/>
<path d="M1065.33 951.68C1047.6 986.822 1023.92 1029.16 992.793 1071.64C947.313 1133.08 901.277 1175.82 863.971 1205.19C892.983 1229.82 921.996 1254.44 952.769 1277.75C1079.87 1380.25 1205.8 1474.06 1329.5 1557.28C1360.99 1548.65 1469.23 1513.81 1478.46 1448.2C1485.06 1402.29 1439.92 1362.48 1419.85 1344.78C1338.84 1270.47 1227.93 1154.46 1065.33 951.68Z" fill="#6A88C2"/>
<path fill-rule="evenodd" clip-rule="evenodd" d="M1339.7 408.084L1340.78 408.31C1348.01 409.825 1362.96 414.462 1373.46 430.178C1382.44 443.52 1384.5 459.342 1382.72 474.013C1380.96 488.635 1375.35 502.639 1368.25 513.067C1356.39 531.001 1339.63 537.649 1332.13 540.625C1331.4 540.916 1330.75 541.171 1330.21 541.399L1329.05 541.887H1328.07C1328.01 541.897 1327.93 541.912 1327.82 541.933C1327.4 542.016 1326.82 542.143 1326.02 542.324C1325.89 542.354 1325.75 542.386 1325.6 542.418C1324.09 542.76 1322.08 543.213 1319.73 543.67C1314.56 544.673 1307.62 545.718 1299.72 545.809C1283.95 545.991 1263.95 542.357 1246.73 526.555C1235.4 516.167 1226.62 501.799 1222.2 487.347C1217.84 473.078 1217.38 457.391 1224.72 445.42L1224.78 445.324L1224.78 445.325C1231.34 434.996 1239.84 431.714 1250.55 428.895C1271.6 422.007 1300.53 413.749 1338.62 408.242L1339.7 408.084ZM1339.27 421.921C1302.54 427.312 1274.63 435.301 1254.25 441.977L1254.07 442.036L1253.89 442.083C1243.89 444.704 1239.43 446.897 1235.64 452.845C1231.29 459.977 1230.83 470.874 1234.6 483.183C1238.31 495.337 1245.8 507.574 1255.3 516.287C1269.3 529.137 1285.74 532.326 1299.58 532.166C1306.49 532.087 1312.64 531.17 1317.36 530.255C1319.52 529.835 1321.35 529.42 1322.87 529.078C1323.01 529.046 1323.15 529.015 1323.29 528.984C1324.06 528.81 1324.81 528.643 1325.44 528.52C1325.63 528.482 1325.91 528.428 1326.23 528.379C1326.62 528.218 1327.04 528.052 1327.47 527.877C1334.98 524.858 1348.13 519.568 1357.58 505.259L1357.63 505.176L1357.64 505.177C1363.54 496.507 1368.33 484.606 1369.81 472.3C1371.3 460.028 1369.45 447.884 1362.82 438.035L1362.8 438.013C1355.53 427.111 1345.27 423.334 1339.27 421.921Z" fill="#1F2D49"/>
<path fill-rule="evenodd" clip-rule="evenodd" d="M1531.24 383.472L1531.05 383.497C1510.67 386.094 1481.17 392.593 1445.01 403.083C1440.08 407.034 1432.14 414.907 1430.06 427.624L1430.04 427.731L1430.02 427.837C1427.82 439.086 1431.05 450.763 1437.53 461.204C1444.01 471.657 1453.37 480.242 1462.22 485.054L1462.3 485.1L1462.39 485.149C1479.03 494.846 1495.72 493.587 1501.29 492.452L1501.93 492.321H1502.58C1502.47 492.321 1502.48 492.32 1502.63 492.302C1502.87 492.274 1503.43 492.207 1504.39 492.046C1505.76 491.815 1507.67 491.435 1509.98 490.858C1514.59 489.701 1520.68 487.776 1527.13 484.721C1540.1 478.582 1553.97 468.171 1561.02 450.811L1561.08 450.656L1561.15 450.504C1566.49 439.02 1568.32 424.9 1566.67 412.306C1564.99 399.522 1559.94 389.71 1553.01 385.168L1552.92 385.107L1552.92 385.107C1547.47 381.403 1542.33 382.059 1531.24 383.472ZM1560.18 373.902C1550.56 367.388 1540.67 368.691 1531.4 369.913C1530.73 370.001 1530.07 370.088 1529.41 370.171C1507.87 372.917 1477.23 379.731 1440.19 390.521L1439.02 390.862L1438.05 391.606C1432.32 395.992 1420.17 406.707 1417.09 425.31C1414.07 440.882 1418.73 456.022 1426.4 468.381C1434.05 480.725 1445.06 490.919 1455.94 496.857C1475.73 508.354 1495.46 507.221 1503.39 505.714C1504.28 505.646 1505.4 505.486 1506.53 505.296C1508.24 505.008 1510.48 504.559 1513.12 503.898C1518.38 502.579 1525.3 500.392 1532.67 496.901C1547.33 489.963 1564.35 477.588 1573.12 456.1C1579.59 442.1 1581.68 425.402 1579.72 410.52C1577.78 395.795 1571.65 381.453 1560.18 373.902Z" fill="#1F2D49"/>
<path fill-rule="evenodd" clip-rule="evenodd" d="M1406.48 414.402H1423.62C1427.18 414.402 1430.06 417.064 1430.06 420.348C1430.06 423.632 1427.18 426.294 1423.62 426.294H1407.29C1399.16 427.261 1391.93 428.982 1386.69 430.232C1385.71 430.465 1384.8 430.681 1383.97 430.873C1379.08 432.002 1375.42 433.127 1371.57 434.313C1368.19 435.351 1364.55 433.668 1363.42 430.553C1362.3 427.437 1364.12 424.07 1367.49 423.032L1367.54 423.018C1371.4 421.83 1375.45 420.581 1380.85 419.337C1381.58 419.168 1382.41 418.97 1383.33 418.75C1388.62 417.485 1396.88 415.51 1406.08 414.448L1406.48 414.402Z" fill="#1F2D49"/>
<ellipse rx="45.5" ry="18" transform="matrix(-0.968199 0.250181 0.250181 0.968199 1535.56 522.811)" fill="#A24C46"/>
<path d="M744.5 1251.5L759.5 1158.5L837.5 1207.5L744.5 1251.5Z" fill="#FFD76F"/>
</g>
<defs>
<clipPath id="clip0_96_190">
<rect width="2541" height="1334" fill="white"/>
</clipPath>
</defs>
</svg>
