<svg width="2541" height="1334" viewBox="0 0 2541 1334" fill="none" xmlns="http://www.w3.org/2000/svg">
<g clip-path="url(#clip0_104_556)">
<rect width="2541" height="1334" fill="#694FFD"/>
<path d="M191.589 1170.21L1049.44 3805.79H1190.01L441.71 1151.61L191.589 1170.21Z" fill="#E2F3FF"/>
<path d="M983.292 909.752L1663.38 2993.41H1775L1181.74 895.282L983.292 909.752Z" fill="#E2F3FF"/>
<path d="M-2512.21 920.086H1576.56L801.388 1426.53H-3676L-2512.21 920.086Z" fill="#6A88C2"/>
<path d="M-2512.21 825H1576.56L801.388 1331.45H-3676L-2512.21 825Z" fill="#E2F3FF"/>
<path d="M1576.56 825V920.088L1425.66 924.222L1576.56 825Z" fill="#6A88C2"/>
<rect x="1841" y="-352" width="1022.09" height="943" rx="20" fill="#94B9FF"/>
<rect x="1882.07" y="-303.329" width="939.958" height="844.137" rx="20" fill="#E2F3FF"/>
<rect x="1985.49" y="-224.239" width="235.75" height="270.732" rx="10" fill="#1C85E8"/>
<rect x="2409.03" y="-100.034" width="185.558" height="197.726" rx="10" transform="rotate(11.56 2409.03 -100.034)" fill="#2A1C7C"/>
<rect x="2263.83" y="204.674" width="149.055" height="158.181" rx="10" fill="#FF971D"/>
<rect x="1966.96" y="155.285" width="149.055" height="158.181" rx="10" transform="rotate(-15.0829 1966.96 155.285)" fill="#5661AE"/>
<rect x="2096.52" y="370.46" width="127.761" height="135.366" rx="10" fill="#CF4D4D"/>
<rect x="1968.76" y="-239.448" width="235.75" height="270.732" rx="10" fill="#77B6F1"/>
<rect x="2397.75" y="-113.208" width="185.558" height="197.726" rx="10" transform="rotate(11.56 2397.75 -113.208)" fill="#525DC1"/>
<rect x="2253.18" y="195.548" width="149.055" height="158.181" rx="10" fill="#FFD76F"/>
<rect x="1954.31" y="149.244" width="149.055" height="158.181" rx="10" transform="rotate(-15.0829 1954.31 149.244)" fill="#A7A1E7"/>
<rect x="2087.4" y="362.855" width="127.761" height="135.366" rx="10" fill="#EF6A77"/>
<circle cx="2434.94" cy="453.352" r="44.8685" fill="#694FFD"/>
<circle cx="2223.52" cy="120.26" r="44.8685" fill="#FF971D"/>
<path d="M2432.88 420.873C2433.83 418.23 2437.57 418.23 2438.52 420.873L2444.54 437.559C2444.95 438.716 2446.04 439.501 2447.26 439.54L2464.99 440.106C2467.8 440.196 2468.96 443.751 2466.74 445.474L2452.73 456.353C2451.76 457.107 2451.34 458.377 2451.69 459.558L2456.63 476.594C2457.41 479.293 2454.38 481.49 2452.06 479.912L2437.38 469.949C2436.37 469.259 2435.03 469.259 2434.01 469.949L2419.34 479.912C2417.01 481.49 2413.99 479.293 2414.77 476.594L2419.71 459.558C2420.05 458.377 2419.64 457.107 2418.67 456.353L2404.66 445.474C2402.44 443.751 2403.6 440.196 2406.4 440.106L2424.13 439.54C2425.36 439.501 2426.44 438.716 2426.86 437.559L2432.88 420.873Z" fill="#F3F7FF"/>
<path d="M2221.46 87.781C2222.41 85.1378 2226.15 85.1378 2227.11 87.781L2233.12 104.467C2233.54 105.624 2234.62 106.409 2235.85 106.448L2253.58 107.014C2256.39 107.104 2257.54 110.659 2255.32 112.382L2241.31 123.261C2240.34 124.015 2239.93 125.285 2240.27 126.466L2245.21 143.502C2245.99 146.201 2242.97 148.398 2240.64 146.82L2225.97 136.857C2224.95 136.167 2223.62 136.167 2222.6 136.857L2207.92 146.82C2205.6 148.398 2202.57 146.201 2203.36 143.502L2208.3 126.466C2208.64 125.285 2208.23 124.015 2207.25 123.261L2193.24 112.382C2191.03 110.659 2192.18 107.104 2194.99 107.014L2212.72 106.448C2213.95 106.409 2215.03 105.624 2215.44 104.467L2221.46 87.781Z" fill="#F3F7FF"/>
<rect x="2268.39" y="239.656" width="114.073" height="10.6468" rx="5.32339" fill="#FF971D"/>
<rect x="2268.39" y="268.555" width="74.5274" height="10.6468" rx="5.32339" fill="#FF971D"/>
<path d="M1402.69 418.395C1413.97 408.835 1428.21 401.618 1626.01 407.467C1650.06 408.405 1814.34 413.583 2010 458.073C2048.13 466.468 2101.54 480.322 2107.55 509.145C2112.78 534.756 2078.06 561.264 2069.13 567.869C1918.39 690.754 1953.89 1391.35 1761.32 1538.06C1717.67 1571.17 1667.23 1584.84 1667.23 1584.84C1595.35 1604.08 1530.12 1580.86 1476.11 1574.3C1250.6 1548.33 1130.18 1570.9 1118.17 1525.85C1111.03 1497.98 1163.36 1461.39 1207.88 1430.44C1299.18 1366.64 1346.59 1376.86 1389.12 1344.7C1438.24 1308.89 1465.7 1230.38 1410.02 825.01C1372.84 563.855 1342.9 469.059 1402.69 418.395Z" fill="#2A1C7C"/>
<path d="M1341.64 408.105C1352.92 398.546 1367.16 391.329 1565.05 396.136C1589.1 397.073 1753.38 402.252 1949.04 446.741C1987.16 455.136 2040.57 468.991 2046.5 498.856C2051.64 525.508 2016.93 552.016 2007.99 558.622C1857.17 682.549 1892.07 1390.44 1699.32 1539.23C1655.59 1573.39 1605.24 1586.01 1605.24 1586.01C1533.35 1605.26 1468.13 1582.03 1414.03 1576.51C1188.52 1550.54 1068.1 1573.12 1056.17 1527.02C1049.03 1499.15 1101.45 1461.52 1145.97 1430.57C1237.35 1365.73 1284.77 1375.94 1327.29 1343.79C1376.5 1306.94 1403.97 1228.42 1348.62 818.889C1311.7 554.608 1281.94 457.728 1341.64 408.105Z" fill="#525DC1"/>
<path d="M6.74248 755.04L448.23 608.44C462.85 604.657 477.261 609.169 485.243 621.819L666.489 923.084C676.493 937.86 669.751 958.439 652.954 966.317L216.019 1179.43C201.296 1187.36 182.79 1180.67 174.86 1165.94L-10.9404 798.169C-20.8915 781.319 -12.0762 760.792 6.74248 755.04Z" fill="#CEDFFF"/>
<path d="M25.7083 743.066L467.196 596.466C481.816 592.683 496.227 597.195 504.208 609.845L685.455 911.11C695.459 925.886 688.717 946.466 671.92 954.343L237.059 1167.51C222.335 1175.44 203.829 1168.75 195.9 1154.02L8.02548 786.195C0.147896 769.398 8.96326 748.87 25.7083 743.066Z" fill="#DFEAFF"/>
<path d="M93.8294 757.229L459.991 635.71C470.463 631.824 484.874 636.335 490.834 646.86L642.227 897.577C650.209 910.227 645.645 926.712 630.922 934.641L267.501 1112.25C254.903 1118.16 240.492 1113.65 232.51 1101L78.3765 794.189C70.4468 779.466 77.0844 763.033 93.8294 757.229Z" fill="white"/>
<path d="M675.969 958.6C646.522 974.459 316.696 1136.31 211.661 1187.62C203.263 1191.56 205.024 1204.06 215.392 1204.32L764.582 1230.56C766.655 1230.62 768.729 1230.67 768.781 1228.59L1166.58 1004.12C1174.98 1000.19 1171.14 987.64 1162.85 987.432L680.116 958.704C680.169 956.63 678.095 956.578 675.969 958.6Z" fill="#4F5E6F"/>
<path d="M676.386 942.008C646.939 957.867 317.112 1119.72 212.078 1171.03C203.679 1174.97 205.44 1187.46 215.808 1187.72L764.998 1213.97C767.072 1214.02 769.145 1214.08 769.197 1212L1166.99 987.533C1175.39 983.594 1171.56 971.048 1163.26 970.84L680.533 942.112C680.533 942.112 678.459 942.06 676.386 942.008Z" fill="#CEDFFF"/>
<path d="M433.284 1120.56C429.085 1122.53 385.019 1142.18 372.421 1148.08C370.347 1148.03 372.369 1150.16 372.369 1150.16L444.84 1156.13L497.409 1128.4C499.483 1128.45 497.462 1126.33 497.462 1126.33L433.284 1120.56Z" fill="white"/>
<path d="M502.649 1084.96C498.45 1086.93 454.383 1106.57 441.785 1112.48C439.712 1112.43 441.733 1114.56 441.733 1114.56L514.205 1120.53L566.774 1092.8C568.848 1092.85 566.826 1090.73 566.826 1090.73L502.649 1084.96Z" fill="white"/>
<path d="M576.214 1047.39C572.014 1049.36 527.948 1069 515.35 1074.91C513.276 1074.85 515.298 1076.98 515.298 1076.98L587.769 1082.95L640.339 1055.22C642.412 1055.28 640.391 1053.15 640.391 1053.15L576.214 1047.39C578.339 1045.37 578.339 1045.37 576.214 1047.39Z" fill="white"/>
<path d="M649.83 1007.74C645.631 1009.71 601.564 1029.35 588.967 1035.26C586.893 1035.2 588.915 1037.33 588.915 1037.33L661.386 1043.3L713.955 1015.57C716.029 1015.62 714.008 1013.5 714.008 1013.5L649.83 1007.74Z" fill="white"/>
<path d="M719.205 972.13C715.005 974.1 670.939 993.741 658.341 999.65C656.268 999.598 658.289 1001.72 658.289 1001.72L730.761 1007.69L783.33 979.966C785.403 980.018 783.382 977.893 783.382 977.893L719.205 972.13Z" fill="white"/>
<path d="M524.312 1131.15C520.112 1133.12 476.046 1152.77 463.448 1158.67C461.374 1158.62 463.396 1160.75 463.396 1160.75L535.868 1166.72L588.437 1138.99C590.51 1139.04 588.489 1136.92 588.489 1136.92L524.312 1131.15Z" fill="white"/>
<path d="M593.677 1095.55C589.478 1097.52 545.411 1117.16 532.813 1123.07C530.74 1123.02 532.761 1125.14 532.761 1125.14L605.233 1131.11L657.802 1103.38C659.876 1103.44 657.854 1101.31 657.854 1101.31L593.677 1095.55C593.729 1093.47 593.729 1093.47 593.677 1095.55Z" fill="white"/>
<path d="M667.294 1055.9C663.094 1057.87 619.028 1077.51 606.43 1083.42C604.356 1083.37 606.378 1085.49 606.378 1085.49L678.85 1091.46L731.419 1063.73C733.492 1063.79 731.471 1061.66 731.471 1061.66L667.294 1055.9Z" fill="white"/>
<path d="M740.91 1016.25C736.711 1018.22 692.644 1037.86 680.046 1043.77C677.973 1043.72 679.994 1045.84 679.994 1045.84L752.466 1051.81L805.035 1024.09C807.109 1024.14 805.087 1022.01 805.087 1022.01L740.91 1016.25Z" fill="white"/>
<path d="M808.209 980.592C804.009 982.561 759.943 1002.2 747.345 1008.11C745.271 1008.06 747.293 1010.18 747.293 1010.18L819.765 1016.16L872.334 988.427C874.407 988.48 872.386 986.354 872.386 986.354L808.209 980.592C810.282 980.644 810.282 980.644 808.209 980.592Z" fill="white"/>
<path d="M621.62 1139.82C617.421 1141.79 573.355 1161.44 560.757 1167.34C558.683 1167.29 560.705 1169.42 560.705 1169.42L633.176 1175.39L685.745 1147.66C687.819 1147.71 685.798 1145.59 685.798 1145.59L621.62 1139.82Z" fill="white"/>
<path d="M691.032 1102.14C686.833 1104.11 642.767 1123.75 630.169 1129.66C628.095 1129.61 630.117 1131.74 630.117 1131.74L702.588 1137.71L755.158 1109.98C757.231 1110.03 755.21 1107.9 755.21 1107.9L691.032 1102.14Z" fill="white"/>
<path d="M764.602 1064.57C760.402 1066.54 716.336 1086.18 703.738 1092.09C701.665 1092.04 703.686 1094.16 703.686 1094.16L776.158 1100.13L828.727 1072.41C830.8 1072.46 828.779 1070.33 828.779 1070.33L764.602 1064.57Z" fill="white"/>
<path d="M836.142 1024.87C831.942 1026.84 787.876 1046.48 775.278 1052.39C773.205 1052.34 775.226 1054.46 775.226 1054.46L847.698 1060.43L900.267 1032.71C902.34 1032.76 900.319 1030.63 900.319 1030.63L836.142 1024.87Z" fill="white"/>
<path d="M905.568 987.188C901.369 989.157 857.303 1008.8 844.705 1014.71C842.631 1014.66 844.653 1016.78 844.653 1016.78L917.124 1022.75L969.694 995.024C971.767 995.076 969.746 992.95 969.746 992.95L905.568 987.188Z" fill="white"/>
<path d="M906.665 1162.1C908.92 1175.64 910.048 1195.96 904.41 1220.78C897.644 1249 886.368 1270.44 877.348 1281.73C934.855 1332.51 988.979 1367.5 1029.57 1391.2C1119.78 1443.11 1204.35 1490.51 1304.7 1474.71C1365.59 1464.56 1379.12 1455.53 1382.51 1449.89C1407.31 1411.51 1363.34 1328 1301.32 1283.99C1256.22 1252.39 1216.75 1253.51 1151.35 1242.23C1092.72 1232.07 1008.15 1210.63 906.665 1162.1Z" fill="#FF971D"/>
<path d="M1280.77 759.124C1278.51 794.1 1271.73 845.998 1251.41 904.666C1225.43 980.257 1198.33 1005.08 1193.81 1062.62C1188.17 1125.8 1215.27 1172.06 1229.95 1207.03C1260.44 1278.11 1281.9 1392.06 1233.34 1583.86C1271.73 1601.91 1320.29 1618.83 1377.88 1627.86C1523.56 1651.55 1643.26 1610.94 1704.24 1583.86C1715.53 1460.88 1722.3 1357.09 1725.69 1278.11C1740.37 978.001 1725.69 905.794 1696.33 842.613C1645.52 730.919 1547.27 663.225 1542.75 659.84C1513.39 638.404 1486.29 624.865 1467.09 615.839C1465.96 624.865 1451.28 721.893 1376.75 754.611C1356.43 763.637 1336.1 764.766 1320.29 764.766C1307.87 762.509 1294.32 761.381 1280.77 759.124Z" fill="#FEBB94"/>
<path d="M1319.15 660.453C1307.06 658.194 1290.58 707.894 1285.09 721.449C1271.9 760.984 1267.51 796 1266.41 820.85C1289.48 799.389 1312.56 776.798 1334.53 755.336C1334.53 679.655 1326.84 660.453 1319.15 660.453Z" fill="#FF971D"/>
<path d="M1530.21 390.222C1537.65 393.975 1537.65 416.492 1557.48 430.252C1563.68 434.004 1569.88 436.506 1573.6 437.757C1566.16 441.51 1555 445.263 1541.36 447.765C1527.73 449.016 1516.57 447.765 1509.13 445.263C1510.37 447.765 1520.29 464.027 1538.89 465.278C1546.32 465.278 1552.52 464.027 1556.24 461.525C1542.6 470.281 1526.49 479.038 1507.89 486.543C1500.45 489.045 1493.01 491.547 1486.81 494.049C1488.05 496.551 1496.73 507.809 1494.25 522.82C1491.77 540.333 1478.14 549.089 1476.9 550.34C1478.14 547.839 1479.37 537.831 1473.18 529.075C1465.74 517.816 1450.86 512.813 1434.74 517.816C1495.49 411.488 1520.29 386.469 1530.21 390.222Z" fill="#DFEAFF"/>
<path d="M1271.65 579.407C1298.69 603.245 1309.95 625.947 1314.46 642.974C1320.09 660.001 1320.09 671.352 1330.23 728.109C1332.49 739.46 1334.74 749.676 1335.87 755.352C1352.76 742.865 1369.66 729.244 1387.69 714.487C1420.36 684.974 1447.4 655.46 1468.8 628.217C1462.04 604.38 1456.41 579.407 1450.78 554.434C1446.27 531.732 1440.64 509.029 1437.26 487.462C1382.06 518.11 1326.85 548.759 1271.65 579.407Z" fill="#FCBA9F"/>
<path d="M1324.05 758.376C1330.91 785.314 1337.77 812.252 1344.63 839.19C1359.49 831.333 1378.92 818.986 1400.64 802.15C1432.65 776.334 1476.09 742.662 1496.67 684.296C1502.39 669.704 1506.96 649.5 1508.1 622.562C1494.38 610.216 1480.67 596.747 1466.95 584.4C1448.66 610.216 1428.08 636.031 1407.5 661.847C1380.07 696.642 1351.49 729.193 1324.05 758.376Z" fill="#FF971D"/>
<path d="M1318.44 63.3794C1252.05 72.0927 1211.97 110.68 1199.44 123.128C1195.69 126.862 1144.33 179.141 1138.07 256.316C1135.56 282.456 1140.57 281.211 1141.83 333.491C1141.83 395.729 1145.58 398.218 1148.09 435.561C1149.34 470.414 1155.61 516.47 1198.19 560.036C1220.74 583.686 1233.26 604.847 1247.04 608.581C1322.19 632.232 1389.83 591.155 1399.85 583.686C1461.23 545.099 1482.52 485.351 1497.55 438.05C1527.61 348.428 1513.83 273.743 1505.07 222.708C1493.79 161.715 1487.53 123.128 1452.46 93.2535C1402.36 53.4214 1334.72 62.1346 1318.44 63.3794Z" fill="#FFCCB3"/>
<path d="M1199.6 337.469C1206.11 337.469 1211.39 328.672 1211.39 317.82C1211.39 306.968 1206.11 298.17 1199.6 298.17C1193.09 298.17 1187.81 306.968 1187.81 317.82C1187.81 328.672 1193.09 337.469 1199.6 337.469Z" fill="#1F2D49"/>
<path d="M1304.4 334.85C1310.91 334.85 1316.19 325.466 1316.19 313.89C1316.19 302.314 1310.91 292.93 1304.4 292.93C1297.89 292.93 1292.61 302.314 1292.61 313.89C1292.61 325.466 1297.89 334.85 1304.4 334.85Z" fill="#1F2D49"/>
<path d="M1247.26 324.59C1244.76 335.815 1242.27 348.288 1238.53 359.513C1234.79 370.738 1231.04 381.963 1224.81 393.187C1221.07 398.176 1218.57 403.165 1218.57 406.907C1218.57 409.401 1219.82 410.649 1221.07 411.896C1222.31 413.143 1224.81 415.637 1227.3 416.885C1236.03 424.368 1246.01 430.604 1254.74 439.335C1254.74 439.335 1254.74 439.335 1254.74 440.582C1243.52 436.84 1232.29 431.851 1222.31 425.615C1219.82 424.368 1217.32 421.874 1214.83 419.379C1209.84 414.39 1208.59 409.401 1208.59 405.66C1208.59 398.176 1214.83 391.94 1217.32 388.199C1223.56 379.468 1228.55 368.243 1233.54 358.265C1238.53 345.793 1242.27 335.815 1247.26 324.59C1246.01 323.343 1246.01 323.343 1247.26 324.59C1247.26 324.59 1247.26 323.343 1247.26 324.59Z" fill="#1F2D49"/>
<path d="M1227.29 502.941C1246 497.952 1263.46 494.21 1280.92 487.974C1298.39 482.985 1314.6 475.502 1333.31 469.266C1318.34 481.738 1300.88 490.468 1283.42 496.704C1265.96 502.941 1246 504.188 1227.29 502.941C1226.05 502.941 1227.29 502.941 1227.29 502.941C1227.29 502.941 1226.05 502.941 1227.29 502.941Z" fill="#1F2D49"/>
<path d="M1172.42 262.232C1171.17 257.243 1172.42 252.254 1174.91 248.513C1177.41 244.771 1179.9 242.277 1183.64 239.782C1187.39 238.535 1192.37 237.288 1196.12 237.288C1199.86 237.288 1204.85 239.782 1208.59 243.524C1208.59 243.524 1208.59 243.524 1208.59 244.771C1202.35 244.771 1194.87 247.266 1189.88 249.76C1183.64 253.502 1178.66 258.491 1172.42 262.232C1173.67 263.479 1173.67 263.479 1172.42 262.232C1172.42 263.479 1172.42 263.479 1172.42 262.232Z" fill="#1F2D49"/>
<path d="M1275.95 239.78C1280.94 234.791 1285.93 232.296 1292.16 232.296C1298.4 231.049 1304.63 232.296 1309.62 234.791C1314.61 237.285 1320.85 239.78 1324.59 244.769C1328.33 249.757 1330.83 254.746 1330.83 260.982C1323.34 253.499 1315.86 248.51 1305.88 244.769C1297.15 241.027 1285.93 239.78 1275.95 239.78C1275.95 239.78 1275.95 241.027 1275.95 239.78Z" fill="#1F2D49"/>
<path fill-rule="evenodd" clip-rule="evenodd" d="M1203.7 278.385L1205.14 279.105C1210.84 281.954 1221.14 287.909 1226.9 303.689C1231.84 316.463 1231.36 330.628 1228.03 343.466C1224.69 356.34 1218.34 368.414 1210.85 377.263L1210.78 377.348L1210.71 377.43C1197.02 392.484 1181.89 396.626 1176.42 397.993L1175.68 398.179H1175.17C1175.12 398.186 1175.06 398.194 1174.99 398.205C1174.78 398.235 1174.58 398.267 1174.32 398.306C1174.1 398.339 1173.85 398.379 1173.53 398.427C1172.27 398.616 1170.54 398.859 1168.47 399.05C1164.33 399.43 1158.76 399.607 1152.54 398.744C1139.99 397 1124.79 390.982 1113.6 374.2C1106.66 363.79 1102.35 349.629 1101.19 336.199C1100.05 322.987 1101.83 308.95 1108.81 299.649L1108.87 299.571L1108.93 299.495C1115.17 291.695 1123 288.701 1131.29 287.294C1147.88 283.477 1171.9 279.71 1202.09 278.452L1203.7 278.385ZM1200.96 290.985C1172.18 292.283 1149.44 295.906 1133.91 299.489L1133.72 299.533L1133.53 299.564C1126.96 300.659 1122.41 302.652 1118.73 307.209C1114.52 312.891 1112.58 323.136 1113.62 335.126C1114.64 346.953 1118.44 358.983 1123.98 367.281C1139.31 390.282 1162.99 387.186 1171.97 386.012C1172.7 385.916 1173.33 385.834 1173.85 385.779C1178.68 384.548 1190.52 381.047 1201.4 369.122C1207.61 361.763 1213.08 351.424 1215.96 340.331C1218.85 329.181 1219 317.805 1215.25 308.145L1215.2 308.017L1215.2 308.016C1211.41 297.599 1205.27 293.301 1200.96 290.985Z" fill="#1F2D49"/>
<path fill-rule="evenodd" clip-rule="evenodd" d="M1293.34 288.145C1293.33 288.148 1293.33 288.151 1293.33 288.154C1287.83 292.222 1279.45 298.427 1275.54 308.072C1268.16 329.416 1280.89 352.963 1297.23 365.814C1311.89 377.082 1327.75 378.22 1333.31 378.22C1333.41 378.22 1333.54 378.221 1333.69 378.222C1336.34 378.24 1346.62 378.312 1358.73 374.872C1371.53 371.236 1385.86 363.821 1395.38 348.706L1395.42 348.641L1395.42 348.641C1401.62 339.058 1405.36 326.47 1405.65 314.772C1405.94 302.945 1402.71 293.388 1396.7 288.247C1392.17 284.663 1386.5 283.432 1376.96 283.432H1376.78L1376.6 283.421C1356.22 282.222 1328.49 283.375 1293.34 288.145ZM1377.15 270.959C1355.44 269.699 1326.39 270.995 1290.05 276.007L1288.45 276.227L1287.16 277.195C1286.78 277.481 1286.34 277.801 1285.86 278.157C1280.48 282.088 1269.2 290.347 1263.91 303.565L1263.86 303.692L1263.81 303.821C1253.84 332.321 1271.01 361.075 1289.55 375.64L1289.54 375.641L1289.6 375.68C1307.35 389.338 1326.4 390.692 1333.31 390.692C1333.41 390.692 1333.54 390.693 1333.71 390.695C1336.55 390.715 1348.3 390.8 1362.14 386.869C1376.77 382.713 1394.23 373.922 1405.92 355.384C1413.42 343.769 1417.78 328.933 1418.12 315.076C1418.45 301.377 1414.84 287.264 1404.69 278.671L1404.69 278.669L1404.55 278.562C1396.66 272.248 1387.44 270.974 1377.15 270.959Z" fill="#1F2D49"/>
<path fill-rule="evenodd" clip-rule="evenodd" d="M1241.26 301.043C1237.27 301.197 1234.38 301.496 1232.55 301.953C1229.97 302.599 1227.67 302.95 1225.8 303.234C1225.63 303.261 1225.45 303.288 1225.29 303.314C1223.25 303.627 1221.85 303.876 1220.54 304.314C1217.27 305.403 1213.74 303.637 1212.65 300.369C1211.56 297.102 1213.33 293.57 1216.6 292.481C1219.03 291.672 1221.37 291.297 1223.39 290.987C1223.55 290.962 1223.71 290.937 1223.87 290.913C1225.78 290.62 1227.53 290.352 1229.53 289.853C1232.69 289.063 1236.67 288.738 1240.78 288.58C1244.95 288.42 1249.73 288.42 1254.65 288.42H1254.74C1259.11 288.42 1265.8 289.759 1271.58 290.917C1271.78 290.956 1271.98 290.996 1272.18 291.035C1275.55 291.711 1277.74 294.996 1277.07 298.373C1276.39 301.75 1273.11 303.941 1269.73 303.265C1263.17 301.953 1257.7 300.892 1254.74 300.892C1249.71 300.892 1245.17 300.893 1241.26 301.043Z" fill="#1F2D49"/>
<path d="M1184.79 197.091C1198.43 207.093 1218.26 188.34 1243.06 185.839C1266.61 182.088 1301.32 190.84 1349.67 244.601C1349.67 234.599 1349.67 220.846 1343.47 204.593C1339.75 194.591 1334.79 185.839 1331.07 179.588C1337.27 185.839 1348.43 199.592 1363.3 215.845C1398.02 253.353 1406.69 263.355 1415.37 279.608C1420.33 289.61 1427.77 307.113 1430.25 330.868C1435.21 328.367 1441.4 323.366 1447.6 314.615C1457.52 299.612 1457.52 284.609 1457.52 279.608C1463.72 288.36 1469.92 302.112 1474.88 318.366C1482.31 347.121 1477.35 372.126 1473.64 384.629C1481.07 382.128 1497.19 374.627 1510.83 358.373C1521.98 344.621 1526.94 329.618 1528.18 322.116C1530.66 328.367 1533.14 338.369 1531.9 352.122C1530.66 359.624 1529.42 365.875 1528.18 369.626C1535.62 364.625 1544.3 358.373 1552.97 345.871C1559.17 337.119 1575.29 309.614 1557.93 235.849C1545.54 180.838 1535.62 139.58 1500.91 103.323C1429.01 28.308 1302.56 34.5593 1234.38 78.3179C1221.98 85.8194 1187.27 108.324 1178.59 147.082C1176.11 150.832 1168.68 185.839 1184.79 197.091Z" fill="#DFEAFF"/>
<path d="M1509.62 328.337C1515.83 288.527 1535.69 259.913 1559.27 254.937C1563 253.693 1575.41 251.205 1585.34 259.913C1607.69 278.574 1582.86 340.777 1579.14 349.486C1572.93 364.415 1563 389.296 1538.17 411.689C1519.55 429.106 1500.93 436.57 1489.76 440.303C1497.21 402.981 1503.42 365.659 1509.62 328.337Z" fill="#FFCCB3"/>
<path d="M1506.4 400.348C1501.3 435.683 1496.2 469.756 1492.38 505.091C1494.93 516.449 1506.4 525.283 1517.87 524.021C1528.07 522.759 1536.99 515.187 1539.54 505.091C1528.07 469.756 1516.6 434.421 1506.4 400.348Z" fill="#FF971D"/>
<path d="M1190.11 166.021C1188.89 178.54 1183.99 183.548 1174.21 201.075C1168.09 212.342 1160.75 226.113 1154.64 239.885C1143.63 267.427 1143.63 282.451 1138.73 282.451C1132.62 282.451 1125.28 262.42 1122.83 246.144C1116.72 207.334 1136.29 177.288 1139.96 172.28C1152.19 153.501 1174.21 133.47 1183.99 138.478C1192.55 143.486 1190.11 163.517 1190.11 166.021Z" fill="#DFEAFF"/>
<path d="M1150.5 1125.81C1144.86 1134.83 1147.11 1146.11 1153.88 1166.41C1157.26 1175.43 1160.65 1186.71 1166.29 1199.12C1107.64 1183.33 1049 1187.84 1034.33 1214.91C1028.7 1225.06 1030.95 1240.85 1033.21 1253.25C1034.33 1258.89 1041.1 1298.36 1072.68 1324.3C1096.36 1343.48 1130.2 1344.6 1196.74 1344.6C1229.44 1344.6 1256.51 1343.48 1273.43 1342.35C1279.07 1322.05 1284.71 1301.75 1291.47 1280.32C1285.83 1272.42 1276.81 1262.27 1265.53 1251C1250.87 1235.21 1238.47 1220.55 1230.57 1209.27C1201.25 1169.79 1193.35 1146.11 1191.1 1138.22C1187.72 1128.07 1186.59 1119.04 1185.46 1113.4C1177.57 1114.53 1158.39 1114.53 1150.5 1125.81Z" fill="#FFCCB3"/>
<path d="M1054.64 1298.36C1069.3 1293.85 1083.96 1293.85 1098.62 1294.98C1113.29 1296.11 1127.95 1298.36 1141.48 1305.13V1306.26L1097.5 1302.88L1054.64 1298.36Z" fill="#E3AE96"/>
<path d="M1043.36 1262.27C1061.41 1257.76 1078.32 1257.76 1095.24 1258.89C1112.16 1260.02 1129.08 1263.4 1145.99 1270.17V1271.29L1094.11 1267.91L1043.36 1262.27Z" fill="#E3AE96"/>
<path d="M1041.1 1225.06C1061.4 1220.54 1081.7 1221.67 1100.88 1222.8C1121.18 1225.06 1140.35 1227.31 1160.65 1234.08V1235.21L1100.88 1230.69L1041.1 1225.06Z" fill="#E3AE96"/>
<path d="M1554.27 726.532C1565.55 828.024 1563.29 909.218 1559.91 964.474C1555.4 1023.11 1549.76 1059.2 1533.97 1204.67C1519.31 1347.89 1518.18 1387.36 1546.38 1418.93C1585.85 1461.78 1653.51 1457.27 1665.91 1456.15C1678.32 1455.02 1750.49 1450.51 1779.81 1399.76C1800.11 1364.8 1789.96 1326.46 1782.07 1292.63C1759.51 1199.03 1744.85 1104.31 1722.3 1010.71C1686.21 852.833 1687.34 798.704 1633.21 758.107C1606.14 736.681 1575.7 728.788 1554.27 726.532Z" fill="#FF971D"/>
<path d="M1248.84 1225.63C1253.35 1238.07 1259 1258.42 1259 1283.3C1259 1312.69 1251.1 1335.31 1245.45 1348.87C1313.19 1386.19 1373.03 1409.93 1417.06 1423.5C1516.42 1455.16 1608.99 1484.55 1704.96 1447.24C1762.54 1424.63 1772.7 1412.19 1776.09 1406.54C1791.9 1363.57 1730.93 1291.21 1662.06 1261.81C1611.25 1240.33 1572.87 1249.38 1506.25 1252.77C1445.29 1255.03 1358.35 1252.77 1248.84 1225.63Z" fill="#FF971D"/>
<path d="M903.512 1075.06C919.302 1091.98 968.925 1163.03 970.053 1161.9C972.308 1160.77 975.692 1158.52 979.075 1152.88C985.842 1141.6 1010.65 1098.74 1042.23 1102.13C1047.87 1102.13 1056.89 1104.38 1068.17 1115.66C1051.25 1131.45 1033.21 1151.75 1015.17 1176.56C997.12 1200.25 998.248 1211.53 982.459 1227.31C974.564 1235.21 948.625 1263.4 910.279 1265.66C869.678 1267.92 822.311 1239.72 812.16 1196.86C797.499 1147.24 836.972 1085.21 903.512 1075.06Z" fill="#E3AE96"/>
<rect x="969.235" y="1029.37" width="60.244" height="285.729" transform="rotate(40.2953 969.235 1029.37)" fill="#FF971D"/>
<path d="M973.9 1023.87C977.472 1019.65 983.782 1019.13 987.994 1022.71L1018.69 1048.73C1022.9 1052.31 1023.42 1058.62 1019.85 1062.83L994.034 1093.27L948.085 1054.31L973.9 1023.87Z" fill="#EF6A77"/>
<path d="M766.001 1306.11L784.139 1247.14L830.309 1285.98L766.001 1306.11Z" fill="#FFD76F"/>
<path d="M864.041 1076.19C856.147 1110.02 859.53 1134.84 864.041 1148.37C871.936 1178.82 891.108 1201.38 914.792 1231.83C924.943 1244.23 933.965 1253.25 939.604 1260.02C938.476 1261.15 929.454 1274.68 912.537 1275.81C899.003 1276.94 889.981 1270.17 887.725 1267.92C885.469 1271.3 880.958 1276.94 874.191 1279.19C865.169 1282.58 856.147 1280.32 840.357 1271.3C812.162 1255.51 788.478 1243.1 781.711 1217.17C779.456 1209.27 780.584 1202.5 781.711 1187.84C783.967 1159.65 786.223 1137.09 799.756 1116.79C817.801 1087.47 850.507 1078.45 864.041 1076.19Z" fill="#FFCCB3"/>
<path d="M884.339 1064.91C878.7 1064.91 870.805 1064.91 864.038 1069.42C856.143 1076.19 855.016 1088.6 855.016 1104.38C856.143 1143.86 855.016 1163.03 858.399 1175.44C866.294 1203.63 879.827 1225.06 888.85 1236.34C891.105 1236.34 899 1237.47 906.895 1232.95C915.917 1227.32 918.173 1218.29 918.173 1214.91C920.428 1202.5 914.789 1194.61 911.406 1181.08C908.022 1170.93 909.15 1159.65 910.278 1138.22C912.534 1103.26 918.173 1094.23 911.406 1082.96C908.022 1076.19 901.256 1069.42 884.339 1064.91Z" fill="#E3AE96"/>
<path d="M887.719 1058.14C882.08 1058.14 874.186 1058.14 867.419 1062.65C859.524 1069.42 858.396 1081.83 858.396 1097.62C859.524 1137.09 858.396 1156.26 861.78 1168.67C869.675 1196.86 883.208 1218.29 892.231 1229.57C894.486 1229.57 902.381 1230.7 910.275 1226.19C919.298 1220.55 921.554 1211.52 921.554 1208.14C923.809 1195.74 918.17 1187.84 914.787 1174.31C911.403 1164.16 912.531 1152.88 913.659 1131.45C915.914 1096.49 921.554 1087.47 914.787 1076.19C912.531 1069.42 905.764 1062.65 887.719 1058.14Z" fill="#FFCCB3"/>
<path d="M831.339 1156.26C839.233 1175.44 846 1193.48 855.023 1210.4C862.917 1228.44 873.068 1244.23 882.09 1263.41H880.962C867.429 1248.74 856.151 1231.83 847.128 1213.78C838.106 1195.74 832.467 1176.57 831.339 1156.26Z" fill="#E3AE96"/>
<path d="M798.628 1182.2C805.395 1199.12 811.034 1214.91 818.928 1228.44C826.823 1243.1 836.973 1255.51 849.379 1269.04V1270.17C834.718 1261.15 821.184 1247.62 812.162 1232.95C803.139 1217.16 798.628 1200.25 798.628 1182.2Z" fill="#E3AE96"/>
</g>
<defs>
<clipPath id="clip0_104_556">
<rect width="2541" height="1334" fill="white"/>
</clipPath>
</defs>
</svg>
