<svg width="2541" height="1334" viewBox="0 0 2541 1334" fill="none" xmlns="http://www.w3.org/2000/svg">
<g clip-path="url(#clip0_111_1176)">
<rect width="2541" height="1334" fill="#EF6A77"/>
<path d="M705.331 1313.06L708.951 1953.78L678.379 1964.69L649.837 1327.09L705.331 1313.06Z" fill="#2A1C7C"/>
<path d="M1091.92 1281.13L1094.49 1921.93L1063.92 1932.85L1035.38 1295.24L1091.92 1281.13Z" fill="#2A1C7C"/>
<path d="M1063.68 342.395C1052.4 332.835 1038.16 325.618 840.361 331.467C816.309 332.405 652.024 337.583 456.366 382.073C418.242 390.468 364.832 404.322 358.82 433.145C353.592 458.756 388.304 485.264 397.243 491.869C547.977 614.754 512.48 1315.35 705.049 1462.06C748.7 1495.17 799.138 1508.84 799.138 1508.84C871.019 1528.08 936.244 1504.86 990.257 1498.3C1215.77 1472.33 1336.19 1494.9 1348.2 1449.85C1355.34 1421.98 1303.01 1385.39 1258.49 1354.44C1167.19 1290.64 1119.77 1300.86 1077.25 1268.7C1028.13 1232.89 1000.66 1154.38 1056.35 749.01C1093.53 487.855 1123.47 393.059 1063.68 342.395Z" fill="#2A1C7C"/>
<path d="M1124.73 332.105C1113.44 322.546 1099.21 315.329 901.323 320.136C877.271 321.073 712.986 326.252 517.328 370.741C479.204 379.136 425.794 392.991 419.868 422.856C414.726 449.508 449.438 476.016 458.377 482.622C609.197 606.549 574.303 1314.44 767.044 1463.23C810.781 1497.39 861.133 1510.01 861.133 1510.01C933.014 1529.26 998.239 1506.03 1052.34 1500.51C1277.85 1474.54 1398.27 1497.12 1410.2 1451.02C1417.34 1423.15 1364.92 1385.52 1320.4 1354.57C1229.01 1289.73 1181.6 1299.94 1139.07 1267.79C1089.87 1230.94 1062.4 1152.42 1117.74 742.889C1154.66 478.608 1184.43 381.728 1124.73 332.105Z" fill="#525DC1"/>
<path d="M1585.18 522.365C1512.19 458.366 1430.26 442.539 1396.52 436.345C1271.89 413.636 1170.67 450.109 1110.77 472.818C999.225 514.795 928.993 576.041 910.402 593.245C798.169 693.716 757.545 808.638 717.609 920.808C645.312 1123.13 649.443 1300.67 652.197 1383.25C652.886 1410.78 654.951 1434.17 655.64 1450C874.598 1348.15 1092.87 1246.31 1311.83 1144.46C1322.15 1116.24 1340.06 1073.58 1369.66 1026.78C1415.8 954.527 1447.47 939.388 1502.55 876.766C1543.18 830.659 1678.13 677.888 1632.69 576.041C1623.74 556.773 1611.34 545.074 1585.18 522.365Z" fill="#2A1C7C"/>
<path d="M1366.31 717.709C1376.67 744.615 1386.34 770.832 1396.7 797.738C1408.44 795.668 1425.01 791.529 1442.28 781.18C1469.22 766.002 1485.1 745.995 1492.7 734.267C1510.66 688.043 1500.3 674.935 1496.15 670.795C1469.91 645.269 1370.45 714.949 1366.31 717.709Z" fill="#525DC1"/>
<path d="M1371.74 392.349C1377.25 390.972 1397.21 386.153 1419.23 393.726C1474.98 413.689 1503.2 500.425 1483.93 567.198C1468.78 618.826 1419.23 680.781 1365.55 672.52C1314.62 664.26 1290.53 595.421 1285.71 554.807C1278.14 488.722 1312.55 408.182 1371.74 392.349Z" fill="#1B0C44"/>
<path d="M1415.23 469.586C1400.78 477.172 1381.51 485.448 1358.12 490.965C1322.34 499.241 1291.38 497.172 1271.43 494.413C1258.35 507.517 1242.53 527.517 1235.65 555.103C1220.51 611.654 1245.97 676.482 1298.95 723.378C1341.61 719.93 1384.27 716.482 1426.93 713.033C1422.8 631.654 1419.36 550.275 1415.23 469.586Z" fill="#FCBA9F"/>
<path d="M1666.14 316.39C1646.84 309.501 1596.51 290.901 1539.29 309.501C1477.25 329.479 1446.22 381.834 1420.72 425.923C1408.31 446.589 1375.22 508.589 1372.46 596.078C1371.08 649.122 1369.01 724.211 1420.72 764.855C1425.54 768.989 1453.12 789.655 1489.66 789.655C1537.91 789.655 1586.86 753.833 1642.01 714.566C1644.08 713.189 1650.28 708.367 1659.93 704.233C1679.93 694.589 1697.16 693.211 1703.37 692.522C1730.94 688.389 1750.24 657.389 1766.79 631.211C1779.89 610.545 1829.52 531.323 1796.43 440.39C1764.72 352.901 1682.68 322.59 1666.14 316.39Z" fill="#FFCCB3"/>
<path d="M1415.85 451.328C1417.91 403.834 1434.43 370.106 1444.06 351.522C1457.82 323.3 1475.71 288.196 1512.87 263.417C1587.19 213.857 1678.02 246.208 1682.84 248.273C1719.99 262.04 1746.14 286.131 1794.31 330.184C1813.58 347.392 1828.71 363.223 1839.04 374.925C1832.84 372.171 1824.59 368.73 1814.26 366.665C1808.07 365.288 1802.57 364.6 1797.75 364.6C1806.01 372.86 1816.33 383.873 1827.34 399.704C1850.73 434.12 1858.3 465.783 1860.37 472.666C1863.81 487.121 1867.25 509.836 1865.18 537.368C1865.18 533.239 1865.18 517.407 1853.49 505.706C1850.05 502.264 1845.92 500.199 1843.17 498.822C1846.61 508.459 1850.05 523.602 1849.36 542.187C1848.67 551.823 1847.29 575.226 1831.47 598.629C1825.27 608.266 1810.14 630.98 1781.24 638.552C1764.72 642.682 1750.27 640.617 1742.7 638.552C1746.14 635.798 1756.46 627.539 1757.84 613.772C1759.9 595.876 1746.14 582.109 1741.32 577.291C1720.68 557.33 1692.47 555.953 1684.9 555.265C1654.62 552.512 1606.46 533.927 1530.08 458.9C1514.25 469.225 1494.98 482.991 1475.03 502.264C1457.14 519.472 1444.06 536.68 1433.74 551.135C1425.48 531.862 1413.79 496.069 1415.85 451.328Z" fill="#BC775C"/>
<path d="M1483.44 469.95C1505.41 449.367 1511.59 421.923 1498.55 401.34C1497.17 398.595 1489.62 386.931 1478.63 383.501C1451.16 374.582 1427.13 417.806 1423.7 424.667C1417.52 435.645 1407.9 453.483 1409.28 481.614C1410.65 502.883 1417.52 520.722 1423.01 531.013C1442.92 511.116 1462.84 490.533 1483.44 469.95Z" fill="#FCBA9F"/>
<path d="M1371.96 391.993C1353.38 393.369 1316.89 398.873 1280.41 422.951C1250.81 442.213 1234.29 465.603 1230.85 470.419C1190.23 528.894 1197.8 603.88 1207.44 701.568C1209.51 723.582 1212.26 741.468 1214.32 752.475C1239.11 749.724 1267.33 744.908 1296.93 738.029C1322.4 731.837 1345.12 725.646 1366.46 718.078C1358.2 708.447 1346.49 694 1336.86 674.05C1307.94 615.575 1314.14 559.164 1318.96 517.887C1325.15 469.043 1337.55 442.901 1340.99 436.022C1351.31 416.071 1363.02 401.625 1371.96 391.993Z" fill="#525DC1"/>
<path d="M1560.64 639.888C1568.03 633.924 1571.32 625.73 1567.98 621.588C1564.64 617.445 1555.94 618.921 1548.54 624.885C1541.14 630.849 1537.85 639.043 1541.19 643.186C1544.53 647.329 1553.24 645.852 1560.64 639.888Z" fill="#1F2D49"/>
<path d="M1641.83 704.611C1648.02 697.403 1649.77 688.748 1645.74 685.28C1641.7 681.812 1633.41 684.843 1627.21 692.052C1621.02 699.26 1619.27 707.915 1623.31 711.383C1627.35 714.851 1635.64 711.819 1641.83 704.611Z" fill="#1F2D49"/>
<path d="M1557.28 587.593C1559.34 584.152 1563.47 582.087 1566.92 580.71C1571.04 579.334 1574.49 579.334 1578.62 580.022C1582.75 580.71 1586.19 582.087 1589.63 584.84C1592.38 587.593 1595.13 590.346 1595.82 594.476C1595.82 594.476 1595.82 594.476 1595.82 595.164C1591 590.346 1584.12 587.593 1577.93 586.216C1571.04 584.84 1564.16 585.528 1557.28 587.593C1557.28 588.281 1557.28 588.281 1557.28 587.593Z" fill="#1F2D49"/>
<path d="M1665.25 647.916C1669.43 648.078 1673.2 650.262 1676.96 652.446C1679.92 655.165 1682.73 658.558 1684.05 662.346C1685.38 666.134 1686.56 670.596 1686.4 674.78C1686.24 678.963 1684.73 682.868 1681.87 686.494C1681.87 686.494 1681.87 686.494 1681.2 686.355C1681.92 679.475 1680.62 672.178 1677.83 665.275C1674.9 659.047 1670.48 653.214 1665.25 647.916C1664.44 648.451 1664.44 648.451 1665.25 647.916C1664.57 647.777 1664.57 647.777 1665.25 647.916Z" fill="#1F2D49"/>
<path d="M1599.95 685.327C1595.13 693.586 1592.38 701.846 1591 710.105C1590.31 714.235 1590.31 718.364 1591 723.182C1591 725.935 1591 728.688 1590.31 731.442C1589.62 734.195 1588.25 737.636 1586.18 739.701C1582.74 744.519 1577.23 747.96 1571.73 749.337C1566.22 750.713 1561.4 751.401 1555.9 750.713C1550.39 750.025 1545.57 747.96 1541.44 744.519C1537.31 741.077 1534.56 737.636 1532.5 732.818V732.13C1532.5 732.13 1532.5 732.13 1533.18 732.13C1538.69 739.701 1546.95 744.519 1556.59 745.207C1565.53 745.207 1575.17 742.454 1580.68 735.571C1583.43 732.13 1584.8 727.312 1584.8 723.182C1584.8 718.364 1584.8 713.546 1586.18 709.417C1588.25 699.781 1593.06 691.521 1599.95 685.327C1599.95 684.639 1599.95 684.639 1599.95 685.327C1600.64 685.327 1600.64 684.639 1599.95 685.327Z" fill="#E3AE96"/>
<path d="M1455.41 689.457C1456.79 698.405 1459.54 706.664 1462.3 714.924C1465.74 722.495 1469.87 730.066 1474.68 736.26C1479.5 742.455 1486.38 747.961 1493.27 752.779C1496.71 755.532 1500.15 757.597 1504.28 759.661C1508.41 761.726 1511.85 763.791 1516.67 765.856C1516.67 765.856 1516.67 765.856 1516.67 766.544C1516.67 766.544 1516.67 766.544 1515.98 766.544C1498.09 763.791 1480.88 754.844 1469.18 741.078C1458.17 725.936 1453.35 707.353 1455.41 689.457C1455.41 688.769 1454.72 688.769 1455.41 689.457C1455.41 688.769 1455.41 688.769 1455.41 689.457Z" fill="#E3AE96"/>
<path d="M1966.49 1230.15L1108.63 3865.73H965.999L1716.36 1211.55L1966.49 1230.15Z" fill="#E2F3FF"/>
<path d="M1757.71 965.565L1077.62 3047.16H965.999L1559.26 951.095L1757.71 965.565Z" fill="#E2F3FF"/>
<path d="M1821.79 920.086H5910.56L5135.39 1426.53H658L1821.79 920.086Z" fill="#6A88C2"/>
<path d="M1821.79 825H5910.56L5135.39 1331.45H658L1821.79 825Z" fill="#E2F3FF"/>
<path d="M658 1331.44V1426.53L893.652 1331.44H658Z" fill="#6A88C2"/>
<path d="M1511 1027.41C1490.94 1081.15 1421.91 1257.6 1394.62 1325.77C1389.01 1339.4 1398.64 1354.64 1413.09 1355.45L1935.59 1397.95C1948.43 1398.76 1959.67 1389.13 1959.67 1376.3V1071.52C1959.67 1060.29 1950.84 1050.67 1939.6 1049.87L1533.48 1013.78C1523.04 1012.17 1514.22 1018.59 1511 1027.41Z" fill="#CEDFFF"/>
<path d="M1516.38 1009.55C1496.31 1063.41 1427.29 1239.47 1400.8 1308.61C1395.18 1322.28 1404.81 1337.56 1419.26 1338.36L1941.77 1380.97C1954.61 1381.77 1965.85 1372.13 1965.85 1359.26V1053.76C1965.85 1042.51 1957.02 1032.86 1945.78 1032.06L1538.85 995.076C1529.22 994.272 1520.39 999.9 1516.38 1009.55Z" fill="#94B9FF"/>
<path d="M1789.23 1225.2C1783.59 1241.87 1765.07 1296.67 1757.82 1318.11C1756.21 1322.08 1759.43 1326.84 1764.26 1326.84L1926.17 1331.61C1930.2 1331.61 1933.42 1328.43 1933.42 1324.46L1928.59 1231.55C1928.59 1228.37 1925.37 1225.2 1922.14 1225.2L1795.68 1220.43C1792.45 1220.43 1790.04 1222.02 1789.23 1225.2Z" fill="#EF6A77"/>
<path d="M1715.71 1249.77C1747.26 1249.77 1772.84 1243.2 1772.84 1235.1C1772.84 1227 1747.26 1220.43 1715.71 1220.43C1684.16 1220.43 1658.58 1227 1658.58 1235.1C1658.58 1243.2 1684.16 1249.77 1715.71 1249.77Z" fill="#EF6A77"/>
<path d="M1692.55 1316.16C1724.1 1316.16 1749.68 1305.8 1749.68 1293C1749.68 1280.21 1724.1 1269.84 1692.55 1269.84C1661 1269.84 1635.42 1280.21 1635.42 1293C1635.42 1305.8 1661 1316.16 1692.55 1316.16Z" fill="#EF6A77"/>
<path fill-rule="evenodd" clip-rule="evenodd" d="M1493.11 1124.03C1493.59 1123.87 1494.04 1123.71 1494.44 1123.57L1496.44 1129.25C1495.99 1129.41 1495.52 1129.57 1495.03 1129.74C1490.79 1131.19 1484.98 1133.18 1480.24 1137.55C1473.9 1143.38 1475.01 1150.07 1475.55 1151.94L1469.76 1153.61C1468.9 1150.6 1467.47 1141.12 1476.16 1133.12C1481.9 1127.84 1488.93 1125.45 1493.11 1124.03Z" fill="#1F2D49"/>
<path fill-rule="evenodd" clip-rule="evenodd" d="M1533.1 1128.1C1533.59 1127.94 1534.03 1127.79 1534.43 1127.65L1536.43 1133.32C1535.99 1133.48 1535.52 1133.64 1535.02 1133.81C1530.78 1135.26 1524.97 1137.26 1520.23 1141.62C1513.89 1147.45 1515 1154.14 1515.54 1156.02L1509.76 1157.68C1508.89 1154.67 1507.46 1145.19 1516.15 1137.19C1521.89 1131.91 1528.92 1129.52 1533.1 1128.1Z" fill="#1F2D49"/>
<path fill-rule="evenodd" clip-rule="evenodd" d="M1570.69 1132.07C1571.17 1131.91 1571.62 1131.76 1572.02 1131.62L1574.02 1137.3C1573.57 1137.45 1573.1 1137.61 1572.61 1137.78C1568.37 1139.24 1562.56 1141.23 1557.82 1145.59C1551.48 1151.43 1552.59 1158.12 1553.13 1159.99L1547.34 1161.65C1546.48 1158.65 1545.05 1149.17 1553.74 1141.16C1559.48 1135.88 1566.51 1133.49 1570.69 1132.07Z" fill="#1F2D49"/>
<path fill-rule="evenodd" clip-rule="evenodd" d="M1611.49 1136.18C1611.98 1136.02 1612.42 1135.87 1612.82 1135.73L1614.82 1141.4C1614.38 1141.56 1613.91 1141.72 1613.41 1141.89C1609.17 1143.34 1603.36 1145.34 1598.62 1149.7C1592.28 1155.53 1593.39 1162.22 1593.93 1164.09L1588.14 1165.76C1587.28 1162.75 1585.85 1153.27 1594.54 1145.27C1600.28 1139.99 1607.31 1137.6 1611.49 1136.18Z" fill="#1F2D49"/>
<path fill-rule="evenodd" clip-rule="evenodd" d="M1645.9 1139.22C1646.38 1139.05 1646.83 1138.9 1647.23 1138.76L1649.23 1144.44C1648.78 1144.6 1648.31 1144.76 1647.82 1144.93C1643.58 1146.38 1637.77 1148.37 1633.03 1152.74C1626.69 1158.57 1627.8 1165.26 1628.34 1167.13L1622.55 1168.8C1621.69 1165.79 1620.26 1156.31 1628.95 1148.31C1634.69 1143.03 1641.72 1140.64 1645.9 1139.22Z" fill="#1F2D49"/>
<path fill-rule="evenodd" clip-rule="evenodd" d="M1685.86 1144.1C1686.34 1143.93 1686.79 1143.78 1687.19 1143.64L1689.19 1149.32C1688.74 1149.47 1688.27 1149.63 1687.78 1149.8C1683.54 1151.26 1677.73 1153.25 1672.99 1157.61C1666.65 1163.45 1667.76 1170.14 1668.3 1172.01L1662.51 1173.67C1661.65 1170.67 1660.22 1161.19 1668.91 1153.19C1674.65 1147.9 1681.68 1145.52 1685.86 1144.1Z" fill="#1F2D49"/>
<path fill-rule="evenodd" clip-rule="evenodd" d="M1723.48 1147.27C1723.96 1147.1 1724.41 1146.95 1724.81 1146.81L1726.81 1152.49C1726.36 1152.64 1725.89 1152.8 1725.4 1152.97C1721.16 1154.43 1715.35 1156.42 1710.61 1160.78C1704.27 1166.62 1705.38 1173.31 1705.92 1175.18L1700.13 1176.84C1699.27 1173.84 1697.84 1164.36 1706.53 1156.36C1712.27 1151.07 1719.3 1148.69 1723.48 1147.27Z" fill="#1F2D49"/>
<path fill-rule="evenodd" clip-rule="evenodd" d="M1802.66 1155.38C1803.14 1155.22 1803.59 1155.06 1803.99 1154.92L1805.99 1160.6C1805.54 1160.76 1805.07 1160.92 1804.58 1161.09C1800.34 1162.54 1794.53 1164.53 1789.79 1168.9C1783.45 1174.73 1784.56 1181.42 1785.1 1183.29L1779.31 1184.96C1778.45 1181.95 1777.02 1172.47 1785.71 1164.47C1791.45 1159.19 1798.48 1156.8 1802.66 1155.38Z" fill="#1F2D49"/>
<path fill-rule="evenodd" clip-rule="evenodd" d="M1843.42 1160.29C1843.91 1160.12 1844.35 1159.97 1844.75 1159.83L1846.75 1165.51C1846.31 1165.66 1845.84 1165.82 1845.35 1165.99C1841.11 1167.45 1835.29 1169.44 1830.55 1173.8C1824.21 1179.64 1825.32 1186.33 1825.86 1188.2L1820.08 1189.86C1819.21 1186.86 1817.78 1177.38 1826.47 1169.37C1832.21 1164.09 1839.25 1161.71 1843.42 1160.29Z" fill="#1F2D49"/>
<path fill-rule="evenodd" clip-rule="evenodd" d="M1881.05 1163.46C1881.53 1163.29 1881.97 1163.14 1882.37 1163L1884.37 1168.68C1883.93 1168.84 1883.46 1169 1882.97 1169.17C1878.73 1170.62 1872.91 1172.61 1868.17 1176.98C1861.83 1182.81 1862.94 1189.5 1863.48 1191.37L1857.7 1193.03C1856.83 1190.03 1855.4 1180.55 1864.09 1172.55C1869.83 1167.27 1876.87 1164.88 1881.05 1163.46Z" fill="#1F2D49"/>
<path fill-rule="evenodd" clip-rule="evenodd" d="M1921 1168.33C1921.48 1168.17 1921.93 1168.02 1922.32 1167.88L1924.33 1173.55C1923.88 1173.71 1923.41 1173.87 1922.92 1174.04C1918.68 1175.49 1912.87 1177.49 1908.12 1181.85C1901.79 1187.68 1902.9 1194.37 1903.43 1196.24L1897.65 1197.91C1896.78 1194.9 1895.35 1185.42 1904.05 1177.42C1909.79 1172.14 1916.82 1169.75 1921 1168.33Z" fill="#1F2D49"/>
<path fill-rule="evenodd" clip-rule="evenodd" d="M1955.42 1171.37C1955.9 1171.21 1956.35 1171.05 1956.75 1170.91L1958.75 1176.59C1958.3 1176.75 1957.83 1176.91 1957.34 1177.08C1953.1 1178.53 1947.29 1180.52 1942.55 1184.89C1936.21 1190.72 1937.32 1197.41 1937.85 1199.28L1932.07 1200.95C1931.21 1197.94 1929.77 1188.46 1938.47 1180.46C1944.21 1175.18 1951.24 1172.79 1955.42 1171.37Z" fill="#1F2D49"/>
<path fill-rule="evenodd" clip-rule="evenodd" d="M1764.25 1152.17C1764.73 1152.01 1765.17 1151.86 1765.57 1151.72L1767.57 1157.39C1767.13 1157.55 1766.66 1157.71 1766.17 1157.88C1761.93 1159.34 1756.11 1161.33 1751.37 1165.69C1745.03 1171.52 1746.14 1178.21 1746.68 1180.09L1740.9 1181.75C1740.03 1178.75 1738.6 1169.26 1747.29 1161.26C1753.03 1155.98 1760.07 1153.59 1764.25 1152.17Z" fill="#1F2D49"/>
<rect x="-629" y="-356" width="1022.09" height="943" rx="20" fill="#94B9FF"/>
<rect x="-587.934" y="-307.329" width="939.958" height="844.137" rx="20" fill="#E2F3FF"/>
<rect x="-60.9707" y="-104.034" width="185.558" height="197.726" rx="10" transform="rotate(11.56 -60.9707 -104.034)" fill="#2A1C7C"/>
<rect x="93.46" y="156.566" width="215.977" height="337.655" rx="10" fill="#5661AE"/>
<rect x="-72.248" y="-117.208" width="185.558" height="197.726" rx="10" transform="rotate(11.56 -72.248 -117.208)" fill="#525DC1"/>
<rect x="76.7285" y="136.793" width="215.977" height="339.176" rx="10" fill="#A7A1E7"/>
<circle cx="-35.0621" cy="449.352" r="44.8685" fill="#694FFD"/>
<circle cx="218.94" cy="26.5233" r="44.8685" fill="#694FFD"/>
<path d="M216.877 -5.95611C217.83 -8.59922 221.568 -8.59922 222.522 -5.95611L228.539 10.7301C228.956 11.8867 230.036 12.6717 231.265 12.7109L248.994 13.2772C251.802 13.3669 252.957 16.922 250.738 18.6452L236.728 29.5241C235.757 30.2782 235.344 31.5484 235.687 32.7292L240.627 49.7654C241.409 52.4639 238.385 54.6611 236.06 53.083L221.384 43.1203C220.367 42.4298 219.032 42.4298 218.014 43.1203L203.339 53.083C201.014 54.6611 197.99 52.4639 198.772 49.7654L203.712 32.7292C204.055 31.5484 203.642 30.2782 202.671 29.5241L188.661 18.6452C186.442 16.922 187.597 13.3669 190.405 13.2772L208.134 12.7109C209.363 12.6717 210.443 11.8867 210.86 10.7301L216.877 -5.95611Z" fill="#F3F7FF"/>
<path d="M104.106 221.968C114.753 240.219 125.4 240.219 136.047 221.968C146.694 203.716 157.34 203.716 167.987 221.968C178.634 240.219 189.281 240.219 199.927 221.968C210.574 203.716 221.221 203.716 231.868 221.968C242.515 240.219 253.161 240.219 263.808 221.968" stroke="white" stroke-width="6" stroke-linecap="round"/>
<path d="M104.106 270.639C114.753 288.89 125.4 288.89 136.047 270.639C146.694 252.387 157.34 252.387 167.987 270.639C178.634 288.89 189.281 288.89 199.927 270.639C210.574 252.387 221.221 252.387 231.868 270.639C242.515 288.89 253.161 288.89 263.808 270.639" stroke="white" stroke-width="6" stroke-linecap="round"/>
<rect x="110.19" y="395.358" width="114.073" height="10.6468" rx="5.32339" fill="#EEF6FE"/>
<rect x="110.19" y="424.256" width="74.5274" height="10.6468" rx="5.32339" fill="#EEF6FE"/>
<rect x="2383.19" y="995" width="96.0941" height="460.025" rx="10" transform="rotate(60.1981 2383.19 995)" fill="#94B9FF"/>
<rect x="2251.92" y="1086.68" width="40.8911" height="16.3564" rx="4" transform="rotate(60.1981 2251.92 1086.68)" fill="#694FFD"/>
<rect x="2127.37" y="1158.01" width="40.8911" height="16.3564" rx="4" transform="rotate(60.1981 2127.37 1158.01)" fill="#694FFD"/>
<rect x="2376.11" y="1015.55" width="40.8911" height="16.3564" rx="4" transform="rotate(60.1981 2376.11 1015.55)" fill="#694FFD"/>
<rect x="2227.08" y="1100.91" width="40.8911" height="16.3564" rx="4" transform="rotate(60.1981 2227.08 1100.91)" fill="#694FFD"/>
<rect x="2102.53" y="1172.24" width="40.8911" height="16.3564" rx="4" transform="rotate(60.1981 2102.53 1172.24)" fill="#694FFD"/>
<rect x="2351.27" y="1029.77" width="40.8911" height="16.3564" rx="4" transform="rotate(60.1981 2351.27 1029.77)" fill="#694FFD"/>
<rect x="2202.24" y="1115.13" width="40.8911" height="16.3564" rx="4" transform="rotate(60.1981 2202.24 1115.13)" fill="#694FFD"/>
<rect x="2077.7" y="1186.46" width="40.8911" height="16.3564" rx="4" transform="rotate(60.1981 2077.7 1186.46)" fill="#694FFD"/>
<rect x="2326.43" y="1044" width="40.8911" height="16.3564" rx="4" transform="rotate(60.1981 2326.43 1044)" fill="#694FFD"/>
<rect x="2177.4" y="1129.36" width="40.8911" height="16.3564" rx="4" transform="rotate(60.1981 2177.4 1129.36)" fill="#694FFD"/>
<rect x="2052.86" y="1200.69" width="40.8911" height="16.3564" rx="4" transform="rotate(60.1981 2052.86 1200.69)" fill="#694FFD"/>
<rect x="2301.59" y="1058.23" width="40.8911" height="16.3564" rx="4" transform="rotate(60.1981 2301.59 1058.23)" fill="#694FFD"/>
<rect x="2152.56" y="1143.58" width="67.4703" height="16.3564" rx="4" transform="rotate(60.1981 2152.56 1143.58)" fill="#694FFD"/>
<rect x="2276.75" y="1072.45" width="67.4703" height="16.3564" rx="4" transform="rotate(60.1981 2276.75 1072.45)" fill="#694FFD"/>
<rect x="2246.48" y="868.654" width="57.1648" height="271.125" transform="rotate(90.1283 2246.48 868.654)" fill="#FF971D"/>
<path d="M2252.82 868.67C2258.34 868.682 2262.81 873.169 2262.79 878.692L2262.71 915.857C2262.7 921.379 2258.21 925.847 2252.69 925.834L2215.32 925.75L2215.45 868.586L2252.82 868.67Z" fill="#EF6A77"/>
<path d="M1921 890.935L1975.05 867.913L1975.15 925.36L1921 890.935Z" fill="#FFD76F"/>
<rect x="1309.36" y="1052.74" width="57.1648" height="271.125" transform="rotate(-34.2227 1309.36 1052.74)" fill="#FF971D"/>
<path d="M1305.8 1047.5C1302.69 1042.94 1303.88 1036.72 1308.44 1033.61L1339.17 1012.71C1343.74 1009.6 1349.96 1010.79 1353.07 1015.35L1374.08 1046.25L1326.81 1078.4L1305.8 1047.5Z" fill="#EF6A77"/>
<path d="M1511.41 1308.89L1461.91 1277.25L1509.28 1244.76L1511.41 1308.89Z" fill="#FFD76F"/>
<path d="M935.139 1080.28C946.923 1080.3 963.127 1082.58 995.457 1086.46C1070.77 1096.45 1111.41 1106.3 1148.16 1112.44C1186.35 1119.1 1243.09 1124.32 1315.3 1119.43C1317.46 1144.11 1316.86 1180.88 1300.6 1220.15C1296.24 1230.35 1291.72 1239.18 1287.11 1247.33C1270.99 1245.73 1247.18 1243.63 1218.67 1242.77C1124.84 1240.46 1100.87 1255 1022.72 1256.42C950.804 1257.8 886.488 1259.01 833.77 1216.63C803.938 1192.38 788.758 1162.98 780.076 1141.82C846.071 1089.19 900.469 1080.13 935.139 1080.28Z" fill="#FFCCB3"/>
<path d="M981.136 606.557C921.352 628.707 879.159 659.216 851.005 685.332C715.678 809.045 660.168 1042 753.056 1168.43C771.097 1192.68 791.004 1209.08 806.018 1219.12C811.642 1201.85 820.367 1181.44 834.718 1161.77C883.661 1093.76 961.482 1077.84 984.566 1073.79C978.41 1056.49 975.83 1040.16 974.171 1025.8C964.079 908.502 1065.29 819.214 1087.39 800.725C1089.86 792.126 1107.76 731.172 1070.57 673.12C1039.88 623.323 992.547 609.395 981.136 606.557Z" fill="#1F2D49"/>
<path d="M1277.67 1121.03C1286.95 1111.67 1301.2 1109.33 1328.26 1104.13C1338.42 1102.26 1354.03 1099.77 1375.42 1099.37C1401.06 1099.86 1438.38 1099.7 1474.97 1123.11C1496.64 1137.19 1507.33 1151.85 1522.37 1174.29C1528.93 1183.21 1536.8 1197.5 1532.21 1205.63C1529.96 1210.04 1524.66 1212.04 1524.52 1216.89C1524.39 1221.74 1529.33 1222.55 1529.8 1226.64C1530.51 1232.78 1523.03 1239.86 1515.16 1243.54C1503.27 1248.37 1496.26 1241.58 1487.26 1247.45C1482.12 1250.81 1483.88 1254.06 1478.89 1258.79C1469.68 1268.83 1457.61 1266.08 1436.69 1270.57C1422.52 1273.59 1417.38 1276.95 1406.7 1280.26C1400.03 1282.41 1338.6 1301.26 1298.94 1269.22C1274.5 1249.24 1269.59 1218.71 1265.55 1195.68C1263.11 1174.54 1257.72 1139.92 1277.67 1121.03Z" fill="#FFCCB3"/>
<path d="M1510.96 1205.25C1503.65 1201.94 1496.94 1197.87 1490.92 1193.71C1484.21 1189.64 1478.19 1185.48 1472.17 1181.33C1466.14 1177.18 1459.44 1173.1 1453.34 1168.26C1447.31 1164.11 1440.53 1159.35 1434.35 1153.83L1434.95 1153.07C1449.49 1159.01 1462.83 1166.47 1475.56 1174.7C1488.37 1183.62 1499.89 1193.37 1510.96 1205.25Z" fill="#E3AE96"/>
<path d="M1476.99 1241.05C1469.68 1237.74 1462.97 1233.67 1456.34 1230.28L1436.98 1218.66L1417.63 1207.04C1410.92 1202.96 1404.29 1199.57 1398.19 1194.73L1398.11 1194.05C1412.5 1198.62 1427.12 1205.25 1440.45 1212.71C1453.79 1220.18 1465.99 1229.85 1476.99 1241.05Z" fill="#E3AE96"/>
<path d="M1428.06 1261.26C1422.35 1259.84 1416.56 1257.74 1411.46 1255.56C1406.36 1253.37 1401.26 1251.19 1396.16 1249.01C1391.05 1246.83 1385.95 1244.65 1380.77 1241.78C1375.67 1239.6 1370.49 1236.73 1365.23 1233.18L1365.15 1232.5C1376.48 1234.66 1387.9 1237.49 1398.86 1242.46C1409.83 1247.43 1419.51 1253.24 1428.06 1261.26Z" fill="#E3AE96"/>
<ellipse rx="27.4471" ry="15.3899" transform="matrix(-0.379192 -0.925318 -0.925318 0.379192 1492.65 632.233)" fill="#FCBA9F"/>
</g>
<defs>
<clipPath id="clip0_111_1176">
<rect width="2541" height="1334" fill="white"/>
</clipPath>
</defs>
</svg>
