<svg width="2541" height="1334" viewBox="0 0 2541 1334" fill="none" xmlns="http://www.w3.org/2000/svg">
<g clip-path="url(#clip0_111_1005)">
<rect width="2541" height="1334" fill="#94B9FF"/>
<path fill-rule="evenodd" clip-rule="evenodd" d="M2109.65 540.923C2112.56 543.343 2112.97 547.669 2110.54 550.583C2051.67 621.47 2025.32 740.911 2016.81 862.897C2008.34 984.506 2017.69 1107.01 2028.92 1182.56C2029.48 1186.31 2026.89 1189.8 2023.14 1190.35C2019.39 1190.91 2015.9 1188.32 2015.35 1184.58C2004 1108.22 1994.57 984.71 2003.13 861.943C2011.66 739.554 2038.16 616.262 2099.99 541.817C2102.41 538.903 2106.74 538.502 2109.65 540.923Z" fill="#2A1C7C"/>
<path fill-rule="evenodd" clip-rule="evenodd" d="M2049.41 453.993C2052.72 455.839 2053.9 460.018 2052.06 463.327C1993.74 567.816 1972.76 702.751 1970.48 829.556C1968.21 956.246 1984.62 1074.01 2000.41 1143.56C2001.25 1147.25 1998.94 1150.93 1995.24 1151.77C1991.55 1152.6 1987.87 1150.29 1987.03 1146.59C1971.01 1076.05 1954.47 957.181 1956.76 829.309C1959.06 701.552 1980.16 563.99 2040.07 456.64C2041.92 453.331 2046.1 452.146 2049.41 453.993Z" fill="#2A1C7C"/>
<path fill-rule="evenodd" clip-rule="evenodd" d="M1980.33 447.581C1983.78 449.149 1985.3 453.216 1983.73 456.665C1930.59 573.586 1924.3 740.319 1931.61 881.655C1935.26 952.148 1942.26 1016 1948.36 1063.69C1951.23 1086.21 1953.91 1105.11 1955.93 1119.43L1956.29 1121.93C1957.32 1129.21 1958.16 1135.23 1958.75 1139.8C1959.32 1144.17 1959.72 1147.72 1959.72 1149.7C1959.72 1153.48 1956.64 1156.56 1952.86 1156.56C1949.07 1156.56 1946 1153.48 1946 1149.7C1946 1148.79 1945.75 1146.23 1945.14 1141.56C1944.57 1137.09 1943.73 1131.15 1942.7 1123.85L1942.35 1121.35C1940.32 1107.03 1937.64 1088.04 1934.75 1065.43C1928.62 1017.53 1921.58 953.315 1917.91 882.363C1910.59 740.81 1916.62 571.155 1971.24 450.988C1972.81 447.539 1976.88 446.013 1980.33 447.581Z" fill="#2A1C7C"/>
<path fill-rule="evenodd" clip-rule="evenodd" d="M1879.93 365.702C1883.54 364.541 1887.41 366.523 1888.57 370.129C1927.77 491.861 2000.11 818.722 1976.63 1154.79C1976.37 1158.57 1973.09 1161.42 1969.31 1161.16C1965.53 1160.89 1962.68 1157.62 1962.95 1153.84C1986.27 819.903 1914.31 494.823 1875.51 374.335C1874.35 370.729 1876.33 366.864 1879.93 365.702Z" fill="#2A1C7C"/>
<path fill-rule="evenodd" clip-rule="evenodd" d="M1817.05 546.4C1820.34 544.521 1824.53 545.664 1826.41 548.953C1870.26 625.69 1947.53 850.116 1910.4 1139.79C1909.91 1143.55 1906.48 1146.21 1902.72 1145.72C1898.96 1145.24 1896.3 1141.8 1896.79 1138.05C1933.55 851.32 1856.86 629.898 1814.5 555.76C1812.62 552.471 1813.76 548.28 1817.05 546.4Z" fill="#2A1C7C"/>
<path fill-rule="evenodd" clip-rule="evenodd" d="M1792.06 424.102C1794.88 421.563 1799.22 421.785 1801.75 424.598C1874.27 504.937 2015.1 753.387 2005.2 1109.86C2005.09 1113.65 2001.94 1116.63 1998.15 1116.53C1994.36 1116.42 1991.38 1113.26 1991.48 1109.48C2001.29 756.533 1861.72 511.511 1791.57 433.791C1789.03 430.979 1789.25 426.641 1792.06 424.102Z" fill="#2A1C7C"/>
<path fill-rule="evenodd" clip-rule="evenodd" d="M1719.57 285.673C1722.31 283.057 1726.65 283.158 1729.27 285.899C1837.84 399.642 2055.07 725.256 2057.54 1120.4C2057.57 1124.19 2054.52 1127.28 2050.73 1127.3C2046.94 1127.33 2043.85 1124.28 2043.82 1120.49C2041.38 729.853 1826.3 407.427 1719.34 295.372C1716.73 292.632 1716.83 288.289 1719.57 285.673Z" fill="#2A1C7C"/>
<path d="M1832.21 281.405C1849.14 295.784 1869.29 310.949 1887.01 322.108C1856.36 294.137 1832.08 254.075 1824.66 214.726C1838.31 214.653 1854.39 218.585 1869.68 225.738C1814.16 201.921 1767.37 156.352 1739.81 101.838C1777.61 114.497 1814.63 130.375 1851.64 146.253C1814.56 116.71 1777.48 87.1661 1744.41 55.1895C1718.62 35.2316 1694.4 8.8344 1691.84 -22.5022C1690.93 -46.6129 1699.65 -68.3639 1710.81 -86.1086C1732.34 -118.378 1762.72 -145.069 1799.6 -156.521C1806.82 -158.167 1818.04 -162.247 1823.69 -157.454C1829.33 -152.661 1827.76 -146.222 1830.18 -142.215C1836.09 -82.7619 1835.56 -24.8815 1824.6 33.8587C1869.36 -9.78974 1866.61 -82.1219 1900.08 -135.356C1917.92 -96.8668 1919.76 -48.6454 1909.52 -6.78994C1899.28 35.0655 1882.61 75.3477 1865.16 118.85C1897.05 72.0548 1924.94 27.693 1956.84 -19.1018C1972.98 -1.50367 1966.68 24.2535 1958.74 42.7848C1946.07 80.634 1930.19 117.697 1911.09 153.973C1924.68 140.234 1941.48 127.282 1954.28 116.763C1957.75 172.211 1944.37 226.945 1918.11 278.532C1928.55 277.673 1936.55 272.807 1945.35 264.721C1947.12 299.277 1945.68 333.047 1940.23 369.249C1931.56 404.666 1911.74 457.826 1873.81 417.837C1848.75 380.995 1836.41 319.968 1832.21 281.405Z" fill="#525DC1"/>
<path d="M1740.21 501.526C1736.9 501.526 1733.59 498.212 1730.28 501.526C1726.97 501.526 1726.97 504.841 1723.66 508.155C1720.35 521.414 1713.73 537.987 1713.73 551.245C1703.8 537.987 1693.87 528.043 1680.62 518.099C1627.66 564.503 1591.24 630.795 1581.31 700.401C1587.93 700.401 1597.86 697.086 1604.48 697.086C1584.62 726.917 1581.31 763.378 1584.62 799.838C1587.93 836.298 1597.86 869.444 1604.48 905.905C1611.11 945.679 1611.11 985.454 1604.48 1021.91C1621.04 1018.6 1637.59 1011.97 1650.83 1002.03C1693.87 972.196 1713.73 919.163 1723.66 866.13C1733.59 816.411 1733.59 763.378 1746.83 710.345C1760.08 657.311 1779.94 607.593 1822.97 577.762C1829.59 574.447 1836.22 567.818 1839.53 561.189C1859.39 531.358 1816.35 537.987 1803.11 534.672C1783.25 534.672 1763.39 511.47 1740.21 501.526Z" fill="#525DC1"/>
<path d="M2195.18 499.949C2198.49 499.949 2201.8 496.634 2205.11 499.949C2208.42 499.949 2208.42 503.264 2211.73 506.578C2215.04 519.836 2221.66 536.409 2221.66 549.668C2231.59 536.409 2241.52 526.466 2254.76 516.522C2307.73 562.926 2344.15 629.217 2354.08 698.824C2347.46 698.824 2337.53 695.509 2330.91 695.509C2350.77 725.34 2354.08 761.8 2350.77 798.261C2347.46 834.721 2337.53 867.867 2330.91 904.327C2324.28 944.102 2324.28 983.877 2330.91 1020.34C2314.35 1017.02 2297.8 1010.39 2284.56 1000.45C2241.52 970.619 2221.66 917.585 2211.73 864.552C2201.8 814.834 2201.8 761.8 2188.56 708.767C2175.31 655.734 2155.45 606.015 2112.42 576.184C2105.8 572.87 2099.17 566.24 2095.86 559.611C2076 529.78 2119.04 536.409 2132.28 533.095C2152.14 533.095 2172 509.893 2195.18 499.949Z" fill="#525DC1"/>
<path d="M1653.04 338.364C1656.35 354.937 1662.97 374.824 1669.59 391.397C1639.8 378.139 1603.38 384.768 1576.9 404.655C1550.41 424.543 1533.86 454.374 1527.24 487.52C1590.14 470.947 1653.04 454.374 1719.25 447.745C1735.8 444.43 1752.35 444.43 1768.9 444.43C1785.45 444.43 1802.01 457.689 1818.56 457.689C1841.73 457.689 1831.8 431.172 1818.56 417.914C1778.83 371.51 1712.62 341.678 1653.04 338.364Z" fill="#525DC1"/>
<path d="M1990.56 483.934C2068.33 291.395 2162.97 99.5692 2313.25 -41.1084C2326.84 -54.8469 2340.42 -68.5854 2341.14 -85.4702C2292.12 -94.0494 2239.1 -100.196 2190.07 -108.775C2186.86 -109.561 2183.64 -110.348 2179.64 -107.915C2175.64 -105.482 2174.85 -102.262 2174.06 -99.0425C2165.4 -63.6264 2172.81 -24.2773 2177.8 11.0655C2164.02 -16.1916 2151.03 -46.6683 2137.25 -73.9254C2114.93 -38.436 2083.76 -8.52596 2053.37 18.1644C2044.58 26.2502 2035.79 34.3359 2030.21 43.2083C2024.63 52.0806 2024.69 65.7458 2024.76 79.411C2029.02 131.639 2040.51 182.22 2066.43 229.508C2029.35 199.965 2005.86 156.683 2003.23 111.681C1988.01 118.193 1980.07 136.725 1980.13 150.39C1979.41 167.275 1982.69 181.726 1989.19 196.965C2000.61 233.881 2014.45 274.803 2025.87 311.719C2012.09 284.462 1998.31 257.205 1988.53 227.515C1971.99 295.127 1961.88 364.313 1962.21 432.639C1962.34 459.97 1965.69 488.087 1980.26 512.124C1980.98 495.239 1982.62 502.465 1990.56 483.934Z" fill="#525DC1"/>
<path d="M2503.23 227.16C2506.45 227.947 2510.45 225.513 2514.45 223.08C2518.46 220.647 2519.24 217.428 2520.82 210.988C2523.97 198.11 2514.26 182.085 2502.97 172.499C2491.68 162.914 2475.61 158.981 2461.96 159.054C2403.29 148.115 2339.04 146.048 2278.86 155.214C2271.64 156.86 2264.42 158.507 2260.42 160.94C2252.41 165.806 2250.84 172.245 2245.26 181.117C2232.53 205.301 2219.8 229.485 2210.28 254.456C2203.78 239.218 2201.29 221.546 2202.01 204.661C2144.39 245.164 2102.92 303.264 2083.16 370.09C2079.09 358.858 2078.24 348.412 2077.39 337.967C2079.09 358.858 2053.56 393.561 2048.84 412.878C2046.47 422.537 2021.86 481.351 2026.72 489.363C2042.86 506.962 2105.93 430.257 2118.73 419.738C2188.29 358.271 2268.36 309.61 2355.71 272.968C2404.6 254.217 2452.7 238.685 2503.23 227.16Z" fill="#525DC1"/>
<path d="M1762.72 170.864C1766.03 144.347 1766.03 114.516 1752.79 91.3137C1719.68 127.774 1732.92 190.751 1696.51 223.897C1703.13 177.493 1706.44 127.774 1703.13 81.37C1703.13 71.4263 1699.82 58.168 1689.89 58.168C1666.72 97.9429 1646.85 137.718 1623.68 177.493C1613.75 147.661 1607.13 117.83 1597.2 91.3137C1597.2 87.9991 1593.89 81.37 1590.58 78.0554C1583.95 74.7408 1580.64 78.0554 1574.02 81.37C1517.75 111.201 1464.78 141.032 1408.5 170.864C1405.19 170.864 1405.19 174.178 1401.88 174.178C1398.57 180.807 1405.19 187.436 1411.81 190.751C1458.16 213.953 1507.81 223.897 1560.78 217.268C1577.33 213.953 1593.89 210.638 1610.44 213.953C1626.99 217.268 1643.54 223.897 1650.16 240.47C1610.44 253.728 1564.09 257.042 1524.37 243.784C1550.85 276.93 1590.58 296.817 1630.3 306.761C1656.78 313.39 1722.99 339.907 1746.17 313.39C1756.1 300.132 1756.1 266.986 1759.41 247.099C1759.41 220.582 1762.72 197.38 1762.72 170.864Z" fill="#525DC1"/>
<rect x="1481.05" y="1080.42" width="963.748" height="123.163" rx="10" fill="#EF6A77"/>
<rect x="1616.53" y="1142" width="695.869" height="674.315" rx="5" fill="#EF6A77"/>
<path d="M1212.68 406.395C1201.4 396.835 1187.16 389.618 989.362 395.467C965.31 396.405 801.025 401.583 605.367 446.073C567.243 454.468 513.833 468.322 507.821 497.145C502.593 522.756 537.305 549.264 546.244 555.869C696.978 678.754 661.481 1379.35 854.05 1526.06C897.701 1559.17 948.139 1572.84 948.139 1572.84C1020.02 1592.08 1085.25 1568.86 1139.26 1562.3C1364.77 1536.33 1485.19 1558.9 1497.2 1513.85C1504.34 1485.98 1452.01 1449.39 1407.49 1418.44C1316.19 1354.64 1268.78 1364.86 1226.25 1332.7C1177.13 1296.89 1149.66 1218.38 1205.35 813.01C1242.53 551.855 1272.47 457.059 1212.68 406.395Z" fill="#CF4D4D"/>
<path d="M1273.73 396.105C1262.45 386.546 1248.21 379.329 1050.32 384.136C1026.27 385.073 861.987 390.252 666.329 434.741C628.205 443.136 574.795 456.991 568.869 486.856C563.727 513.508 598.439 540.016 607.378 546.622C758.198 670.549 723.304 1378.44 916.045 1527.23C959.782 1561.39 1010.13 1574.01 1010.13 1574.01C1082.01 1593.26 1147.24 1570.03 1201.34 1564.51C1426.85 1538.54 1547.27 1561.12 1559.2 1515.02C1566.34 1487.15 1513.92 1449.52 1469.4 1418.57C1378.01 1353.73 1330.6 1363.94 1288.08 1331.79C1238.87 1294.94 1211.4 1216.42 1266.75 806.889C1303.66 542.608 1333.43 445.728 1273.73 396.105Z" fill="#EF6A77"/>
<path d="M1289.89 1159.57C1292.72 1179.34 1296.48 1200.99 1307.78 1215.11C1319.07 1229.23 1335.08 1233.94 1350.14 1235.82C1378.37 1239.58 1407.55 1237.7 1434.85 1229.23C1438.62 1228.29 1442.38 1227.35 1445.21 1223.58C1448.03 1219.82 1449.91 1214.17 1449.91 1208.52C1451.8 1194.4 1450.85 1179.34 1449.91 1165.22C1441.44 999.553 1432.97 833.885 1423.56 667.275C1420.73 616.445 1417.91 555.261 1388.73 516.668C1359.55 478.075 1324.72 495.959 1308.72 542.083C1289.89 597.62 1288.01 671.041 1282.36 731.284C1276.71 798.116 1272.95 865.889 1272.95 932.721C1273.89 1009.91 1278.6 1085.21 1289.89 1159.57Z" fill="#2A1C7C"/>
<path d="M1181.64 461.131C1084.69 484.663 989.62 522.315 899.255 571.263C890.784 575.969 881.371 581.617 877.606 592.913C874.782 600.443 875.723 608.915 876.664 616.445C903.02 837.65 931.259 1061.68 1004.68 1266.88C1012.21 1288.53 1021.62 1311.12 1037.63 1325.24C1053.63 1339.36 1075.28 1343.13 1095.04 1344.07C1138.34 1346.89 1182.59 1342.18 1222.12 1322.42C1261.65 1302.65 1298.37 1267.82 1317.19 1221.7C1327.55 1196.28 1332.25 1168.99 1337.9 1141.69C1370.84 966.607 1402.85 789.644 1410.38 610.797C1411.32 577.852 1411.32 543.024 1398.14 513.844C1385.91 488.429 1364.26 469.603 1340.72 460.19C1317.19 450.777 1291.78 448.894 1267.3 449.836C1228.71 451.718 1191.06 459.249 1154.35 472.427" fill="#525DC1"/>
<path d="M1284.24 462.072C1299.31 535.493 1311.54 616.445 1318.13 704.927C1334.13 922.366 1311.54 1110.63 1280.48 1257.47C1272.01 1268.76 1258.83 1281.94 1241.89 1292.3C1179.76 1330.89 1107.28 1305.47 1095.04 1300.77C1096.93 1281.94 1098.81 1254.64 1100.69 1221.7C1104.46 1162.4 1115.75 1003.32 1116.69 879.067C1116.69 784.937 1111.05 651.273 1082.81 483.722C1150.58 476.192 1217.41 469.603 1284.24 462.072Z" fill="white"/>
<path d="M1228.71 135.443C1253.18 140.149 1276.71 152.386 1291.78 173.095C1300.25 185.332 1304.95 198.51 1308.72 212.629C1317.19 246.516 1318.13 280.403 1319.07 315.231C1320.01 351.941 1320.96 388.652 1317.19 425.362C1315.31 441.364 1312.48 458.308 1305.9 472.427C1288.01 509.138 1244.71 527.022 1204.23 531.729C1167.52 535.494 1130.81 529.846 1096.93 516.668C1086.57 511.962 1075.28 507.255 1067.75 497.842C1060.22 489.37 1056.45 477.134 1053.63 465.838C1031.98 386.769 1025.39 302.052 1037.63 221.101C1040.45 202.275 1045.16 181.567 1056.45 166.506C1067.75 151.445 1085.63 142.032 1103.52 137.326C1141.17 126.971 1191.06 126.971 1228.71 135.443Z" fill="#BC775C"/>
<path d="M1018.8 275.695C1011.27 268.165 999.972 260.634 989.618 265.341C985.853 267.224 983.029 270.047 981.146 272.871C973.616 283.226 971.733 296.404 972.674 308.641C975.498 359.471 1013.15 406.535 1062.1 420.655C1058.33 419.714 1048.92 342.527 1047.98 334.997C1043.27 308.641 1037.62 294.521 1018.8 275.695Z" fill="#BC775C"/>
<path d="M1259.77 500.667C1248.48 496.902 1239.06 494.078 1228.71 491.254C1218.35 488.431 1208.94 485.607 1197.65 482.783C1207.06 489.372 1216.47 494.078 1227.77 497.843C1238.12 501.609 1249.42 502.55 1259.77 500.667C1260.71 501.609 1259.77 501.609 1259.77 500.667C1260.71 500.667 1260.71 501.609 1259.77 500.667Z" fill="#1F2D49"/>
<path d="M1288.59 400.09C1286.1 392.152 1287.71 384.584 1292.18 383.187C1296.64 381.789 1302.27 387.092 1304.76 395.031C1307.24 402.969 1305.63 410.537 1301.17 411.934C1296.7 413.332 1291.07 408.029 1288.59 400.09Z" fill="#1F2D49"/>
<path d="M1198.15 414.939C1193.74 413.37 1192.43 405.746 1195.21 397.909C1198 390.072 1203.84 384.99 1208.24 386.558C1212.65 388.127 1213.97 395.751 1211.18 403.588C1208.39 411.425 1202.56 416.507 1198.15 414.939Z" fill="#1F2D49"/>
<path d="M1312.48 354.766C1316.25 348.176 1316.25 343.47 1315.31 339.705C1314.36 334.998 1311.54 332.174 1307.78 330.292C1304.01 328.409 1300.25 328.409 1296.48 330.292C1292.72 332.174 1288.95 334.998 1286.13 341.587V342.529V343.47C1290.83 344.411 1295.54 345.353 1300.25 348.176C1304.95 350.059 1308.72 352.883 1312.48 356.648H1313.42L1312.48 354.766Z" fill="#1F2D49"/>
<path d="M1224 340.644C1221.18 334.055 1215.53 330.29 1210.82 328.407C1206.12 326.525 1200.47 326.525 1195.76 328.407C1191.06 330.29 1186.35 334.055 1184.47 338.762C1181.64 343.468 1180.7 349.116 1182.59 356.646V357.588C1182.59 357.588 1183.53 358.529 1183.53 357.588C1189.17 352.881 1194.82 348.175 1202.35 346.292C1208.94 343.468 1216.47 342.527 1224 342.527C1224 342.527 1224.94 342.527 1224.94 341.585C1224 341.585 1224 341.585 1224 340.644Z" fill="#1F2D49"/>
<path d="M1261.65 407.476C1262.59 411.242 1261.65 415.007 1261.65 419.713C1261.65 421.596 1262.59 424.42 1263.54 426.302C1264.48 428.185 1266.36 429.126 1268.24 431.009C1272.01 432.891 1274.83 434.774 1277.65 437.598C1279.54 440.422 1281.42 444.187 1281.42 447.011C1281.42 450.776 1280.48 453.6 1278.6 456.424C1276.71 459.248 1273.89 460.189 1271.07 461.13C1264.48 463.013 1255.06 460.189 1247.53 463.013C1256.01 463.954 1262.59 467.719 1272.01 466.778C1276.71 465.837 1281.42 463.954 1284.24 459.248C1287.07 455.483 1288.01 449.835 1287.07 445.128C1286.13 435.715 1277.65 428.185 1270.12 425.361C1266.36 423.479 1263.54 421.596 1263.54 417.831C1262.59 415.007 1263.54 411.242 1261.65 407.476C1261.65 406.535 1261.65 406.535 1261.65 407.476C1261.65 407.476 1261.65 406.535 1261.65 407.476Z" fill="#1F2D49"/>
<path d="M1028.21 190.979C1041.39 154.268 1073.39 126.03 1110.1 113.793C1121.4 110.027 1132.69 108.145 1144.93 106.262C1151.52 78.9647 1165.64 55.4323 1193.88 45.078C1201.41 42.2541 1210.82 40.3715 1218.35 42.2541C1225.88 44.1367 1234.35 49.7845 1237.18 57.3149C1240 65.7865 1237.18 75.1995 1233.41 83.6712C1266.36 78.0234 1303.07 78.0234 1332.25 94.9667C1341.66 100.615 1351.08 109.086 1354.84 119.44C1360.49 136.384 1349.19 156.151 1331.31 159.916C1348.25 168.388 1364.25 181.566 1372.73 199.451C1381.2 217.335 1379.31 239.926 1366.14 254.046C1354.84 266.283 1337.9 270.048 1321.9 268.165C1320.01 269.107 1319.07 270.048 1317.19 270.048C1255.06 288.874 1186.35 270.048 1123.28 286.991C1112.93 289.815 1102.57 293.58 1094.1 301.111C1078.1 315.23 1074.33 337.821 1074.33 359.471C1074.33 371.708 1074.33 386.769 1063.04 392.416C1054.57 397.123 1043.27 392.416 1037.62 384.886C1031.98 377.356 1030.09 367.943 1028.21 358.53C1022.56 326.526 1020.68 295.463 1019.74 263.459C1019.74 238.044 1020.68 213.57 1028.21 190.979Z" fill="#1F2D49"/>
<ellipse rx="32.9454" ry="14.1194" transform="matrix(-1 0 0 1 1163.76 435.718)" fill="#A24C46"/>
<path d="M1966.49 1230.15L1108.63 3865.73H965.999L1716.36 1211.55L1966.49 1230.15Z" fill="#E2F3FF"/>
<path d="M1757.71 965.565L1077.62 3047.16H965.999L1559.26 951.095L1757.71 965.565Z" fill="#E2F3FF"/>
<path d="M1821.79 920.086H5910.56L5135.39 1426.53H658L1821.79 920.086Z" fill="#6A88C2"/>
<path d="M1821.79 825H5910.56L5135.39 1331.45H658L1821.79 825Z" fill="#E2F3FF"/>
<path d="M658 1331.44V1426.53L893.652 1331.44H658Z" fill="#6A88C2"/>
<path d="M1097.54 1140.24C1082.84 1042.77 1073.5 964.803 1067.15 913.385C1050.18 775.263 1047.08 716.467 1009.43 646.126C996.242 621.892 961.878 554.922 921.299 548.73C872.152 541.163 848.774 628.417 842.685 652.245C824.28 720.705 839.609 782.569 875.225 956.701C886.622 1010.82 904.567 1100.91 927.262 1216.89C983.851 1190.89 1040.44 1164.89 1097.54 1140.24Z" fill="#2A1C7C"/>
<path d="M1051.66 1092.8C1102.32 1085.73 1154 1089.35 1204.91 1096.27C1234.56 1100.16 1265.75 1105.48 1293.38 1096.04C1314.84 1088.94 1332.98 1073.03 1354.23 1068.02C1376.36 1062.67 1400.06 1066.8 1420.47 1078.2C1440 1089.94 1455.58 1107.2 1467.09 1127C1447.38 1133.44 1426.8 1140.21 1406.76 1145.77C1369.99 1157.66 1332.01 1168.99 1295.25 1180.87C1242.3 1197.86 1185.14 1206.38 1130.74 1216.87C1072.82 1228.7 1016.45 1241.95 957.081 1247.28C947.278 1247.97 936.261 1248.11 927.983 1242.18C922.465 1238.23 919.803 1231.18 918.021 1223.81C912.247 1205.86 909.329 1184.83 910.931 1165.1C912.651 1148.35 919.91 1143.6 933.548 1134.42C968.416 1112.18 1009.59 1098.64 1051.66 1092.8Z" fill="#BC775C"/>
<path d="M1460.33 1114.46C1452.51 1112.39 1440.82 1110.76 1427.5 1112.78C1407.01 1114.48 1390.95 1122.57 1382.81 1127.66" fill="#93523E"/>
<path d="M1440 1089.94C1432.17 1087.87 1420.49 1086.25 1407.16 1088.26C1386.68 1089.97 1370.61 1098.05 1362.47 1103.14" fill="#93523E"/>
<path d="M2445.64 636.82C2441.62 637.283 1910.69 675.294 1910.69 675.294L1763.66 1227.52L2281.18 1191.06L2445.64 636.82Z" fill="#EF6A77"/>
<path d="M2515.83 632.818C2513.15 633.127 1982.22 671.138 1982.22 671.138L1826.21 1251.57L2351.37 1187.05L2515.83 632.818Z" fill="#FF971D"/>
<path d="M1826.21 1251.57L1432.26 1252.08C1432.26 1252.08 1428.4 1218.55 1462.91 1199.64C1497.42 1180.72 1844.43 1185.62 1844.43 1185.62L1826.21 1251.57Z" fill="#EF6A77"/>
</g>
<defs>
<clipPath id="clip0_111_1005">
<rect width="2541" height="1334" fill="white"/>
</clipPath>
</defs>
</svg>
