<svg width="1536" height="2386" viewBox="0 0 1536 2386" fill="none" xmlns="http://www.w3.org/2000/svg">
<rect width="1536" height="2386" fill="#322580"/>
<path fill-rule="evenodd" clip-rule="evenodd" d="M1535.54 170C1535.54 170 1535.53 170 1535.53 170C1377.3 170 1249.03 298.271 1249.03 456.5C1249.03 614.73 1377.3 743 1535.53 743C1535.53 743 1535.54 743 1535.54 743L1535.54 170Z" fill="#FF9D2E"/>
<ellipse cx="809" cy="1638.49" rx="471" ry="48.5" fill="#0D1B33" fill-opacity="0.47"/>
<path d="M539.626 819.032C536.899 827.219 538.067 834.626 540.015 848.271C543.911 873.222 553.261 882.579 548.197 891.936C545.859 896.224 540.405 902.072 523.263 904.021C525.211 905.971 530.276 909.869 538.067 911.039C543.522 911.819 547.807 910.649 550.144 909.869C548.976 911.429 546.638 914.158 542.353 916.107C539.236 917.277 536.509 917.667 534.561 917.667C539.236 922.345 546.249 928.193 554.819 927.803C566.507 927.803 573.909 916.887 580.142 911.039C590.661 901.292 611.699 893.105 656.501 903.242C660.007 904.411 669.746 907.14 681.434 903.632C690.394 900.513 696.238 895.055 698.576 892.326C696.238 892.715 692.732 893.105 688.446 891.936C685.33 891.156 682.992 890.376 681.434 889.207C682.603 889.597 690.394 892.326 698.186 888.037C707.536 882.969 708.705 872.443 708.705 871.273C707.146 872.443 705.198 874.002 702.471 874.392C691.563 875.951 681.823 860.357 680.655 857.628C670.136 840.084 679.486 829.168 673.253 814.353C663.513 791.351 626.113 785.114 605.465 785.504C582.869 786.673 547.417 796.03 539.626 819.032Z" fill="#D26425"/>
<path d="M661.954 1486.86H614.036V1576.14H661.954V1486.86Z" fill="#E3AE96"/>
<path d="M666.63 1533.65L698.575 1055.68H580.532L601.569 1533.65H666.63Z" fill="#0D1B33"/>
<path d="M605.465 1486.86H557.546V1570.29H605.465V1486.86Z" fill="#FACBB4"/>
<path d="M608.581 1622.93C652.994 1622.93 697.406 1622.93 741.819 1622.93C743.377 1621.76 746.883 1619.03 748.831 1613.57C751.169 1606.94 748.831 1601.09 746.494 1597.59C742.208 1590.96 735.196 1590.96 722.729 1587.06C721.95 1586.67 703.25 1578.87 666.24 1563.28C665.071 1562.89 661.954 1561.33 658.448 1562.11C652.604 1562.89 649.488 1567.57 647.15 1569.9C637.411 1578.87 619.879 1559.77 610.529 1566.01C604.686 1569.52 605.075 1580.04 605.465 1598.75C606.244 1608.89 607.413 1617.08 608.581 1622.93Z" fill="#224688"/>
<path d="M632.346 974.976C647.15 953.534 655.721 927.803 656.11 901.682C656.11 900.513 656.11 899.343 655.721 898.173C654.552 896.224 652.214 895.444 649.877 895.055C636.631 893.105 622.606 893.885 609.36 897.394C601.179 899.733 578.973 905.191 580.142 915.717C581.31 926.243 596.894 938.719 603.906 945.737C614.035 955.873 624.164 964.45 632.346 974.976Z" fill="white"/>
<path d="M610.139 1533.65L642.085 1055.68H524.042L545.079 1533.65H610.139Z" fill="#1F2D49"/>
<path d="M667.798 1184.33C668.967 1192.52 670.525 1201.49 675.2 1207.33C679.875 1213.18 686.498 1215.13 692.731 1215.91C704.419 1217.47 716.496 1216.69 727.794 1213.18C729.352 1212.79 730.911 1212.4 732.079 1210.84C733.248 1209.28 734.027 1206.94 734.027 1204.6C734.806 1198.76 734.417 1192.52 734.027 1186.67C730.521 1118.06 727.015 1049.44 723.119 980.434C721.95 959.382 720.781 934.041 708.704 918.056C696.627 902.072 682.213 909.48 675.59 928.583C667.798 951.585 667.019 981.994 664.681 1006.94C662.344 1034.63 660.786 1062.7 660.786 1090.38C661.565 1121.95 663.513 1153.53 667.798 1184.33Z" fill="#5661AE"/>
<path d="M623.385 894.665C583.258 904.412 543.911 920.006 506.511 940.279C503.004 942.228 499.108 944.567 497.55 949.246C496.381 952.365 496.771 955.873 497.161 958.992C508.069 1050.61 519.756 1143.4 550.144 1228.39C553.261 1237.35 557.156 1246.71 563.779 1252.56C570.402 1258.41 579.363 1259.97 587.544 1260.36C605.465 1261.52 623.775 1259.58 640.138 1251.39C656.5 1243.2 671.694 1228.78 679.485 1209.67C683.771 1199.15 685.719 1187.84 688.056 1176.53C701.692 1104.02 714.937 1030.73 718.054 956.653C718.444 943.008 718.444 928.583 712.99 916.497C707.925 905.971 698.965 898.174 689.225 894.275C679.485 890.377 668.967 889.597 658.838 889.987C642.865 890.766 627.281 893.885 612.088 899.343" fill="#6A88C2"/>
<path d="M485.473 1145.74C486.642 1151.97 488.2 1158.6 492.875 1162.89C497.55 1167.18 504.173 1168.74 510.406 1169.52C522.094 1170.69 534.171 1169.91 545.469 1167.57C547.027 1167.18 548.585 1166.79 549.754 1166.01C550.923 1164.84 551.702 1162.89 551.702 1161.33C552.481 1157.04 552.092 1152.36 551.702 1147.68C548.196 1095.83 544.69 1044.37 540.794 992.52C539.625 976.536 538.456 957.822 526.379 945.737C514.302 933.651 499.888 939.499 493.265 953.534C485.473 970.688 484.694 993.69 482.356 1012.4C480.019 1033.07 478.46 1054.12 478.46 1075.17C478.85 1098.95 480.798 1122.73 485.473 1145.74Z" fill="#5661AE"/>
<path d="M636.631 1622.93C608.192 1622.93 579.752 1622.93 551.313 1622.93C549.754 1622.54 547.417 1621.76 545.859 1619.81C543.911 1617.47 543.911 1614.74 543.521 1613.57C542.742 1601.87 542.352 1595.25 543.911 1573.41C543.911 1571.07 544.3 1567.57 547.027 1565.62C549.365 1563.67 552.871 1564.84 554.819 1565.23C561.052 1566.79 569.623 1567.96 575.077 1567.57C581.311 1567.57 587.934 1566.01 596.894 1563.67C598.063 1563.28 600.79 1562.89 603.907 1563.28C607.413 1563.67 610.14 1565.23 612.477 1567.18C629.619 1579.65 634.684 1593.69 634.684 1593.69C639.359 1606.55 637.411 1617.86 636.631 1622.93Z" fill="#4C75C1"/>
<path d="M577.415 912.599C588.323 920.786 597.283 928.583 603.906 935.211C610.919 941.838 619.879 950.805 629.619 964.06C632.735 968.349 635.073 971.858 636.631 974.587C640.527 967.179 644.423 958.602 647.929 948.466C654.552 928.583 656.5 911.039 656.89 897.394C630.008 902.462 603.517 907.53 577.415 912.599Z" fill="white"/>
<path d="M615.204 1572.24C611.308 1572.63 607.412 1573.41 603.127 1573.8Z" fill="#FF971D"/>
<path d="M924.143 1333.65L945.57 1612.01L959.595 1615.13L949.076 1337.94L924.143 1333.65Z" fill="#1C85E8"/>
<path d="M755.843 1333.65L777.27 1612.01L790.906 1615.13L780.777 1337.94L755.843 1333.65Z" fill="#1C85E8"/>
<path d="M981.412 1293.1L999.722 1531.31L1011.41 1534.43L1002.45 1296.61L981.412 1293.1Z" fill="#5661AE"/>
<path d="M836.876 1293.1L855.576 1531.31L867.264 1534.43L858.304 1296.61L836.876 1293.1Z" fill="#5661AE"/>
<path d="M818.566 943.398C822.462 939.499 827.527 936.38 901.158 932.481C910.118 932.092 971.283 928.973 1045.3 939.499C1059.72 941.448 1079.98 944.957 1083.09 955.483C1085.82 964.84 1073.74 975.756 1070.63 978.485C1018.42 1028.78 1053.1 1288.04 986.087 1348.46C970.893 1362.11 952.583 1368.74 952.583 1368.74C926.481 1378.09 901.548 1371.47 881.289 1370.69C796.75 1367.96 752.727 1380.04 746.883 1363.67C743.377 1353.53 761.687 1338.33 777.271 1325.46C809.216 1298.95 827.137 1301.29 841.941 1288.04C859.083 1273.22 866.875 1243.2 833.76 1094.27C811.943 998.368 797.918 964.06 818.566 943.398Z" fill="#5661AE"/>
<path d="M795.581 941.448C799.476 937.549 804.541 934.431 878.172 930.142C887.133 929.752 948.297 926.633 1022.32 937.16C1036.73 939.109 1056.99 942.618 1060.11 953.534C1062.83 963.28 1050.76 974.196 1047.64 976.926C995.437 1027.61 1030.11 1289.59 963.101 1350.8C947.908 1364.84 929.597 1371.08 929.597 1371.08C903.495 1380.43 878.562 1373.8 858.303 1373.41C773.764 1370.69 729.741 1382.77 723.897 1366.01C720.391 1355.87 738.701 1340.28 754.285 1327.41C786.231 1300.51 804.151 1302.85 818.956 1289.59C836.097 1274.39 843.889 1244.37 810.774 1093.88C788.958 996.808 774.933 961.721 795.581 941.448Z" fill="#1C85E8"/>
<path d="M751.558 1007.72C754.675 1015.91 758.571 1024.1 765.973 1031.12C782.725 1046.71 813.113 1053.34 842.331 1054.51C826.748 1047.1 815.84 1036.18 808.827 1024.88C801.815 1013.18 799.088 1000.71 797.919 988.232C804.931 1006.17 824.41 1022.15 850.123 1030.73C839.604 1021.37 835.708 1009.28 834.929 997.588C834.54 985.893 837.656 974.197 840.383 962.501C847.785 930.532 853.24 897.394 840.773 865.815C836.877 856.069 831.033 846.322 820.904 838.915C810.775 831.118 795.971 826.049 780.777 826.439C735.585 827.999 750.39 859.577 750.39 878.681C750.39 906.361 744.546 934.041 744.546 961.721C744.546 977.316 746.104 992.91 751.558 1007.72Z" fill="#1F2D49"/>
<path d="M793.633 770.689C783.504 772.638 773.764 777.706 767.531 786.283C764.025 791.351 762.077 796.809 760.519 802.657C757.012 816.692 756.623 830.727 756.233 845.152C755.844 860.357 755.454 875.561 757.012 890.766C757.792 897.394 758.96 904.411 761.687 910.259C769.089 925.464 787.01 932.871 803.762 934.82C818.956 936.38 834.15 934.041 848.175 928.583C852.46 926.633 857.135 924.684 860.252 920.785C863.369 917.277 864.927 912.208 866.096 907.53C875.056 874.782 877.783 839.694 872.719 806.166C871.55 798.369 869.602 789.792 864.927 783.554C860.252 777.316 852.85 773.418 845.448 771.468C830.254 767.18 809.217 767.18 793.633 770.689Z" fill="#FACBB4"/>
<path d="M589.492 759.773C579.363 761.722 569.623 766.79 563.39 775.367C559.884 780.436 557.936 785.894 556.378 791.742C552.871 805.777 552.482 819.812 552.092 834.236C551.703 849.441 551.313 864.646 552.871 879.85C553.65 886.478 554.819 893.495 557.546 899.343C564.948 914.548 582.869 921.955 599.621 923.905C614.815 925.464 630.009 923.125 644.034 917.667C648.319 915.717 652.994 913.768 656.111 909.87C659.227 906.361 660.786 901.293 661.955 896.614C670.915 863.866 673.642 828.778 668.577 795.25C667.409 787.453 665.461 778.876 660.786 772.638C656.111 766.401 648.709 762.502 641.307 760.553C626.113 756.264 605.465 756.264 589.492 759.773Z" fill="#FACBB4"/>
<path d="M676.759 817.862C679.875 814.743 684.55 811.624 688.836 813.574C690.394 814.353 691.563 815.523 692.342 816.692C695.459 820.981 696.238 826.439 695.848 831.507C694.68 852.56 679.096 872.053 658.838 877.901C660.396 877.511 664.292 845.542 664.682 842.423C666.24 831.897 668.577 825.659 676.759 817.862Z" fill="#FACCB4"/>
<path d="M831.033 961.331C825.579 972.637 816.229 981.604 805.321 987.842C803.373 989.011 801.035 990.181 800.646 992.13C800.256 993.3 800.646 994.859 801.035 996.029C804.931 1009.28 810.385 1022.93 821.683 1030.34C828.306 1035.01 836.877 1036.57 845.058 1036.96C865.317 1037.74 885.575 1029.95 899.989 1015.52C907.391 1008.11 912.846 996.419 907.002 988.232C901.548 980.044 889.471 980.824 880.9 975.756C871.939 970.688 868.044 959.772 866.096 950.025C863.758 938.719 862.589 927.413 862.979 915.717C862.979 914.548 862.979 912.988 862.2 911.819C861.421 910.649 860.252 910.259 859.083 909.869C853.629 908.31 848.175 910.259 843.5 913.768C834.929 920.396 834.54 925.074 835.319 934.821C836.877 943.787 834.929 953.144 831.033 961.331Z" fill="#FACCB4"/>
<path d="M816.229 980.434C817.787 982.384 827.527 997.198 846.227 999.148C862.2 1000.71 877.783 992.52 886.354 978.095C894.925 977.705 909.729 977.705 926.481 983.553C942.454 989.011 953.752 997.198 960.375 1002.66C960.375 1020.59 958.037 1045.15 949.077 1072.83C946.35 1081.41 936.221 1097.39 926.481 1123.12C921.416 1136.77 920.248 1141.84 919.858 1147.3C919.079 1161.33 923.754 1170.3 932.325 1190.96C936.221 1200.71 942.454 1215.52 949.466 1234.23C942.844 1238.91 907.002 1264.25 861.031 1254.12C836.877 1249.05 820.125 1236.18 811.944 1228.39C815.06 1215.52 818.566 1199.93 822.073 1181.99C825.969 1163.67 827.137 1157.04 825.579 1147.69C823.631 1135.6 817.787 1128.97 809.217 1116.11C801.425 1104.41 781.946 1074.39 773.764 1041.64C771.817 1033.46 769.479 1020.98 769.479 1005C775.323 1000.32 782.335 995.639 790.517 990.961C800.256 987.062 808.827 983.163 816.229 980.434Z" fill="white"/>
<path d="M827.527 1182.77C827.138 1152.75 827.138 1128.58 827.138 1112.99C827.527 1070.49 829.085 1052.56 820.125 1030.34C817.008 1022.54 808.827 1001.1 796.36 997.978C781.167 994.079 769.869 1019.81 766.752 1026.83C757.792 1047.1 760.519 1066.59 764.415 1120C765.583 1136.77 767.531 1164.84 769.869 1200.71C789.348 1194.47 808.438 1188.62 827.527 1182.77Z" fill="#FF971D"/>
<path d="M885.965 974.976C896.873 975.756 912.456 978.095 930.377 985.113C946.74 991.35 954.531 994.859 960.375 1003.05C972.842 1019.81 962.713 1046.32 954.921 1066.59C949.077 1082.58 945.571 1084.92 937.779 1105.19C931.936 1121.17 927.65 1131.31 926.481 1143.01C924.533 1160.94 931.156 1169.52 943.623 1204.6C947.909 1216.69 953.752 1234.23 958.817 1256.46C934.663 1246.71 910.119 1236.96 885.965 1227.22C881.29 1190.57 878.173 1148.85 878.173 1103.24C877.784 1055.68 881.29 1012.79 885.965 974.976Z" fill="#FFD76F"/>
<path d="M814.867 980.824C816.457 994.08 819.239 1013.57 823.215 1036.96C832.755 1094.27 839.115 1111.43 842.295 1141.06C844.68 1164.84 845.475 1199.15 836.73 1242.03C826.395 1239.69 816.457 1237.74 806.121 1235.4C810.892 1213.96 814.072 1196.42 816.457 1183.16C820.829 1157.82 821.227 1150.41 819.239 1141.84C816.457 1128.58 811.289 1126.63 796.979 1104.8C782.271 1082.19 766.37 1057.24 765.973 1027.22C765.973 1018.25 767.165 1010.84 767.96 1006.17C774.718 1001.1 780.96 996.029 791.296 990.571C798.451 986.672 808.109 983.164 814.867 980.824Z" fill="#FFD76F"/>
<path d="M946.9 1157.11C939.56 1130.92 933.38 1110.4 929.131 1096.44C917.542 1059.78 911.748 1044.5 914.838 1023.11C915.997 1015.69 919.087 995.616 931.448 989.942C946.127 983.395 964.669 1003.04 969.691 1008.71C983.984 1024.42 986.688 1041.44 996.345 1089.02C999.435 1103.86 1004.46 1128.3 1011.41 1160.16C989.778 1158.85 968.532 1157.98 946.9 1157.11Z" fill="#FFD76F"/>
<path d="M888.302 826.049C891.418 822.93 896.093 819.811 900.379 821.761C901.937 822.54 903.106 823.71 903.885 824.879C907.002 829.168 907.781 834.626 907.391 839.694C906.223 860.747 890.639 880.24 870.381 886.088C871.939 885.698 875.835 853.729 876.225 850.61C877.783 840.084 880.12 833.846 888.302 826.049Z" fill="#FACCB4"/>
<path d="M898.821 868.934C906.223 901.682 908.56 935.6 914.015 968.738C915.963 980.434 918.3 992.52 924.923 1002.66C929.988 1010.84 937.779 1017.47 945.181 1023.71C938.558 1026.44 931.156 1025.27 924.533 1022.54C917.91 1019.81 912.456 1015.13 907.002 1010.45C908.171 1014.74 909.729 1019.42 910.898 1023.71C907.781 1022.15 904.665 1020.2 901.938 1018.64C878.563 1003.44 866.486 975.366 862.2 947.686C857.915 920.006 860.642 891.936 859.473 863.866C858.694 846.712 856.746 829.558 853.24 812.794C851.292 803.047 848.954 792.911 851.292 783.164C853.24 774.587 865.706 792.911 867.654 795.64C873.108 802.657 877.394 810.455 881.29 818.642C889.471 834.236 894.925 851.39 898.821 868.934Z" fill="#1F2D49"/>
<path d="M751.559 1311.82C752.727 1300.9 753.507 1289.98 751.559 1279.46C749.611 1268.93 744.546 1258.41 735.196 1252.56C731.69 1250.22 727.794 1248.66 723.509 1249.44C719.223 1249.83 715.717 1252.56 712.211 1255.29C696.238 1268.93 684.161 1287.26 673.642 1305.19C634.684 1370.3 605.075 1440.47 577.025 1511.04C551.313 1517.27 524.042 1516.49 498.33 1510.65C507.29 1531.7 525.99 1548.07 547.807 1554.31C557.936 1557.43 575.857 1566.79 577.805 1570.29C579.752 1574.19 583.259 1576.53 587.155 1578.09C588.713 1578.48 590.271 1579.26 591.83 1578.87C593.777 1578.48 595.725 1576.92 596.894 1574.97C605.465 1563.28 602.348 1546.51 607.802 1532.87C610.14 1527.02 614.425 1521.95 618.321 1516.88C657.669 1467.76 696.238 1417.86 728.573 1364.06C739.482 1346.9 749.611 1331.7 751.559 1311.82Z" fill="#E3AE96"/>
<path d="M536.509 1514.15C536.509 1516.88 536.509 1521.56 534.561 1526.24C532.223 1532.48 528.717 1536.77 526.769 1538.72C531.054 1541.45 535.729 1544.17 540.015 1546.9C541.963 1544.17 545.079 1539.5 546.638 1532.87C548.586 1524.68 547.807 1517.66 547.027 1514.15C543.521 1514.15 540.015 1514.15 536.509 1514.15Z" fill="#5661AE"/>
<path d="M517.809 1513.38C520.536 1526.63 526.379 1533.26 529.886 1536.38C541.573 1546.9 559.104 1548.46 569.234 1549.24C575.077 1549.63 581.311 1549.63 590.661 1552.36C596.504 1553.92 601.179 1555.87 603.906 1557.43C603.127 1561.33 601.569 1567.96 597.284 1574.97C592.609 1582.77 586.765 1587.45 583.259 1589.4C579.363 1585.89 573.519 1580.43 566.117 1574.97C559.884 1570.29 554.819 1566.79 546.638 1562.11C515.861 1543 512.354 1543.39 506.511 1536.38C502.225 1531.31 496.771 1523.12 494.823 1508.7C502.615 1510.26 510.017 1511.82 517.809 1513.38Z" fill="#5661AE"/>
<path d="M768.311 1311.82C762.078 1302.85 756.234 1293.88 747.663 1286.87C739.482 1279.85 728.573 1275.17 718.055 1276.34C713.769 1276.73 709.873 1278.29 707.146 1281.41C704.03 1284.53 703.251 1288.81 702.471 1293.1C698.576 1314.16 701.303 1335.21 704.419 1356.26C716.107 1431.11 737.534 1504.41 761.298 1576.53C745.326 1597.98 723.898 1614.35 700.523 1626.82C720.782 1636.96 745.715 1637.74 766.363 1628.77C776.103 1624.49 795.971 1620.2 799.867 1622.15C803.763 1623.71 808.048 1623.32 812.334 1622.15C813.892 1621.76 815.45 1620.98 816.23 1619.81C817.398 1618.25 817.788 1615.91 817.788 1613.57C816.619 1599.14 803.763 1588.23 799.478 1574.19C797.53 1567.96 797.53 1561.72 797.53 1555.09C796.75 1492.32 794.413 1429.16 785.063 1366.79C781.167 1346.9 779.219 1328.58 768.311 1311.82Z" fill="#FACCB4"/>
<path d="M731.69 1604.99C733.638 1606.94 736.365 1610.45 737.923 1615.52C740.261 1621.76 739.871 1627.21 739.871 1630.33C744.936 1629.55 750.39 1628.77 755.455 1627.99C755.455 1624.49 754.675 1619.03 751.559 1612.79C748.052 1604.99 742.598 1600.31 739.871 1597.98C737.144 1600.7 734.417 1603.04 731.69 1604.99Z" fill="#5661AE"/>
<path d="M716.886 1616.3C727.405 1624.49 736.365 1626.05 741.04 1626.44C756.623 1627.21 771.038 1617.08 779.609 1611.23C784.673 1607.72 789.348 1603.82 797.919 1599.92C803.373 1597.59 808.438 1596.03 811.554 1595.25C813.502 1598.75 816.619 1604.6 817.788 1612.79C818.957 1621.76 817.398 1629.16 816.229 1633.06C811.165 1632.67 803.373 1632.28 793.634 1632.67C785.842 1633.06 779.609 1633.84 770.259 1635.01C734.417 1640.08 732.08 1642.42 723.119 1640.86C716.886 1639.69 707.146 1636.57 696.627 1627.21C703.25 1624.1 709.873 1620.2 716.886 1616.3Z" fill="#5661AE"/>
<path d="M621.437 1576.53C619.1 1576.53 615.594 1576.53 612.087 1577.7C603.906 1580.04 598.841 1585.11 596.894 1587.84" stroke="white" stroke-miterlimit="10" stroke-linecap="round"/>
<path d="M627.281 1582.38C624.944 1582.38 621.437 1582.38 617.931 1583.55C609.75 1585.89 604.685 1590.96 602.737 1593.69" stroke="white" stroke-miterlimit="10" stroke-linecap="round"/>
<path d="M615.204 1570.3C612.866 1570.3 609.36 1570.3 605.854 1571.46C597.673 1573.8 592.608 1578.87 590.66 1581.6" stroke="white" stroke-miterlimit="10" stroke-linecap="round"/>
<path d="M687.667 1572.63C686.108 1573.8 683.771 1575.75 681.823 1578.48C677.538 1584.72 677.538 1590.96 677.927 1593.3" stroke="white" stroke-miterlimit="10" stroke-linecap="round"/>
<path d="M678.706 1567.96C677.147 1569.13 674.81 1571.07 672.862 1573.8C668.577 1580.04 668.577 1586.28 668.966 1588.62" stroke="white" stroke-miterlimit="10" stroke-linecap="round"/>
<path d="M698.185 1576.14C696.627 1577.31 694.289 1579.26 692.342 1581.99C688.056 1588.23 688.056 1594.47 688.446 1596.81" stroke="white" stroke-miterlimit="10" stroke-linecap="round"/>
<path d="M772.596 873.222C774.533 873.222 776.102 870.43 776.102 866.985C776.102 863.54 774.533 860.747 772.596 860.747C770.66 860.747 769.09 863.54 769.09 866.985C769.09 870.43 770.66 873.222 772.596 873.222Z" fill="#1F2D49"/>
<path d="M808.047 873.222C809.984 873.222 811.554 870.43 811.554 866.985C811.554 863.54 809.984 860.747 808.047 860.747C806.111 860.747 804.541 863.54 804.541 866.985C804.541 870.43 806.111 873.222 808.047 873.222Z" fill="#1F2D49"/>
<path d="M789.737 865.815C788.958 869.324 788.179 873.223 787.01 876.731C785.842 880.24 784.673 883.749 782.725 887.258C781.556 888.817 780.777 890.376 780.777 891.546C780.777 892.326 781.167 892.716 781.556 893.105C781.946 893.495 782.725 894.275 783.504 894.665C786.231 897.004 789.348 898.953 792.075 901.682C792.075 901.682 792.075 901.682 792.075 902.072C788.569 900.903 785.062 899.343 781.946 897.394C781.167 897.004 780.387 896.224 779.608 895.445C778.829 894.665 778.439 893.106 778.439 891.936C778.439 889.597 780.387 887.647 781.167 886.478C783.114 883.749 784.673 880.24 786.231 877.121C787.01 872.833 788.179 869.324 789.737 865.815C789.348 865.815 789.348 865.815 789.737 865.815Z" fill="#1F2D49"/>
<path d="M779.608 914.158C785.452 912.598 790.906 911.429 796.36 909.48C801.814 907.92 806.879 905.581 812.723 903.632C808.048 907.53 802.594 910.259 797.139 912.209C791.296 914.158 785.452 914.938 779.608 914.158C779.219 914.548 779.219 914.548 779.608 914.158C779.219 914.158 779.219 914.548 779.608 914.158Z" fill="#1F2D49"/>
<path d="M592.608 915.717C597.283 914.158 601.179 912.988 605.465 911.819C609.75 910.649 613.646 909.48 618.321 908.31C614.425 911.039 610.529 912.988 605.854 914.548C601.958 915.717 597.283 916.107 592.608 915.717C592.608 915.717 592.608 916.107 592.608 915.717Z" fill="#1F2D49"/>
<path d="M762.467 844.763C762.077 843.203 762.467 841.644 763.246 840.474C764.025 839.304 764.804 838.525 765.973 837.745C767.142 837.355 768.7 836.965 769.869 836.965C771.038 836.965 772.596 837.745 773.765 838.915C773.765 838.915 773.765 838.915 773.765 839.305C771.817 839.305 769.479 840.084 767.921 840.864C765.973 842.034 764.025 843.593 762.467 844.763C762.467 845.152 762.856 845.152 762.467 844.763C762.467 845.152 762.467 845.152 762.467 844.763Z" fill="#1F2D49"/>
<path d="M794.802 837.745C796.361 836.186 797.919 835.406 799.867 835.406C801.815 835.016 803.763 835.406 805.321 836.186C806.879 836.966 808.827 837.745 809.996 839.305C811.165 840.864 811.944 842.424 811.944 844.373C809.606 842.034 807.269 840.474 804.152 839.305C801.036 838.135 797.919 837.745 794.802 837.745C794.802 838.135 794.802 838.135 794.802 837.745Z" fill="#1F2D49"/>
<path d="M579.251 874.443C580.279 871.155 579.614 868.021 577.766 867.442C575.918 866.863 573.586 869.06 572.559 872.348C571.531 875.636 572.195 878.77 574.044 879.349C575.892 879.927 578.223 877.731 579.251 874.443Z" fill="#1F2D49"/>
<path d="M621.991 879.837C623.815 879.188 624.359 876.03 623.205 872.784C622.051 869.538 619.636 867.433 617.812 868.083C615.987 868.732 615.444 871.89 616.598 875.136C617.752 878.382 620.166 880.487 621.991 879.837Z" fill="#1F2D49"/>
<path d="M593.387 875.952C593.777 882.189 593.777 888.427 592.219 894.665C591.829 896.224 591.439 897.394 591.439 898.564C591.439 899.733 591.829 900.123 592.998 900.903C595.335 902.462 598.062 904.022 600.4 905.971C600.4 905.971 600.4 905.971 600.4 906.361C597.283 905.581 594.556 904.801 591.439 903.242C590.66 902.852 589.881 902.462 589.102 901.293C588.323 900.513 588.323 899.343 588.323 898.174C588.323 896.224 589.492 894.665 589.881 893.495C591.05 890.766 591.439 887.647 591.829 884.529C592.608 881.8 592.998 879.07 593.387 875.952C593.387 875.562 592.998 875.562 593.387 875.952C593.387 875.562 593.387 875.562 593.387 875.952Z" fill="#1F2D49"/>
<path d="M570.403 854.119C570.013 852.56 570.403 851 571.182 849.831C571.961 848.661 572.74 847.881 573.909 847.102C575.078 846.712 576.636 846.322 577.805 846.322C578.974 846.322 580.532 847.102 581.701 848.271C581.701 848.271 581.701 848.271 581.701 848.661C579.753 848.661 577.415 849.441 575.857 850.221C573.909 851.39 572.351 852.56 570.403 854.119C570.792 854.509 570.792 854.509 570.403 854.119C570.792 854.119 570.792 854.119 570.403 854.119Z" fill="#1F2D49"/>
<path d="M611.309 849.831C612.867 848.272 614.425 847.492 616.373 847.492C618.321 847.102 620.269 847.492 621.827 848.272C623.386 849.051 625.334 849.831 626.502 851.39C627.671 852.95 628.45 854.509 628.45 856.459C626.113 854.119 623.775 852.56 620.659 851.39C617.542 850.221 614.425 849.831 611.309 849.831C611.309 850.221 611.309 850.221 611.309 849.831Z" fill="#1F2D49"/>
<path d="M693.51 1271.27C710.262 1262.69 732.469 1251.78 759.739 1242.42C765.973 1240.08 792.854 1231.12 831.033 1223.32C891.029 1211.62 913.235 1217.08 924.533 1220.98C940.895 1226.44 947.908 1232.68 949.856 1234.62C967.777 1252.17 973.231 1283.75 961.154 1304.8C954.92 1315.33 946.35 1320 929.208 1328.58C921.416 1332.48 894.535 1345.73 839.604 1351.97C825.968 1353.53 806.879 1355.09 784.283 1355.09C782.335 1344.96 777.271 1327.41 764.025 1310.26C738.702 1278.68 702.86 1272.44 693.51 1271.27Z" fill="#1F2D49"/>
<path d="M984.529 1250.61L1146.21 1747.68H1172.7L1031.67 1247.1L984.529 1250.61Z" fill="#DFEAFF"/>
<path d="M1133.74 1201.49L1261.91 1594.47H1282.95L1171.14 1198.76L1133.74 1201.49Z" fill="#DFEAFF"/>
<path d="M502.225 1261.91L340.548 1758.99H313.667L455.086 1258.41L502.225 1261.91Z" fill="#DFEAFF"/>
<path d="M462.877 1212.01L334.704 1604.6H313.667L425.477 1209.28L462.877 1212.01Z" fill="#DFEAFF"/>
<path d="M474.954 1203.44H1245.55L1099.46 1298.95H255.619L474.954 1203.44Z" fill="#5CA4E6"/>
<path d="M474.954 1185.5H1245.55L1099.46 1281.02H255.619L474.954 1185.5Z" fill="#DFEAFF"/>
<path d="M1245.55 1185.5V1203.44L1217.11 1204.21L1245.55 1185.5Z" fill="#5CA4E6"/>
<path d="M255.619 1281.02V1298.95L300.032 1281.02H255.619Z" fill="#5CA4E6"/>
<path d="M453.721 1058.61C454.5 1058.65 608.14 1059.33 608.14 1059.33L661.178 1215.62L511.429 1215.13L453.721 1058.61Z" fill="#5CA4E6"/>
<path d="M433.43 1058.82C434.209 1058.86 587.849 1059.53 587.849 1059.53L643.631 1223.77L491.138 1215.34L433.43 1058.82Z" fill="#77B6F1"/>
<path d="M643.644 1223.37L757.106 1215.89C757.106 1215.89 757.568 1206.16 747.264 1201.38C736.961 1196.59 637.489 1205.13 637.489 1205.13L643.644 1223.37Z" fill="#5CA4E6"/>
<path d="M758.571 798.759C750.779 814.353 746.883 832.287 747.273 849.831C747.273 851 747.662 852.56 748.831 852.949C750 853.339 750.779 852.56 751.558 851.78C755.454 848.271 757.791 843.593 760.519 839.304C764.804 832.677 769.479 826.439 774.933 820.981C778.439 817.472 782.335 814.353 785.452 810.455C788.569 806.556 790.516 801.878 790.516 796.809C790.516 792.521 788.569 788.622 785.841 785.503C780.777 779.266 776.491 779.266 770.258 783.554C765.194 787.063 761.687 792.911 758.571 798.759Z" fill="#1F2D49"/>
<path d="M883.238 802.658C874.667 783.165 855.967 767.18 833.761 762.892C824.411 761.332 814.671 761.722 804.932 762.502C795.192 763.282 785.452 764.451 775.713 766.4C774.155 766.79 772.986 766.79 771.817 767.96C771.038 768.74 770.648 769.909 770.259 771.079C767.142 784.724 770.259 799.539 776.882 812.014C783.505 824.88 793.244 835.796 804.542 845.542C823.242 861.917 845.448 874.392 869.602 882.189C879.732 885.308 887.523 886.868 889.471 875.562C891.419 865.035 890.25 852.56 890.25 841.644C889.861 828.388 888.302 815.133 883.238 802.658Z" fill="#1F2D49"/>
<path d="M953.009 1147.28C934.219 1151.87 917.024 1160.52 900.148 1169.98C890.282 1175.36 880.348 1181.52 869.345 1182.11C861.092 1182.55 852.339 1179.81 844.018 1181.03C835.696 1182.25 827.84 1187.03 822.528 1193.99C817.25 1200.57 814.163 1208.9 813.016 1217.41C820.881 1216.94 828.78 1216.07 836.644 1215.6C851.209 1214.55 865.774 1213.49 880.374 1212.05C901.251 1210.39 922.051 1205.19 942.712 1201.55C964.607 1197.24 986.01 1194.05 1007.3 1187.73C1010.93 1186.49 1014.95 1185.28 1016.81 1181.92C1018.18 1179.69 1018.04 1176.94 1017.89 1174.19C1017.35 1167.1 1015.68 1159.51 1012.35 1152.95C1009.34 1147.2 1006.23 1146.93 1000.09 1145.6C984.356 1142.24 968.238 1143.16 953.009 1147.28Z" fill="#FACCB4"/>
<path d="M630.788 751.196C633.515 754.315 634.294 758.213 635.463 766.01C636.242 769.519 638.19 783.554 633.125 801.098C631.567 806.556 630.788 809.285 628.84 812.404C622.996 820.591 614.036 822.93 604.686 825.659C600.011 827.219 592.609 828.778 583.648 829.168C586.765 828.388 592.609 826.829 598.452 821.761C604.296 816.692 606.634 811.234 607.802 808.505C604.686 810.845 600.4 814.353 594.167 817.472C584.427 822.151 576.246 823.32 566.896 824.88C559.105 826.049 548.196 826.829 535.34 825.659C532.613 825.269 530.275 824.49 527.548 824.1C529.496 812.014 535.73 787.843 555.988 767.18C562.611 760.552 575.077 748.077 594.557 744.568C599.621 743.398 621.438 739.5 630.788 751.196Z" fill="#D26425"/>
<path d="M623.386 780.046C618.321 801.488 627.282 819.422 629.23 823.32C641.307 847.102 664.292 855.289 669.746 857.238C671.694 854.119 674.421 849.831 677.148 844.373C680.654 836.965 689.225 818.252 684.55 795.25C683.771 790.962 679.486 773.028 664.292 759.383C658.448 753.925 652.215 748.467 644.813 749.247C630.009 751.586 624.165 776.927 623.386 780.046Z" fill="#D26425"/>
<g clip-path="url(#clip0_96_114)">
<path d="M812.723 1211.9C814.128 1209.29 815.853 1207.49 818.354 1205.75C820.467 1203.98 823.287 1203.06 825.684 1202.49C828.469 1201.96 831.22 1201.81 833.937 1202.05C836.653 1202.29 839.3 1203.31 841.491 1205.07C841.491 1205.07 841.491 1205.07 841.456 1205.46C836.411 1205.01 831.332 1204.95 826.538 1206.09C821.743 1207.23 817.267 1209.18 812.723 1211.9C812.688 1212.29 813.076 1212.33 812.723 1211.9Z" fill="#E56542"/>
<path d="M816.509 1200.11C817.492 1197.85 819.639 1195.69 822.105 1194.34C824.218 1192.57 827.038 1191.65 829.435 1191.08C832.221 1190.55 834.972 1190.4 837.688 1190.64C840.404 1190.88 843.052 1191.9 845.242 1193.66C845.242 1193.66 845.242 1193.66 845.208 1194.05C840.197 1193.21 835.084 1193.54 830.289 1194.68C825.494 1195.82 820.631 1197.74 816.509 1200.11C816.474 1200.5 816.474 1200.5 816.509 1200.11C816.474 1200.5 816.474 1200.5 816.509 1200.11Z" fill="#E56542"/>
</g>
<g clip-path="url(#clip1_96_114)">
<path d="M805.321 793.69L817.008 809.675C820.904 814.743 824.8 820.201 829.085 824.879C832.981 829.948 837.656 834.626 841.941 839.694C844.279 842.033 846.227 844.372 848.564 846.712C850.902 849.051 853.239 851.39 855.577 854.119V854.509C855.577 854.509 855.577 854.509 855.187 854.509C844.279 846.712 834.539 837.745 825.968 827.608C817.398 817.472 810.385 806.166 805.321 793.69C804.931 793.69 804.931 793.69 805.321 793.69Z" fill="#322580"/>
<path d="M820.125 794.47C821.683 796.809 823.241 799.149 824.8 801.488C826.358 803.827 827.916 806.166 829.475 808.115C832.981 812.794 836.098 817.082 839.604 821.371C843.11 825.659 846.616 829.558 850.512 833.846C852.46 835.796 854.408 837.745 856.356 839.694C858.304 841.643 860.252 843.593 862.2 845.542C862.2 845.542 862.2 845.542 862.2 845.932C852.85 839.304 844.668 831.897 837.656 823.32C830.254 814.353 824.41 804.996 820.125 794.47C819.735 794.47 819.735 794.47 820.125 794.47C819.735 794.47 819.735 794.47 820.125 794.47Z" fill="#322580"/>
</g>
<g clip-path="url(#clip2_96_114)">
<path d="M617.654 777.923L601.625 785.096C596.408 787.286 591.002 789.778 585.695 791.493C580.478 793.683 574.894 795.225 569.399 797.242C566.607 798.013 564.092 798.958 561.3 799.729C558.508 800.5 555.716 801.271 552.736 802.343L552.548 802.645C552.548 802.645 552.548 802.645 552.825 802.818C564.35 801.633 575.607 799.024 586.597 794.99C597.587 790.956 608.032 785.325 617.654 777.923C617.932 778.096 617.932 778.096 617.654 777.923Z" fill="#FFDACC"/>
<path d="M606.742 771.948C604.504 773.065 602.267 774.182 600.029 775.299C597.792 776.417 595.554 777.534 593.505 778.35C588.753 780.411 584.466 782.344 579.902 784.104C575.337 785.864 570.961 787.322 566.12 788.909C563.793 789.551 561.466 790.194 559.14 790.837C556.813 791.479 554.486 792.122 552.16 792.764C552.16 792.764 552.16 792.764 551.972 793.066C561.823 792.093 571.219 789.998 580.348 786.478C589.941 782.83 598.614 778.187 606.742 771.948C607.019 772.121 607.019 772.121 606.742 771.948C607.019 772.121 607.019 772.121 606.742 771.948Z" fill="#FFDACC"/>
</g>
<ellipse cx="820.514" cy="883.359" rx="11.6875" ry="3.89862" fill="#FCBA9F"/>
<ellipse cx="767.921" cy="883.359" rx="9.73958" ry="3.89862" fill="#FCBA9F"/>
<ellipse rx="10.593" ry="4.42912" transform="matrix(0.964765 -0.263114 0.262764 0.96486 632.251 886.521)" fill="#FCBA9F"/>
<ellipse rx="10.593" ry="4.42912" transform="matrix(-0.964765 -0.263114 -0.262764 0.96486 570.878 886.521)" fill="#FCBA9F"/>
<defs>
<clipPath id="clip0_96_114">
<rect width="30.7772" height="23.3916" fill="white" transform="matrix(0.996066 0.0886185 -0.0884929 0.996077 814.793 1188.6)"/>
</clipPath>
<clipPath id="clip1_96_114">
<rect width="57.2687" height="61.2083" fill="white" transform="translate(804.931 793.69)"/>
</clipPath>
<clipPath id="clip2_96_114">
<rect width="48.052" height="55.8071" fill="white" transform="matrix(-0.848236 -0.529619 -0.529074 0.848576 617.932 778.096)"/>
</clipPath>
</defs>
</svg>
