<svg width="1421" height="1888" viewBox="0 0 1421 1888" fill="none" xmlns="http://www.w3.org/2000/svg">
<rect width="1421" height="1888" fill="#322580"/>
<path fill-rule="evenodd" clip-rule="evenodd" d="M0.000100186 6.10352e-05C0.00059864 6.10352e-05 0.00109709 6.10353e-05 0.00159555 6.10354e-05C158.231 8.87012e-05 286.502 128.271 286.502 286.5C286.501 444.73 158.231 573 0.00149536 573C0.000996907 573 0.000498454 573 0 573L0.000100186 6.10352e-05Z" fill="#FF9D2E"/>
<ellipse rx="471" ry="48.5" transform="matrix(-1 0 0 1 669.949 1468.49)" fill="#0D1B33" fill-opacity="0.47"/>
<path d="M939.324 649.032C942.051 657.219 940.882 664.626 938.934 678.271C935.039 703.222 925.689 712.579 930.753 721.936C933.091 726.224 938.545 732.072 955.687 734.021C953.739 735.971 948.674 739.869 940.882 741.039C935.428 741.819 931.143 740.649 928.805 739.869C929.974 741.429 932.312 744.158 936.597 746.107C939.714 747.277 942.441 747.667 944.389 747.667C939.714 752.345 932.701 758.193 924.13 757.803C912.443 757.803 905.041 746.887 898.807 741.039C888.289 731.292 867.251 723.105 822.449 733.242C818.943 734.411 809.203 737.14 797.516 733.632C788.555 730.513 782.712 725.055 780.374 722.326C782.712 722.715 786.218 723.105 790.503 721.936C793.62 721.156 795.957 720.376 797.516 719.207C796.347 719.597 788.555 722.326 780.764 718.037C771.414 712.969 770.245 702.443 770.245 701.273C771.803 702.443 773.751 704.002 776.478 704.392C787.387 705.951 797.126 690.357 798.295 687.628C808.814 670.084 799.464 659.168 805.697 644.353C815.437 621.351 852.837 615.114 873.484 615.504C896.08 616.673 931.532 626.03 939.324 649.032Z" fill="#D26425"/>
<path d="M816.995 1316.86H864.914V1406.14H816.995V1316.86Z" fill="#E3AE96"/>
<path d="M812.319 1363.65L780.373 885.677H898.417L877.38 1363.65H812.319Z" fill="#0D1B33"/>
<path d="M873.485 1316.86H921.403V1400.29H873.485V1316.86Z" fill="#FACBB4"/>
<path d="M870.368 1452.93C825.956 1452.93 781.543 1452.93 737.131 1452.93C735.572 1451.76 732.066 1449.03 730.118 1443.57C727.781 1436.94 730.118 1431.09 732.456 1427.59C736.741 1420.96 743.754 1420.96 756.22 1417.06C757 1416.67 775.7 1408.87 812.71 1393.28C813.879 1392.89 816.995 1391.33 820.502 1392.11C826.345 1392.89 829.462 1397.57 831.8 1399.9C841.539 1408.87 859.07 1389.77 868.42 1396.01C874.264 1399.52 873.874 1410.04 873.485 1428.75C872.706 1438.89 871.537 1447.08 870.368 1452.93Z" fill="#224688"/>
<path d="M846.604 804.976C831.8 783.534 823.229 757.803 822.839 731.682C822.839 730.513 822.839 729.343 823.229 728.173C824.398 726.224 826.735 725.444 829.073 725.055C842.319 723.105 856.344 723.885 869.589 727.394C877.771 729.733 899.977 735.191 898.808 745.717C897.639 756.243 882.056 768.719 875.044 775.737C864.914 785.873 854.785 794.45 846.604 804.976Z" fill="white"/>
<path d="M868.81 1363.65L836.865 885.677H954.908L933.871 1363.65H868.81Z" fill="#1F2D49"/>
<path d="M811.152 1014.33C809.983 1022.52 808.424 1031.49 803.75 1037.33C799.075 1043.18 792.452 1045.13 786.218 1045.91C774.531 1047.47 762.454 1046.69 751.156 1043.18C749.597 1042.79 748.039 1042.4 746.87 1040.84C745.702 1039.28 744.922 1036.94 744.922 1034.6C744.143 1028.76 744.533 1022.52 744.922 1016.67C748.429 948.055 751.935 879.44 755.831 810.434C757 789.382 758.168 764.041 770.245 748.056C782.322 732.072 796.737 739.48 803.36 758.583C811.152 781.585 811.931 811.994 814.268 836.945C816.606 864.625 818.164 892.695 818.164 920.375C817.385 951.954 815.437 983.533 811.152 1014.33Z" fill="#5661AE"/>
<path d="M855.563 724.665C895.69 734.412 935.038 750.006 972.438 770.279C975.944 772.228 979.84 774.567 981.399 779.246C982.567 782.365 982.178 785.873 981.788 788.992C970.88 880.61 959.192 973.397 928.805 1058.39C925.688 1067.35 921.792 1076.71 915.169 1082.56C908.547 1088.41 899.586 1089.97 891.405 1090.36C873.484 1091.52 855.174 1089.58 838.811 1081.39C822.449 1073.2 807.255 1058.78 799.463 1039.67C795.178 1029.15 793.23 1017.84 790.892 1006.53C777.257 934.021 764.011 860.727 760.895 786.653C760.505 773.008 760.505 758.583 765.959 746.497C771.024 735.971 779.984 728.174 789.724 724.275C799.463 720.377 809.982 719.597 820.111 719.987C836.084 720.766 851.667 723.885 866.861 729.343" fill="#6A88C2"/>
<path d="M993.477 975.736C992.308 981.973 990.75 988.601 986.075 992.889C981.4 997.178 974.777 998.737 968.543 999.517C956.856 1000.69 944.779 999.907 933.481 997.568C931.923 997.178 930.364 996.788 929.196 996.008C928.027 994.839 927.248 992.889 927.248 991.33C926.468 987.042 926.858 982.363 927.248 977.685C930.754 925.833 934.26 874.372 938.156 822.52C939.325 806.536 940.493 787.822 952.571 775.737C964.648 763.651 979.062 769.499 985.685 783.534C993.477 800.688 994.256 823.69 996.593 842.403C998.931 863.066 1000.49 884.118 1000.49 905.171C1000.1 928.952 998.152 952.734 993.477 975.736Z" fill="#5661AE"/>
<path d="M842.318 1452.93C870.758 1452.93 899.197 1452.93 927.637 1452.93C929.195 1452.54 931.533 1451.76 933.091 1449.81C935.039 1447.47 935.039 1444.74 935.429 1443.57C936.208 1431.87 936.597 1425.25 935.039 1403.41C935.039 1401.07 934.649 1397.57 931.922 1395.62C929.585 1393.67 926.079 1394.84 924.131 1395.23C917.897 1396.79 909.327 1397.96 903.872 1397.57C897.639 1397.57 891.016 1396.01 882.056 1393.67C880.887 1393.28 878.16 1392.89 875.043 1393.28C871.537 1393.67 868.81 1395.23 866.472 1397.18C849.331 1409.65 844.266 1423.69 844.266 1423.69C839.591 1436.55 841.539 1447.86 842.318 1452.93Z" fill="#4C75C1"/>
<path d="M901.534 742.599C890.626 750.786 881.665 758.583 875.043 765.211C868.03 771.838 859.07 780.805 849.33 794.06C846.213 798.349 843.876 801.858 842.318 804.587C838.422 797.179 834.526 788.602 831.02 778.466C824.397 758.583 822.449 741.039 822.059 727.394C848.94 732.462 875.432 737.53 901.534 742.599Z" fill="white"/>
<path d="M863.745 1402.24C867.641 1402.63 871.537 1403.41 875.822 1403.8Z" fill="#FF971D"/>
<path d="M554.806 1163.65L533.379 1442.01L519.354 1445.13L529.872 1167.94L554.806 1163.65Z" fill="#1C85E8"/>
<path d="M723.106 1163.65L701.679 1442.01L688.044 1445.13L698.173 1167.94L723.106 1163.65Z" fill="#1C85E8"/>
<path d="M497.537 1123.1L479.227 1361.31L467.539 1364.43L476.5 1126.61L497.537 1123.1Z" fill="#5661AE"/>
<path d="M642.072 1123.1L623.372 1361.31L611.685 1364.43L620.645 1126.61L642.072 1123.1Z" fill="#5661AE"/>
<path d="M660.383 773.398C656.487 769.499 651.423 766.38 577.792 762.482C568.831 762.092 507.667 758.973 433.646 769.499C419.231 771.449 398.973 774.957 395.856 785.484C393.129 794.84 405.206 805.756 408.323 808.485C460.527 858.778 425.854 1118.04 492.863 1178.46C508.056 1192.11 526.367 1198.74 526.367 1198.74C552.469 1208.09 577.402 1201.47 597.66 1200.69C682.2 1197.96 726.223 1210.04 732.067 1193.67C735.573 1183.53 717.262 1168.33 701.679 1155.46C669.733 1128.95 651.812 1131.29 637.008 1118.04C619.867 1103.22 612.075 1073.2 645.19 924.274C667.006 828.368 681.031 794.061 660.383 773.398Z" fill="#5661AE"/>
<path d="M683.369 771.448C679.473 767.55 674.408 764.431 600.777 760.142C591.817 759.753 530.652 756.634 456.631 767.16C442.217 769.109 421.958 772.618 418.842 783.534C416.115 793.281 428.192 804.197 431.308 806.926C483.513 857.608 448.84 1119.59 515.848 1180.8C531.042 1194.84 549.352 1201.08 549.352 1201.08C575.454 1210.43 600.387 1203.8 620.646 1203.41C705.185 1200.69 749.208 1212.77 755.052 1196.01C758.558 1185.87 740.248 1170.28 724.664 1157.41C692.719 1130.51 674.798 1132.85 659.994 1119.59C642.852 1104.39 635.06 1074.37 668.175 923.884C689.992 826.809 704.017 791.721 683.369 771.448Z" fill="#1C85E8"/>
<path d="M727.391 837.725C724.274 845.912 720.378 854.099 712.976 861.117C696.224 876.711 665.837 883.339 636.618 884.508C652.201 877.101 663.11 866.185 670.122 854.879C677.135 843.183 679.862 830.707 681.03 818.232C674.018 836.165 654.539 852.15 628.826 860.727C639.345 851.37 643.241 839.284 644.02 827.588C644.41 815.893 641.293 804.197 638.566 792.501C631.164 760.532 625.71 727.394 638.176 695.815C642.072 686.069 647.916 676.322 658.045 668.915C668.174 661.118 682.978 656.049 698.172 656.439C743.364 657.999 728.56 689.577 728.56 708.681C728.56 736.361 734.403 764.041 734.403 791.721C734.403 807.316 732.845 822.91 727.391 837.725Z" fill="#465393"/>
<path d="M685.316 600.689C695.445 602.638 705.185 607.706 711.418 616.283C714.924 621.351 716.872 626.809 718.431 632.657C721.937 646.692 722.326 660.727 722.716 675.152C723.106 690.357 723.495 705.561 721.937 720.766C721.158 727.394 719.989 734.411 717.262 740.259C709.86 755.464 691.939 762.871 675.187 764.82C659.993 766.38 644.799 764.041 630.774 758.583C626.489 756.633 621.814 754.684 618.697 750.785C615.581 747.277 614.022 742.208 612.854 737.53C603.893 704.782 601.166 669.694 606.231 636.166C607.399 628.369 609.347 619.792 614.022 613.554C618.697 607.316 626.099 603.418 633.501 601.468C648.695 597.18 669.733 597.18 685.316 600.689Z" fill="#FACBB4"/>
<path d="M889.458 589.773C899.587 591.722 909.326 596.79 915.56 605.367C919.066 610.436 921.014 615.894 922.572 621.742C926.078 635.777 926.468 649.812 926.858 664.236C927.247 679.441 927.637 694.646 926.078 709.85C925.299 716.478 924.131 723.495 921.403 729.343C914.001 744.548 896.081 751.955 879.328 753.905C864.135 755.464 848.941 753.125 834.916 747.667C830.631 745.717 825.956 743.768 822.839 739.87C819.722 736.361 818.164 731.293 816.995 726.614C808.035 693.866 805.308 658.778 810.372 625.25C811.541 617.453 813.489 608.876 818.164 602.638C822.839 596.401 830.241 592.502 837.643 590.553C852.837 586.264 873.485 586.264 889.458 589.773Z" fill="#FACBB4"/>
<path d="M802.191 647.862C799.074 644.743 794.399 641.624 790.113 643.574C788.555 644.353 787.386 645.523 786.607 646.692C783.491 650.981 782.711 656.439 783.101 661.507C784.27 682.56 799.853 702.053 820.111 707.901C818.553 707.511 814.657 675.542 814.268 672.423C812.709 661.897 810.372 655.659 802.191 647.862Z" fill="#FACCB4"/>
<path d="M647.916 791.331C653.37 802.637 662.72 811.604 673.628 817.842C675.576 819.011 677.914 820.181 678.303 822.13C678.693 823.3 678.303 824.859 677.914 826.029C674.018 839.284 668.564 852.929 657.266 860.337C650.643 865.015 642.072 866.574 633.891 866.964C613.633 867.744 593.374 859.947 578.96 845.522C571.558 838.115 566.104 826.419 571.947 818.232C577.401 810.044 589.479 810.824 598.049 805.756C607.01 800.688 610.906 789.772 612.854 780.025C615.191 768.719 616.36 757.413 615.97 745.717C615.97 744.548 615.97 742.988 616.749 741.819C617.529 740.649 618.697 740.259 619.866 739.869C625.32 738.31 630.774 740.259 635.449 743.768C644.02 750.396 644.41 755.074 643.631 764.821C642.072 773.787 644.02 783.144 647.916 791.331Z" fill="#FACCB4"/>
<path d="M662.721 810.434C661.162 812.384 651.423 827.198 632.723 829.148C616.75 830.707 601.167 822.52 592.596 808.095C584.025 807.705 569.221 807.705 552.469 813.553C536.496 819.011 525.198 827.198 518.575 832.657C518.575 850.59 520.912 875.151 529.873 902.832C532.6 911.409 542.729 927.393 552.469 953.124C557.533 966.769 558.702 971.837 559.092 977.295C559.871 991.33 555.196 1000.3 546.625 1020.96C542.729 1030.71 536.496 1045.52 529.483 1064.23C536.106 1068.91 571.948 1094.25 617.919 1084.12C642.073 1079.05 658.825 1066.18 667.006 1058.39C663.889 1045.52 660.383 1029.93 656.877 1011.99C652.981 993.669 651.812 987.042 653.371 977.685C655.319 965.599 661.162 958.972 669.733 946.106C677.525 934.41 697.004 904.391 705.185 871.643C707.133 863.456 709.471 850.98 709.471 834.996C703.627 830.317 696.614 825.639 688.433 820.961C678.694 817.062 670.123 813.163 662.721 810.434Z" fill="white"/>
<path d="M651.422 1012.77C651.811 982.753 651.811 958.582 651.811 942.987C651.422 900.492 649.863 882.559 658.824 860.337C661.94 852.539 670.122 831.097 682.588 827.978C697.782 824.079 709.08 849.81 712.197 856.828C721.157 877.101 718.43 896.594 714.534 950.005C713.365 966.769 711.417 994.839 709.08 1030.71C689.601 1024.47 670.511 1018.62 651.422 1012.77Z" fill="#FF971D"/>
<path d="M592.984 804.976C582.076 805.756 566.493 808.095 548.572 815.113C532.209 821.35 524.418 824.859 518.574 833.046C506.107 849.81 516.237 876.321 524.028 896.594C529.872 912.578 533.378 914.917 541.17 935.19C547.014 951.174 551.299 961.311 552.468 973.007C554.416 990.94 547.793 999.517 535.326 1034.6C531.041 1046.69 525.197 1064.23 520.132 1086.46C544.287 1076.71 568.83 1066.96 592.984 1057.22C597.659 1020.57 600.776 978.855 600.776 933.241C601.166 885.678 597.659 842.793 592.984 804.976Z" fill="#FFD76F"/>
<path d="M664.082 810.824C662.492 824.08 659.71 843.573 655.735 866.965C646.194 924.274 639.834 941.428 636.654 971.058C634.269 994.839 633.474 1029.15 642.219 1072.03C652.555 1069.69 662.492 1067.74 672.828 1065.4C668.058 1043.96 664.877 1026.42 662.492 1013.16C658.12 987.822 657.722 980.414 659.71 971.837C662.492 958.582 667.66 956.633 681.971 934.8C696.679 912.188 712.579 887.237 712.977 857.218C712.977 848.251 711.784 840.844 710.989 836.165C704.231 831.097 697.989 826.029 687.654 820.571C680.498 816.672 670.84 813.164 664.082 810.824Z" fill="#FFD76F"/>
<path d="M532.049 987.105C539.389 960.918 545.569 940.404 549.819 926.438C561.407 889.775 567.202 874.499 564.111 853.113C562.952 845.693 559.862 825.616 547.501 819.942C532.822 813.395 514.28 833.035 509.258 838.709C494.965 854.422 492.261 871.444 482.604 919.018C479.514 933.857 474.492 958.299 467.539 990.161C489.171 988.851 510.417 987.978 532.049 987.105Z" fill="#FFD76F"/>
<path d="M590.648 656.049C587.531 652.93 582.856 649.811 578.57 651.761C577.012 652.54 575.843 653.71 575.064 654.879C571.948 659.168 571.168 664.626 571.558 669.694C572.727 690.747 588.31 710.24 608.568 716.088C607.01 715.698 603.114 683.729 602.725 680.61C601.166 670.084 598.829 663.846 590.648 656.049Z" fill="#FACCB4"/>
<path d="M580.128 698.934C572.726 731.682 570.389 765.6 564.935 798.738C562.987 810.434 560.649 822.52 554.026 832.656C548.962 840.843 541.17 847.471 533.768 853.709C540.391 856.438 547.793 855.268 554.416 852.539C561.039 849.81 566.493 845.132 571.947 840.454C570.778 844.742 569.22 849.42 568.051 853.709C571.168 852.149 574.285 850.2 577.012 848.641C600.387 833.436 612.464 805.366 616.749 777.686C621.035 750.006 618.307 721.936 619.476 693.866C620.255 676.712 622.203 659.558 625.71 642.794C627.657 633.047 629.995 622.911 627.657 613.164C625.71 604.587 613.243 622.911 611.295 625.64C605.841 632.657 601.555 640.455 597.66 648.642C589.478 664.236 584.024 681.39 580.128 698.934Z" fill="#465393"/>
<path d="M727.39 1141.82C726.221 1130.9 725.442 1119.98 727.39 1109.46C729.338 1098.93 734.403 1088.41 743.753 1082.56C747.259 1080.22 751.155 1078.66 755.44 1079.44C759.726 1079.83 763.232 1082.56 766.738 1085.29C782.711 1098.93 794.788 1117.26 805.307 1135.19C844.265 1200.3 873.873 1270.47 901.923 1341.04C927.636 1347.27 954.907 1346.49 980.619 1340.65C971.659 1361.7 952.959 1378.07 931.142 1384.31C921.013 1387.43 903.092 1396.79 901.144 1400.29C899.196 1404.19 895.69 1406.53 891.794 1408.09C890.236 1408.48 888.678 1409.26 887.119 1408.87C885.171 1408.48 883.223 1406.92 882.055 1404.97C873.484 1393.28 876.6 1376.51 871.146 1362.87C868.809 1357.02 864.523 1351.95 860.628 1346.88C821.28 1297.76 782.711 1247.86 750.376 1194.06C739.467 1176.9 729.338 1161.7 727.39 1141.82Z" fill="#E3AE96"/>
<path d="M942.44 1344.15C942.44 1346.88 942.44 1351.56 944.388 1356.24C946.726 1362.48 950.232 1366.77 952.18 1368.72C947.894 1371.45 943.219 1374.17 938.934 1376.9C936.986 1374.17 933.869 1369.5 932.311 1362.87C930.363 1354.68 931.142 1347.66 931.921 1344.15C935.428 1344.15 938.934 1344.15 942.44 1344.15Z" fill="#5661AE"/>
<path d="M961.141 1343.38C958.413 1356.63 952.57 1363.26 949.064 1366.38C937.376 1376.9 919.845 1378.46 909.716 1379.24C903.872 1379.63 897.639 1379.63 888.289 1382.36C882.445 1383.92 877.77 1385.87 875.043 1387.43C875.822 1391.33 877.38 1397.96 881.666 1404.97C886.341 1412.77 892.184 1417.45 895.691 1419.4C899.586 1415.89 905.43 1410.43 912.832 1404.97C919.066 1400.29 924.13 1396.79 932.311 1392.11C963.089 1373 966.595 1373.39 972.438 1366.38C976.724 1361.31 982.178 1353.12 984.126 1338.7C976.334 1340.26 968.932 1341.82 961.141 1343.38Z" fill="#5661AE"/>
<path d="M710.638 1141.82C716.872 1132.85 722.715 1123.88 731.286 1116.87C739.467 1109.85 750.376 1105.17 760.895 1106.34C765.18 1106.73 769.076 1108.29 771.803 1111.41C774.92 1114.53 775.699 1118.81 776.478 1123.1C780.374 1144.16 777.647 1165.21 774.53 1186.26C762.842 1261.11 741.415 1334.41 717.651 1406.53C733.624 1427.98 755.051 1444.35 778.426 1456.82C758.167 1466.96 733.234 1467.74 712.586 1458.77C702.847 1454.49 682.978 1450.2 679.082 1452.15C675.186 1453.71 670.901 1453.32 666.615 1452.15C665.057 1451.76 663.499 1450.98 662.72 1449.81C661.551 1448.25 661.161 1445.91 661.161 1443.57C662.33 1429.14 675.186 1418.23 679.472 1404.19C681.42 1397.96 681.42 1391.72 681.42 1385.09C682.199 1322.32 684.536 1259.16 693.886 1196.79C697.782 1176.9 699.73 1158.58 710.638 1141.82Z" fill="#FACCB4"/>
<path d="M747.259 1434.99C745.311 1436.94 742.584 1440.45 741.025 1445.52C738.688 1451.76 739.078 1457.21 739.078 1460.33C734.013 1459.55 728.559 1458.77 723.494 1457.99C723.494 1454.49 724.273 1449.03 727.39 1442.79C730.896 1434.99 736.35 1430.31 739.078 1427.98C741.805 1430.7 744.532 1433.04 747.259 1434.99Z" fill="#5661AE"/>
<path d="M762.063 1446.3C751.544 1454.49 742.584 1456.05 737.909 1456.44C722.325 1457.21 707.911 1447.08 699.34 1441.23C694.275 1437.72 689.601 1433.82 681.03 1429.92C675.576 1427.59 670.511 1426.03 667.394 1425.25C665.446 1428.75 662.33 1434.6 661.161 1442.79C659.992 1451.76 661.551 1459.16 662.719 1463.06C667.784 1462.67 675.575 1462.28 685.315 1462.67C693.107 1463.06 699.34 1463.84 708.69 1465.01C744.532 1470.08 746.869 1472.42 755.83 1470.86C762.063 1469.69 771.803 1466.57 782.321 1457.21C775.698 1454.1 769.075 1450.2 762.063 1446.3Z" fill="#5661AE"/>
<path d="M857.512 1406.53C859.849 1406.53 863.356 1406.53 866.862 1407.7C875.043 1410.04 880.108 1415.11 882.056 1417.84" stroke="white" stroke-miterlimit="10" stroke-linecap="round"/>
<path d="M851.668 1412.38C854.006 1412.38 857.512 1412.38 861.018 1413.55C869.199 1415.89 874.264 1420.96 876.212 1423.69" stroke="white" stroke-miterlimit="10" stroke-linecap="round"/>
<path d="M863.745 1400.3C866.083 1400.3 869.589 1400.3 873.095 1401.46C881.277 1403.8 886.341 1408.87 888.289 1411.6" stroke="white" stroke-miterlimit="10" stroke-linecap="round"/>
<path d="M791.282 1402.63C792.841 1403.8 795.178 1405.75 797.126 1408.48C801.412 1414.72 801.412 1420.96 801.022 1423.3" stroke="white" stroke-miterlimit="10" stroke-linecap="round"/>
<path d="M800.243 1397.96C801.802 1399.13 804.139 1401.07 806.087 1403.8C810.373 1410.04 810.373 1416.28 809.983 1418.62" stroke="white" stroke-miterlimit="10" stroke-linecap="round"/>
<path d="M780.764 1406.14C782.322 1407.31 784.66 1409.26 786.608 1411.99C790.893 1418.23 790.893 1424.47 790.503 1426.81" stroke="white" stroke-miterlimit="10" stroke-linecap="round"/>
<path d="M706.353 703.222C704.417 703.222 702.847 700.43 702.847 696.985C702.847 693.54 704.417 690.747 706.353 690.747C708.29 690.747 709.859 693.54 709.859 696.985C709.859 700.43 708.29 703.222 706.353 703.222Z" fill="#1F2D49"/>
<path d="M670.902 703.222C668.965 703.222 667.396 700.43 667.396 696.985C667.396 693.54 668.965 690.747 670.902 690.747C672.838 690.747 674.408 693.54 674.408 696.985C674.408 700.43 672.838 703.222 670.902 703.222Z" fill="#1F2D49"/>
<path d="M689.212 695.815C689.991 699.324 690.77 703.223 691.939 706.731C693.108 710.24 694.276 713.749 696.224 717.258C697.393 718.817 698.172 720.376 698.172 721.546C698.172 722.326 697.783 722.716 697.393 723.105C697.004 723.495 696.224 724.275 695.445 724.665C692.718 727.004 689.601 728.953 686.874 731.682C686.874 731.682 686.874 731.682 686.874 732.072C690.381 730.903 693.887 729.343 697.003 727.394C697.783 727.004 698.562 726.224 699.341 725.445C700.12 724.665 700.51 723.106 700.51 721.936C700.51 719.597 698.562 717.647 697.783 716.478C695.835 713.749 694.276 710.24 692.718 707.121C691.939 702.833 690.77 699.324 689.212 695.815C689.601 695.815 689.601 695.815 689.212 695.815Z" fill="#1F2D49"/>
<path d="M699.341 744.158C693.497 742.598 688.043 741.429 682.589 739.48C677.134 737.92 672.07 735.581 666.226 733.632C670.901 737.53 676.355 740.259 681.809 742.209C687.653 744.158 693.497 744.938 699.341 744.158C699.73 744.548 699.73 744.548 699.341 744.158C699.73 744.158 699.73 744.548 699.341 744.158Z" fill="#1F2D49"/>
<path d="M886.341 745.717C881.666 744.158 877.77 742.988 873.485 741.819C869.199 740.649 865.303 739.48 860.628 738.31C864.524 741.039 868.42 742.988 873.095 744.548C876.991 745.717 881.666 746.107 886.341 745.717C886.341 745.717 886.341 746.107 886.341 745.717Z" fill="#1F2D49"/>
<path d="M716.482 674.763C716.872 673.203 716.482 671.644 715.703 670.474C714.924 669.304 714.144 668.525 712.976 667.745C711.807 667.355 710.249 666.965 709.08 666.965C707.911 666.965 706.353 667.745 705.184 668.915C705.184 668.915 705.184 668.915 705.184 669.305C707.132 669.305 709.469 670.084 711.028 670.864C712.976 672.034 714.924 673.593 716.482 674.763C716.482 675.152 716.092 675.152 716.482 674.763C716.482 675.152 716.482 675.152 716.482 674.763Z" fill="#1F2D49"/>
<path d="M684.147 667.745C682.589 666.186 681.031 665.406 679.083 665.406C677.135 665.016 675.187 665.406 673.629 666.186C672.07 666.966 670.122 667.745 668.954 669.305C667.785 670.864 667.006 672.424 667.006 674.373C669.343 672.034 671.681 670.474 674.797 669.305C677.914 668.135 681.031 667.745 684.147 667.745C684.147 668.135 684.147 668.135 684.147 667.745Z" fill="#1F2D49"/>
<path d="M899.698 704.443C898.67 701.155 899.335 698.021 901.183 697.442C903.031 696.863 905.363 699.06 906.391 702.348C907.419 705.636 906.754 708.77 904.906 709.349C903.057 709.927 900.726 707.731 899.698 704.443Z" fill="#1F2D49"/>
<path d="M856.958 709.837C855.133 709.188 854.59 706.03 855.744 702.784C856.898 699.538 859.312 697.433 861.137 698.083C862.961 698.732 863.505 701.89 862.351 705.136C861.197 708.382 858.783 710.487 856.958 709.837Z" fill="#1F2D49"/>
<path d="M885.561 705.952C885.172 712.189 885.172 718.427 886.73 724.665C887.12 726.224 887.509 727.394 887.509 728.564C887.509 729.733 887.12 730.123 885.951 730.903C883.613 732.462 880.886 734.022 878.549 735.971C878.549 735.971 878.549 735.971 878.549 736.361C881.666 735.581 884.393 734.801 887.509 733.242C888.288 732.852 889.068 732.462 889.847 731.293C890.626 730.513 890.626 729.343 890.626 728.174C890.626 726.224 889.457 724.665 889.068 723.495C887.899 720.766 887.509 717.647 887.12 714.529C886.341 711.8 885.951 709.07 885.561 705.952C885.561 705.562 885.951 705.562 885.561 705.952C885.561 705.562 885.561 705.562 885.561 705.952Z" fill="#1F2D49"/>
<path d="M908.546 684.119C908.936 682.56 908.546 681.001 907.767 679.831C906.988 678.661 906.209 677.882 905.04 677.102C903.871 676.712 902.313 676.322 901.144 676.322C899.976 676.322 898.417 677.102 897.248 678.272C897.248 678.272 897.248 678.272 897.248 678.661C899.196 678.661 901.534 679.441 903.092 680.221C905.04 681.39 906.598 682.56 908.546 684.119C908.157 684.509 908.157 684.509 908.546 684.119C908.157 684.119 908.157 684.119 908.546 684.119Z" fill="#1F2D49"/>
<path d="M867.641 679.831C866.082 678.272 864.524 677.492 862.576 677.492C860.628 677.102 858.68 677.492 857.122 678.272C855.564 679.051 853.616 679.831 852.447 681.39C851.278 682.95 850.499 684.509 850.499 686.459C852.836 684.119 855.174 682.56 858.291 681.39C861.407 680.221 864.524 679.831 867.641 679.831C867.641 680.221 867.641 680.221 867.641 679.831Z" fill="#1F2D49"/>
<path d="M785.438 1101.27C768.686 1092.69 746.48 1081.78 719.209 1072.42C712.976 1070.08 686.095 1061.12 647.916 1053.32C587.92 1041.62 565.714 1047.08 554.416 1050.98C538.053 1056.44 531.041 1062.68 529.093 1064.62C511.172 1082.17 505.718 1113.75 517.795 1134.8C524.028 1145.33 532.599 1150 549.741 1158.58C557.532 1162.48 584.414 1175.73 639.345 1181.97C652.98 1183.53 672.07 1185.09 694.666 1185.09C696.614 1174.96 701.678 1157.41 714.924 1140.26C740.247 1108.68 776.088 1102.44 785.438 1101.27Z" fill="#1F2D49"/>
<path d="M494.42 1080.61L332.743 1577.68H306.251L447.28 1077.1L494.42 1080.61Z" fill="#DFEAFF"/>
<path d="M345.21 1031.49L217.037 1424.47H196L307.81 1028.76L345.21 1031.49Z" fill="#DFEAFF"/>
<path d="M976.724 1091.91L1138.4 1588.99H1165.28L1023.86 1088.41L976.724 1091.91Z" fill="#DFEAFF"/>
<path d="M1016.07 1042.01L1144.24 1434.6H1165.28L1053.47 1039.28L1016.07 1042.01Z" fill="#DFEAFF"/>
<path d="M1003.99 1033.44H233.399L379.493 1128.95H1223.33L1003.99 1033.44Z" fill="#5CA4E6"/>
<path d="M1003.99 1015.5H233.399L379.493 1111.02H1223.33L1003.99 1015.5Z" fill="#DFEAFF"/>
<path d="M233.399 1015.5V1033.44L261.839 1034.21L233.399 1015.5Z" fill="#5CA4E6"/>
<path d="M1223.33 1111.02V1128.95L1178.92 1111.02H1223.33Z" fill="#5CA4E6"/>
<path d="M1025.14 888.691C1024.36 888.721 870.782 888.006 870.782 888.006L817.862 1045.55L967.549 1046.42L1025.14 888.691Z" fill="#5CA4E6"/>
<path d="M1045.43 888.897C1044.65 888.928 891.071 888.212 891.071 888.212L835.415 1053.77L987.839 1046.63L1045.43 888.897Z" fill="#77B6F1"/>
<path d="M835.302 1054.32L721.809 1045.43C721.809 1045.43 721.369 1035.34 731.688 1030.49C742.007 1025.64 841.501 1035.49 841.501 1035.49L835.302 1054.32Z" fill="#5CA4E6"/>
<path d="M720.379 628.759C728.17 644.353 732.066 662.287 731.677 679.831C731.677 681 731.287 682.56 730.118 682.949C728.949 683.339 728.17 682.56 727.391 681.78C723.495 678.271 721.158 673.593 718.431 669.304C714.145 662.677 709.47 656.439 704.016 650.981C700.51 647.472 696.614 644.353 693.497 640.455C690.381 636.556 688.433 631.878 688.433 626.809C688.433 622.521 690.381 618.622 693.108 615.503C698.172 609.266 702.458 609.266 708.691 613.554C713.756 617.063 717.262 622.911 720.379 628.759Z" fill="#465393"/>
<path d="M595.712 632.658C604.283 613.165 622.983 597.18 645.189 592.892C654.539 591.332 664.279 591.722 674.018 592.502C683.758 593.282 693.497 594.451 703.237 596.4C704.795 596.79 705.964 596.79 707.133 597.96C707.912 598.74 708.301 599.909 708.691 601.079C711.808 614.724 708.691 629.539 702.068 642.014C695.445 654.88 685.706 665.796 674.408 675.542C655.708 691.917 633.501 704.392 609.347 712.189C599.218 715.308 591.426 716.868 589.479 705.562C587.531 695.035 588.699 682.56 588.699 671.644C589.089 658.388 590.647 645.133 595.712 632.658Z" fill="#465393"/>
<path d="M525.94 977.281C544.73 981.871 561.925 990.518 578.802 999.975C588.667 1005.36 598.601 1011.52 609.605 1012.11C617.857 1012.55 626.61 1009.81 634.931 1011.03C643.253 1012.25 651.109 1017.03 656.421 1023.99C661.699 1030.57 664.786 1038.9 665.933 1047.41C658.069 1046.94 650.17 1046.07 642.305 1045.6C627.74 1044.55 613.175 1043.49 598.576 1042.05C577.698 1040.39 556.899 1035.19 536.237 1031.55C514.342 1027.24 492.939 1024.05 471.647 1017.73C468.017 1016.49 463.998 1015.28 462.136 1011.92C460.765 1009.69 460.911 1006.94 461.058 1004.19C461.601 997.095 463.274 989.51 466.602 982.951C469.612 977.204 472.716 976.928 478.856 975.599C494.594 972.241 510.711 973.156 525.94 977.281Z" fill="#FACCB4"/>
<path d="M848.162 581.196C845.435 584.315 844.656 588.213 843.487 596.01C842.708 599.519 840.76 613.554 845.824 631.098C847.383 636.556 848.162 639.285 850.11 642.404C855.954 650.591 864.914 652.93 874.264 655.659C878.939 657.219 886.341 658.778 895.301 659.168C892.185 658.388 886.341 656.829 880.497 651.761C874.654 646.692 872.316 641.234 871.147 638.505C874.264 640.845 878.549 644.353 884.783 647.472C894.522 652.151 902.703 653.32 912.053 654.88C919.845 656.049 930.753 656.829 943.61 655.659C946.337 655.269 948.674 654.49 951.401 654.1C949.453 642.014 943.22 617.843 922.962 597.18C916.339 590.552 903.872 578.077 884.393 574.568C879.329 573.398 857.512 569.5 848.162 581.196Z" fill="#D26425"/>
<path d="M855.563 610.046C860.628 631.488 851.667 649.422 849.719 653.32C837.642 677.102 814.657 685.289 809.203 687.238C807.255 684.119 804.528 679.831 801.8 674.373C798.294 666.965 789.723 648.252 794.398 625.25C795.178 620.962 799.463 603.028 814.657 589.383C820.5 583.925 826.734 578.467 834.136 579.247C848.94 581.586 854.784 606.927 855.563 610.046Z" fill="#D26425"/>
<g clip-path="url(#clip0_130_124)">
<path d="M666.226 1041.9C664.821 1039.29 663.096 1037.49 660.595 1035.75C658.482 1033.98 655.663 1033.06 653.265 1032.49C650.48 1031.96 647.729 1031.81 645.013 1032.05C642.296 1032.29 639.649 1033.31 637.459 1035.07C637.459 1035.07 637.459 1035.07 637.493 1035.46C642.538 1035.01 647.617 1034.95 652.412 1036.09C657.206 1037.23 661.682 1039.18 666.226 1041.9C666.261 1042.29 665.873 1042.33 666.226 1041.9Z" fill="#E56542"/>
<path d="M662.44 1030.11C661.457 1027.85 659.31 1025.69 656.843 1024.34C654.731 1022.57 651.911 1021.65 649.513 1021.08C646.728 1020.55 643.977 1020.4 641.261 1020.64C638.544 1020.88 635.897 1021.9 633.707 1023.66C633.707 1023.66 633.707 1023.66 633.741 1024.05C638.751 1023.21 643.865 1023.54 648.66 1024.68C653.454 1025.82 658.318 1027.74 662.44 1030.11C662.474 1030.5 662.474 1030.5 662.44 1030.11C662.474 1030.5 662.474 1030.5 662.44 1030.11Z" fill="#E56542"/>
</g>
<g clip-path="url(#clip1_130_124)">
<path d="M673.629 623.69L661.941 639.675C658.045 644.743 654.15 650.201 649.864 654.879C645.968 659.948 641.293 664.626 637.008 669.694C634.67 672.033 632.722 674.372 630.385 676.712C628.047 679.051 625.71 681.39 623.372 684.119V684.509C623.372 684.509 623.372 684.509 623.762 684.509C634.67 676.712 644.41 667.745 652.981 657.608C661.552 647.472 668.564 636.166 673.629 623.69C674.018 623.69 674.018 623.69 673.629 623.69Z" fill="#94B9FF"/>
<path d="M658.825 624.47C657.267 626.809 655.708 629.149 654.15 631.488C652.592 633.827 651.033 636.166 649.475 638.115C645.969 642.794 642.852 647.082 639.346 651.371C635.84 655.659 632.333 659.558 628.438 663.846C626.49 665.796 624.542 667.745 622.594 669.694C620.646 671.643 618.698 673.593 616.75 675.542C616.75 675.542 616.75 675.542 616.75 675.932C626.1 669.304 634.281 661.897 641.294 653.32C648.696 644.353 654.54 634.996 658.825 624.47C659.215 624.47 659.215 624.47 658.825 624.47C659.215 624.47 659.215 624.47 658.825 624.47Z" fill="#94B9FF"/>
</g>
<g clip-path="url(#clip2_130_124)">
<path d="M861.295 607.923L877.324 615.096C882.541 617.286 887.947 619.778 893.254 621.493C898.471 623.683 904.055 625.225 909.55 627.242C912.342 628.013 914.857 628.958 917.649 629.729C920.441 630.5 923.233 631.271 926.213 632.343L926.401 632.645C926.401 632.645 926.401 632.645 926.124 632.818C914.599 631.633 903.342 629.024 892.352 624.99C881.362 620.956 870.918 615.325 861.295 607.923C861.018 608.096 861.018 608.096 861.295 607.923Z" fill="#FFDACC"/>
<path d="M872.207 601.948C874.444 603.065 876.682 604.182 878.919 605.299C881.157 606.417 883.394 607.534 885.444 608.35C890.196 610.411 894.483 612.344 899.047 614.104C903.611 615.864 907.987 617.322 912.829 618.909C915.156 619.551 917.482 620.194 919.809 620.837C922.136 621.479 924.462 622.122 926.789 622.764C926.789 622.764 926.789 622.764 926.977 623.066C917.125 622.093 907.729 619.998 898.601 616.478C889.007 612.83 880.335 608.187 872.207 601.948C871.93 602.121 871.93 602.121 872.207 601.948C871.93 602.121 871.93 602.121 872.207 601.948Z" fill="#FFDACC"/>
</g>
<ellipse rx="11.6875" ry="3.89862" transform="matrix(-1 0 0 1 658.436 713.359)" fill="#FCBA9F"/>
<ellipse rx="9.73958" ry="3.89862" transform="matrix(-1 0 0 1 711.028 713.359)" fill="#FCBA9F"/>
<ellipse rx="10.593" ry="4.42912" transform="matrix(-0.964765 -0.263114 -0.262764 0.96486 846.698 716.521)" fill="#FCBA9F"/>
<ellipse rx="10.593" ry="4.42912" transform="matrix(0.964765 -0.263114 0.262764 0.96486 908.071 716.521)" fill="#FCBA9F"/>
<defs>
<clipPath id="clip0_130_124">
<rect width="30.7772" height="23.3916" fill="white" transform="matrix(-0.996066 0.0886185 0.0884929 0.996077 664.156 1018.6)"/>
</clipPath>
<clipPath id="clip1_130_124">
<rect width="57.2687" height="61.2083" fill="white" transform="matrix(-1 0 0 1 674.019 623.69)"/>
</clipPath>
<clipPath id="clip2_130_124">
<rect width="48.052" height="55.8071" fill="white" transform="matrix(0.848236 -0.529619 0.529074 0.848576 861.018 608.096)"/>
</clipPath>
</defs>
</svg>
