<svg width="208" height="415" viewBox="0 0 208 415" fill="none" xmlns="http://www.w3.org/2000/svg">
<path fill-rule="evenodd" clip-rule="evenodd" d="M207.5 415C92.9009 415 0 322.099 0 207.5C0 92.9009 92.9009 0 207.5 0V415Z" fill="#FF9D2E"/>
<path d="M161.798 365.7H144.7V393.363H161.798V365.7Z" fill="#BC775C"/>
<path d="M163.744 407.82C147.897 407.82 132.05 407.82 116.203 407.82C115.647 407.542 114.396 406.569 113.701 404.901C112.867 402.816 113.701 401.008 114.535 400.035C116.064 397.95 118.566 397.95 123.015 396.699C123.293 396.56 129.965 394.197 143.171 389.332C143.588 389.193 144.7 388.776 145.951 388.915C148.036 389.193 149.148 390.722 149.982 391.278C153.458 394.058 159.713 388.22 163.049 390.027C165.134 391.139 164.995 394.475 164.856 400.174C164.439 403.511 164.022 406.013 163.744 407.82Z" fill="#5661AE"/>
<path d="M127.88 394.056C128.575 394.473 129.548 395.168 130.243 396.141C131.911 398.365 131.911 400.589 131.911 401.423" stroke="white" stroke-miterlimit="10" stroke-linecap="round"/>
<path d="M131.495 392.389C132.19 392.806 133.163 393.501 133.858 394.474C135.526 396.698 135.526 398.922 135.526 399.756" stroke="white" stroke-miterlimit="10" stroke-linecap="round"/>
<path d="M123.432 395.309C124.127 395.726 125.1 396.421 125.795 397.394C127.463 399.618 127.463 401.842 127.463 402.676" stroke="white" stroke-miterlimit="10" stroke-linecap="round"/>
<path d="M172.766 345.321L161.982 358.591L183.451 376.038L194.235 362.768L172.766 345.321Z" fill="#BC775C"/>
<path d="M206.698 370.426C196.689 382.798 186.681 395.031 176.672 407.402C176.116 407.68 174.587 408.097 172.919 407.541C170.834 406.846 169.861 405.039 169.583 403.788C168.888 401.286 170.417 399.34 172.363 395.17C172.502 394.892 174.726 388.219 179.452 374.874C179.591 374.457 180.008 373.345 180.842 372.511C182.372 371.121 184.179 371.121 185.152 370.982C189.461 370.009 188.905 361.53 192.38 360.14C194.604 359.306 196.967 361.391 201.416 365.144C203.779 367.09 205.586 369.036 206.698 370.426Z" fill="#5661AE"/>
<path d="M175.143 385.161C175.838 384.883 176.95 384.605 178.201 384.605C180.981 384.605 182.788 386.135 183.344 386.691" stroke="white" stroke-miterlimit="10" stroke-linecap="round"/>
<path d="M176.116 381.269C176.811 380.991 177.923 380.713 179.174 380.713C181.954 380.713 183.761 382.242 184.317 382.798" stroke="white" stroke-miterlimit="10" stroke-linecap="round"/>
<path d="M173.336 389.332C174.031 389.054 175.143 388.776 176.394 388.776C179.174 388.776 180.981 390.305 181.537 390.861" stroke="white" stroke-miterlimit="10" stroke-linecap="round"/>
<path d="M47.6721 69.1952C46.421 69.4733 45.726 70.5853 44.4749 72.8095C43.9189 73.7825 43.3628 75.0336 42.6678 76.5627C39.3316 70.3073 34.0493 65.581 30.435 66.5541C29.045 66.9711 27.9329 68.3612 26.9598 69.6123C26.5428 70.0293 23.6236 74.0605 24.0407 78.7868C24.3187 82.401 27.0988 85.3202 32.5202 91.1586C35.1613 93.9387 37.5245 96.1629 39.0536 97.553C41.2777 96.3019 43.5018 95.1898 45.865 93.9387C46.004 92.8267 46.282 91.1586 46.143 89.3515C46.282 86.7103 46.56 84.6252 46.838 82.8181C47.8111 76.9797 49.2012 74.3386 49.6182 73.5045C50.1742 72.3924 50.8693 71.5584 51.2863 71.0024C50.8693 70.5853 49.3402 68.9172 47.6721 69.1952Z" fill="#BC775C"/>
<path d="M24.8746 75.1729C26.5427 76.0069 27.7938 77.258 28.9059 78.6481C30.0179 80.0381 30.991 81.4282 31.547 83.2353L28.2108 79.2041L24.8746 75.1729Z" fill="#93523E"/>
<path d="M27.0989 71.2791C28.906 72.3911 30.4351 73.9202 31.6862 75.4493C32.9372 77.1174 34.1883 78.7855 34.8834 80.7316L30.9911 76.0053L27.0989 71.2791C26.9599 71.2791 26.9599 71.2791 27.0989 71.2791C26.9599 71.1401 27.0989 71.1401 27.0989 71.2791Z" fill="#93523E"/>
<path d="M30.0181 67.9443C32.1032 69.3344 33.7713 71.1415 35.3004 72.9486C36.8295 74.7558 38.2196 76.7019 39.1926 79.065L34.6053 73.6437L30.0181 67.9443Z" fill="#93523E"/>
<path d="M41.973 79.3425C40.9999 81.2887 40.3049 83.0958 40.1659 84.9029C40.0269 85.8759 40.1659 86.849 40.3049 87.822C40.4439 88.7951 40.7219 89.7682 40.9999 90.8802C39.7489 89.0731 39.0538 86.988 39.1928 84.9029C39.3318 82.8177 40.3049 80.7326 41.973 79.3425C41.973 79.2035 41.973 79.2035 41.973 79.3425Z" fill="#93523E"/>
<path d="M185.568 346.377C174.726 336.786 156.377 321.078 142.476 308.706L145.117 345.265C153.179 351.66 161.242 358.054 169.304 364.448C174.587 358.471 180.008 352.494 185.568 346.377Z" fill="#1F2D49"/>
<path d="M124.127 291.052C122.598 286.464 144.422 223.493 153.736 193.607C136.36 194.719 119.401 192.078 102.024 193.19C98.4102 222.103 94.379 253.38 90.7648 282.155C90.2088 284.518 89.2357 289.94 91.1818 296.334C93.1279 302.728 96.8812 306.76 98.6883 308.428C111.199 318.436 123.849 328.306 136.36 338.314V303.145C129.409 297.029 124.544 292.303 124.127 291.052Z" fill="#1F2D49"/>
<path d="M136.22 303.284V338.453C139.14 340.816 142.059 343.18 144.978 345.404L142.337 308.845C140.252 306.759 138.166 304.952 136.22 303.284Z" fill="#0D1B33"/>
<path d="M134.552 193.606L141.364 371.259H165.412L173.892 193.606H134.552Z" fill="#1F2D49"/>
<path d="M101.19 93.7992L127.88 85.5977H143.171L176.533 95.1892V195.692H101.19V93.7992Z" fill="white"/>
<path d="M149.982 85.459C146.785 93.9385 143.449 102.279 140.252 110.759C142.893 130.637 144.005 154.407 141.503 180.819C140.53 190.271 139.279 199.168 137.75 207.508C144.144 207.925 151.234 208.064 159.018 207.786C165.829 207.508 172.085 206.813 177.645 205.84C179.174 184.572 179.591 160.385 177.645 133.973C176.533 119.099 174.726 105.198 172.641 92.2704C165.134 90.0463 157.489 87.6831 149.982 85.459Z" fill="#5661AE"/>
<path d="M164.161 177.901C161.242 184.017 159.574 190.69 158.462 197.362C157.767 201.254 157.211 205.425 154.848 208.622C153.041 210.985 150.399 212.653 148.87 215.294C147.202 217.796 146.924 221.133 147.48 224.052C148.175 226.971 149.704 229.751 151.789 231.975C153.458 229.751 154.987 227.388 156.655 225.164C159.574 220.994 162.632 216.684 165.551 212.514C169.861 206.537 173.197 199.586 176.672 193.053C180.564 186.102 184.456 179.569 187.376 172.341C187.932 171.09 188.349 169.699 187.932 168.448C187.654 167.614 186.82 166.919 185.986 166.363C183.9 164.973 181.398 163.722 178.896 163.166C176.672 162.749 175.838 163.444 174.17 164.834C169.861 168.309 166.524 172.897 164.161 177.901Z" fill="#BC775C"/>
<path d="M150.538 230.586C150.677 229.474 150.816 227.945 151.511 226.415C152.623 223.913 154.153 222.245 155.126 221.411" fill="#93523E"/>
<path d="M148.175 226.97C148.314 225.858 148.453 224.329 149.148 222.8C150.26 220.298 151.79 218.63 152.763 217.796" fill="#93523E"/>
<path d="M102.859 90.6024C102.442 90.4634 101.469 90.4634 97.8543 93.9386C91.3209 100.055 87.8457 106.171 85.0655 110.481C82.8414 114.095 79.3662 118.96 74.6399 124.659C65.8824 112.427 56.9858 100.194 48.2283 87.8223C39.8878 93.3826 43.502 90.8805 35.1615 96.4408C46.9772 116.18 58.9319 136.058 70.7476 155.797C71.1647 156.492 72.2767 156.77 72.8328 156.075C83.8144 146.623 94.6571 137.309 105.639 127.857C107.168 107.978 107.029 91.5755 102.859 90.6024Z" fill="#2A1C7C"/>
<path d="M114.674 86.4326C116.481 94.3561 118.288 102.419 120.096 110.342C119.4 127.44 119.261 145.372 119.678 164.277C119.957 178.734 120.652 192.635 121.625 205.98C117.732 205.146 113.284 204.034 108.419 202.227C103.971 200.559 100.078 198.751 96.8811 197.083C97.9932 186.658 98.9662 175.954 99.6613 164.972C101.468 138.978 101.746 114.512 101.051 91.5759C105.5 89.6298 110.087 88.1007 114.674 86.4326Z" fill="#5661AE"/>
<path d="M169.861 91.4351C172.919 91.7131 175.977 94.7713 176.533 95.1883C179.591 98.2465 180.564 101.861 180.842 102.834C182.649 109.228 188.766 127.021 197.523 151.626C197.801 152.321 197.801 153.155 197.384 153.989C187.515 173.589 177.506 193.189 167.637 212.928C157.628 208.202 162.076 210.426 152.068 205.7C159.296 188.602 166.525 171.643 173.892 154.545C168.193 139.671 162.354 124.797 156.655 109.784C158.74 98.2465 164.856 91.0181 169.861 91.4351Z" fill="#2A1C7C"/>
<path d="M122.876 71.4197C124.405 78.7871 123.849 83.0964 122.876 85.7375C122.737 86.2936 122.32 87.2666 122.876 88.2397C123.988 90.1858 128.158 90.3248 135.665 90.3248C143.449 90.4638 144.978 89.6298 145.534 88.7957C146.368 87.8226 145.951 86.5716 145.812 86.0155C144.978 83.3744 144.7 78.7871 146.09 70.7246C138.306 71.0026 130.66 71.1416 122.876 71.4197Z" fill="#93523E"/>
<path d="M125.517 19.0126C121.903 19.7077 118.427 21.5148 116.203 24.5729C114.952 26.3801 114.257 28.3262 113.701 30.4113C112.45 35.4156 112.311 40.4199 112.172 45.5632C112.033 50.9846 111.894 56.4059 112.45 61.8272C112.728 64.1904 113.145 66.6925 114.118 68.7776C116.759 74.199 123.154 76.8401 129.131 77.5352C134.552 78.0912 139.974 77.2571 144.978 75.311C146.507 74.616 148.175 73.9209 149.287 72.5309C150.399 71.2798 150.955 69.4727 151.372 67.8046C154.57 56.1279 155.543 43.6171 153.736 31.6624C153.319 28.8822 152.624 25.824 150.955 23.5999C149.287 21.3758 146.646 19.9857 144.005 19.2906C138.445 17.7615 131.077 17.7615 125.517 19.0126Z" fill="#BC775C"/>
<path d="M156.516 39.7252C157.628 38.6132 159.296 37.5011 160.825 38.1961C161.381 38.4741 161.798 38.8912 162.076 39.3082C163.188 40.8373 163.466 42.7834 163.327 44.5905C162.91 52.097 157.35 59.0474 150.121 61.1325C150.677 60.9935 152.067 49.5948 152.206 48.4828C152.762 44.7295 153.736 42.5054 156.516 39.7252Z" fill="#BC775C"/>
<path d="M120.93 70.647C122.598 70.091 123.988 69.674 125.517 69.2569C127.046 68.8399 128.436 68.4229 130.104 68.0059C128.714 68.9789 127.324 69.674 125.656 70.23C124.127 70.786 122.459 70.925 120.93 70.647C120.791 70.786 120.791 70.786 120.93 70.647C120.791 70.786 120.791 70.647 120.93 70.647Z" fill="#1F2D49"/>
<path d="M116.668 55.7924C117.035 54.62 116.797 53.5024 116.138 53.2961C115.479 53.0898 114.647 53.8729 114.28 55.0452C113.913 56.2176 114.15 57.3352 114.81 57.5415C115.469 57.7479 116.301 56.9647 116.668 55.7924Z" fill="#1F2D49"/>
<path d="M130.021 57.9876C130.672 57.756 130.866 56.63 130.455 55.4727C130.043 54.3153 129.181 53.5649 128.53 53.7965C127.879 54.0281 127.685 55.154 128.097 56.3114C128.509 57.4688 129.37 58.2192 130.021 57.9876Z" fill="#1F2D49"/>
<path d="M113.145 49.1001C112.589 48.127 112.589 47.432 112.728 46.8759C112.867 46.1809 113.284 45.7639 113.84 45.4859C114.396 45.2078 114.952 45.2078 115.508 45.4859C116.064 45.7639 116.62 46.1809 117.037 47.154V47.293V47.432C116.342 47.571 115.647 47.71 114.952 48.127C114.257 48.405 113.701 48.8221 113.145 49.3781H113.006L113.145 49.1001Z" fill="#1F2D49"/>
<path d="M126.212 47.0156C126.629 46.0426 127.463 45.4865 128.158 45.2085C128.853 44.9305 129.687 44.9305 130.382 45.2085C131.077 45.4865 131.772 46.0426 132.05 46.7376C132.467 47.4326 132.606 48.2667 132.328 49.3788V49.5178C132.328 49.5178 132.189 49.6568 132.189 49.5178C131.355 48.8227 130.521 48.1277 129.409 47.8497C128.436 47.4326 127.324 47.2936 126.212 47.2936C126.212 47.2936 126.073 47.2936 126.073 47.1546C126.212 47.1546 126.212 47.1546 126.212 47.0156Z" fill="#1F2D49"/>
<path d="M120.651 56.8855C120.512 57.4415 120.651 57.9976 120.651 58.6926C120.651 58.9706 120.512 59.3877 120.373 59.6657C120.234 59.9437 119.956 60.0827 119.678 60.3607C119.122 60.6387 118.705 60.9168 118.288 61.3338C118.01 61.7508 117.732 62.3068 117.732 62.7239C117.732 63.2799 117.871 63.6969 118.149 64.1139C118.427 64.531 118.844 64.67 119.261 64.809C120.234 65.087 121.624 64.67 122.737 65.087C121.485 65.226 120.512 65.782 119.122 65.643C118.427 65.504 117.732 65.226 117.315 64.531C116.898 63.9749 116.759 63.1409 116.898 62.4458C117.037 61.0558 118.288 59.9437 119.4 59.5267C119.956 59.2487 120.373 58.9706 120.373 58.4146C120.512 57.9976 120.373 57.4415 120.651 56.8855C120.651 56.7465 120.651 56.7465 120.651 56.8855C120.651 56.7465 120.651 56.8855 120.651 56.8855Z" fill="#1F2D49"/>
<path d="M155.126 27.2142C153.18 21.6539 148.453 17.4837 143.032 15.6765C141.364 15.1205 139.696 14.8425 137.889 14.5645C136.916 10.5332 134.83 7.05803 130.66 5.52894C129.548 5.11191 128.158 4.83389 127.046 5.11191C125.934 5.38993 124.683 6.22398 124.266 7.33605C123.849 8.58712 124.266 9.9772 124.822 11.2283C119.818 10.2552 114.396 10.3942 110.087 12.8964C108.697 13.7304 107.307 14.9815 106.751 16.5106C105.917 19.0128 107.585 21.9319 110.226 22.488C107.724 23.739 105.361 25.6852 104.11 28.3263C102.859 30.9675 103.137 34.3037 105.083 36.3888C106.751 38.1959 109.253 38.7519 111.616 38.4739C111.894 38.6129 112.033 38.7519 112.311 38.7519C121.486 41.5321 131.633 38.7519 140.947 41.2541C142.476 41.6711 144.005 42.2272 145.256 43.3392C147.619 45.4244 148.175 48.7606 148.175 51.9577C148.175 53.7649 148.175 55.989 149.843 56.823C151.094 57.5181 152.763 56.823 153.597 55.711C154.431 54.5989 154.709 53.2088 154.987 51.8187C155.821 47.0925 156.099 42.5052 156.238 37.7789C156.377 34.1647 156.238 30.5504 155.126 27.2142Z" fill="#1F2D49"/>
</svg>
