<svg width="571" height="385" viewBox="0 0 571 385" fill="none" xmlns="http://www.w3.org/2000/svg">
<circle cx="383" cy="192" r="188" fill="#FF9D2E"/>
<g clip-path="url(#clip0_529_465)">
<path d="M107.539 28.8094C106.507 31.9118 106.949 34.7188 107.687 39.8896C109.162 49.3447 112.702 52.8903 110.785 56.436C109.9 58.0611 107.834 60.2771 101.344 61.0158C102.081 61.7545 103.999 63.2319 106.949 63.6751C109.015 63.9705 110.637 63.5273 111.522 63.2319C111.08 63.8228 110.195 64.857 108.572 65.5956C107.392 66.0388 106.359 66.1866 105.622 66.1866C107.392 67.9594 110.047 70.1755 113.293 70.0277C117.718 70.0277 120.521 65.8911 122.881 63.6751C126.864 59.9817 134.83 56.8792 151.794 60.7203C153.122 61.1636 156.81 62.1977 161.235 60.8681C164.628 59.6862 166.841 57.6179 167.726 56.5837C166.841 56.7315 165.513 56.8792 163.891 56.436C162.71 56.1405 161.825 55.8451 161.235 55.4019C161.678 55.5496 164.628 56.5837 167.578 54.9586C171.119 53.0381 171.561 49.0492 171.561 48.606C170.971 49.0492 170.234 49.6401 169.201 49.7879C165.071 50.3788 161.383 44.4694 160.94 43.4352C156.957 36.7871 160.498 32.6505 158.137 27.0365C154.45 18.3201 140.288 15.9563 132.47 16.1041C123.914 16.5473 110.49 20.093 107.539 28.8094Z" fill="#FEBB94"/>
<path d="M153.859 281.881H135.715V315.712H153.859V281.881Z" fill="#E3AE96"/>
<path d="M155.629 299.609L167.726 118.484H123.028L130.994 299.609H155.629Z" fill="#0D1B33"/>
<path d="M132.47 281.881H114.325V313.496H132.47V281.881Z" fill="#FACBB4"/>
<path d="M133.649 333.441C150.466 333.441 167.283 333.441 184.1 333.441C184.69 332.998 186.018 331.964 186.755 329.895C187.64 327.384 186.755 325.168 185.87 323.838C184.247 321.327 181.592 321.327 176.872 319.849C176.577 319.701 169.496 316.747 155.482 310.837C155.039 310.69 153.859 310.099 152.531 310.394C150.319 310.69 149.139 312.462 148.253 313.349C144.566 316.747 137.927 309.508 134.387 311.871C132.174 313.201 132.322 317.19 132.469 324.281C132.764 328.122 133.207 331.225 133.649 333.441Z" fill="#224688"/>
<path d="M142.648 87.9023C148.254 79.7768 151.499 70.0263 151.647 60.1279C151.647 59.6847 151.647 59.2415 151.499 58.7983C151.057 58.0596 150.172 57.7642 149.286 57.6164C144.271 56.8777 138.96 57.1732 133.945 58.5028C130.847 59.3893 122.439 61.4576 122.881 65.4464C123.324 69.4353 129.224 74.1629 131.88 76.8221C135.715 80.6632 139.55 83.9134 142.648 87.9023Z" fill="white"/>
<path d="M134.24 299.609L146.336 118.484H101.639L109.605 299.609H134.24Z" fill="#1F2D49"/>
<path d="M156.072 167.238C156.514 170.34 157.104 173.738 158.875 175.954C160.645 178.17 163.153 178.909 165.513 179.204C169.938 179.795 174.511 179.5 178.789 178.17C179.379 178.022 179.969 177.875 180.412 177.284C180.855 176.693 181.15 175.806 181.15 174.92C181.445 172.704 181.297 170.34 181.15 168.124C179.822 142.123 178.494 116.121 177.019 89.9717C176.577 81.994 176.134 72.3912 171.561 66.334C166.988 60.2768 161.53 63.0838 159.022 70.3228C156.072 79.0393 155.777 90.5627 154.892 100.018C154.007 110.507 153.417 121.144 153.417 131.633C153.712 143.6 154.449 155.567 156.072 167.238Z" fill="#5661AE"/>
<path d="M139.255 57.469C124.061 61.1624 109.162 67.0719 95.0004 74.7541C93.6728 75.4928 92.1976 76.3792 91.6075 78.1521C91.165 79.3339 91.3125 80.6636 91.46 81.8455C95.5905 116.563 100.016 151.725 111.522 183.931C112.702 187.329 114.177 190.875 116.685 193.091C119.193 195.307 122.586 195.898 125.684 196.045C132.469 196.489 139.403 195.75 145.598 192.647C151.794 189.545 157.547 184.079 160.498 176.84C162.12 172.851 162.858 168.566 163.743 164.282C168.906 136.803 173.922 109.029 175.102 80.959C175.249 75.7883 175.249 70.322 173.184 65.7422C171.266 61.7534 167.873 58.7986 164.185 57.3213C160.498 55.8439 156.515 55.5484 152.679 55.6962C146.631 55.9917 140.73 57.1735 134.977 59.2418" fill="#465393"/>
<path d="M87.0347 152.61C87.4772 154.974 88.0673 157.486 89.8375 159.111C91.6077 160.736 94.1155 161.327 96.4757 161.622C100.901 162.066 105.474 161.77 109.752 160.884C110.342 160.736 110.932 160.588 111.375 160.293C111.817 159.849 112.112 159.111 112.112 158.52C112.407 156.895 112.26 155.122 112.112 153.349C110.785 133.7 109.457 114.199 107.982 94.5502C107.539 88.493 107.097 81.4017 102.524 76.8219C97.9509 72.242 92.4928 74.4581 89.985 79.7766C87.0347 86.277 86.7397 94.9934 85.8546 102.085C84.9695 109.915 84.3794 117.892 84.3794 125.87C84.5269 134.882 85.2645 143.894 87.0347 152.61Z" fill="#5661AE"/>
<path d="M144.271 333.44C133.502 333.44 122.734 333.44 111.965 333.44C111.375 333.292 110.49 332.997 109.9 332.258C109.162 331.372 109.162 330.338 109.015 329.895C108.719 325.462 108.572 322.951 109.162 314.678C109.162 313.791 109.31 312.462 110.342 311.723C111.227 310.984 112.555 311.428 113.292 311.575C115.653 312.166 118.898 312.609 120.963 312.462C123.324 312.462 125.831 311.871 129.224 310.984C129.667 310.837 130.699 310.689 131.88 310.837C133.207 310.984 134.24 311.575 135.125 312.314C141.616 317.041 143.533 322.36 143.533 322.36C145.303 327.235 144.566 331.52 144.271 333.44Z" fill="#4C75C1"/>
<path d="M121.848 64.2656C125.979 67.3681 129.371 70.3228 131.879 72.8343C134.535 75.3458 137.927 78.7437 141.615 83.7668C142.795 85.3919 143.681 86.7215 144.271 87.7556C145.746 84.9487 147.221 81.6985 148.549 77.8573C151.056 70.3228 151.794 63.6747 151.941 58.5039C141.763 60.4245 131.732 62.345 121.848 64.2656Z" fill="white"/>
<path d="M136.157 314.234C134.682 314.382 133.207 314.678 131.584 314.825Z" fill="#FF971D"/>
<path d="M253.138 223.82L261.251 329.304L266.562 330.486L262.579 225.445L253.138 223.82Z" fill="#1C85E8"/>
<path d="M189.411 223.82L197.525 329.304L202.688 330.486L198.852 225.445L189.411 223.82Z" fill="#1C85E8"/>
<path d="M274.823 208.455L281.756 298.722L286.181 299.904L282.789 209.785L274.823 208.455Z" fill="#5661AE"/>
<path d="M220.094 208.455L227.175 298.722L231.601 299.904L228.208 209.785L220.094 208.455Z" fill="#5661AE"/>
<path d="M213.161 75.9368C214.636 74.4594 216.554 73.2775 244.435 71.8002C247.827 71.6524 270.988 70.4705 299.016 74.4594C304.474 75.1981 312.144 76.5277 313.325 80.5166C314.357 84.0623 309.784 88.1989 308.604 89.233C288.837 108.291 301.966 206.535 276.593 229.434C270.84 234.605 263.907 237.117 263.907 237.117C254.023 240.662 244.582 238.151 236.911 237.855C204.9 236.821 188.231 241.401 186.018 235.196C184.691 231.355 191.624 225.593 197.524 220.718C209.621 210.672 216.407 211.558 222.012 206.535C228.503 200.921 231.453 189.546 218.914 133.111C210.653 96.7675 205.343 83.7668 213.161 75.9368Z" fill="#5661AE"/>
<path d="M204.458 75.1978C205.933 73.7204 207.85 72.5385 235.731 70.9134C239.124 70.7657 262.284 69.5838 290.312 73.5727C295.77 74.3114 303.441 75.641 304.621 79.7776C305.654 83.471 301.081 87.6076 299.901 88.6418C280.133 107.847 293.262 207.126 267.89 230.321C262.136 235.639 255.203 238.003 255.203 238.003C245.32 241.549 235.879 239.037 228.208 238.889C196.197 237.855 179.527 242.435 177.315 236.082C175.987 232.241 182.92 226.332 188.821 221.456C200.917 211.263 207.703 212.149 213.309 207.126C219.799 201.364 222.75 189.989 210.211 132.963C201.95 96.1763 196.639 82.8801 204.458 75.1978Z" fill="#1C85E8"/>
<path d="M187.788 100.313C188.968 103.415 190.443 106.518 193.246 109.177C199.589 115.086 211.096 117.598 222.159 118.041C216.259 115.234 212.128 111.097 209.473 106.813C206.818 102.381 205.785 97.6534 205.343 92.9258C207.998 99.7217 215.374 105.779 225.11 109.029C221.127 105.483 219.652 100.904 219.357 96.4715C219.209 92.0394 220.389 87.6073 221.422 83.1752C224.225 71.0609 226.29 58.5033 221.569 46.5367C220.094 42.8433 217.881 39.1499 214.046 36.3429C210.211 33.3882 204.605 31.4676 198.852 31.6154C181.74 32.2063 187.346 44.1729 187.346 51.412C187.346 61.9013 185.133 72.3905 185.133 82.8798C185.133 88.7892 185.723 94.6987 187.788 100.313Z" fill="#465393"/>
<path d="M203.72 10.4884C199.884 11.2271 196.196 13.1477 193.836 16.3979C192.509 18.3185 191.771 20.3868 191.181 22.6028C189.853 27.9213 189.706 33.2398 189.558 38.706C189.411 44.4677 189.263 50.2294 189.853 55.9911C190.148 58.5027 190.591 61.1619 191.623 63.3779C194.426 69.1396 201.212 71.9466 207.555 72.6853C213.308 73.2763 219.061 72.3898 224.372 70.3215C225.995 69.5829 227.765 68.8442 228.945 67.3668C230.125 66.0372 230.715 64.1166 231.158 62.3438C234.551 49.934 235.583 36.6377 233.666 23.9324C233.223 20.9777 232.485 17.7275 230.715 15.3637C228.945 13 226.142 11.5226 223.339 10.7839C217.586 9.15883 209.62 9.15883 203.72 10.4884Z" fill="#FACBB4"/>
<path d="M126.421 6.35173C122.586 7.09041 118.898 9.01098 116.538 12.2612C115.21 14.1817 114.473 16.25 113.883 18.4661C112.555 23.7846 112.407 29.1031 112.26 34.5693C112.112 40.331 111.965 46.0927 112.555 51.8544C112.85 54.3659 113.292 57.0252 114.325 59.2412C117.128 65.0029 123.914 67.8099 130.257 68.5486C136.01 69.1395 141.763 68.2531 147.074 66.1848C148.696 65.4461 150.467 64.7075 151.647 63.2301C152.827 61.9005 153.417 59.9799 153.859 58.2071C157.252 45.7972 158.285 32.501 156.367 19.7957C155.925 16.841 155.187 13.5908 153.417 11.227C151.647 8.86324 148.844 7.38588 146.041 6.6472C140.288 5.02211 132.47 5.02211 126.421 6.35173Z" fill="#FACBB4"/>
<path d="M159.465 28.366C160.645 27.1841 162.415 26.0022 164.038 26.7409C164.628 27.0364 165.071 27.4796 165.366 27.9228C166.546 29.5479 166.841 31.6162 166.693 33.5368C166.251 41.5145 160.35 48.9013 152.679 51.1174C153.269 50.9696 154.744 38.8553 154.892 37.6734C155.482 33.6845 156.367 31.3207 159.465 28.366Z" fill="#FACCB4"/>
<path d="M217.881 82.7325C215.816 87.0168 212.276 90.4148 208.145 92.7785C207.408 93.2217 206.523 93.665 206.375 94.4036C206.228 94.8468 206.375 95.4378 206.523 95.881C207.998 100.904 210.063 106.075 214.341 108.882C216.849 110.655 220.094 111.246 223.192 111.393C230.863 111.689 238.534 108.734 243.992 103.268C246.794 100.461 248.86 96.0287 246.647 92.9263C244.582 89.8238 240.009 90.1193 236.763 88.1987C233.371 86.2782 231.895 82.1415 231.158 78.4481C230.273 74.1638 229.83 69.8795 229.978 65.4474C229.978 65.0042 229.978 64.4132 229.683 63.97C229.388 63.5268 228.945 63.3791 228.502 63.2313C226.437 62.6404 224.372 63.3791 222.602 64.7087C219.356 67.2202 219.209 68.993 219.504 72.6864C220.094 76.0844 219.356 79.63 217.881 82.7325Z" fill="#FACCB4"/>
<path d="M212.276 89.9721C212.866 90.7108 216.554 96.3247 223.634 97.0634C229.683 97.6543 235.583 94.5519 238.829 89.0857C242.074 88.9379 247.68 88.9379 254.023 91.154C260.071 93.2223 264.349 96.3247 266.857 98.393C266.857 105.189 265.972 114.496 262.579 124.986C261.546 128.236 257.711 134.293 254.023 144.043C252.105 149.214 251.662 151.135 251.515 153.203C251.22 158.522 252.99 161.92 256.235 169.75C257.711 173.443 260.071 179.057 262.726 186.148C260.218 187.921 246.647 197.524 229.24 193.683C220.094 191.762 213.751 186.887 210.653 183.932C211.833 179.057 213.161 173.147 214.488 166.352C215.964 159.408 216.406 156.896 215.816 153.351C215.078 148.771 212.866 146.259 209.62 141.384C206.67 136.952 199.294 125.576 196.196 113.167C195.459 110.064 194.574 105.337 194.574 99.2794C196.786 97.5066 199.442 95.7338 202.54 93.9609C206.228 92.4836 209.473 91.0062 212.276 89.9721Z" fill="white"/>
<path d="M216.553 166.647C216.406 155.271 216.406 146.112 216.406 140.202C216.553 124.099 217.144 117.303 213.751 108.882C212.571 105.928 209.473 97.8021 204.752 96.6202C198.999 95.1429 194.721 104.893 193.541 107.553C190.148 115.235 191.181 122.622 192.656 142.862C193.098 149.214 193.836 159.851 194.721 173.443C202.097 171.079 209.325 168.863 216.553 166.647Z" fill="#FF967C"/>
<path d="M238.681 87.9023C242.812 88.1978 248.712 89.0842 255.498 91.7435C261.694 94.1073 264.644 95.4369 266.857 98.5393C271.577 104.892 267.742 114.938 264.792 122.62C262.579 128.677 261.251 129.564 258.301 137.246C256.088 143.303 254.465 147.144 254.023 151.577C253.285 158.372 255.793 161.623 260.514 174.919C262.136 179.499 264.349 186.147 266.267 194.568C257.121 190.874 247.827 187.181 238.681 183.488C236.911 169.6 235.731 153.793 235.731 136.507C235.583 118.484 236.911 102.233 238.681 87.9023Z" fill="#FEBB94"/>
<path d="M211.76 90.1191C212.362 95.1422 213.416 102.529 214.921 111.393C218.533 133.11 220.942 139.611 222.146 150.839C223.049 159.851 223.35 172.851 220.038 189.102C216.125 188.216 212.362 187.477 208.448 186.591C210.255 178.465 211.459 171.817 212.362 166.794C214.018 157.191 214.168 154.384 213.416 151.134C212.362 146.111 210.405 145.372 204.987 137.099C199.417 128.53 193.397 119.075 193.246 107.7C193.246 104.302 193.698 101.495 193.999 99.722C196.558 97.8014 198.921 95.8808 202.835 93.8125C205.544 92.3352 209.201 91.0056 211.76 90.1191Z" fill="#FEBB94"/>
<path d="M261.754 156.92C258.975 146.997 256.635 139.223 255.026 133.931C250.638 120.037 248.444 114.249 249.614 106.144C250.053 103.333 251.223 95.7246 255.904 93.5744C261.462 91.0935 268.483 98.5363 270.384 100.686C275.796 106.641 276.82 113.091 280.477 131.119C281.647 136.742 283.548 146.004 286.181 158.078C277.99 157.582 269.945 157.251 261.754 156.92Z" fill="#FF967C"/>
<path d="M239.566 31.4676C240.746 30.2857 242.516 29.1038 244.139 29.8425C244.729 30.138 245.172 30.5812 245.467 31.0244C246.647 32.6495 246.942 34.7178 246.794 36.6383C246.352 44.6161 240.451 52.0029 232.78 54.2189C233.37 54.0712 234.845 41.9568 234.993 40.7749C235.583 36.7861 236.468 34.4223 239.566 31.4676Z" fill="#FACCB4"/>
<path d="M243.549 47.7186C246.352 60.1284 247.237 72.9815 249.302 85.539C250.04 89.9711 250.925 94.5509 253.433 98.3921C255.35 101.495 258.301 104.006 261.103 106.37C258.596 107.404 255.793 106.961 253.285 105.927C250.777 104.892 248.712 103.12 246.647 101.347C247.089 102.972 247.679 104.745 248.122 106.37C246.942 105.779 245.762 105.04 244.729 104.449C235.878 98.6875 231.305 88.0505 229.683 77.5613C228.06 67.072 229.092 56.435 228.65 45.798C228.355 39.2977 227.617 32.7973 226.29 26.4446C225.552 22.7512 224.667 18.9101 225.552 15.2167C226.29 11.9665 231.01 18.9101 231.748 19.9442C233.813 22.6035 235.436 25.5582 236.911 28.6607C240.009 34.5701 242.074 41.0705 243.549 47.7186Z" fill="#465393"/>
<path d="M187.788 215.547C188.23 211.41 188.525 207.273 187.788 203.285C187.05 199.296 185.133 195.307 181.592 193.091C180.264 192.204 178.789 191.613 177.167 191.909C175.544 192.057 174.216 193.091 172.889 194.125C166.841 199.296 162.268 206.239 158.285 213.035C143.533 237.707 132.322 264.3 121.701 291.04C111.965 293.404 101.638 293.108 91.9023 290.892C95.2952 298.87 102.376 305.075 110.637 307.438C114.472 308.62 121.258 312.166 121.996 313.496C122.733 314.973 124.061 315.859 125.536 316.45C126.126 316.598 126.716 316.894 127.306 316.746C128.044 316.598 128.781 316.007 129.224 315.268C132.469 310.836 131.289 304.484 133.354 299.313C134.239 297.097 135.862 295.176 137.337 293.256C152.236 274.641 166.841 255.731 179.084 235.343C183.215 228.843 187.05 223.081 187.788 215.547Z" fill="#E3AE96"/>
<path d="M106.359 292.221C106.359 293.255 106.359 295.028 105.621 296.801C104.736 299.164 103.408 300.789 102.671 301.528C104.294 302.562 106.064 303.596 107.686 304.631C108.424 303.596 109.604 301.824 110.194 299.312C110.932 296.21 110.637 293.55 110.342 292.221C109.014 292.221 107.686 292.221 106.359 292.221Z" fill="#5661AE"/>
<path d="M99.2782 291.925C100.311 296.948 102.524 299.46 103.851 300.642C108.277 304.63 114.915 305.221 118.75 305.517C120.963 305.665 123.323 305.665 126.864 306.699C129.076 307.29 130.847 308.028 131.879 308.619C131.584 310.097 130.994 312.608 129.371 315.267C127.601 318.222 125.388 319.995 124.061 320.734C122.586 319.404 120.373 317.336 117.57 315.267C115.21 313.495 113.292 312.165 110.194 310.392C98.5406 303.153 97.2129 303.301 95.0002 300.642C93.3775 298.721 91.3123 295.619 90.5747 290.152C93.525 290.743 96.3278 291.334 99.2782 291.925Z" fill="#5661AE"/>
<path d="M194.131 215.547C191.771 212.149 189.558 208.751 186.313 206.092C183.215 203.433 179.085 201.66 175.102 202.103C173.479 202.251 172.004 202.842 170.971 204.024C169.791 205.205 169.496 206.831 169.201 208.456C167.726 216.433 168.758 224.411 169.939 232.389C174.364 260.754 182.477 288.529 191.476 315.86C185.428 323.985 177.314 330.19 168.463 334.918C176.134 338.759 185.575 339.054 193.394 335.656C197.082 334.031 204.605 332.406 206.08 333.145C207.555 333.736 209.178 333.588 210.8 333.145C211.391 332.997 211.981 332.702 212.276 332.258C212.718 331.667 212.866 330.781 212.866 329.895C212.423 324.428 207.555 320.292 205.932 314.973C205.195 312.61 205.195 310.246 205.195 307.734C204.9 283.949 204.015 260.016 200.474 236.378C198.999 228.843 198.262 221.9 194.131 215.547Z" fill="#FACCB4"/>
<path d="M180.265 326.644C181.002 327.382 182.035 328.712 182.625 330.632C183.51 332.996 183.362 335.065 183.362 336.246C185.28 335.951 187.345 335.656 189.263 335.36C189.263 334.03 188.968 331.962 187.788 329.598C186.46 326.644 184.395 324.871 183.362 323.984C182.33 325.019 181.297 325.905 180.265 326.644Z" fill="#5661AE"/>
<path d="M174.659 330.929C178.642 334.031 182.035 334.622 183.805 334.77C189.706 335.066 195.164 331.224 198.409 329.008C200.327 327.679 202.097 326.201 205.342 324.724C207.408 323.838 209.325 323.247 210.506 322.951C211.243 324.281 212.423 326.497 212.866 329.599C213.308 332.997 212.718 335.804 212.276 337.282C210.358 337.134 207.408 336.986 203.72 337.134C200.769 337.282 198.409 337.577 194.869 338.02C181.297 339.941 180.412 340.827 177.019 340.236C174.659 339.793 170.971 338.611 166.988 335.066C169.496 333.884 172.004 332.406 174.659 330.929Z" fill="#5661AE"/>
<path d="M138.518 315.859C137.633 315.859 136.305 315.859 134.977 316.303C131.879 317.189 129.962 319.11 129.224 320.144" stroke="white" stroke-miterlimit="10" stroke-linecap="round"/>
<path d="M140.731 318.076C139.845 318.076 138.518 318.076 137.19 318.519C134.092 319.406 132.175 321.326 131.437 322.361" stroke="white" stroke-miterlimit="10" stroke-linecap="round"/>
<path d="M136.157 313.496C135.272 313.496 133.945 313.496 132.617 313.939C129.519 314.826 127.601 316.746 126.864 317.78" stroke="white" stroke-miterlimit="10" stroke-linecap="round"/>
<path d="M163.596 314.383C163.005 314.826 162.12 315.565 161.383 316.599C159.76 318.963 159.76 321.326 159.908 322.213" stroke="white" stroke-miterlimit="10" stroke-linecap="round"/>
<path d="M160.202 312.609C159.612 313.053 158.727 313.791 157.99 314.825C156.367 317.189 156.367 319.553 156.515 320.439" stroke="white" stroke-miterlimit="10" stroke-linecap="round"/>
<path d="M167.578 315.711C166.988 316.154 166.103 316.893 165.366 317.927C163.743 320.291 163.743 322.655 163.891 323.541" stroke="white" stroke-miterlimit="10" stroke-linecap="round"/>
<path d="M195.754 49.3447C196.487 49.3447 197.082 48.2864 197.082 46.981C197.082 45.6755 196.487 44.6172 195.754 44.6172C195.021 44.6172 194.426 45.6755 194.426 46.981C194.426 48.2864 195.021 49.3447 195.754 49.3447Z" fill="#1F2D49"/>
<path d="M209.178 49.3447C209.911 49.3447 210.505 48.2864 210.505 46.981C210.505 45.6755 209.911 44.6172 209.178 44.6172C208.445 44.6172 207.85 45.6755 207.85 46.981C207.85 48.2864 208.445 49.3447 209.178 49.3447Z" fill="#1F2D49"/>
<path d="M202.245 46.5371C201.95 47.8667 201.655 49.3441 201.212 50.6737C200.77 52.0033 200.327 53.333 199.589 54.6626C199.147 55.2535 198.852 55.8445 198.852 56.2877C198.852 56.5832 198.999 56.7309 199.147 56.8786C199.294 57.0264 199.589 57.3218 199.885 57.4696C200.917 58.356 202.097 59.0947 203.13 60.1288C203.13 60.1288 203.13 60.1288 203.13 60.2766C201.802 59.8333 200.475 59.2424 199.294 58.5037C198.999 58.356 198.704 58.0605 198.409 57.765C198.114 57.4696 197.967 56.8786 197.967 56.4354C197.967 55.549 198.704 54.8103 198.999 54.3671C199.737 53.333 200.327 52.0033 200.917 50.8215C201.212 49.1964 201.655 47.8667 202.245 46.5371C202.097 46.5371 202.097 46.5371 202.245 46.5371Z" fill="#1F2D49"/>
<path d="M198.409 64.8561C200.622 64.2651 202.687 63.8219 204.752 63.0832C206.817 62.4923 208.735 61.6059 210.948 60.8672C209.178 62.3445 207.112 63.3787 205.047 64.1174C202.834 64.8561 200.622 65.1515 198.409 64.8561C198.261 65.0038 198.261 65.0038 198.409 64.8561C198.261 64.8561 198.261 65.0038 198.409 64.8561Z" fill="#1F2D49"/>
<path d="M127.602 65.4476C129.372 64.8567 130.847 64.4135 132.47 63.9702C134.092 63.527 135.567 63.0838 137.338 62.6406C135.862 63.6748 134.387 64.4135 132.617 65.0044C131.142 65.4476 129.372 65.5953 127.602 65.4476C127.602 65.4476 127.602 65.5953 127.602 65.4476Z" fill="#1F2D49"/>
<path d="M191.918 38.5582C191.771 37.9673 191.918 37.3763 192.213 36.9331C192.508 36.4899 192.803 36.1945 193.246 35.899C193.688 35.7512 194.278 35.6035 194.721 35.6035C195.164 35.6035 195.754 35.899 196.196 36.3422C196.196 36.3422 196.196 36.3422 196.196 36.4899C195.459 36.4899 194.574 36.7854 193.983 37.0809C193.246 37.5241 192.508 38.115 191.918 38.5582C191.918 38.706 192.066 38.706 191.918 38.5582C191.918 38.706 191.918 38.706 191.918 38.5582Z" fill="#1F2D49"/>
<path d="M204.162 35.8994C204.752 35.3085 205.342 35.013 206.08 35.013C206.817 34.8653 207.555 35.013 208.145 35.3085C208.735 35.604 209.473 35.8995 209.915 36.4904C210.358 37.0813 210.653 37.6723 210.653 38.411C209.768 37.5245 208.883 36.9336 207.703 36.4904C206.522 36.0472 205.342 35.8994 204.162 35.8994C204.162 36.0472 204.162 36.0472 204.162 35.8994Z" fill="#1F2D49"/>
<path d="M122.544 49.8056C122.933 48.5597 122.681 47.3719 121.981 47.1526C121.282 46.9334 120.399 47.7656 120.009 49.0116C119.62 50.2575 119.872 51.4453 120.572 51.6646C121.272 51.8839 122.154 51.0516 122.544 49.8056Z" fill="#1F2D49"/>
<path d="M138.727 51.8504C139.418 51.6043 139.624 50.4076 139.187 49.1776C138.75 47.9475 137.836 47.15 137.145 47.3961C136.454 47.6423 136.248 48.8389 136.685 50.0689C137.122 51.299 138.036 52.0966 138.727 51.8504Z" fill="#1F2D49"/>
<path d="M127.896 50.3784C128.044 52.7422 128.044 55.1059 127.454 57.4697C127.306 58.0607 127.159 58.5039 127.159 58.9471C127.159 59.3903 127.306 59.538 127.749 59.8335C128.634 60.4244 129.666 61.0154 130.552 61.7541C130.552 61.7541 130.552 61.7541 130.552 61.9018C129.371 61.6063 128.339 61.3108 127.159 60.7199C126.864 60.5722 126.569 60.4244 126.274 59.9812C125.979 59.6857 125.979 59.2425 125.979 58.7993C125.979 58.0607 126.421 57.4697 126.569 57.0265C127.011 55.9923 127.159 54.8105 127.306 53.6286C127.601 52.5944 127.749 51.5603 127.896 50.3784C127.896 50.2306 127.749 50.2306 127.896 50.3784C127.896 50.2306 127.896 50.2306 127.896 50.3784Z" fill="#1F2D49"/>
<path d="M119.193 42.1051C119.046 41.5142 119.193 40.9232 119.488 40.48C119.783 40.0368 120.078 39.7413 120.521 39.4459C120.963 39.2981 121.553 39.1504 121.996 39.1504C122.438 39.1504 123.029 39.4459 123.471 39.8891C123.471 39.8891 123.471 39.8891 123.471 40.0368C122.734 40.0368 121.848 40.3323 121.258 40.6278C120.521 41.071 119.931 41.5142 119.193 42.1051C119.341 42.2528 119.341 42.2528 119.193 42.1051C119.341 42.1051 119.341 42.1051 119.193 42.1051Z" fill="#1F2D49"/>
<path d="M134.682 40.4795C135.272 39.8886 135.862 39.5931 136.6 39.5931C137.337 39.4454 138.075 39.5931 138.665 39.8886C139.255 40.1841 139.993 40.4795 140.435 41.0705C140.878 41.6614 141.173 42.2524 141.173 42.991C140.288 42.1046 139.403 41.5137 138.223 41.0705C137.042 40.6273 135.862 40.4795 134.682 40.4795C134.682 40.6273 134.682 40.6273 134.682 40.4795Z" fill="#1F2D49"/>
<path d="M165.808 200.182C172.151 196.932 180.56 192.795 190.886 189.25C193.246 188.363 203.425 184.965 217.881 182.011C240.599 177.579 249.007 179.647 253.285 181.124C259.481 183.193 262.136 185.556 262.874 186.295C269.659 192.943 271.725 204.91 267.152 212.888C264.791 216.876 261.546 218.649 255.055 221.899C252.105 223.377 241.926 228.4 221.127 230.764C215.964 231.355 208.735 231.945 200.179 231.945C199.442 228.104 197.524 221.456 192.509 214.956C182.92 202.989 169.348 200.625 165.808 200.182Z" fill="#1F2D49"/>
<path d="M276.002 192.351L337.222 380.715H347.253L293.852 191.021L276.002 192.351Z" fill="#DFEAFF"/>
<path d="M332.501 173.737L381.034 322.655H389L346.663 172.703L332.501 173.737Z" fill="#DFEAFF"/>
<path d="M93.3778 196.636L32.1586 385H21.98L75.5283 195.307L93.3778 196.636Z" fill="#DFEAFF"/>
<path d="M78.4787 177.726L29.9459 326.496H21.98L64.3171 176.691L78.4787 177.726Z" fill="#DFEAFF"/>
<path d="M83.0516 174.475H374.838L319.52 210.67H0L83.0516 174.475Z" fill="#5CA4E6"/>
<path d="M83.0516 167.68H374.838L319.52 203.875H0L83.0516 167.68Z" fill="#DFEAFF"/>
<path d="M374.839 167.68V174.476L364.07 174.771L374.839 167.68Z" fill="#5CA4E6"/>
<path d="M0 203.875V210.671L16.8168 203.875H0Z" fill="#5CA4E6"/>
<path d="M75.0091 119.598C75.3038 119.612 133.481 119.871 133.481 119.871L153.567 179.096L96.8628 178.908L75.0091 119.598Z" fill="#5CA4E6"/>
<path d="M67.326 119.676C67.6207 119.69 125.798 119.949 125.798 119.949L146.923 182.182L89.1797 178.986L67.326 119.676Z" fill="#77B6F1"/>
<path d="M146.926 182.032L189.888 179.199C189.888 179.199 190.063 175.511 186.162 173.699C182.26 171.886 144.595 175.119 144.595 175.119L146.926 182.032Z" fill="#5CA4E6"/>
<path d="M190.443 21.1257C187.493 27.0351 186.018 33.831 186.165 40.4791C186.165 40.9223 186.313 41.5133 186.755 41.661C187.198 41.8087 187.493 41.5133 187.788 41.2178C189.263 39.8882 190.148 38.1153 191.181 36.4902C192.804 33.9787 194.574 31.615 196.639 29.5467C197.967 28.217 199.442 27.0351 200.622 25.5578C201.802 24.0804 202.54 22.3076 202.54 20.387C202.54 18.7619 201.802 17.2846 200.769 16.1027C198.852 13.7389 197.229 13.7389 194.869 15.364C192.951 16.6936 191.623 18.9097 190.443 21.1257Z" fill="#465393"/>
<path d="M237.649 22.6043C234.403 15.2175 227.322 9.16028 218.914 7.53518C215.374 6.94424 211.686 7.09197 207.998 7.38744C204.31 7.68292 200.622 8.12612 196.934 8.8648C196.344 9.01254 195.901 9.01254 195.459 9.45575C195.164 9.75122 195.016 10.1944 194.869 10.6376C193.689 15.8084 194.869 21.4224 197.377 26.1499C199.884 31.0252 203.572 35.1618 207.85 38.8552C214.931 45.0601 223.339 49.7877 232.485 52.7424C236.321 53.9243 239.271 54.5152 240.009 50.2309C240.746 46.242 240.304 41.5145 240.304 37.3778C240.156 32.3548 239.566 27.3318 237.649 22.6043Z" fill="#465393"/>
<path d="M264.068 153.196C256.953 154.935 250.442 158.212 244.052 161.796C240.316 163.836 236.554 166.171 232.388 166.393C229.263 166.56 225.949 165.524 222.798 165.985C219.647 166.446 216.672 168.257 214.661 170.896C212.662 173.388 211.493 176.547 211.059 179.771C214.037 179.591 217.028 179.264 220.006 179.085C225.521 178.686 231.036 178.287 236.564 177.741C244.469 177.11 252.345 175.141 260.169 173.762C268.459 172.127 276.564 170.92 284.626 168.523C286 168.052 287.522 167.594 288.227 166.322C288.746 165.479 288.691 164.436 288.635 163.392C288.43 160.704 287.796 157.83 286.536 155.345C285.396 153.167 284.221 153.062 281.896 152.558C275.937 151.286 269.834 151.633 264.068 153.196Z" fill="#FACCB4"/>
<path d="M142.058 3.10182C143.091 4.28371 143.386 5.76107 143.828 8.71579C144.123 10.0454 144.861 15.3639 142.943 22.012C142.353 24.0803 142.058 25.1145 141.32 26.2964C139.108 29.3988 135.715 30.2852 132.174 31.3194C130.404 31.9103 127.601 32.5013 124.209 32.649C125.389 32.3536 127.601 31.7626 129.814 29.842C132.027 27.9215 132.912 25.8532 133.355 24.819C132.174 25.7054 130.552 27.0351 128.192 28.2169C124.504 29.9898 121.406 30.433 117.865 31.0239C114.915 31.4671 110.785 31.7626 105.917 31.3194C104.884 31.1717 103.999 30.8762 102.966 30.7285C103.704 26.1486 106.064 16.989 113.735 9.159C116.243 6.64749 120.963 1.91993 128.339 0.590311C130.257 0.147103 138.518 -1.33026 142.058 3.10182Z" fill="#FEBB94"/>
<path d="M139.255 14.0354C137.338 22.1609 140.731 28.9567 141.468 30.4341C146.041 39.446 154.745 42.5484 156.81 43.2871C157.547 42.1052 158.58 40.4801 159.613 38.4118C160.94 35.6048 164.186 28.5135 162.415 19.7971C162.12 18.172 160.498 11.3761 154.745 6.20538C152.532 4.13708 150.172 2.06877 147.369 2.36424C141.763 3.25066 139.55 12.8535 139.255 14.0354Z" fill="#FEBB94"/>
<g clip-path="url(#clip1_529_465)">
<path d="M210.948 177.684C211.48 176.693 212.133 176.01 213.08 175.353C213.88 174.682 214.948 174.332 215.856 174.117C216.91 173.914 217.952 173.858 218.981 173.95C220.009 174.041 221.012 174.427 221.841 175.094C221.841 175.094 221.841 175.094 221.828 175.242C219.918 175.072 217.994 175.049 216.179 175.48C214.363 175.912 212.669 176.651 210.948 177.684C210.935 177.831 211.082 177.844 210.948 177.684Z" fill="#E56542"/>
<path d="M212.381 173.215C212.754 172.358 213.567 171.54 214.501 171.03C215.301 170.36 216.368 170.01 217.276 169.794C218.331 169.592 219.372 169.536 220.401 169.628C221.43 169.719 222.432 170.105 223.261 170.772C223.261 170.772 223.261 170.772 223.248 170.919C221.351 170.602 219.415 170.726 217.599 171.158C215.784 171.59 213.942 172.316 212.381 173.215C212.368 173.362 212.368 173.362 212.381 173.215C212.368 173.362 212.368 173.362 212.381 173.215Z" fill="#E56542"/>
</g>
<g clip-path="url(#clip2_529_465)">
<path d="M208.145 19.2051L212.57 25.2623C214.045 27.1828 215.521 29.2511 217.143 31.024C218.618 32.9445 220.389 34.7174 222.011 36.6379C222.896 37.5243 223.634 38.4108 224.519 39.2972C225.404 40.1836 226.289 41.07 227.174 42.1042V42.2519C227.174 42.2519 227.174 42.2519 227.027 42.2519C222.896 39.2972 219.209 35.8992 215.963 32.0581C212.718 28.217 210.063 23.9326 208.145 19.2051C207.997 19.2051 207.997 19.2051 208.145 19.2051Z" fill="#94B9FF"/>
<path d="M213.751 19.5C214.341 20.3864 214.931 21.2728 215.521 22.1592C216.111 23.0457 216.701 23.9321 217.291 24.6708C218.619 26.4436 219.799 28.0687 221.127 29.6938C222.454 31.3189 223.782 32.7962 225.257 34.4213C225.995 35.16 226.732 35.8987 227.47 36.6374C228.207 37.3761 228.945 38.1147 229.683 38.8534C229.683 38.8534 229.683 38.8534 229.683 39.0011C226.142 36.4896 223.044 33.6827 220.389 30.4325C217.586 27.0345 215.373 23.4889 213.751 19.5C213.603 19.5 213.603 19.5 213.751 19.5C213.603 19.5 213.603 19.5 213.751 19.5Z" fill="#94B9FF"/>
</g>
<g clip-path="url(#clip3_529_465)">
<path d="M137.085 13.232L131.015 15.9503C129.04 16.7802 126.993 17.7244 124.984 18.3744C123.008 19.2043 120.893 19.7887 118.813 20.553C117.756 20.8451 116.803 21.2029 115.746 21.4951C114.689 21.7873 113.632 22.0795 112.503 22.486L112.432 22.6003C112.432 22.6003 112.432 22.6003 112.537 22.6659C116.901 22.2168 121.164 21.2279 125.325 19.6993C129.486 18.1708 133.441 16.0369 137.085 13.232C137.19 13.2977 137.19 13.2977 137.085 13.232Z" fill="#FFDACC"/>
<path d="M132.953 10.9664C132.106 11.3898 131.259 11.8132 130.411 12.2366C129.564 12.66 128.717 13.0834 127.941 13.3925C126.141 14.1737 124.518 14.9062 122.79 15.5731C121.062 16.24 119.405 16.7926 117.571 17.3939C116.69 17.6373 115.809 17.8808 114.928 18.1243C114.047 18.3678 113.166 18.6113 112.285 18.8548C112.285 18.8548 112.285 18.8548 112.214 18.9691C115.945 18.6005 119.502 17.8064 122.959 16.4726C126.591 15.0901 129.875 13.3309 132.953 10.9664C133.058 11.032 133.058 11.032 132.953 10.9664C133.058 11.032 133.058 11.032 132.953 10.9664Z" fill="#FFDACC"/>
</g>
<ellipse cx="213.898" cy="53.1844" rx="4.42548" ry="1.47736" fill="#FCBA9F"/>
<ellipse cx="193.984" cy="53.1844" rx="3.6879" ry="1.47736" fill="#FCBA9F"/>
<ellipse rx="4.01127" ry="1.6783" transform="matrix(0.964713 -0.263303 0.262574 0.964912 142.612 54.3835)" fill="#FCBA9F"/>
<ellipse rx="4.01127" ry="1.6783" transform="matrix(-0.964713 -0.263303 -0.262574 0.964912 119.373 54.3835)" fill="#FCBA9F"/>
</g>
<defs>
<clipPath id="clip0_529_465">
<rect width="389" height="385" fill="white"/>
</clipPath>
<clipPath id="clip1_529_465">
<rect width="11.6539" height="8.86406" fill="white" transform="matrix(0.99606 0.0886866 -0.0884249 0.996083 211.732 168.855)"/>
</clipPath>
<clipPath id="clip2_529_465">
<rect width="21.6849" height="23.1945" fill="white" transform="translate(207.998 19.2051)"/>
</clipPath>
<clipPath id="clip3_529_465">
<rect width="18.1989" height="21.1432" fill="white" transform="matrix(-0.848051 -0.529914 -0.528779 0.848759 137.19 13.2969)"/>
</clipPath>
</defs>
</svg>
