<svg width="31" height="31" viewBox="0 0 31 31" fill="none" xmlns="http://www.w3.org/2000/svg">
<path d="M29.5156 0.265625H1.48438C0.810254 0.265625 0.265625 0.810254 0.265625 1.48438V29.5156C0.265625 30.1897 0.810254 30.7344 1.48438 30.7344H29.5156C30.1897 30.7344 30.7344 30.1897 30.7344 29.5156V1.48438C30.7344 0.810254 30.1897 0.265625 29.5156 0.265625ZM25.9965 9.15869H23.5628C21.6547 9.15869 21.2853 10.0651 21.2853 11.3981V14.3346H25.8403L25.2462 18.9315H21.2853V30.7344H16.5359V18.9354H12.5636V14.3346H16.5359V10.9449C16.5359 7.01064 18.9392 4.86641 22.4507 4.86641C24.1341 4.86641 25.5775 4.99209 26.0003 5.04922V9.15869H25.9965Z" fill="#F7F8FA"/>
</svg>
