<svg width="388" height="278" viewBox="0 0 388 278" fill="none" xmlns="http://www.w3.org/2000/svg">
<path fill-rule="evenodd" clip-rule="evenodd" d="M0 278C76.7676 278 139 215.768 139 139C139 62.2324 76.7676 0 0 0V278Z" fill="#7764E3"/>
<path d="M213.104 277.538C309.26 277.538 387.209 275.547 387.209 273.09C387.209 270.634 309.26 268.642 213.104 268.642C116.949 268.642 39 270.634 39 273.09C39 275.547 116.949 277.538 213.104 277.538Z" fill="#F5F8FF"/>
<path d="M258.413 0H98.6882C96.3157 0 94.3921 1.92361 94.3921 4.29613V109.435C94.3921 111.808 96.3157 113.731 98.6882 113.731H258.413C260.786 113.731 262.71 111.808 262.71 109.435V4.29613C262.71 1.92361 260.786 0 258.413 0Z" fill="url(#paint0_linear_156_64)"/>
<path d="M254.83 74.0747H225.07C223.966 74.0747 223.071 74.9696 223.071 76.0736V108.371C223.071 109.475 223.966 110.37 225.07 110.37H254.83C255.934 110.37 256.829 109.475 256.829 108.371V76.0736C256.829 74.9696 255.934 74.0747 254.83 74.0747Z" fill="#FEBB94"/>
<path d="M144.392 73.7346H101.346C100.412 73.7346 99.6538 74.4924 99.6538 75.4272V108.677C99.6538 109.612 100.412 110.37 101.346 110.37H144.392C145.327 110.37 146.085 109.612 146.085 108.677V75.4272C146.085 74.4924 145.327 73.7346 144.392 73.7346Z" fill="white"/>
<path d="M217.743 73.7346H151.624C150.474 73.7346 149.542 74.6671 149.542 75.8172V108.287C149.542 109.437 150.474 110.37 151.624 110.37H217.743C218.893 110.37 219.826 109.437 219.826 108.287V75.8172C219.826 74.6671 218.893 73.7346 217.743 73.7346Z" fill="white"/>
<path d="M254.157 14.8542H194.287C192.811 14.8542 191.615 16.0505 191.615 17.5262V67.7948C191.615 69.2701 192.811 70.4663 194.287 70.4663H254.157C255.633 70.4663 256.829 69.2701 256.829 67.7948V17.5262C256.829 16.0505 255.633 14.8542 254.157 14.8542Z" fill="#1C85E8"/>
<path d="M179.82 127.998C183.479 123.955 182.442 122.873 184.158 120.486C185.843 118.158 185.472 111.305 187.08 112.611C188.688 113.917 188.697 116.371 188.697 116.371C190.464 114.469 192.572 110.698 195.657 110.944C198.742 111.191 198.782 112.19 200.138 113.976C203.733 118.777 196.676 123.021 195.212 124.929C194.279 126.121 188.793 129.126 188.08 129.899L185.023 132.651L179.82 127.998Z" fill="#FFCCB3"/>
<path d="M191.615 117.371L196.835 111.544" stroke="#EF6A77" stroke-width="1.07832" stroke-linecap="round"/>
<path d="M193.731 119.021L199.167 113.731" stroke="#EF6A77" stroke-width="1.07832" stroke-linecap="round"/>
<path d="M196.267 120.892L199.424 117.656" stroke="#EF6A77" stroke-width="1.07832" stroke-linecap="round"/>
<path d="M125.008 160.709L94.3921 270.614H100.629L136.016 160.709H125.008Z" fill="#D1E8F7"/>
<path d="M125.008 160.709L122.761 168.779L134.491 165.447L136.017 160.709H125.008Z" fill="#5CA4E6"/>
<path d="M342.556 248.219L325.97 270.268C325.581 270.787 324.998 271.13 324.357 271.221C323.712 271.312 323.058 271.144 322.541 270.753L321 269.595L340.531 243.63L342.072 244.788C342.592 245.178 342.932 245.759 343.024 246.403C343.115 247.047 342.949 247.7 342.556 248.219Z" fill="#5661AE"/>
<path d="M326.913 235.308L332.891 240.168L326.818 249.542L320.074 244.396L326.913 235.308Z" fill="#BC775C"/>
<path d="M329.566 237.676L322.119 245.8L320.306 244.37L327.282 235.8L329.566 237.676Z" fill="#93523E" stroke="#93523E"/>
<path d="M332.089 239.565C332.089 239.565 330.41 245.47 324.877 248.495L319.881 268.03C320.041 269.151 321.294 269.871 322.125 270.138C322.309 270.196 322.505 270.195 322.688 270.136C322.871 270.077 323.029 269.963 323.143 269.809L340.874 246.239C341.168 245.846 341.299 245.353 341.237 244.864C341.172 244.377 340.92 243.933 340.53 243.63C338.983 242.415 336.604 240.584 335.577 239.956C333.983 238.984 332.851 238.76 332.089 239.565Z" fill="#1C85E8"/>
<path d="M323.723 252.546L326.566 251.936C326.671 251.914 326.779 251.918 326.88 251.947C326.982 251.976 327.073 252.03 327.152 252.103C327.227 252.177 327.286 252.269 327.319 252.369C327.351 252.471 327.358 252.578 327.338 252.683C327.315 252.811 327.256 252.929 327.165 253.023C327.073 253.115 326.959 253.179 326.831 253.205L323.34 253.91L323.723 252.546Z" fill="white"/>
<path d="M323.051 255.641L325.878 255.025C325.983 255.002 326.091 255.006 326.192 255.035C326.294 255.064 326.389 255.118 326.464 255.192C326.542 255.265 326.598 255.357 326.631 255.458C326.664 255.559 326.67 255.667 326.654 255.771C326.631 255.899 326.569 256.018 326.477 256.111C326.389 256.204 326.271 256.268 326.143 256.294L322.701 257.007L323.051 255.641Z" fill="white"/>
<path d="M322.188 259.011L324.986 258.387C325.09 258.364 325.198 258.368 325.3 258.397C325.401 258.426 325.496 258.48 325.571 258.554C325.646 258.627 325.705 258.719 325.738 258.82C325.771 258.921 325.777 259.028 325.758 259.133C325.735 259.261 325.676 259.38 325.584 259.473C325.493 259.566 325.378 259.629 325.251 259.655L321.848 260.342L322.188 259.011Z" fill="white"/>
<path d="M270.072 209.613L317.408 247.749L328.205 235.165L286.818 196.336L270.072 209.613Z" fill="#1F2D49"/>
<path d="M295.461 204.445V230.068L317.407 247.749L320.558 227.99L295.461 204.445Z" fill="#0D1B33"/>
<path d="M274.272 139.501L266.492 201.547H288.246L307.143 139.812L274.272 139.501Z" fill="#1F2D49"/>
<path d="M292.952 186.176L296.605 155.395H305.589L292.952 186.176Z" fill="#0D1B33"/>
<path d="M312.48 271.678H284.89C284.24 271.678 283.616 271.42 283.157 270.96C282.697 270.5 282.439 269.877 282.439 269.227V267.301H314.931V269.227C314.931 269.877 314.672 270.5 314.214 270.96C313.753 271.42 313.131 271.678 312.48 271.678Z" fill="#5661AE"/>
<path d="M313.392 251.414L313.105 259.114L301.96 259.894L302.02 251.414H313.392Z" fill="#BC775C"/>
<path d="M313.098 254.96L302.127 253.891L302.18 251.583L313.222 252.006L313.098 254.96Z" fill="#93523E" stroke="#93523E"/>
<path d="M313.105 258.111C313.105 258.111 307.375 260.319 301.632 257.717L283.017 265.466C282.216 266.267 282.394 267.701 282.681 268.527C282.745 268.708 282.864 268.864 283.021 268.975C283.178 269.085 283.365 269.144 283.557 269.143H313.049C313.543 269.143 314.014 268.951 314.368 268.606C314.718 268.262 314.921 267.793 314.93 267.301C314.97 265.332 315.002 262.332 314.888 261.131C314.708 259.276 314.204 258.234 313.105 258.111Z" fill="#1C85E8"/>
<path d="M297.699 259.227L299.896 261.133C299.976 261.202 300.038 261.291 300.076 261.39C300.114 261.489 300.127 261.596 300.114 261.701C300.101 261.807 300.063 261.907 300.001 261.994C299.941 262.081 299.859 262.152 299.765 262.2C299.648 262.259 299.517 262.282 299.388 262.265C299.259 262.248 299.138 262.193 299.041 262.107L296.379 259.741L297.699 259.227Z" fill="white"/>
<path d="M294.822 260.551L297.016 262.441C297.096 262.511 297.158 262.599 297.196 262.698C297.234 262.797 297.247 262.904 297.234 263.01C297.221 263.115 297.183 263.216 297.121 263.303C297.06 263.39 296.979 263.46 296.884 263.508C296.768 263.568 296.637 263.59 296.508 263.573C296.379 263.557 296.258 263.501 296.16 263.415L293.521 261.093L294.822 260.551Z" fill="white"/>
<path d="M291.611 261.888L293.791 263.747C293.871 263.817 293.933 263.905 293.972 264.004C294.01 264.103 294.023 264.21 294.01 264.316C293.997 264.421 293.958 264.522 293.897 264.609C293.836 264.696 293.755 264.766 293.66 264.814C293.544 264.874 293.413 264.896 293.284 264.88C293.155 264.863 293.033 264.808 292.936 264.721L290.343 262.416L291.611 261.888Z" fill="white"/>
<path d="M320.342 139.812C320.162 142.958 320.162 146.112 320.342 149.259C321.065 159.429 318.752 189.13 318.771 193.038C318.788 196.947 316.216 251.992 316.216 251.992H300.574C300.574 251.992 296.576 204.686 296.484 199.271C296.392 193.858 295.461 140.034 295.461 140.034L320.342 139.812Z" fill="#1F2D49"/>
<path d="M273.801 143.258L320.342 149.259V139.812L274.042 141.334L273.801 143.258Z" fill="#0D1B33"/>
<path d="M277.369 212.424C283.377 212.424 288.246 207.554 288.246 201.547C288.246 195.539 283.377 190.669 277.369 190.669C271.362 190.669 266.492 195.539 266.492 201.547C266.492 207.554 271.362 212.424 277.369 212.424Z" fill="#1F2D49"/>
<path d="M358.428 155.395H72.8618V160.709H358.428V155.395Z" fill="url(#paint1_linear_156_64)"/>
<path fill-rule="evenodd" clip-rule="evenodd" d="M209.893 265.02C205.674 263.529 201.324 261.992 197.315 262.277C197.225 262.284 197.137 262.309 197.057 262.353C196.978 262.396 196.909 262.456 196.855 262.529C196.801 262.602 196.763 262.685 196.745 262.774C196.727 262.863 196.728 262.954 196.748 263.043L198.427 270.136C198.462 270.282 198.548 270.41 198.67 270.498C198.792 270.585 198.942 270.625 199.091 270.611L226.351 267.979C228.361 267.785 229.33 266.594 229.474 264.954C229.478 264.898 229.466 264.842 229.439 264.792C229.412 264.742 229.371 264.702 229.321 264.675C229.271 264.649 229.215 264.636 229.159 264.641C229.102 264.645 229.048 264.666 229.004 264.7C225.996 266.956 222.224 267.945 218.497 267.456C215.805 267.109 212.882 266.076 209.893 265.02Z" fill="#5661AE"/>
<path fill-rule="evenodd" clip-rule="evenodd" d="M195.147 244.555C195.147 244.555 197.959 255.701 198.038 256.897C198.045 257.562 198.002 258.226 197.912 258.885C197.786 260.068 197.646 261.387 197.857 262.252C201.714 262.132 205.863 263.598 209.893 265.022C212.882 266.077 215.805 267.11 218.496 267.456C222.044 267.921 225.638 267.049 228.578 265.009C228.456 262.974 226.525 261.258 222.964 261.293C216.581 261.354 213.049 261.24 209.528 256.942C207.026 253.888 205.818 241.005 205.818 241.005L195.147 244.555Z" fill="#FFCCB3"/>
<path fill-rule="evenodd" clip-rule="evenodd" d="M208.714 255.162C207.538 255.437 202.859 256.511 198.294 257.255C197.407 257.399 197.125 259.231 197.796 260.142C198.258 260.815 198.665 261.524 199.013 262.263C200.603 262.357 202.18 262.615 203.717 263.034C202.906 261.296 203.773 260.159 205.445 259.748C206.766 259.423 209.952 259.368 211.601 259.362C211.692 259.362 211.781 259.335 211.857 259.286C211.933 259.237 211.993 259.167 212.031 259.085C212.069 259.002 212.082 258.91 212.069 258.821C212.057 258.731 212.018 258.647 211.96 258.578L209.183 255.317C209.127 255.25 209.053 255.201 208.97 255.173C208.887 255.146 208.799 255.142 208.714 255.162Z" fill="white"/>
<path fill-rule="evenodd" clip-rule="evenodd" d="M225.409 266.667C222.49 267.798 220.448 267.563 220.448 267.563L219.826 261.115L224.849 260.864L225.409 266.667Z" fill="white"/>
<path d="M192.492 199.583C197.334 198.131 200.081 193.028 198.629 188.187C197.177 183.345 192.075 180.597 187.233 182.049C182.391 183.502 179.643 188.604 181.095 193.446C182.547 198.288 187.65 201.035 192.492 199.583Z" fill="#FFCCB3"/>
<path d="M192.57 182.072L177.397 176.878L170.335 195.904L189.964 199.322L192.57 182.072Z" fill="#FFCCB3"/>
<path d="M198.935 189.6L206.637 247.161L196.646 250.619L181.541 195.966L198.935 189.6Z" fill="#FFCCB3"/>
<path fill-rule="evenodd" clip-rule="evenodd" d="M167.296 269.011C163.309 266.977 159.201 264.88 155.189 264.633C155.099 264.627 155.008 264.641 154.924 264.674C154.839 264.706 154.763 264.757 154.699 264.822C154.637 264.887 154.588 264.965 154.558 265.05C154.529 265.136 154.518 265.227 154.526 265.317L155.255 272.57C155.27 272.719 155.338 272.858 155.448 272.961C155.557 273.063 155.7 273.123 155.851 273.128L183.219 274.114C185.237 274.187 186.355 273.135 186.715 271.528C186.726 271.473 186.721 271.415 186.701 271.363C186.68 271.31 186.645 271.264 186.599 271.231C186.553 271.198 186.499 271.179 186.443 271.176C186.386 271.173 186.33 271.186 186.281 271.214C183.002 273.054 179.133 273.537 175.502 272.56C172.88 271.862 170.119 270.452 167.296 269.011Z" fill="#5661AE"/>
<path fill-rule="evenodd" clip-rule="evenodd" d="M155.377 246.779C155.377 246.779 156.695 258.199 156.616 259.395C156.534 260.055 156.405 260.708 156.228 261.349C155.948 262.505 155.635 263.794 155.73 264.679C159.569 265.069 163.488 267.07 167.296 269.012C170.119 270.453 172.88 271.862 175.502 272.56C178.958 273.489 182.636 273.099 185.819 271.464C185.966 269.431 184.279 267.475 180.744 267.04C174.409 266.259 170.923 265.68 167.999 260.955C165.921 257.598 166.424 244.667 166.424 244.667L155.377 246.779Z" fill="#FCBA9F"/>
<path fill-rule="evenodd" clip-rule="evenodd" d="M167.426 259.083C166.224 259.201 161.445 259.649 156.821 259.783C155.923 259.81 155.403 261.589 155.947 262.58C156.316 263.308 156.627 264.064 156.874 264.843C158.438 265.146 159.967 265.61 161.435 266.227C160.861 264.398 161.87 263.385 163.582 263.198C164.933 263.05 168.099 263.416 169.735 263.627C169.825 263.639 169.916 263.624 169.998 263.586C170.08 263.547 170.149 263.486 170.197 263.409C170.246 263.332 170.271 263.244 170.27 263.153C170.269 263.062 170.243 262.974 170.193 262.898L167.871 259.299C167.824 259.226 167.758 259.166 167.679 259.128C167.601 259.09 167.513 259.075 167.426 259.083Z" fill="white"/>
<path fill-rule="evenodd" clip-rule="evenodd" d="M182.458 272.689C179.415 273.425 177.423 272.923 177.423 272.923L177.656 266.45L182.669 266.863L182.458 272.689Z" fill="white"/>
<path d="M158.676 201.851C163.667 201.049 167.064 196.354 166.263 191.363C165.462 186.372 160.767 182.975 155.776 183.776C150.784 184.577 147.388 189.272 148.189 194.263C148.99 199.255 153.685 202.652 158.676 201.851Z" stroke="#5CA4E6" stroke-width="1.0969" stroke-miterlimit="10"/>
<path d="M166.38 192.805L166.423 250.879L156.063 252.988L148.298 196.821L166.38 192.805Z" fill="#FCBA9F"/>
<path d="M139.259 171.602C139.259 171.602 136.473 185.233 140.124 190.93C144.744 198.14 150.396 199.244 154.572 199.322L177.136 197.375C177.136 197.375 176.987 184.402 185.344 179.555C185.344 179.555 151.093 166.914 139.259 171.602Z" fill="#5661AE"/>
<path d="M130.573 102.057L128.78 111.211L118.407 110.507L120.394 100.776L130.573 102.057Z" fill="#FFCCB3"/>
<path d="M130.468 102.589L129.597 107.036C129.597 107.036 127.213 105.004 126.753 101.833L130.468 102.589Z" fill="#FCBA9F"/>
<path d="M115.208 113.11C115.208 113.11 117.571 106.945 118.981 107.693C122.332 109.472 127.227 109.143 129.394 108.073C130.693 107.433 130.742 113.11 130.742 113.11H115.208Z" fill="#FEBB94"/>
<path d="M115.209 113.109L105.254 114.443C104.981 114.479 104.733 114.621 104.562 114.838C104.392 115.055 104.312 115.329 104.341 115.603L111.292 181.54L146.956 178.039L142.542 115.295L130.742 113.109H115.209Z" fill="#FEBB94"/>
<path d="M140.588 131.897L137.807 126.838L138.491 131.897H140.588Z" fill="#FF967C"/>
<path d="M141.924 115.18C145.685 115.757 148.837 118.263 149.89 120.453L159.194 141.647L182.04 123.376L188.534 130.217L167.998 155.589C163.868 161.028 156.725 163.266 151.859 156.173L144.086 143.963L141.924 115.18Z" fill="#FEBB94"/>
<path d="M159.194 141.647L161.794 146.757L163.772 137.986L159.194 141.647Z" fill="#FF967C"/>
<path d="M105.33 114.433C105.33 114.433 102.644 114.385 100.385 118.338C98.1267 122.289 88.9802 146.229 88.9802 146.229C88.9802 146.229 84.8022 155.262 93.2714 155.601H111L105.33 114.433Z" fill="#FEBB94"/>
<path d="M107.33 131.897L106.588 128.582L104.721 131.897H107.33Z" fill="#FF967C"/>
<path d="M154.23 199.299H115.513C114.293 199.299 113.115 198.859 112.194 198.06C111.272 197.261 110.67 196.156 110.498 194.949L102.315 137.679C102.213 136.961 102.266 136.229 102.471 135.532C102.676 134.836 103.028 134.192 103.503 133.644C103.979 133.095 104.567 132.656 105.227 132.354C105.887 132.053 106.605 131.897 107.33 131.897H146.048C147.267 131.897 148.446 132.337 149.367 133.136C150.288 133.935 150.89 135.039 151.063 136.246L159.245 193.516C159.348 194.235 159.295 194.967 159.09 195.663C158.885 196.359 158.533 197.003 158.057 197.552C157.582 198.1 156.994 198.54 156.334 198.841C155.673 199.143 154.956 199.299 154.23 199.299Z" fill="#5CA4E6"/>
<path d="M151.62 199.299H181.271C181.526 199.299 181.776 199.231 181.996 199.103C182.216 198.975 182.399 198.792 182.525 198.571C182.651 198.35 182.717 198.099 182.715 197.845C182.713 197.59 182.644 197.34 182.515 197.121C182.413 196.95 182.278 196.801 182.117 196.685C181.956 196.568 181.772 196.486 181.578 196.444L157.575 191.226L151.62 199.299Z" fill="#5CA4E6"/>
<path d="M151.62 199.299H112.903C111.683 199.299 110.505 198.859 109.584 198.06C108.662 197.261 108.06 196.156 107.888 194.949L99.7058 137.679C99.603 136.961 99.656 136.229 99.8608 135.532C100.066 134.836 100.418 134.192 100.893 133.644C101.369 133.095 101.957 132.656 102.617 132.354C103.277 132.053 103.995 131.897 104.72 131.897H143.438C144.657 131.897 145.836 132.337 146.757 133.136C147.678 133.935 148.28 135.039 148.453 136.246L156.635 193.516C156.738 194.235 156.685 194.967 156.48 195.663C156.275 196.359 155.923 197.003 155.447 197.552C154.972 198.1 154.384 198.54 153.724 198.841C153.063 199.143 152.346 199.299 151.62 199.299Z" fill="url(#paint2_linear_156_64)"/>
<path d="M309.745 146.666C309.745 146.666 307.654 150.616 307.143 151.069C306.636 151.523 298.233 152.559 296.606 153.142C294.979 153.724 294.202 154.606 294.202 155.395H313.952C313.952 155.395 314.463 154.919 314.833 153.401C315.199 151.882 315.844 151.238 315.844 151.238L309.745 146.666Z" fill="#BC775C"/>
<path d="M281.354 84.4335C282.653 78.021 279.599 78.1863 278.582 77.1667C278.582 77.1667 274.768 74.0217 271.862 76.9534C268.786 80.0542 251.154 104.143 251.154 104.143L262.187 114.289L264.26 111.815L269.632 105.408L275.378 98.5606L276.091 97.7812L283.842 89.0022C283.842 89.0022 280.62 87.8095 281.354 84.4335Z" fill="#5661AE"/>
<path d="M285.969 85.5263C287.456 81.0862 285.062 76.2809 280.622 74.7938C276.181 73.3067 271.376 75.7005 269.889 80.1405C268.402 84.581 270.796 89.3859 275.236 90.873C279.676 92.3605 284.481 89.9663 285.969 85.5263Z" fill="#5661AE"/>
<path d="M275.99 97.7471C276.212 96.4066 276.658 93.7262 277.136 91.2833L279.682 79.459C279.682 79.459 272.845 89.5629 269.696 96.6009C267.364 101.875 264.658 107.25 264.21 111.798L269.581 105.391L275.327 98.5435L275.99 97.7471Z" fill="#465393"/>
<path d="M240.134 77.0231C237.513 72.2414 238.772 71.4299 237.657 68.7093C236.558 66.0547 238.509 59.4737 236.641 60.3709C234.774 61.2684 234.196 63.653 234.196 63.653C232.919 61.3934 231.743 57.2363 228.685 56.7606C225.627 56.2848 225.357 57.2471 223.623 58.6691C219.013 62.5056 224.892 68.2708 225.873 70.4663C226.505 71.8425 231.144 76.0382 231.658 76.955L233.993 80.3422L240.134 77.0231Z" fill="#BC775C"/>
<path d="M231.127 63.9494L227.401 57.0701" stroke="#93523E" stroke-width="1.07832" stroke-linecap="round"/>
<path d="M228.685 65.0633L224.625 58.6567" stroke="#93523E" stroke-width="1.07832" stroke-linecap="round"/>
<path d="M225.785 66.2948L223.464 62.4149" stroke="#93523E" stroke-width="1.07832" stroke-linecap="round"/>
<path d="M232.047 70.0053C232.067 67.6233 233.497 64.741 233.497 64.741" stroke="#93523E" stroke-width="1.07832" stroke-linecap="round"/>
<path d="M262.28 103.951L239.846 74.0746C239.703 73.8992 239.5 73.7827 239.276 73.748C239.052 73.713 238.824 73.7624 238.634 73.8861L232.76 77.7713C232.481 77.9604 232.282 78.2464 232.202 78.5739C232.122 78.9014 232.166 79.2473 232.327 79.5437L250.368 112.815L262.28 103.951Z" fill="#5661AE"/>
<path d="M256.829 116.57C260.978 116.57 264.342 113.206 264.342 109.057C264.342 104.908 260.978 101.544 256.829 101.544C252.68 101.544 249.316 104.908 249.316 109.057C249.316 113.206 252.68 116.57 256.829 116.57Z" fill="#5661AE"/>
<path d="M288.219 70.4133C288.219 70.4133 277.266 73.8977 275.105 74.8014C272.944 75.7054 272.799 79.3217 272.655 81.883C272.555 83.6777 274.58 113.147 274.714 130.215C274.742 133.861 274.062 136.174 273.625 138.201C273.189 140.227 273.625 141.33 273.625 141.33L320.558 141.75C320.558 141.75 319.151 82.4497 318.863 80.3406C318.575 78.2311 320.84 76.4145 318.386 75.3527L300.464 70.4133H288.219Z" fill="white"/>
<path d="M282.33 72.3153C282.33 72.3153 284.118 80.4953 285.29 87.0419C286.461 93.5885 286.818 147.784 286.818 147.784C286.818 147.784 273.103 145.118 271.246 141.968C269.388 138.817 272.966 124.66 273.245 111.798C273.523 98.9353 270.816 78.9741 273.659 75.5111C273.659 75.5114 274.388 74.7886 282.33 72.3153Z" fill="#5661AE"/>
<path d="M305.379 71.7894C305.379 71.7894 298.872 85.3473 299.27 89.4795C299.668 93.6117 299.691 128.851 299.27 136.209C299.009 140.684 298.327 145.126 297.233 149.474C297.233 149.474 314.986 150.731 321.844 148.584C321.844 148.584 325.103 128.083 322.963 120.759C320.826 113.435 319.193 75.3723 319.193 75.3723L305.379 71.7894Z" fill="#5661AE"/>
<path d="M310.182 90.0089C310.182 90.0089 310.847 114.58 310.709 122.77C310.624 127.874 304.787 130.035 304.771 132.99C304.761 134.738 309.377 132.692 310.624 134.499C311.867 136.306 309.741 141.967 309.741 141.967L320.558 141.75L324.893 120.721L315.761 88.7443L310.182 90.0089Z" fill="#465393"/>
<path d="M288.444 64.9367L287.428 76.3877C287.428 76.3877 287.157 78.1663 290.247 78.7291C292.7 79.1757 297.797 76.2934 298.948 75.3439C301.505 73.2335 301.741 71.9564 301.471 70.9784C301.084 69.577 299.819 59.7021 299.819 59.7021L288.444 64.9367Z" fill="#BC775C"/>
<path d="M287.777 74.308L288.403 67.2499L293.856 64.5568L287.777 74.308Z" fill="#93523E" stroke="#93523E"/>
<path d="M282.383 43.2636C282.383 43.2636 280.295 52.6192 280.017 58.9908C279.736 65.4192 282.033 66.6433 284.881 67.1233C287.128 67.5019 290.622 67.5293 292.819 66.4322C296.825 64.4314 303.403 59.5755 304.264 58.6335C305.599 57.1748 305.507 50.6691 300.415 49.0603C296.712 47.8899 287.271 37.9545 282.383 43.2636Z" fill="#BC775C"/>
<path d="M282.404 44.2613C285.442 45.4519 291.158 44.6696 294.299 45.6888C297.434 46.7107 294.581 47.7895 294.718 50.819C294.806 52.7812 294.955 56.5309 296.159 56.4812C297.363 56.4318 298.072 52.1733 300.612 52.3356C303.151 52.5011 304.348 53.5855 304.292 55.2094C304.238 56.8303 302.413 58.2428 300.973 58.9928C299.171 59.9259 298.428 59.5346 298.428 59.5346C298.428 59.5346 300.456 67.0013 300.762 66.7055C300.762 66.7055 302.949 65.471 303.344 63.3098C303.344 63.3098 306.247 62.681 305.605 59.7777C305.605 59.7777 307.411 59.1976 306.554 57.5168C306.554 57.5168 311.226 54.375 308.792 50.5304C308.792 50.5304 311.007 48.3198 308.36 47.385C308.36 47.385 311.868 42.2604 306.878 41.1679C306.878 41.1679 307.212 38.7558 304.928 38.8478C304.928 38.8478 303.931 34.6989 298.947 36.3352C298.923 35.5044 298.649 34.7002 298.16 34.0281C297.672 33.356 296.991 32.8472 296.208 32.5688C293.385 31.4321 291.548 32.9965 291.548 32.9965C291.548 32.9965 288.586 30.5804 287.027 34.1227C287.027 34.1227 284.786 32.9775 283.107 34.1943C281.425 35.4073 282.242 37.9499 282.242 37.9499C282.242 37.9499 280.32 37.4994 279.618 39.0915C278.628 41.3319 280.019 42.1482 280.019 42.1482C280.019 42.1482 276.889 45.8482 281.29 49.3528L282.404 44.2613Z" fill="#493212"/>
<path d="M290.048 53.4974C290.213 52.7406 289.945 52.0394 289.45 51.9311C288.954 51.8228 288.418 52.3486 288.253 53.1051C288.087 53.8616 288.355 54.5628 288.851 54.6711C289.347 54.7794 289.883 54.2539 290.048 53.4974Z" fill="#080B09"/>
<path d="M283.227 51.9612C283.392 51.2047 283.125 50.5035 282.629 50.3952C282.133 50.2869 281.597 50.8124 281.432 51.5692C281.267 52.3257 281.535 53.0269 282.03 53.1352C282.526 53.2435 283.062 52.718 283.227 51.9612Z" fill="#080B09"/>
<path d="M284.576 53.9702C284.576 53.9702 285.423 55.6016 284.199 55.6265C283.029 55.6101 282.348 56.2963 283.528 57.2906" stroke="#93523E" stroke-width="1.07832" stroke-linecap="round"/>
<path d="M283.709 58.799L283.714 58.7997L283.719 58.8C284.445 58.852 285.893 58.9564 286.856 59.0418H286.858C286.886 59.0441 286.913 59.0539 286.936 59.0703C286.959 59.0869 286.977 59.1092 286.988 59.1354C286.999 59.1612 287.002 59.1897 286.998 59.2175C286.995 59.2443 286.984 59.2699 286.967 59.2911C286.755 59.5244 286.476 59.8019 286.166 60.0411C285.853 60.2829 285.519 60.4772 285.198 60.5544C284.883 60.6303 284.586 60.5934 284.32 60.3804C284.047 60.1605 283.785 59.7374 283.59 58.993L283.586 58.9803L283.581 58.9682C283.572 58.9485 283.569 58.9266 283.572 58.9053C283.574 58.8838 283.582 58.8635 283.595 58.8461C283.608 58.8288 283.626 58.8154 283.646 58.8072C283.666 58.7987 283.687 58.7961 283.709 58.799Z" fill="#93523E" stroke="#93523E"/>
<path d="M292.425 51.0042L292.357 51.1412C292.275 51.3497 292.115 51.5172 291.91 51.6078C291.705 51.6981 291.473 51.704 291.265 51.6239L287.71 50.1528C287.536 50.0886 287.391 49.961 287.306 49.7955C287.22 49.6299 287.2 49.4382 287.249 49.2585C287.274 49.147 287.322 49.0419 287.391 48.9507C287.459 48.859 287.546 48.7834 287.646 48.7281C287.746 48.6729 287.857 48.6392 287.971 48.63C288.085 48.6205 288.199 48.6352 288.307 48.6735L291.929 50.0078C292.028 50.0389 292.12 50.09 292.199 50.1574C292.278 50.2251 292.342 50.3079 292.389 50.4008C292.435 50.4937 292.462 50.5951 292.468 50.6989C292.474 50.8026 292.46 50.9063 292.425 51.0042Z" fill="#080B09"/>
<path d="M280.432 47.6952L284.283 47.4358C284.398 47.4292 284.511 47.4472 284.618 47.4884C284.725 47.5297 284.821 47.5928 284.902 47.674C284.982 47.7551 285.044 47.8526 285.084 47.9596C285.124 48.0666 285.141 48.1808 285.133 48.295C285.13 48.4812 285.057 48.6595 284.928 48.7943C284.799 48.9291 284.625 49.0106 284.439 49.023L280.614 49.433C280.391 49.451 280.17 49.3803 279.999 49.2357C279.829 49.0914 279.722 48.8853 279.702 48.6624L279.675 48.5119C279.67 48.4082 279.685 48.3041 279.72 48.2066C279.755 48.1088 279.81 48.0192 279.881 47.9429C279.951 47.8667 280.036 47.8055 280.131 47.763C280.226 47.7204 280.328 47.6975 280.432 47.6952Z" fill="#080B09"/>
<path d="M319.547 81.2645C314.711 76.8555 313.285 79.5611 311.887 79.9096C311.887 79.9096 307.231 81.5656 308.252 85.5649C309.332 89.7969 320.938 117.3 320.938 117.3L335.583 113.833L334.255 109.998L331.519 102.098L328.597 93.6503L328.293 92.6373L324.743 81.4772C324.743 81.4772 322.067 83.6292 319.547 81.2645Z" fill="#5661AE"/>
<path d="M321.929 89.8221C325.486 86.7769 325.901 81.4245 322.855 77.8675C319.809 74.3102 314.456 73.8953 310.899 76.9406C307.342 79.9858 306.927 85.3382 309.973 88.8951C313.019 92.4525 318.369 92.8673 321.929 89.8221Z" fill="#5661AE"/>
<path d="M320.826 113.435L307.873 148.48C307.804 148.695 307.817 148.929 307.909 149.135C308 149.342 308.164 149.508 308.373 149.6L314.819 152.432C315.13 152.564 315.48 152.576 315.797 152.466C316.115 152.356 316.383 152.131 316.543 151.835L334.732 118.643L320.826 113.435Z" fill="#5661AE"/>
<path d="M328.071 122.763C332.219 122.763 335.583 119.399 335.583 115.25C335.583 111.101 332.219 107.737 328.071 107.737C323.922 107.737 320.558 111.101 320.558 115.25C320.558 119.399 323.922 122.763 328.071 122.763Z" fill="#5661AE"/>
<path d="M125.218 199.299H153.444C153.444 202.413 152.207 205.399 150.005 207.601C147.803 209.803 144.816 211.04 141.702 211.04H136.959C133.845 211.04 130.859 209.803 128.657 207.601C126.455 205.399 125.218 202.413 125.218 199.299Z" fill="#E7EFFF"/>
<path d="M139.957 211.04H138.704V267.479H139.957V211.04Z" fill="#5CA4E6"/>
<path d="M138.704 267.479L121.5 273.054H156.895L139.957 267.479H138.704Z" fill="#5CA4E6"/>
<path d="M82.8138 160.709L52.1978 270.614H58.4345L93.8218 160.709H82.8138Z" fill="#E7EFFF"/>
<path d="M82.8138 160.709L80.5659 168.779L92.2963 165.447L93.8217 160.709H82.8138Z" fill="#96BAFD"/>
<path d="M343.809 160.709L374.425 270.614H368.189L332.799 160.709H343.809Z" fill="#D1E8F7"/>
<path d="M343.809 160.709L345.527 166.878L334.386 165.634L332.799 160.709H343.809Z" fill="#5CA4E6"/>
<path d="M131.044 82.6509C131.044 82.6509 135.16 90.0793 136.588 93.1451C138.016 96.2107 138.504 99.518 136.126 101.04C132.891 103.112 129.311 102.651 125.452 102.22C122.112 101.847 117.927 92.4488 118.44 90.1414C118.953 87.834 124.761 78.5785 131.044 82.6509Z" fill="#FFCCB3"/>
<path d="M134.113 91.1653C134.413 90.9228 134.367 90.3682 134.009 89.9265C133.652 89.4848 133.12 89.3228 132.82 89.5653C132.52 89.8077 132.566 90.3623 132.924 90.804C133.281 91.2461 133.813 91.4077 134.113 91.1653Z" fill="#080B09"/>
<path d="M129.678 90.0357L132.819 87.8019C132.743 87.7129 132.648 87.6409 132.542 87.5905C132.436 87.5405 132.32 87.513 132.203 87.51C132.085 87.5071 131.969 87.529 131.86 87.5738C131.752 87.619 131.654 87.6861 131.573 87.7711L129.492 89.8809C129.418 89.9408 129.567 90.1253 129.678 90.0357Z" fill="#080B09"/>
<path d="M135.994 95.7758C135.572 96.0382 135.086 96.1769 134.589 96.1769C134.092 96.1769 133.605 96.0382 133.184 95.7758" stroke="#EF6A77" stroke-miterlimit="10" stroke-linecap="round"/>
<path d="M128.091 87.1063L134.817 83.7044C134.817 83.7044 132.378 75.7705 123.442 74.9417C116.887 74.3334 110.794 77.9477 108.433 83.5938C106.071 89.2403 108.09 98.5429 114.079 100.776C119.144 102.665 118.981 107.693 118.981 107.693L126.398 97.9667C126.398 97.9667 121.267 95.4702 122.497 92.423C124.165 88.2917 128.357 93.0675 128.357 93.0675L125.521 84.812L128.091 87.1063Z" fill="#1F2D49"/>
<path d="M135.199 90.3652C135.199 90.3652 136.321 91.8268 137 92.1089C137.679 92.3909 137.071 93.4291 136.619 93.5734C136.167 93.7177 134.941 91.0553 135.199 90.3652Z" fill="#FFCCB3"/>
<path d="M107.47 98.3351C111.872 98.3351 115.44 94.767 115.44 90.3652C115.44 85.9637 111.872 82.3953 107.47 82.3953C103.068 82.3953 99.5 85.9637 99.5 90.3652C99.5 94.767 103.068 98.3351 107.47 98.3351Z" fill="#0D1B33"/>
<path d="M106.588 98.6852C110.99 98.6852 114.558 95.1171 114.558 90.7153C114.558 86.3138 110.99 82.7454 106.588 82.7454C102.187 82.7454 98.6182 86.3138 98.6182 90.7153C98.6182 95.1171 102.187 98.6852 106.588 98.6852Z" fill="#1F2D49"/>
<path d="M184.759 14.8542H102.309C100.843 14.8542 99.6538 16.043 99.6538 17.5091V67.7584C99.6538 69.2246 100.843 70.4133 102.309 70.4133H184.759C186.225 70.4133 187.414 69.2246 187.414 67.7584V17.5091C187.414 16.043 186.225 14.8542 184.759 14.8542Z" fill="#FEBB94"/>
<path d="M156.687 81.6287H161.095" stroke="#D4DCF4" stroke-width="12" stroke-miterlimit="10" stroke-linecap="round"/>
<path d="M170.798 81.6287H211.847" stroke="#5661AE" stroke-width="12" stroke-miterlimit="10" stroke-linecap="round"/>
<path d="M156.687 91.2841H161.095" stroke="#D4DCF4" stroke-width="12" stroke-miterlimit="10" stroke-linecap="round"/>
<path d="M170.798 91.2841H189.911" stroke="#5661AE" stroke-width="12" stroke-miterlimit="10" stroke-linecap="round"/>
<path d="M156.687 101.109H161.095" stroke="#D4DCF4" stroke-width="12" stroke-miterlimit="10" stroke-linecap="round"/>
<path d="M170.798 101.109H203.666" stroke="#5661AE" stroke-width="12" stroke-miterlimit="10" stroke-linecap="round"/>
<path d="M105.49 44.662C105.49 44.662 112.756 43.1317 115.06 46.6652C117.364 50.1986 119.669 56.8365 124.893 55.9756C130.116 55.1151 132.637 37.7536 137.861 37.907C143.084 38.0608 142.253 49.4306 147.938 49.5841C153.622 49.7379 152.038 43.2299 155.833 43.4079C160.437 43.6235 159.921 57.1123 165.913 57.2658C171.904 57.4195 171.29 39.4445 180.354 39.7518" stroke="white" stroke-width="6.35676" stroke-miterlimit="10" stroke-linecap="round"/>
<path d="M107.807 23.2649H122.313" stroke="white" stroke-width="10.0826" stroke-miterlimit="10" stroke-linecap="round"/>
<path opacity="0.4" d="M107.807 30.0345H137.784" stroke="white" stroke-width="10.0826" stroke-miterlimit="10" stroke-linecap="round"/>
<path opacity="0.4" d="M224.222 52.0907C229.43 52.0907 233.652 47.8685 233.652 42.6602C233.652 37.4522 229.43 33.23 224.222 33.23C219.014 33.23 214.792 37.4522 214.792 42.6602C214.792 47.8685 219.014 52.0907 224.222 52.0907Z" fill="white"/>
<path d="M221.305 40.0639V46.0494C221.305 46.2153 221.348 46.3785 221.43 46.5225C221.512 46.6668 221.631 46.7872 221.773 46.8716C221.916 46.9564 222.078 47.0022 222.244 47.0051C222.41 47.0081 222.574 46.9678 222.72 46.888L228.191 43.8954C228.341 43.813 228.467 43.6919 228.554 43.5443C228.642 43.3968 228.688 43.2283 228.688 43.0568C228.688 42.885 228.642 42.7169 228.554 42.5693C228.467 42.4217 228.341 42.3003 228.191 42.2179L222.72 39.2253C222.574 39.1458 222.41 39.1052 222.244 39.1082C222.078 39.1111 221.916 39.1573 221.773 39.2417C221.631 39.3264 221.512 39.4465 221.43 39.5908C221.348 39.7351 221.305 39.898 221.305 40.0639Z" fill="white"/>
<path d="M98.8211 0H258.281C259.455 0 260.582 0.466585 261.413 1.29734C262.243 2.12778 262.71 3.25432 262.71 4.42897V11.1009H94.3921V4.42897C94.3921 3.25432 94.8587 2.12778 95.6894 1.29734C96.5199 0.466585 97.6464 0 98.8211 0Z" fill="#5CA4E6"/>
<path d="M358.428 155.395H311.416V160.709H358.428V155.395Z" fill="#96BAFD"/>
<path d="M301.613 160.709L332.229 270.614H325.993L290.605 160.709H301.613Z" fill="#E7EFFF"/>
<path d="M301.613 160.709L303.861 168.779L292.131 165.447L290.605 160.709H301.613Z" fill="#5CA4E6"/>
<path d="M341.253 66.1515C354.007 66.1515 364.347 55.8117 364.347 43.0568C364.347 30.3016 354.007 19.9618 341.253 19.9618C328.496 19.9618 318.156 30.3016 318.156 43.0568C318.156 55.8117 328.496 66.1515 341.253 66.1515Z" fill="#FEBB94"/>
<path d="M349.482 42.4953C349.482 41.0016 349.077 39.5358 348.308 38.2551C347.539 36.9745 346.436 35.9271 345.117 35.2253C343.799 34.5231 342.313 34.1929 340.821 34.2698C339.329 34.3467 337.886 34.8277 336.65 35.6617C335.409 36.4958 334.421 37.6508 333.787 39.0038C333.152 40.3567 332.9 41.8563 333.054 43.3424C333.207 44.8282 333.76 46.2443 334.657 47.4389C335.553 48.6339 336.761 49.5625 338.145 50.1253V52.8279H344.349V50.1253C345.867 49.5078 347.166 48.4523 348.079 47.0931C348.995 45.7342 349.482 44.1333 349.482 42.4953Z" stroke="white" stroke-width="3.71807" stroke-linecap="round" stroke-linejoin="round"/>
<path d="M338.145 52.8279H344.372V54.1534C344.372 54.7148 344.149 55.2534 343.75 55.6506C343.354 56.0479 342.814 56.271 342.255 56.271H340.262C339.699 56.271 339.163 56.0479 338.763 55.6506C338.368 55.2534 338.145 54.7148 338.145 54.1534V52.8279Z" stroke="white" stroke-width="3.71807" stroke-linecap="round" stroke-linejoin="round"/>
<path d="M339.856 52.8279V43.3729C339.856 43.1464 339.765 42.9295 339.604 42.7695C339.444 42.6095 339.228 42.5195 339.002 42.5195H338.976C338.75 42.5195 338.531 42.6095 338.374 42.7695C338.214 42.9295 338.122 43.1464 338.122 43.3729C338.122 43.4848 338.145 43.5957 338.188 43.6994C338.23 43.8028 338.292 43.8967 338.374 43.9762C338.453 44.0554 338.547 44.1182 338.649 44.1611C338.754 44.204 338.865 44.2259 338.976 44.2259H343.518C343.629 44.2259 343.74 44.204 343.845 44.1611C343.946 44.1182 344.041 44.0554 344.12 43.9762C344.201 43.8967 344.264 43.8028 344.306 43.6994C344.349 43.5957 344.372 43.4848 344.372 43.3729C344.372 43.1464 344.28 42.9295 344.12 42.7695C343.959 42.6095 343.743 42.5195 343.518 42.5195H343.442C343.217 42.5195 343.001 42.6095 342.84 42.7695C342.68 42.9295 342.588 43.1464 342.588 43.3729V52.8279" stroke="white" stroke-width="3.71807" stroke-linecap="round" stroke-linejoin="round"/>
<path d="M341.257 29.8422V31.9559" stroke="white" stroke-width="3.71807" stroke-linecap="round" stroke-linejoin="round"/>
<path d="M333.636 31.8784L334.693 33.7091" stroke="white" stroke-width="3.71807" stroke-linecap="round" stroke-linejoin="round"/>
<path d="M328.058 37.4515L329.887 38.5084" stroke="white" stroke-width="3.71807" stroke-linecap="round" stroke-linejoin="round"/>
<path d="M354.446 37.4696L352.617 38.5265" stroke="white" stroke-width="3.71807" stroke-linecap="round" stroke-linejoin="round"/>
<path d="M348.874 31.8888L347.817 33.7191" stroke="white" stroke-width="3.71807" stroke-linecap="round" stroke-linejoin="round"/>
<path d="M87.4472 14.8542H70.3127C69.1165 14.8542 68.147 15.8241 68.147 17.0203V34.1544C68.147 35.3507 69.1165 36.3205 70.3127 36.3205H87.4472C88.6434 36.3205 89.6129 35.3507 89.6129 34.1544V17.0203C89.6129 15.8241 88.6434 14.8542 87.4472 14.8542Z" fill="#1C85E8"/>
<path d="M87.4472 41.3577H70.3127C69.1165 41.3577 68.147 42.3275 68.147 43.5234V60.6578C68.147 61.8541 69.1165 62.8236 70.3127 62.8236H87.4472C88.6434 62.8236 89.6129 61.8541 89.6129 60.6578V43.5234C89.6129 42.3275 88.6434 41.3577 87.4472 41.3577Z" fill="#1C85E8"/>
<path d="M85.8648 49.1974C85.8537 48.6153 85.7431 48.0391 85.5386 47.4936C85.3577 47.0271 85.0815 46.6033 84.7278 46.2493C84.3738 45.8956 83.95 45.6194 83.4835 45.4385C82.938 45.2343 82.3618 45.1237 81.7797 45.1123C81.0278 45.0766 80.7893 45.0681 78.8824 45.0681C76.9755 45.0681 76.7366 45.0766 75.9877 45.1093C75.4052 45.1208 74.8294 45.2311 74.2839 45.4359C73.8173 45.6165 73.3936 45.8927 73.0396 46.2467C72.6859 46.6004 72.4097 47.0244 72.2288 47.491C72.0243 48.0361 71.914 48.6123 71.9026 49.1948C71.8669 49.9467 71.8584 50.1852 71.8584 52.0921C71.8584 53.999 71.8669 54.2375 71.8996 54.9865C71.9111 55.5689 72.0213 56.1451 72.2262 56.6906C72.4071 57.1571 72.6829 57.5809 73.037 57.9349C73.3907 58.2886 73.8144 58.5648 74.2813 58.7454C74.8264 58.9499 75.4026 59.0605 75.985 59.0719C76.734 59.105 76.9728 59.1131 78.8798 59.1131C80.7864 59.1131 81.0252 59.105 81.7742 59.0719C82.3566 59.0605 82.9328 58.9502 83.4779 58.7454C83.9448 58.5651 84.3685 58.2889 84.7226 57.9352C85.0766 57.5812 85.3524 57.1571 85.533 56.6906C85.7375 56.1451 85.8478 55.5689 85.8596 54.9865C85.8923 54.2375 85.9008 53.999 85.9008 52.0921C85.9008 50.1852 85.8979 49.9467 85.8648 49.1974ZM84.6002 54.9319C84.5956 55.3769 84.5138 55.8179 84.3587 56.2351C84.2416 56.5381 84.0626 56.8129 83.8329 57.0426C83.6032 57.2723 83.328 57.4513 83.0254 57.5684C82.6079 57.7235 82.1671 57.805 81.7221 57.8099C80.9814 57.8429 80.7592 57.8511 78.885 57.8511C77.0111 57.8511 76.7863 57.8429 76.0482 57.8099C75.6029 57.8053 75.1621 57.7238 74.7449 57.5684C74.44 57.4565 74.1642 57.2776 73.9384 57.0443C73.7058 56.8178 73.5268 56.5423 73.4142 56.2377C73.2591 55.8205 73.1777 55.3795 73.1728 54.9345C73.1397 54.1937 73.1315 53.9715 73.1315 52.0977C73.1315 50.2235 73.1397 49.9987 73.1728 49.2605C73.1773 48.8155 73.2588 48.3745 73.4142 47.9573C73.5261 47.652 73.7061 47.3758 73.941 47.1507C74.1674 46.9181 74.4429 46.7391 74.7476 46.6266C75.1647 46.4718 75.6058 46.39 76.0508 46.3851C76.7916 46.3524 77.0141 46.3442 78.8879 46.3442C80.7644 46.3442 80.9866 46.3524 81.7248 46.3851C82.1698 46.3897 82.6108 46.4715 83.028 46.6266C83.3329 46.7385 83.6084 46.9174 83.8345 47.1507C84.0672 47.3772 84.2462 47.653 84.3587 47.9573C84.5138 48.3748 84.5953 48.8155 84.6002 49.2605C84.6332 50.0013 84.6414 50.2235 84.6414 52.0977C84.6414 53.9715 84.6332 54.1911 84.6002 54.9319Z" fill="white"/>
<path d="M78.8823 48.484C78.1687 48.484 77.4711 48.6957 76.8779 49.0923C76.2847 49.4885 75.822 50.0519 75.5491 50.7113C75.2759 51.3706 75.2046 52.096 75.3437 52.7958C75.483 53.4957 75.8266 54.1387 76.3311 54.6432C76.8357 55.1477 77.4786 55.4913 78.1785 55.6307C78.8784 55.7698 79.6038 55.6984 80.2631 55.4252C80.9224 55.1523 81.4858 54.6897 81.8821 54.0965C82.2786 53.5032 82.4903 52.8057 82.4903 52.092C82.49 51.1353 82.1098 50.2175 81.4332 49.5412C80.7565 48.8645 79.839 48.4843 78.8823 48.484ZM78.8823 54.4325C78.4193 54.4325 77.9668 54.2951 77.582 54.0379C77.1972 53.7807 76.8972 53.4152 76.7202 52.9876C76.5428 52.5599 76.4967 52.0894 76.587 51.6353C76.6773 51.1814 76.9002 50.7643 77.2273 50.4371C77.5549 50.1099 77.9717 49.887 78.4259 49.7967C78.8797 49.7064 79.3502 49.7526 79.7779 49.9299C80.2055 50.1069 80.571 50.407 80.8282 50.7917C81.0854 51.1765 81.2228 51.6291 81.2228 52.092C81.2225 52.7127 80.9761 53.3079 80.537 53.7467C80.0982 54.1858 79.503 54.4322 78.8823 54.4325Z" fill="white"/>
<path d="M83.4757 48.3414C83.4757 48.5079 83.4263 48.6708 83.3337 48.8096C83.2411 48.948 83.1096 49.056 82.9558 49.1198C82.802 49.1836 82.6325 49.2003 82.4693 49.1675C82.3057 49.1351 82.1558 49.055 82.0377 48.9372C81.9199 48.8194 81.8397 48.6692 81.8074 48.5059C81.7746 48.3423 81.7913 48.1732 81.8551 48.0191C81.9189 47.8653 82.0269 47.7337 82.1653 47.6411C82.304 47.5485 82.4667 47.4991 82.6335 47.4991C82.8567 47.4991 83.071 47.5878 83.229 47.7459C83.3871 47.9039 83.4757 48.1179 83.4757 48.3414Z" fill="white"/>
<path d="M81.0073 21.8638H82.2307V19.7328C81.6388 19.668 81.0436 19.6363 80.4484 19.6385C78.6842 19.6385 77.4758 20.7481 77.4758 22.7875V24.664H75.5293V27.0463H77.4758V33.0403H79.8624V27.047H81.7304L82.0268 24.6646H79.8621V23.0234C79.8624 22.335 80.0479 21.8638 81.0073 21.8638Z" fill="white"/>
<defs>
<linearGradient id="paint0_linear_156_64" x1="174.361" y1="-0.270267" x2="192.138" y2="242.396" gradientUnits="userSpaceOnUse">
<stop stop-color="white"/>
<stop offset="1" stop-color="#94B9FF"/>
</linearGradient>
<linearGradient id="paint1_linear_156_64" x1="208.535" y1="155.383" x2="208.558" y2="166.782" gradientUnits="userSpaceOnUse">
<stop stop-color="white"/>
<stop offset="1" stop-color="#94B9FF"/>
</linearGradient>
<linearGradient id="paint2_linear_156_64" x1="126.751" y1="131.737" x2="144.977" y2="273.987" gradientUnits="userSpaceOnUse">
<stop stop-color="white"/>
<stop offset="1" stop-color="#94B9FF"/>
</linearGradient>
</defs>
</svg>
