<svg width="200" height="140" viewBox="0 0 200 140" fill="none" xmlns="http://www.w3.org/2000/svg">
<circle cx="99" cy="70" r="70" fill="#5661AE"/>
<path d="M2.91016 95V73.584H7.45117V95H2.91016ZM21.792 78.3154C23.54 78.3154 24.9463 78.7939 26.0107 79.751C27.0752 80.6982 27.6074 82.2217 27.6074 84.3213V95H23.1396V85.4346C23.1396 84.2627 22.9248 83.3789 22.4951 82.7832C22.0752 82.1875 21.4111 81.8896 20.5029 81.8896C19.1357 81.8896 18.2031 82.3535 17.7051 83.2812C17.207 84.209 16.958 85.5469 16.958 87.2949V95H12.4902V78.623H15.9033L16.5039 80.7178H16.7529C17.1045 80.1514 17.5391 79.6924 18.0566 79.3408C18.584 78.9893 19.165 78.7305 19.7998 78.5645C20.4443 78.3984 21.1084 78.3154 21.792 78.3154ZM36.1035 95L29.8633 78.623H34.5361L37.7002 87.9541C37.876 88.501 38.0127 89.0771 38.1104 89.6826C38.2178 90.2881 38.291 90.8301 38.3301 91.3086H38.4473C38.4766 90.791 38.5449 90.2393 38.6523 89.6533C38.7695 89.0674 38.9209 88.501 39.1064 87.9541L42.2559 78.623H46.9287L40.6885 95H36.1035ZM56.04 78.3154C57.5537 78.3154 58.8574 78.6084 59.9512 79.1943C61.0449 79.7705 61.8896 80.6104 62.4854 81.7139C63.0811 82.8174 63.3789 84.165 63.3789 85.7568V87.9248H52.8174C52.8662 89.1846 53.2422 90.1758 53.9453 90.8984C54.6582 91.6113 55.6445 91.9678 56.9043 91.9678C57.9492 91.9678 58.9062 91.8604 59.7754 91.6455C60.6445 91.4307 61.5381 91.1084 62.4561 90.6787V94.1357C61.6455 94.5361 60.7959 94.8291 59.9072 95.0146C59.0283 95.2002 57.959 95.293 56.6992 95.293C55.0586 95.293 53.6035 94.9902 52.334 94.3848C51.0742 93.7793 50.083 92.8564 49.3604 91.6162C48.6475 90.376 48.291 88.8135 48.291 86.9287C48.291 85.0146 48.6133 83.4229 49.2578 82.1533C49.9121 80.874 50.8203 79.917 51.9824 79.2822C53.1445 78.6377 54.4971 78.3154 56.04 78.3154ZM56.0693 81.4941C55.2002 81.4941 54.4775 81.7725 53.9014 82.3291C53.335 82.8857 53.0078 83.7598 52.9199 84.9512H59.1895C59.1797 84.2871 59.0576 83.6963 58.8232 83.1787C58.5986 82.6611 58.2568 82.251 57.7979 81.9482C57.3486 81.6455 56.7725 81.4941 56.0693 81.4941ZM78.4375 90.1367C78.4375 91.25 78.1738 92.1924 77.6465 92.9639C77.1289 93.7256 76.3525 94.3066 75.3174 94.707C74.2822 95.0977 72.9932 95.293 71.4502 95.293C70.3076 95.293 69.3262 95.2197 68.5059 95.0732C67.6953 94.9268 66.875 94.6826 66.0449 94.3408V90.6494C66.9336 91.0498 67.8857 91.3818 68.9014 91.6455C69.9268 91.8994 70.8252 92.0264 71.5967 92.0264C72.4658 92.0264 73.0859 91.8994 73.457 91.6455C73.8379 91.3818 74.0283 91.04 74.0283 90.6201C74.0283 90.3467 73.9502 90.1025 73.7939 89.8877C73.6475 89.6631 73.3252 89.4141 72.8271 89.1406C72.3291 88.8574 71.5479 88.4912 70.4834 88.042C69.458 87.6123 68.6133 87.1777 67.9492 86.7383C67.2949 86.2988 66.8066 85.7812 66.4844 85.1855C66.1719 84.5801 66.0156 83.8135 66.0156 82.8857C66.0156 81.3721 66.6016 80.2344 67.7734 79.4727C68.9551 78.7012 70.5322 78.3154 72.5049 78.3154C73.5205 78.3154 74.4873 78.418 75.4053 78.623C76.333 78.8281 77.2852 79.1553 78.2617 79.6045L76.9141 82.8271C76.1035 82.4756 75.3369 82.1875 74.6143 81.9629C73.9014 81.7383 73.1738 81.626 72.4316 81.626C71.7773 81.626 71.2842 81.7139 70.9521 81.8896C70.6201 82.0654 70.4541 82.334 70.4541 82.6953C70.4541 82.959 70.5371 83.1934 70.7031 83.3984C70.8789 83.6035 71.2109 83.833 71.6992 84.0869C72.1973 84.3311 72.9248 84.6484 73.8818 85.0391C74.8096 85.4199 75.6152 85.8203 76.2988 86.2402C76.9824 86.6504 77.5098 87.1631 77.8809 87.7783C78.252 88.3838 78.4375 89.1699 78.4375 90.1367ZM88.8232 91.7334C89.3115 91.7334 89.7852 91.6846 90.2441 91.5869C90.7129 91.4893 91.1768 91.3672 91.6357 91.2207V94.5459C91.1572 94.7607 90.5615 94.9365 89.8486 95.0732C89.1455 95.2197 88.374 95.293 87.5342 95.293C86.5576 95.293 85.6787 95.1367 84.8975 94.8242C84.126 94.502 83.5156 93.9502 83.0664 93.1689C82.627 92.3779 82.4072 91.2793 82.4072 89.873V81.9775H80.2686V80.0879L82.7295 78.5938L84.0186 75.1367H86.875V78.623H91.46V81.9775H86.875V89.873C86.875 90.498 87.0508 90.9668 87.4023 91.2793C87.7637 91.582 88.2373 91.7334 88.8232 91.7334ZM99.4287 78.623V95H94.9609V78.623H99.4287ZM97.2021 72.207C97.8662 72.207 98.4375 72.3633 98.916 72.6758C99.3945 72.9785 99.6338 73.5498 99.6338 74.3896C99.6338 75.2197 99.3945 75.7959 98.916 76.1182C98.4375 76.4307 97.8662 76.5869 97.2021 76.5869C96.5283 76.5869 95.9521 76.4307 95.4736 76.1182C95.0049 75.7959 94.7705 75.2197 94.7705 74.3896C94.7705 73.5498 95.0049 72.9785 95.4736 72.6758C95.9521 72.3633 96.5283 72.207 97.2021 72.207ZM108.921 102.207C106.636 102.207 104.888 101.807 103.677 101.006C102.476 100.215 101.875 99.1016 101.875 97.666C101.875 96.6797 102.183 95.8545 102.798 95.1904C103.413 94.5264 104.316 94.0527 105.508 93.7695C105.049 93.5742 104.648 93.2568 104.307 92.8174C103.965 92.3682 103.794 91.8945 103.794 91.3965C103.794 90.7715 103.975 90.2539 104.336 89.8438C104.697 89.4238 105.22 89.0137 105.903 88.6133C105.044 88.2422 104.36 87.6465 103.853 86.8262C103.354 86.0059 103.105 85.0391 103.105 83.9258C103.105 82.7344 103.364 81.7236 103.882 80.8936C104.409 80.0537 105.171 79.4141 106.167 78.9746C107.173 78.5352 108.394 78.3154 109.829 78.3154C110.132 78.3154 110.483 78.335 110.884 78.374C111.284 78.4131 111.65 78.457 111.982 78.5059C112.324 78.5547 112.554 78.5938 112.671 78.623H118.384V80.8936L115.82 81.5527C116.055 81.9141 116.23 82.2998 116.348 82.71C116.465 83.1201 116.523 83.5547 116.523 84.0137C116.523 85.7715 115.908 87.1436 114.678 88.1299C113.457 89.1064 111.758 89.5947 109.58 89.5947C109.062 89.5654 108.574 89.5264 108.115 89.4775C107.891 89.6533 107.72 89.8389 107.603 90.0342C107.485 90.2295 107.427 90.4346 107.427 90.6494C107.427 90.8643 107.515 91.0449 107.69 91.1914C107.876 91.3281 108.149 91.4355 108.511 91.5137C108.882 91.582 109.341 91.6162 109.888 91.6162H112.671C114.468 91.6162 115.835 92.002 116.772 92.7734C117.72 93.5449 118.193 94.6777 118.193 96.1719C118.193 98.0859 117.393 99.5703 115.791 100.625C114.199 101.68 111.909 102.207 108.921 102.207ZM109.111 99.292C110.176 99.292 111.089 99.1895 111.851 98.9844C112.622 98.7891 113.213 98.5059 113.623 98.1348C114.033 97.7734 114.238 97.3389 114.238 96.8311C114.238 96.4209 114.116 96.0938 113.872 95.8496C113.638 95.6152 113.276 95.4492 112.788 95.3516C112.31 95.2539 111.694 95.2051 110.942 95.2051H108.628C108.081 95.2051 107.588 95.293 107.148 95.4688C106.719 95.6445 106.377 95.8887 106.123 96.2012C105.869 96.5234 105.742 96.8945 105.742 97.3145C105.742 97.9297 106.035 98.4131 106.621 98.7646C107.217 99.1162 108.047 99.292 109.111 99.292ZM109.829 86.8701C110.669 86.8701 111.284 86.6113 111.675 86.0938C112.065 85.5762 112.261 84.873 112.261 83.9844C112.261 82.998 112.056 82.2607 111.646 81.7725C111.245 81.2744 110.64 81.0254 109.829 81.0254C109.009 81.0254 108.394 81.2744 107.983 81.7725C107.573 82.2607 107.368 82.998 107.368 83.9844C107.368 84.873 107.568 85.5762 107.969 86.0938C108.379 86.6113 108.999 86.8701 109.829 86.8701ZM127.803 78.2861C130 78.2861 131.685 78.7646 132.856 79.7217C134.028 80.6787 134.614 82.1338 134.614 84.0869V95H131.494L130.63 92.7734H130.513C130.044 93.3594 129.565 93.8379 129.077 94.209C128.589 94.5801 128.027 94.8535 127.393 95.0293C126.758 95.2051 125.986 95.293 125.078 95.293C124.111 95.293 123.242 95.1074 122.471 94.7363C121.709 94.3652 121.108 93.7988 120.669 93.0371C120.229 92.2656 120.01 91.2891 120.01 90.1074C120.01 88.3691 120.62 87.0898 121.841 86.2695C123.062 85.4395 124.893 84.9805 127.334 84.8926L130.176 84.8047V84.0869C130.176 83.2275 129.951 82.5977 129.502 82.1973C129.053 81.7969 128.428 81.5967 127.627 81.5967C126.836 81.5967 126.06 81.709 125.298 81.9336C124.536 82.1582 123.774 82.4414 123.013 82.7832L121.533 79.7656C122.402 79.3066 123.374 78.9453 124.448 78.6816C125.532 78.418 126.65 78.2861 127.803 78.2861ZM130.176 87.4121L128.447 87.4707C127.002 87.5098 125.996 87.7686 125.43 88.2471C124.873 88.7256 124.595 89.3555 124.595 90.1367C124.595 90.8203 124.795 91.3086 125.195 91.6016C125.596 91.8848 126.118 92.0264 126.763 92.0264C127.72 92.0264 128.525 91.7432 129.18 91.1768C129.844 90.6104 130.176 89.8047 130.176 88.7598V87.4121ZM145.879 95.293C144.258 95.293 142.876 95 141.733 94.4141C140.591 93.8184 139.722 92.9004 139.126 91.6602C138.53 90.4199 138.232 88.833 138.232 86.8994C138.232 84.8975 138.569 83.2666 139.243 82.0068C139.927 80.7373 140.869 79.8047 142.07 79.209C143.281 78.6133 144.683 78.3154 146.274 78.3154C147.407 78.3154 148.384 78.4277 149.204 78.6523C150.034 78.8672 150.757 79.126 151.372 79.4287L150.054 82.8857C149.351 82.6025 148.696 82.373 148.091 82.1973C147.485 82.0117 146.88 81.9189 146.274 81.9189C145.493 81.9189 144.844 82.1045 144.326 82.4756C143.809 82.8369 143.423 83.3838 143.169 84.1162C142.915 84.8486 142.788 85.7666 142.788 86.8701C142.788 87.9541 142.925 88.8525 143.198 89.5654C143.472 90.2783 143.867 90.8105 144.385 91.1621C144.902 91.5039 145.532 91.6748 146.274 91.6748C147.202 91.6748 148.027 91.5527 148.75 91.3086C149.473 91.0547 150.176 90.7031 150.859 90.2539V94.0771C150.176 94.5068 149.458 94.8145 148.706 95C147.964 95.1953 147.021 95.293 145.879 95.293ZM159.136 78.623V95H154.668V78.623H159.136ZM156.909 72.207C157.573 72.207 158.145 72.3633 158.623 72.6758C159.102 72.9785 159.341 73.5498 159.341 74.3896C159.341 75.2197 159.102 75.7959 158.623 76.1182C158.145 76.4307 157.573 76.5869 156.909 76.5869C156.235 76.5869 155.659 76.4307 155.181 76.1182C154.712 75.7959 154.478 75.2197 154.478 74.3896C154.478 73.5498 154.712 72.9785 155.181 72.6758C155.659 72.3633 156.235 72.207 156.909 72.207ZM178.721 86.7822C178.721 88.1494 178.535 89.3604 178.164 90.415C177.803 91.4697 177.271 92.3633 176.567 93.0957C175.874 93.8184 175.034 94.3652 174.048 94.7363C173.071 95.1074 171.968 95.293 170.737 95.293C169.585 95.293 168.525 95.1074 167.559 94.7363C166.602 94.3652 165.767 93.8184 165.054 93.0957C164.351 92.3633 163.804 91.4697 163.413 90.415C163.032 89.3604 162.842 88.1494 162.842 86.7822C162.842 84.9658 163.164 83.4277 163.809 82.168C164.453 80.9082 165.371 79.9512 166.562 79.2969C167.754 78.6426 169.175 78.3154 170.825 78.3154C172.358 78.3154 173.716 78.6426 174.897 79.2969C176.089 79.9512 177.021 80.9082 177.695 82.168C178.379 83.4277 178.721 84.9658 178.721 86.7822ZM167.397 86.7822C167.397 87.8564 167.515 88.7598 167.749 89.4922C167.983 90.2246 168.35 90.7764 168.848 91.1475C169.346 91.5186 169.995 91.7041 170.796 91.7041C171.587 91.7041 172.227 91.5186 172.715 91.1475C173.213 90.7764 173.574 90.2246 173.799 89.4922C174.033 88.7598 174.15 87.8564 174.15 86.7822C174.15 85.6982 174.033 84.7998 173.799 84.0869C173.574 83.3643 173.213 82.8223 172.715 82.4609C172.217 82.0996 171.567 81.9189 170.767 81.9189C169.585 81.9189 168.726 82.3242 168.188 83.1348C167.661 83.9453 167.397 85.1611 167.397 86.7822ZM176.553 72.0166V72.3242C176.27 72.5977 175.898 72.9346 175.439 73.335C174.98 73.7354 174.487 74.1553 173.96 74.5947C173.433 75.0244 172.915 75.4395 172.407 75.8398C171.899 76.2305 171.455 76.5576 171.074 76.8213H168.101V76.4258C168.423 76.0547 168.794 75.6152 169.214 75.1074C169.644 74.5898 170.068 74.0576 170.488 73.5107C170.908 72.9639 171.26 72.4658 171.543 72.0166H176.553ZM191.714 78.3154C193.462 78.3154 194.868 78.7939 195.933 79.751C196.997 80.6982 197.529 82.2217 197.529 84.3213V95H193.062V85.4346C193.062 84.2627 192.847 83.3789 192.417 82.7832C191.997 82.1875 191.333 81.8896 190.425 81.8896C189.058 81.8896 188.125 82.3535 187.627 83.2812C187.129 84.209 186.88 85.5469 186.88 87.2949V95H182.412V78.623H185.825L186.426 80.7178H186.675C187.026 80.1514 187.461 79.6924 187.979 79.3408C188.506 78.9893 189.087 78.7305 189.722 78.5645C190.366 78.3984 191.03 78.3154 191.714 78.3154Z" fill="#F7F8FA"/>
<path d="M55.8125 57L54.7773 53.6016H49.5723L48.5371 57H45.2754L50.3145 42.6641H54.0156L59.0742 57H55.8125ZM54.0547 51.0625L53.0195 47.7422C52.9544 47.5208 52.8665 47.2376 52.7559 46.8926C52.6517 46.541 52.5443 46.1862 52.4336 45.8281C52.3294 45.4635 52.2448 45.1478 52.1797 44.8809C52.1146 45.1478 52.0234 45.4798 51.9062 45.877C51.7956 46.2676 51.6882 46.6387 51.584 46.9902C51.4798 47.3418 51.4049 47.5924 51.3594 47.7422L50.334 51.0625H54.0547ZM65.0801 57.1953C63.9993 57.1953 63.0781 57 62.3164 56.6094C61.5547 56.2122 60.9753 55.6003 60.5781 54.7734C60.181 53.9466 59.9824 52.8887 59.9824 51.5996C59.9824 50.265 60.207 49.1777 60.6562 48.3379C61.112 47.4915 61.7402 46.8698 62.541 46.4727C63.3483 46.0755 64.2826 45.877 65.3438 45.877C66.099 45.877 66.75 45.9518 67.2969 46.1016C67.8503 46.2448 68.332 46.4173 68.7422 46.6191L67.8633 48.9238C67.3945 48.735 66.9583 48.582 66.5547 48.4648C66.151 48.3411 65.7474 48.2793 65.3438 48.2793C64.8229 48.2793 64.39 48.403 64.0449 48.6504C63.6999 48.8913 63.4427 49.2559 63.2734 49.7441C63.1042 50.2324 63.0195 50.8444 63.0195 51.5801C63.0195 52.3027 63.1107 52.9017 63.293 53.377C63.4753 53.8522 63.7389 54.207 64.084 54.4414C64.429 54.6693 64.849 54.7832 65.3438 54.7832C65.9622 54.7832 66.5124 54.7018 66.9941 54.5391C67.4759 54.3698 67.9447 54.1354 68.4004 53.8359V56.3848C67.9447 56.6712 67.4661 56.8763 66.9648 57C66.4701 57.1302 65.8418 57.1953 65.0801 57.1953ZM75.5391 54.8223C75.8646 54.8223 76.1803 54.7897 76.4863 54.7246C76.7988 54.6595 77.1081 54.5781 77.4141 54.4805V56.6973C77.0951 56.8405 76.6979 56.9577 76.2227 57.0488C75.7539 57.1465 75.2396 57.1953 74.6797 57.1953C74.0286 57.1953 73.4427 57.0911 72.9219 56.8828C72.4076 56.668 72.0007 56.3001 71.7012 55.7793C71.4082 55.252 71.2617 54.5195 71.2617 53.582V48.3184H69.8359V47.0586L71.4766 46.0625L72.3359 43.7578H74.2402V46.082H77.2969V48.3184H74.2402V53.582C74.2402 53.9987 74.3574 54.3112 74.5918 54.5195C74.8327 54.7214 75.1484 54.8223 75.5391 54.8223ZM82.6094 46.082V57H79.6309V46.082H82.6094ZM81.125 41.8047C81.5677 41.8047 81.9486 41.9089 82.2676 42.1172C82.5866 42.319 82.7461 42.6999 82.7461 43.2598C82.7461 43.8132 82.5866 44.1973 82.2676 44.4121C81.9486 44.6204 81.5677 44.7246 81.125 44.7246C80.6758 44.7246 80.2917 44.6204 79.9727 44.4121C79.6602 44.1973 79.5039 43.8132 79.5039 43.2598C79.5039 42.6999 79.6602 42.319 79.9727 42.1172C80.2917 41.9089 80.6758 41.8047 81.125 41.8047ZM88.3418 57L84.1816 46.082H87.2969L89.4062 52.3027C89.5234 52.6673 89.6146 53.0514 89.6797 53.4551C89.7513 53.8587 89.8001 54.2201 89.8262 54.5391H89.9043C89.9238 54.194 89.9694 53.8262 90.041 53.4355C90.1191 53.0449 90.2201 52.6673 90.3438 52.3027L92.4434 46.082H95.5586L91.3984 57H88.3418ZM100.109 46.082V57H97.1309V46.082H100.109ZM98.625 41.8047C99.0677 41.8047 99.4486 41.9089 99.7676 42.1172C100.087 42.319 100.246 42.6999 100.246 43.2598C100.246 43.8132 100.087 44.1973 99.7676 44.4121C99.4486 44.6204 99.0677 44.7246 98.625 44.7246C98.1758 44.7246 97.7917 44.6204 97.4727 44.4121C97.1602 44.1973 97.0039 43.8132 97.0039 43.2598C97.0039 42.6999 97.1602 42.319 97.4727 42.1172C97.7917 41.9089 98.1758 41.8047 98.625 41.8047ZM106.701 57.1953C105.484 57.1953 104.491 56.7201 103.723 55.7695C102.961 54.8125 102.58 53.4095 102.58 51.5605C102.58 49.6921 102.967 48.2793 103.742 47.3223C104.517 46.3587 105.529 45.877 106.779 45.877C107.3 45.877 107.759 45.9486 108.156 46.0918C108.553 46.235 108.895 46.4271 109.182 46.668C109.475 46.9089 109.722 47.179 109.924 47.4785H110.021C109.982 47.2702 109.934 46.9642 109.875 46.5605C109.823 46.1504 109.797 45.7305 109.797 45.3008V41.8047H112.785V57H110.5L109.924 55.584H109.797C109.608 55.8835 109.37 56.1569 109.084 56.4043C108.804 56.6452 108.469 56.8372 108.078 56.9805C107.688 57.1237 107.229 57.1953 106.701 57.1953ZM107.746 54.8223C108.56 54.8223 109.133 54.5814 109.465 54.0996C109.803 53.6113 109.982 52.8789 110.002 51.9023V51.5801C110.002 50.5189 109.839 49.7083 109.514 49.1484C109.188 48.582 108.583 48.2988 107.697 48.2988C107.04 48.2988 106.525 48.582 106.154 49.1484C105.783 49.7148 105.598 50.5319 105.598 51.5996C105.598 52.6673 105.783 53.4714 106.154 54.0117C106.532 54.5521 107.062 54.8223 107.746 54.8223ZM120.373 45.8574C121.838 45.8574 122.961 46.1764 123.742 46.8145C124.523 47.4525 124.914 48.4225 124.914 49.7246V57H122.834L122.258 55.5156H122.18C121.867 55.9062 121.548 56.2253 121.223 56.4727C120.897 56.7201 120.523 56.9023 120.1 57.0195C119.676 57.1367 119.162 57.1953 118.557 57.1953C117.912 57.1953 117.333 57.0716 116.818 56.8242C116.311 56.5768 115.91 56.1992 115.617 55.6914C115.324 55.1771 115.178 54.526 115.178 53.7383C115.178 52.5794 115.585 51.7266 116.398 51.1797C117.212 50.6263 118.433 50.3203 120.061 50.2617L121.955 50.2031V49.7246C121.955 49.1517 121.805 48.7318 121.506 48.4648C121.206 48.1979 120.79 48.0645 120.256 48.0645C119.729 48.0645 119.211 48.1393 118.703 48.2891C118.195 48.4388 117.688 48.6276 117.18 48.8555L116.193 46.8438C116.773 46.5378 117.421 46.2969 118.137 46.1211C118.859 45.9453 119.605 45.8574 120.373 45.8574ZM121.955 51.9414L120.803 51.9805C119.839 52.0065 119.169 52.179 118.791 52.498C118.42 52.8171 118.234 53.237 118.234 53.7578C118.234 54.2135 118.368 54.5391 118.635 54.7344C118.902 54.9232 119.25 55.0176 119.68 55.0176C120.318 55.0176 120.855 54.8288 121.291 54.4512C121.734 54.0736 121.955 53.5365 121.955 52.8398V51.9414ZM131.447 57.1953C130.23 57.1953 129.237 56.7201 128.469 55.7695C127.707 54.8125 127.326 53.4095 127.326 51.5605C127.326 49.6921 127.714 48.2793 128.488 47.3223C129.263 46.3587 130.275 45.877 131.525 45.877C132.046 45.877 132.505 45.9486 132.902 46.0918C133.299 46.235 133.641 46.4271 133.928 46.668C134.221 46.9089 134.468 47.179 134.67 47.4785H134.768C134.729 47.2702 134.68 46.9642 134.621 46.5605C134.569 46.1504 134.543 45.7305 134.543 45.3008V41.8047H137.531V57H135.246L134.67 55.584H134.543C134.354 55.8835 134.117 56.1569 133.83 56.4043C133.55 56.6452 133.215 56.8372 132.824 56.9805C132.434 57.1237 131.975 57.1953 131.447 57.1953ZM132.492 54.8223C133.306 54.8223 133.879 54.5814 134.211 54.0996C134.549 53.6113 134.729 52.8789 134.748 51.9023V51.5801C134.748 50.5189 134.585 49.7083 134.26 49.1484C133.934 48.582 133.329 48.2988 132.443 48.2988C131.786 48.2988 131.271 48.582 130.9 49.1484C130.529 49.7148 130.344 50.5319 130.344 51.5996C130.344 52.6673 130.529 53.4714 130.9 54.0117C131.278 54.5521 131.809 54.8223 132.492 54.8223ZM152.541 57H149.523V48.7383C149.523 48.5104 149.527 48.2305 149.533 47.8984C149.54 47.5599 149.549 47.2148 149.562 46.8633C149.576 46.5052 149.589 46.1829 149.602 45.8965C149.53 45.9811 149.383 46.1276 149.162 46.3359C148.947 46.5378 148.745 46.7201 148.557 46.8828L146.916 48.2012L145.461 46.3848L150.061 42.7227H152.541V57Z" fill="#F7F8FA"/>
</svg>
