<svg width="190" height="140" viewBox="0 0 190 140" fill="none" xmlns="http://www.w3.org/2000/svg">
<circle cx="94" cy="70" r="70" fill="#5661AE"/>
<path d="M20.7764 84.0869C20.7764 86.499 20.3125 88.5156 19.3848 90.1367C18.4668 91.748 17.1338 92.9639 15.3857 93.7842C13.6377 94.5947 11.5332 95 9.07227 95H3.00781V73.584H9.73145C11.9775 73.584 13.9258 73.9844 15.5762 74.7852C17.2266 75.5762 18.5059 76.7529 19.4141 78.3154C20.3223 79.8682 20.7764 81.792 20.7764 84.0869ZM16.0596 84.2041C16.0596 82.6221 15.8252 81.3232 15.3564 80.3076C14.8975 79.2822 14.2139 78.5254 13.3057 78.0371C12.4072 77.5488 11.2939 77.3047 9.96582 77.3047H7.54883V91.25H9.49707C11.7139 91.25 13.3594 90.6592 14.4336 89.4775C15.5176 88.2959 16.0596 86.5381 16.0596 84.2041ZM39.7461 86.7822C39.7461 88.1494 39.5605 89.3604 39.1895 90.415C38.8281 91.4697 38.2959 92.3633 37.5928 93.0957C36.8994 93.8184 36.0596 94.3652 35.0732 94.7363C34.0967 95.1074 32.9932 95.293 31.7627 95.293C30.6104 95.293 29.5508 95.1074 28.584 94.7363C27.627 94.3652 26.792 93.8184 26.0791 93.0957C25.376 92.3633 24.8291 91.4697 24.4385 90.415C24.0576 89.3604 23.8672 88.1494 23.8672 86.7822C23.8672 84.9658 24.1895 83.4277 24.834 82.168C25.4785 80.9082 26.3965 79.9512 27.5879 79.2969C28.7793 78.6426 30.2002 78.3154 31.8506 78.3154C33.3838 78.3154 34.7412 78.6426 35.9229 79.2969C37.1143 79.9512 38.0469 80.9082 38.7207 82.168C39.4043 83.4277 39.7461 84.9658 39.7461 86.7822ZM28.4229 86.7822C28.4229 87.8564 28.54 88.7598 28.7744 89.4922C29.0088 90.2246 29.375 90.7764 29.873 91.1475C30.3711 91.5186 31.0205 91.7041 31.8213 91.7041C32.6123 91.7041 33.252 91.5186 33.7402 91.1475C34.2383 90.7764 34.5996 90.2246 34.8242 89.4922C35.0586 88.7598 35.1758 87.8564 35.1758 86.7822C35.1758 85.6982 35.0586 84.7998 34.8242 84.0869C34.5996 83.3643 34.2383 82.8223 33.7402 82.4609C33.2422 82.0996 32.5928 81.9189 31.792 81.9189C30.6104 81.9189 29.751 82.3242 29.2139 83.1348C28.6865 83.9453 28.4229 85.1611 28.4229 86.7822ZM50.0879 95.293C48.4668 95.293 47.085 95 45.9424 94.4141C44.7998 93.8184 43.9307 92.9004 43.335 91.6602C42.7393 90.4199 42.4414 88.833 42.4414 86.8994C42.4414 84.8975 42.7783 83.2666 43.4521 82.0068C44.1357 80.7373 45.0781 79.8047 46.2793 79.209C47.4902 78.6133 48.8916 78.3154 50.4834 78.3154C51.6162 78.3154 52.5928 78.4277 53.4131 78.6523C54.2432 78.8672 54.9658 79.126 55.5811 79.4287L54.2627 82.8857C53.5596 82.6025 52.9053 82.373 52.2998 82.1973C51.6943 82.0117 51.0889 81.9189 50.4834 81.9189C49.7021 81.9189 49.0527 82.1045 48.5352 82.4756C48.0176 82.8369 47.6318 83.3838 47.3779 84.1162C47.124 84.8486 46.9971 85.7666 46.9971 86.8701C46.9971 87.9541 47.1338 88.8525 47.4072 89.5654C47.6807 90.2783 48.0762 90.8105 48.5938 91.1621C49.1113 91.5039 49.7412 91.6748 50.4834 91.6748C51.4111 91.6748 52.2363 91.5527 52.959 91.3086C53.6816 91.0547 54.3848 90.7031 55.0684 90.2539V94.0771C54.3848 94.5068 53.667 94.8145 52.915 95C52.1729 95.1953 51.2305 95.293 50.0879 95.293ZM73.9062 78.623V95H70.4785L69.8779 92.9053H69.6436C69.292 93.4619 68.8525 93.916 68.3252 94.2676C67.7979 94.6191 67.2168 94.8779 66.582 95.0439C65.9473 95.21 65.2881 95.293 64.6045 95.293C63.4326 95.293 62.4121 95.0879 61.543 94.6777C60.6738 94.2578 59.9951 93.6084 59.5068 92.7295C59.0283 91.8506 58.7891 90.708 58.7891 89.3018V78.623H63.2568V88.1885C63.2568 89.3604 63.4668 90.2441 63.8867 90.8398C64.3066 91.4355 64.9756 91.7334 65.8936 91.7334C66.8018 91.7334 67.5146 91.5283 68.0322 91.1182C68.5498 90.6982 68.9111 90.0879 69.1162 89.2871C69.3311 88.4766 69.4385 87.4902 69.4385 86.3281V78.623H73.9062ZM97.8271 78.3154C99.6826 78.3154 101.084 78.7939 102.031 79.751C102.988 80.6982 103.467 82.2217 103.467 84.3213V95H98.9844V85.4346C98.9844 84.2627 98.7842 83.3789 98.3838 82.7832C97.9834 82.1875 97.3633 81.8896 96.5234 81.8896C95.3418 81.8896 94.502 82.3145 94.0039 83.1641C93.5059 84.0039 93.2568 85.21 93.2568 86.7822V95H88.7891V85.4346C88.7891 84.6533 88.7012 83.999 88.5254 83.4717C88.3496 82.9443 88.0811 82.5488 87.7197 82.2852C87.3584 82.0215 86.8945 81.8896 86.3281 81.8896C85.498 81.8896 84.8438 82.0996 84.3652 82.5195C83.8965 82.9297 83.5596 83.54 83.3545 84.3506C83.1592 85.1514 83.0615 86.1328 83.0615 87.2949V95H78.5938V78.623H82.0068L82.6074 80.7178H82.8564C83.1885 80.1514 83.6035 79.6924 84.1016 79.3408C84.6094 78.9893 85.166 78.7305 85.7715 78.5645C86.377 78.3984 86.9922 78.3154 87.6172 78.3154C88.8184 78.3154 89.834 78.5107 90.6641 78.9014C91.5039 79.292 92.1484 79.8975 92.5977 80.7178H92.9932C93.4814 79.8779 94.1699 79.2676 95.0586 78.8867C95.957 78.5059 96.8799 78.3154 97.8271 78.3154ZM114.819 78.3154C116.333 78.3154 117.637 78.6084 118.73 79.1943C119.824 79.7705 120.669 80.6104 121.265 81.7139C121.86 82.8174 122.158 84.165 122.158 85.7568V87.9248H111.597C111.646 89.1846 112.021 90.1758 112.725 90.8984C113.438 91.6113 114.424 91.9678 115.684 91.9678C116.729 91.9678 117.686 91.8604 118.555 91.6455C119.424 91.4307 120.317 91.1084 121.235 90.6787V94.1357C120.425 94.5361 119.575 94.8291 118.687 95.0146C117.808 95.2002 116.738 95.293 115.479 95.293C113.838 95.293 112.383 94.9902 111.113 94.3848C109.854 93.7793 108.862 92.8564 108.14 91.6162C107.427 90.376 107.07 88.8135 107.07 86.9287C107.07 85.0146 107.393 83.4229 108.037 82.1533C108.691 80.874 109.6 79.917 110.762 79.2822C111.924 78.6377 113.276 78.3154 114.819 78.3154ZM114.849 81.4941C113.979 81.4941 113.257 81.7725 112.681 82.3291C112.114 82.8857 111.787 83.7598 111.699 84.9512H117.969C117.959 84.2871 117.837 83.6963 117.603 83.1787C117.378 82.6611 117.036 82.251 116.577 81.9482C116.128 81.6455 115.552 81.4941 114.849 81.4941ZM135.093 78.3154C136.841 78.3154 138.247 78.7939 139.312 79.751C140.376 80.6982 140.908 82.2217 140.908 84.3213V95H136.44V85.4346C136.44 84.2627 136.226 83.3789 135.796 82.7832C135.376 82.1875 134.712 81.8896 133.804 81.8896C132.437 81.8896 131.504 82.3535 131.006 83.2812C130.508 84.209 130.259 85.5469 130.259 87.2949V95H125.791V78.623H129.204L129.805 80.7178H130.054C130.405 80.1514 130.84 79.6924 131.357 79.3408C131.885 78.9893 132.466 78.7305 133.101 78.5645C133.745 78.3984 134.409 78.3154 135.093 78.3154ZM152.407 91.7334C152.896 91.7334 153.369 91.6846 153.828 91.5869C154.297 91.4893 154.761 91.3672 155.22 91.2207V94.5459C154.741 94.7607 154.146 94.9365 153.433 95.0732C152.729 95.2197 151.958 95.293 151.118 95.293C150.142 95.293 149.263 95.1367 148.481 94.8242C147.71 94.502 147.1 93.9502 146.65 93.1689C146.211 92.3779 145.991 91.2793 145.991 89.873V81.9775H143.853V80.0879L146.313 78.5938L147.603 75.1367H150.459V78.623H155.044V81.9775H150.459V89.873C150.459 90.498 150.635 90.9668 150.986 91.2793C151.348 91.582 151.821 91.7334 152.407 91.7334ZM173.428 86.7822C173.428 88.1494 173.242 89.3604 172.871 90.415C172.51 91.4697 171.978 92.3633 171.274 93.0957C170.581 93.8184 169.741 94.3652 168.755 94.7363C167.778 95.1074 166.675 95.293 165.444 95.293C164.292 95.293 163.232 95.1074 162.266 94.7363C161.309 94.3652 160.474 93.8184 159.761 93.0957C159.058 92.3633 158.511 91.4697 158.12 90.415C157.739 89.3604 157.549 88.1494 157.549 86.7822C157.549 84.9658 157.871 83.4277 158.516 82.168C159.16 80.9082 160.078 79.9512 161.27 79.2969C162.461 78.6426 163.882 78.3154 165.532 78.3154C167.065 78.3154 168.423 78.6426 169.604 79.2969C170.796 79.9512 171.729 80.9082 172.402 82.168C173.086 83.4277 173.428 84.9658 173.428 86.7822ZM162.104 86.7822C162.104 87.8564 162.222 88.7598 162.456 89.4922C162.69 90.2246 163.057 90.7764 163.555 91.1475C164.053 91.5186 164.702 91.7041 165.503 91.7041C166.294 91.7041 166.934 91.5186 167.422 91.1475C167.92 90.7764 168.281 90.2246 168.506 89.4922C168.74 88.7598 168.857 87.8564 168.857 86.7822C168.857 85.6982 168.74 84.7998 168.506 84.0869C168.281 83.3643 167.92 82.8223 167.422 82.4609C166.924 82.0996 166.274 81.9189 165.474 81.9189C164.292 81.9189 163.433 82.3242 162.896 83.1348C162.368 83.9453 162.104 85.1611 162.104 86.7822ZM188.545 90.1367C188.545 91.25 188.281 92.1924 187.754 92.9639C187.236 93.7256 186.46 94.3066 185.425 94.707C184.39 95.0977 183.101 95.293 181.558 95.293C180.415 95.293 179.434 95.2197 178.613 95.0732C177.803 94.9268 176.982 94.6826 176.152 94.3408V90.6494C177.041 91.0498 177.993 91.3818 179.009 91.6455C180.034 91.8994 180.933 92.0264 181.704 92.0264C182.573 92.0264 183.193 91.8994 183.564 91.6455C183.945 91.3818 184.136 91.04 184.136 90.6201C184.136 90.3467 184.058 90.1025 183.901 89.8877C183.755 89.6631 183.433 89.4141 182.935 89.1406C182.437 88.8574 181.655 88.4912 180.591 88.042C179.565 87.6123 178.721 87.1777 178.057 86.7383C177.402 86.2988 176.914 85.7812 176.592 85.1855C176.279 84.5801 176.123 83.8135 176.123 82.8857C176.123 81.3721 176.709 80.2344 177.881 79.4727C179.062 78.7012 180.64 78.3154 182.612 78.3154C183.628 78.3154 184.595 78.418 185.513 78.623C186.44 78.8281 187.393 79.1553 188.369 79.6045L187.021 82.8271C186.211 82.4756 185.444 82.1875 184.722 81.9629C184.009 81.7383 183.281 81.626 182.539 81.626C181.885 81.626 181.392 81.7139 181.06 81.8896C180.728 82.0654 180.562 82.334 180.562 82.6953C180.562 82.959 180.645 83.1934 180.811 83.3984C180.986 83.6035 181.318 83.833 181.807 84.0869C182.305 84.3311 183.032 84.6484 183.989 85.0391C184.917 85.4199 185.723 85.8203 186.406 86.2402C187.09 86.6504 187.617 87.1631 187.988 87.7783C188.359 88.3838 188.545 89.1699 188.545 90.1367Z" fill="#F7F8FA"/>
<path d="M50.8125 57L49.7773 53.6016H44.5723L43.5371 57H40.2754L45.3145 42.6641H49.0156L54.0742 57H50.8125ZM49.0547 51.0625L48.0195 47.7422C47.9544 47.5208 47.8665 47.2376 47.7559 46.8926C47.6517 46.541 47.5443 46.1862 47.4336 45.8281C47.3294 45.4635 47.2448 45.1478 47.1797 44.8809C47.1146 45.1478 47.0234 45.4798 46.9062 45.877C46.7956 46.2676 46.6882 46.6387 46.584 46.9902C46.4798 47.3418 46.4049 47.5924 46.3594 47.7422L45.334 51.0625H49.0547ZM60.0801 57.1953C58.9993 57.1953 58.0781 57 57.3164 56.6094C56.5547 56.2122 55.9753 55.6003 55.5781 54.7734C55.181 53.9466 54.9824 52.8887 54.9824 51.5996C54.9824 50.265 55.207 49.1777 55.6562 48.3379C56.112 47.4915 56.7402 46.8698 57.541 46.4727C58.3483 46.0755 59.2826 45.877 60.3438 45.877C61.099 45.877 61.75 45.9518 62.2969 46.1016C62.8503 46.2448 63.332 46.4173 63.7422 46.6191L62.8633 48.9238C62.3945 48.735 61.9583 48.582 61.5547 48.4648C61.151 48.3411 60.7474 48.2793 60.3438 48.2793C59.8229 48.2793 59.39 48.403 59.0449 48.6504C58.6999 48.8913 58.4427 49.2559 58.2734 49.7441C58.1042 50.2324 58.0195 50.8444 58.0195 51.5801C58.0195 52.3027 58.1107 52.9017 58.293 53.377C58.4753 53.8522 58.7389 54.207 59.084 54.4414C59.429 54.6693 59.849 54.7832 60.3438 54.7832C60.9622 54.7832 61.5124 54.7018 61.9941 54.5391C62.4759 54.3698 62.9447 54.1354 63.4004 53.8359V56.3848C62.9447 56.6712 62.4661 56.8763 61.9648 57C61.4701 57.1302 60.8418 57.1953 60.0801 57.1953ZM70.5391 54.8223C70.8646 54.8223 71.1803 54.7897 71.4863 54.7246C71.7988 54.6595 72.1081 54.5781 72.4141 54.4805V56.6973C72.0951 56.8405 71.6979 56.9577 71.2227 57.0488C70.7539 57.1465 70.2396 57.1953 69.6797 57.1953C69.0286 57.1953 68.4427 57.0911 67.9219 56.8828C67.4076 56.668 67.0007 56.3001 66.7012 55.7793C66.4082 55.252 66.2617 54.5195 66.2617 53.582V48.3184H64.8359V47.0586L66.4766 46.0625L67.3359 43.7578H69.2402V46.082H72.2969V48.3184H69.2402V53.582C69.2402 53.9987 69.3574 54.3112 69.5918 54.5195C69.8327 54.7214 70.1484 54.8223 70.5391 54.8223ZM77.6094 46.082V57H74.6309V46.082H77.6094ZM76.125 41.8047C76.5677 41.8047 76.9486 41.9089 77.2676 42.1172C77.5866 42.319 77.7461 42.6999 77.7461 43.2598C77.7461 43.8132 77.5866 44.1973 77.2676 44.4121C76.9486 44.6204 76.5677 44.7246 76.125 44.7246C75.6758 44.7246 75.2917 44.6204 74.9727 44.4121C74.6602 44.1973 74.5039 43.8132 74.5039 43.2598C74.5039 42.6999 74.6602 42.319 74.9727 42.1172C75.2917 41.9089 75.6758 41.8047 76.125 41.8047ZM83.3418 57L79.1816 46.082H82.2969L84.4062 52.3027C84.5234 52.6673 84.6146 53.0514 84.6797 53.4551C84.7513 53.8587 84.8001 54.2201 84.8262 54.5391H84.9043C84.9238 54.194 84.9694 53.8262 85.041 53.4355C85.1191 53.0449 85.2201 52.6673 85.3438 52.3027L87.4434 46.082H90.5586L86.3984 57H83.3418ZM95.1094 46.082V57H92.1309V46.082H95.1094ZM93.625 41.8047C94.0677 41.8047 94.4486 41.9089 94.7676 42.1172C95.0866 42.319 95.2461 42.6999 95.2461 43.2598C95.2461 43.8132 95.0866 44.1973 94.7676 44.4121C94.4486 44.6204 94.0677 44.7246 93.625 44.7246C93.1758 44.7246 92.7917 44.6204 92.4727 44.4121C92.1602 44.1973 92.0039 43.8132 92.0039 43.2598C92.0039 42.6999 92.1602 42.319 92.4727 42.1172C92.7917 41.9089 93.1758 41.8047 93.625 41.8047ZM101.701 57.1953C100.484 57.1953 99.4909 56.7201 98.7227 55.7695C97.9609 54.8125 97.5801 53.4095 97.5801 51.5605C97.5801 49.6921 97.9674 48.2793 98.7422 47.3223C99.5169 46.3587 100.529 45.877 101.779 45.877C102.3 45.877 102.759 45.9486 103.156 46.0918C103.553 46.235 103.895 46.4271 104.182 46.668C104.475 46.9089 104.722 47.179 104.924 47.4785H105.021C104.982 47.2702 104.934 46.9642 104.875 46.5605C104.823 46.1504 104.797 45.7305 104.797 45.3008V41.8047H107.785V57H105.5L104.924 55.584H104.797C104.608 55.8835 104.37 56.1569 104.084 56.4043C103.804 56.6452 103.469 56.8372 103.078 56.9805C102.688 57.1237 102.229 57.1953 101.701 57.1953ZM102.746 54.8223C103.56 54.8223 104.133 54.5814 104.465 54.0996C104.803 53.6113 104.982 52.8789 105.002 51.9023V51.5801C105.002 50.5189 104.839 49.7083 104.514 49.1484C104.188 48.582 103.583 48.2988 102.697 48.2988C102.04 48.2988 101.525 48.582 101.154 49.1484C100.783 49.7148 100.598 50.5319 100.598 51.5996C100.598 52.6673 100.783 53.4714 101.154 54.0117C101.532 54.5521 102.062 54.8223 102.746 54.8223ZM115.373 45.8574C116.838 45.8574 117.961 46.1764 118.742 46.8145C119.523 47.4525 119.914 48.4225 119.914 49.7246V57H117.834L117.258 55.5156H117.18C116.867 55.9062 116.548 56.2253 116.223 56.4727C115.897 56.7201 115.523 56.9023 115.1 57.0195C114.676 57.1367 114.162 57.1953 113.557 57.1953C112.912 57.1953 112.333 57.0716 111.818 56.8242C111.311 56.5768 110.91 56.1992 110.617 55.6914C110.324 55.1771 110.178 54.526 110.178 53.7383C110.178 52.5794 110.585 51.7266 111.398 51.1797C112.212 50.6263 113.433 50.3203 115.061 50.2617L116.955 50.2031V49.7246C116.955 49.1517 116.805 48.7318 116.506 48.4648C116.206 48.1979 115.79 48.0645 115.256 48.0645C114.729 48.0645 114.211 48.1393 113.703 48.2891C113.195 48.4388 112.688 48.6276 112.18 48.8555L111.193 46.8438C111.773 46.5378 112.421 46.2969 113.137 46.1211C113.859 45.9453 114.605 45.8574 115.373 45.8574ZM116.955 51.9414L115.803 51.9805C114.839 52.0065 114.169 52.179 113.791 52.498C113.42 52.8171 113.234 53.237 113.234 53.7578C113.234 54.2135 113.368 54.5391 113.635 54.7344C113.902 54.9232 114.25 55.0176 114.68 55.0176C115.318 55.0176 115.855 54.8288 116.291 54.4512C116.734 54.0736 116.955 53.5365 116.955 52.8398V51.9414ZM126.447 57.1953C125.23 57.1953 124.237 56.7201 123.469 55.7695C122.707 54.8125 122.326 53.4095 122.326 51.5605C122.326 49.6921 122.714 48.2793 123.488 47.3223C124.263 46.3587 125.275 45.877 126.525 45.877C127.046 45.877 127.505 45.9486 127.902 46.0918C128.299 46.235 128.641 46.4271 128.928 46.668C129.221 46.9089 129.468 47.179 129.67 47.4785H129.768C129.729 47.2702 129.68 46.9642 129.621 46.5605C129.569 46.1504 129.543 45.7305 129.543 45.3008V41.8047H132.531V57H130.246L129.67 55.584H129.543C129.354 55.8835 129.117 56.1569 128.83 56.4043C128.55 56.6452 128.215 56.8372 127.824 56.9805C127.434 57.1237 126.975 57.1953 126.447 57.1953ZM127.492 54.8223C128.306 54.8223 128.879 54.5814 129.211 54.0996C129.549 53.6113 129.729 52.8789 129.748 51.9023V51.5801C129.748 50.5189 129.585 49.7083 129.26 49.1484C128.934 48.582 128.329 48.2988 127.443 48.2988C126.786 48.2988 126.271 48.582 125.9 49.1484C125.529 49.7148 125.344 50.5319 125.344 51.5996C125.344 52.6673 125.529 53.4714 125.9 54.0117C126.278 54.5521 126.809 54.8223 127.492 54.8223ZM150.061 57H140.08V54.9004L143.664 51.2773C144.387 50.5352 144.966 49.9167 145.402 49.4219C145.845 48.9206 146.164 48.4648 146.359 48.0547C146.561 47.6445 146.662 47.2051 146.662 46.7363C146.662 46.1699 146.503 45.7467 146.184 45.4668C145.871 45.1803 145.451 45.0371 144.924 45.0371C144.37 45.0371 143.833 45.1641 143.312 45.418C142.792 45.6719 142.248 46.0332 141.682 46.502L140.041 44.5586C140.451 44.207 140.884 43.875 141.34 43.5625C141.802 43.25 142.336 42.9993 142.941 42.8105C143.553 42.6152 144.286 42.5176 145.139 42.5176C146.076 42.5176 146.88 42.6868 147.551 43.0254C148.228 43.3639 148.749 43.8262 149.113 44.4121C149.478 44.9915 149.66 45.6491 149.66 46.3848C149.66 47.1725 149.504 47.8919 149.191 48.543C148.879 49.194 148.423 49.8385 147.824 50.4766C147.232 51.1146 146.516 51.821 145.676 52.5957L143.84 54.3242V54.4609H150.061V57Z" fill="#F7F8FA"/>
</svg>
