<svg width="140" height="140" viewBox="0 0 140 140" fill="none" xmlns="http://www.w3.org/2000/svg">
<circle cx="70" cy="70" r="70" fill="#5661AE"/>
<path d="M19.6279 73.584C22.3916 73.584 24.4082 74.1797 25.6777 75.3711C26.9473 76.5527 27.582 78.1836 27.582 80.2637C27.582 81.2012 27.4404 82.0996 27.1572 82.959C26.874 83.8086 26.4102 84.5654 25.7656 85.2295C25.1309 85.8936 24.2812 86.4209 23.2168 86.8115C22.1523 87.1924 20.8389 87.3828 19.2764 87.3828H17.3281V95H12.7871V73.584H19.6279ZM19.3936 77.3047H17.3281V83.6621H18.8223C19.6719 83.6621 20.4092 83.5498 21.0342 83.3252C21.6592 83.1006 22.1426 82.749 22.4844 82.2705C22.8262 81.792 22.9971 81.1768 22.9971 80.4248C22.9971 79.3701 22.7041 78.5889 22.1182 78.0811C21.5322 77.5635 20.624 77.3047 19.3936 77.3047ZM40.4141 78.3154C40.6387 78.3154 40.8975 78.3301 41.1904 78.3594C41.4932 78.3789 41.7373 78.4082 41.9229 78.4473L41.5859 82.6367C41.4395 82.5879 41.2295 82.5537 40.9561 82.5342C40.6924 82.5049 40.4629 82.4902 40.2676 82.4902C39.6914 82.4902 39.1299 82.5635 38.583 82.71C38.0459 82.8564 37.5625 83.0957 37.1328 83.4277C36.7031 83.75 36.3613 84.1797 36.1074 84.7168C35.8633 85.2441 35.7412 85.8936 35.7412 86.665V95H31.2734V78.623H34.6572L35.3164 81.377H35.5361C35.8584 80.8203 36.2588 80.3125 36.7373 79.8535C37.2256 79.3848 37.7773 79.0137 38.3926 78.7402C39.0176 78.457 39.6914 78.3154 40.4141 78.3154ZM51.6055 78.2861C53.8027 78.2861 55.4873 78.7646 56.6592 79.7217C57.8311 80.6787 58.417 82.1338 58.417 84.0869V95H55.2969L54.4326 92.7734H54.3154C53.8467 93.3594 53.3682 93.8379 52.8799 94.209C52.3916 94.5801 51.8301 94.8535 51.1953 95.0293C50.5605 95.2051 49.7891 95.293 48.8809 95.293C47.9141 95.293 47.0449 95.1074 46.2734 94.7363C45.5117 94.3652 44.9111 93.7988 44.4717 93.0371C44.0322 92.2656 43.8125 91.2891 43.8125 90.1074C43.8125 88.3691 44.4229 87.0898 45.6436 86.2695C46.8643 85.4395 48.6953 84.9805 51.1367 84.8926L53.9785 84.8047V84.0869C53.9785 83.2275 53.7539 82.5977 53.3047 82.1973C52.8555 81.7969 52.2305 81.5967 51.4297 81.5967C50.6387 81.5967 49.8623 81.709 49.1006 81.9336C48.3389 82.1582 47.5771 82.4414 46.8154 82.7832L45.3359 79.7656C46.2051 79.3066 47.1768 78.9453 48.251 78.6816C49.335 78.418 50.4531 78.2861 51.6055 78.2861ZM53.9785 87.4121L52.25 87.4707C50.8047 87.5098 49.7988 87.7686 49.2324 88.2471C48.6758 88.7256 48.3975 89.3555 48.3975 90.1367C48.3975 90.8203 48.5977 91.3086 48.998 91.6016C49.3984 91.8848 49.9209 92.0264 50.5654 92.0264C51.5225 92.0264 52.3281 91.7432 52.9824 91.1768C53.6465 90.6104 53.9785 89.8047 53.9785 88.7598V87.4121ZM57.3623 72.0166V72.3242C57.0791 72.5977 56.708 72.9346 56.249 73.335C55.79 73.7354 55.2969 74.1553 54.7695 74.5947C54.2422 75.0244 53.7246 75.4395 53.2168 75.8398C52.709 76.2305 52.2646 76.5576 51.8838 76.8213H48.9102V76.4258C49.2324 76.0547 49.6035 75.6152 50.0234 75.1074C50.4531 74.5898 50.8779 74.0576 51.2979 73.5107C51.7178 72.9639 52.0693 72.4658 52.3525 72.0166H57.3623ZM69.6816 95.293C68.0605 95.293 66.6787 95 65.5361 94.4141C64.3936 93.8184 63.5244 92.9004 62.9287 91.6602C62.333 90.4199 62.0352 88.833 62.0352 86.8994C62.0352 84.8975 62.3721 83.2666 63.0459 82.0068C63.7295 80.7373 64.6719 79.8047 65.873 79.209C67.084 78.6133 68.4854 78.3154 70.0771 78.3154C71.21 78.3154 72.1865 78.4277 73.0068 78.6523C73.8369 78.8672 74.5596 79.126 75.1748 79.4287L73.8564 82.8857C73.1533 82.6025 72.499 82.373 71.8936 82.1973C71.2881 82.0117 70.6826 81.9189 70.0771 81.9189C69.2959 81.9189 68.6465 82.1045 68.1289 82.4756C67.6113 82.8369 67.2256 83.3838 66.9717 84.1162C66.7178 84.8486 66.5908 85.7666 66.5908 86.8701C66.5908 87.9541 66.7275 88.8525 67.001 89.5654C67.2744 90.2783 67.6699 90.8105 68.1875 91.1621C68.7051 91.5039 69.335 91.6748 70.0771 91.6748C71.0049 91.6748 71.8301 91.5527 72.5527 91.3086C73.2754 91.0547 73.9785 90.7031 74.6621 90.2539V94.0771C73.9785 94.5068 73.2607 94.8145 72.5088 95C71.7666 95.1953 70.8242 95.293 69.6816 95.293ZM85.3701 91.7334C85.8584 91.7334 86.332 91.6846 86.791 91.5869C87.2598 91.4893 87.7236 91.3672 88.1826 91.2207V94.5459C87.7041 94.7607 87.1084 94.9365 86.3955 95.0732C85.6924 95.2197 84.9209 95.293 84.0811 95.293C83.1045 95.293 82.2256 95.1367 81.4443 94.8242C80.6729 94.502 80.0625 93.9502 79.6133 93.1689C79.1738 92.3779 78.9541 91.2793 78.9541 89.873V81.9775H76.8154V80.0879L79.2764 78.5938L80.5654 75.1367H83.4219V78.623H88.0068V81.9775H83.4219V89.873C83.4219 90.498 83.5977 90.9668 83.9492 91.2793C84.3105 91.582 84.7842 91.7334 85.3701 91.7334ZM95.9756 78.623V95H91.5078V78.623H95.9756ZM93.749 72.207C94.4131 72.207 94.9844 72.3633 95.4629 72.6758C95.9414 72.9785 96.1807 73.5498 96.1807 74.3896C96.1807 75.2197 95.9414 75.7959 95.4629 76.1182C94.9844 76.4307 94.4131 76.5869 93.749 76.5869C93.0752 76.5869 92.499 76.4307 92.0205 76.1182C91.5518 75.7959 91.3174 75.2197 91.3174 74.3896C91.3174 73.5498 91.5518 72.9785 92.0205 72.6758C92.499 72.3633 93.0752 72.207 93.749 72.207ZM107.328 95.293C105.707 95.293 104.325 95 103.183 94.4141C102.04 93.8184 101.171 92.9004 100.575 91.6602C99.9795 90.4199 99.6816 88.833 99.6816 86.8994C99.6816 84.8975 100.019 83.2666 100.692 82.0068C101.376 80.7373 102.318 79.8047 103.52 79.209C104.73 78.6133 106.132 78.3154 107.724 78.3154C108.856 78.3154 109.833 78.4277 110.653 78.6523C111.483 78.8672 112.206 79.126 112.821 79.4287L111.503 82.8857C110.8 82.6025 110.146 82.373 109.54 82.1973C108.935 82.0117 108.329 81.9189 107.724 81.9189C106.942 81.9189 106.293 82.1045 105.775 82.4756C105.258 82.8369 104.872 83.3838 104.618 84.1162C104.364 84.8486 104.237 85.7666 104.237 86.8701C104.237 87.9541 104.374 88.8525 104.647 89.5654C104.921 90.2783 105.316 90.8105 105.834 91.1621C106.352 91.5039 106.981 91.6748 107.724 91.6748C108.651 91.6748 109.477 91.5527 110.199 91.3086C110.922 91.0547 111.625 90.7031 112.309 90.2539V94.0771C111.625 94.5068 110.907 94.8145 110.155 95C109.413 95.1953 108.471 95.293 107.328 95.293ZM122.826 78.2861C125.023 78.2861 126.708 78.7646 127.88 79.7217C129.052 80.6787 129.638 82.1338 129.638 84.0869V95H126.518L125.653 92.7734H125.536C125.067 93.3594 124.589 93.8379 124.101 94.209C123.612 94.5801 123.051 94.8535 122.416 95.0293C121.781 95.2051 121.01 95.293 120.102 95.293C119.135 95.293 118.266 95.1074 117.494 94.7363C116.732 94.3652 116.132 93.7988 115.692 93.0371C115.253 92.2656 115.033 91.2891 115.033 90.1074C115.033 88.3691 115.644 87.0898 116.864 86.2695C118.085 85.4395 119.916 84.9805 122.357 84.8926L125.199 84.8047V84.0869C125.199 83.2275 124.975 82.5977 124.525 82.1973C124.076 81.7969 123.451 81.5967 122.65 81.5967C121.859 81.5967 121.083 81.709 120.321 81.9336C119.56 82.1582 118.798 82.4414 118.036 82.7832L116.557 79.7656C117.426 79.3066 118.397 78.9453 119.472 78.6816C120.556 78.418 121.674 78.2861 122.826 78.2861ZM125.199 87.4121L123.471 87.4707C122.025 87.5098 121.02 87.7686 120.453 88.2471C119.896 88.7256 119.618 89.3555 119.618 90.1367C119.618 90.8203 119.818 91.3086 120.219 91.6016C120.619 91.8848 121.142 92.0264 121.786 92.0264C122.743 92.0264 123.549 91.7432 124.203 91.1768C124.867 90.6104 125.199 89.8047 125.199 88.7598V87.4121Z" fill="#F7F8FA"/>
<path d="M26.8125 57L25.7773 53.6016H20.5723L19.5371 57H16.2754L21.3145 42.6641H25.0156L30.0742 57H26.8125ZM25.0547 51.0625L24.0195 47.7422C23.9544 47.5208 23.8665 47.2376 23.7559 46.8926C23.6517 46.541 23.5443 46.1862 23.4336 45.8281C23.3294 45.4635 23.2448 45.1478 23.1797 44.8809C23.1146 45.1478 23.0234 45.4798 22.9062 45.877C22.7956 46.2676 22.6882 46.6387 22.584 46.9902C22.4798 47.3418 22.4049 47.5924 22.3594 47.7422L21.334 51.0625H25.0547ZM36.0801 57.1953C34.9993 57.1953 34.0781 57 33.3164 56.6094C32.5547 56.2122 31.9753 55.6003 31.5781 54.7734C31.181 53.9466 30.9824 52.8887 30.9824 51.5996C30.9824 50.265 31.207 49.1777 31.6562 48.3379C32.112 47.4915 32.7402 46.8698 33.541 46.4727C34.3483 46.0755 35.2826 45.877 36.3438 45.877C37.099 45.877 37.75 45.9518 38.2969 46.1016C38.8503 46.2448 39.332 46.4173 39.7422 46.6191L38.8633 48.9238C38.3945 48.735 37.9583 48.582 37.5547 48.4648C37.151 48.3411 36.7474 48.2793 36.3438 48.2793C35.8229 48.2793 35.39 48.403 35.0449 48.6504C34.6999 48.8913 34.4427 49.2559 34.2734 49.7441C34.1042 50.2324 34.0195 50.8444 34.0195 51.5801C34.0195 52.3027 34.1107 52.9017 34.293 53.377C34.4753 53.8522 34.7389 54.207 35.084 54.4414C35.429 54.6693 35.849 54.7832 36.3438 54.7832C36.9622 54.7832 37.5124 54.7018 37.9941 54.5391C38.4759 54.3698 38.9447 54.1354 39.4004 53.8359V56.3848C38.9447 56.6712 38.4661 56.8763 37.9648 57C37.4701 57.1302 36.8418 57.1953 36.0801 57.1953ZM46.5391 54.8223C46.8646 54.8223 47.1803 54.7897 47.4863 54.7246C47.7988 54.6595 48.1081 54.5781 48.4141 54.4805V56.6973C48.0951 56.8405 47.6979 56.9577 47.2227 57.0488C46.7539 57.1465 46.2396 57.1953 45.6797 57.1953C45.0286 57.1953 44.4427 57.0911 43.9219 56.8828C43.4076 56.668 43.0007 56.3001 42.7012 55.7793C42.4082 55.252 42.2617 54.5195 42.2617 53.582V48.3184H40.8359V47.0586L42.4766 46.0625L43.3359 43.7578H45.2402V46.082H48.2969V48.3184H45.2402V53.582C45.2402 53.9987 45.3574 54.3112 45.5918 54.5195C45.8327 54.7214 46.1484 54.8223 46.5391 54.8223ZM53.6094 46.082V57H50.6309V46.082H53.6094ZM52.125 41.8047C52.5677 41.8047 52.9486 41.9089 53.2676 42.1172C53.5866 42.319 53.7461 42.6999 53.7461 43.2598C53.7461 43.8132 53.5866 44.1973 53.2676 44.4121C52.9486 44.6204 52.5677 44.7246 52.125 44.7246C51.6758 44.7246 51.2917 44.6204 50.9727 44.4121C50.6602 44.1973 50.5039 43.8132 50.5039 43.2598C50.5039 42.6999 50.6602 42.319 50.9727 42.1172C51.2917 41.9089 51.6758 41.8047 52.125 41.8047ZM59.3418 57L55.1816 46.082H58.2969L60.4062 52.3027C60.5234 52.6673 60.6146 53.0514 60.6797 53.4551C60.7513 53.8587 60.8001 54.2201 60.8262 54.5391H60.9043C60.9238 54.194 60.9694 53.8262 61.041 53.4355C61.1191 53.0449 61.2201 52.6673 61.3438 52.3027L63.4434 46.082H66.5586L62.3984 57H59.3418ZM71.1094 46.082V57H68.1309V46.082H71.1094ZM69.625 41.8047C70.0677 41.8047 70.4486 41.9089 70.7676 42.1172C71.0866 42.319 71.2461 42.6999 71.2461 43.2598C71.2461 43.8132 71.0866 44.1973 70.7676 44.4121C70.4486 44.6204 70.0677 44.7246 69.625 44.7246C69.1758 44.7246 68.7917 44.6204 68.4727 44.4121C68.1602 44.1973 68.0039 43.8132 68.0039 43.2598C68.0039 42.6999 68.1602 42.319 68.4727 42.1172C68.7917 41.9089 69.1758 41.8047 69.625 41.8047ZM77.7012 57.1953C76.4837 57.1953 75.4909 56.7201 74.7227 55.7695C73.9609 54.8125 73.5801 53.4095 73.5801 51.5605C73.5801 49.6921 73.9674 48.2793 74.7422 47.3223C75.5169 46.3587 76.5293 45.877 77.7793 45.877C78.3001 45.877 78.7591 45.9486 79.1562 46.0918C79.5534 46.235 79.8952 46.4271 80.1816 46.668C80.4746 46.9089 80.722 47.179 80.9238 47.4785H81.0215C80.9824 47.2702 80.9336 46.9642 80.875 46.5605C80.8229 46.1504 80.7969 45.7305 80.7969 45.3008V41.8047H83.7852V57H81.5L80.9238 55.584H80.7969C80.6081 55.8835 80.3704 56.1569 80.084 56.4043C79.804 56.6452 79.4688 56.8372 79.0781 56.9805C78.6875 57.1237 78.2285 57.1953 77.7012 57.1953ZM78.7461 54.8223C79.5599 54.8223 80.1328 54.5814 80.4648 54.0996C80.8034 53.6113 80.9824 52.8789 81.002 51.9023V51.5801C81.002 50.5189 80.8392 49.7083 80.5137 49.1484C80.1882 48.582 79.5827 48.2988 78.6973 48.2988C78.0397 48.2988 77.5254 48.582 77.1543 49.1484C76.7832 49.7148 76.5977 50.5319 76.5977 51.5996C76.5977 52.6673 76.7832 53.4714 77.1543 54.0117C77.5319 54.5521 78.0625 54.8223 78.7461 54.8223ZM91.373 45.8574C92.8379 45.8574 93.9609 46.1764 94.7422 46.8145C95.5234 47.4525 95.9141 48.4225 95.9141 49.7246V57H93.834L93.2578 55.5156H93.1797C92.8672 55.9062 92.5482 56.2253 92.2227 56.4727C91.8971 56.7201 91.5228 56.9023 91.0996 57.0195C90.6764 57.1367 90.1621 57.1953 89.5566 57.1953C88.9121 57.1953 88.3327 57.0716 87.8184 56.8242C87.3105 56.5768 86.9102 56.1992 86.6172 55.6914C86.3242 55.1771 86.1777 54.526 86.1777 53.7383C86.1777 52.5794 86.5846 51.7266 87.3984 51.1797C88.2122 50.6263 89.4329 50.3203 91.0605 50.2617L92.9551 50.2031V49.7246C92.9551 49.1517 92.8053 48.7318 92.5059 48.4648C92.2064 48.1979 91.7897 48.0645 91.2559 48.0645C90.7285 48.0645 90.2109 48.1393 89.7031 48.2891C89.1953 48.4388 88.6875 48.6276 88.1797 48.8555L87.1934 46.8438C87.7728 46.5378 88.4206 46.2969 89.1367 46.1211C89.8594 45.9453 90.6048 45.8574 91.373 45.8574ZM92.9551 51.9414L91.8027 51.9805C90.8392 52.0065 90.1686 52.179 89.791 52.498C89.4199 52.8171 89.2344 53.237 89.2344 53.7578C89.2344 54.2135 89.3678 54.5391 89.6348 54.7344C89.9017 54.9232 90.25 55.0176 90.6797 55.0176C91.3177 55.0176 91.8548 54.8288 92.291 54.4512C92.7337 54.0736 92.9551 53.5365 92.9551 52.8398V51.9414ZM102.447 57.1953C101.23 57.1953 100.237 56.7201 99.4688 55.7695C98.707 54.8125 98.3262 53.4095 98.3262 51.5605C98.3262 49.6921 98.7135 48.2793 99.4883 47.3223C100.263 46.3587 101.275 45.877 102.525 45.877C103.046 45.877 103.505 45.9486 103.902 46.0918C104.299 46.235 104.641 46.4271 104.928 46.668C105.221 46.9089 105.468 47.179 105.67 47.4785H105.768C105.729 47.2702 105.68 46.9642 105.621 46.5605C105.569 46.1504 105.543 45.7305 105.543 45.3008V41.8047H108.531V57H106.246L105.67 55.584H105.543C105.354 55.8835 105.117 56.1569 104.83 56.4043C104.55 56.6452 104.215 56.8372 103.824 56.9805C103.434 57.1237 102.975 57.1953 102.447 57.1953ZM103.492 54.8223C104.306 54.8223 104.879 54.5814 105.211 54.0996C105.549 53.6113 105.729 52.8789 105.748 51.9023V51.5801C105.748 50.5189 105.585 49.7083 105.26 49.1484C104.934 48.582 104.329 48.2988 103.443 48.2988C102.786 48.2988 102.271 48.582 101.9 49.1484C101.529 49.7148 101.344 50.5319 101.344 51.5996C101.344 52.6673 101.529 53.4714 101.9 54.0117C102.278 54.5521 102.809 54.8223 103.492 54.8223ZM125.504 45.916C125.504 46.5736 125.367 47.1432 125.094 47.625C124.82 48.1068 124.449 48.5007 123.98 48.8066C123.518 49.1126 122.997 49.3372 122.418 49.4805V49.5391C123.564 49.6823 124.433 50.0339 125.025 50.5938C125.624 51.1536 125.924 51.9023 125.924 52.8398C125.924 53.6732 125.719 54.4186 125.309 55.0762C124.905 55.7337 124.28 56.2513 123.434 56.6289C122.587 57.0065 121.497 57.1953 120.162 57.1953C119.374 57.1953 118.639 57.1302 117.955 57C117.278 56.8763 116.64 56.6842 116.041 56.4238V53.8555C116.653 54.168 117.294 54.4056 117.965 54.5684C118.635 54.7246 119.26 54.8027 119.84 54.8027C120.921 54.8027 121.676 54.6172 122.105 54.2461C122.542 53.8685 122.76 53.3411 122.76 52.6641C122.76 52.2669 122.659 51.9316 122.457 51.6582C122.255 51.3848 121.904 51.1764 121.402 51.0332C120.908 50.89 120.214 50.8184 119.322 50.8184H118.238V48.5039H119.342C120.221 48.5039 120.888 48.4225 121.344 48.2598C121.806 48.0905 122.118 47.8626 122.281 47.5762C122.451 47.2832 122.535 46.9512 122.535 46.5801C122.535 46.0723 122.379 45.6751 122.066 45.3887C121.754 45.1022 121.233 44.959 120.504 44.959C120.048 44.959 119.632 45.0176 119.254 45.1348C118.883 45.2454 118.548 45.3822 118.248 45.5449C117.949 45.7012 117.685 45.8542 117.457 46.0039L116.061 43.9238C116.62 43.5202 117.275 43.1849 118.023 42.918C118.779 42.651 119.677 42.5176 120.719 42.5176C122.19 42.5176 123.355 42.8138 124.215 43.4062C125.074 43.9987 125.504 44.8353 125.504 45.916Z" fill="#F7F8FA"/>
</svg>
