<svg width="449" height="322" viewBox="0 0 449 322" fill="none" xmlns="http://www.w3.org/2000/svg">
<path fill-rule="evenodd" clip-rule="evenodd" d="M0 322C88.9178 322 161 249.918 161 161C161 72.0822 88.9178 0 0 0V322Z" fill="#7764E3"/>
<path d="M246.833 321.464C358.208 321.464 448.494 319.158 448.494 316.312C448.494 313.467 358.208 311.16 246.833 311.16C135.459 311.16 45.1729 313.467 45.1729 316.312C45.1729 319.158 135.459 321.464 246.833 321.464Z" fill="#F5F8FF"/>
<path d="M299.314 0H114.308C111.56 0 109.332 2.22806 109.332 4.97609V126.756C109.332 129.504 111.56 131.732 114.308 131.732H299.314C302.062 131.732 304.29 129.504 304.29 126.756V4.97609C304.29 2.22806 302.062 0 299.314 0Z" fill="url(#paint0_linear_247_63)"/>
<path d="M295.163 85.7988H260.692C259.413 85.7988 258.377 86.8353 258.377 88.114V125.523C258.377 126.802 259.413 127.839 260.692 127.839H295.163C296.442 127.839 297.478 126.802 297.478 125.523V88.114C297.478 86.8353 296.442 85.7988 295.163 85.7988Z" fill="#FEBB94"/>
<path d="M167.246 85.4062H117.387C116.304 85.4062 115.427 86.284 115.427 87.3667V125.879C115.427 126.962 116.304 127.84 117.387 127.84H167.246C168.329 127.84 169.206 126.962 169.206 125.879V87.3667C169.206 86.284 168.329 85.4062 167.246 85.4062Z" fill="white"/>
<path d="M252.207 85.4062H175.623C174.291 85.4062 173.211 86.4864 173.211 87.8185V125.428C173.211 126.76 174.291 127.84 175.623 127.84H252.207C253.539 127.84 254.619 126.76 254.619 125.428V87.8185C254.619 86.4864 253.539 85.4062 252.207 85.4062Z" fill="white"/>
<path d="M294.384 17.2051H225.037C223.328 17.2051 221.942 18.5907 221.942 20.2999V78.5247C221.942 80.2335 223.328 81.6191 225.037 81.6191H294.384C296.093 81.6191 297.479 80.2335 297.479 78.5247V20.2999C297.479 18.5907 296.093 17.2051 294.384 17.2051Z" fill="#1C85E8"/>
<path d="M208.281 148.257C212.52 143.574 211.318 142.321 213.306 139.555C215.257 136.859 214.827 128.921 216.691 130.434C218.553 131.946 218.564 134.789 218.564 134.789C220.61 132.586 223.052 128.218 226.625 128.504C230.198 128.789 230.244 129.946 231.815 132.014C235.979 137.575 227.805 142.492 226.11 144.701C225.029 146.082 218.675 149.563 217.849 150.458L214.308 153.646L208.281 148.257Z" fill="#FFCCB3"/>
<path d="M221.942 135.949L227.989 129.199" stroke="#EF6A77" stroke-width="1.07832" stroke-linecap="round"/>
<path d="M224.394 137.859L230.69 131.732" stroke="#EF6A77" stroke-width="1.07832" stroke-linecap="round"/>
<path d="M227.33 140.025L230.988 136.277" stroke="#EF6A77" stroke-width="1.07832" stroke-linecap="round"/>
<path d="M144.794 186.145L109.332 313.444H116.556L157.544 186.145H144.794Z" fill="#D1E8F7"/>
<path d="M144.794 186.145L142.19 195.491L155.777 191.632L157.544 186.145H144.794Z" fill="#5CA4E6"/>
<path d="M396.773 287.505L377.562 313.043C377.111 313.645 376.437 314.042 375.694 314.148C374.947 314.253 374.189 314.058 373.591 313.606L371.806 312.264L394.427 282.189L396.212 283.531C396.815 283.983 397.209 284.656 397.315 285.402C397.421 286.147 397.228 286.904 396.773 287.505Z" fill="#5661AE"/>
<path d="M378.654 272.551L385.578 278.18L378.544 289.037L370.733 283.077L378.654 272.551Z" fill="#BC775C"/>
<path d="M381.727 275.294L373.102 284.704L371.002 283.048L379.082 273.121L381.727 275.294Z" fill="#93523E" stroke="#93523E"/>
<path d="M384.65 277.483C384.65 277.483 382.706 284.323 376.297 287.826L370.51 310.453C370.695 311.751 372.147 312.585 373.11 312.895C373.322 312.961 373.549 312.961 373.761 312.892C373.974 312.824 374.156 312.692 374.288 312.513L394.826 285.213C395.167 284.758 395.318 284.186 395.246 283.621C395.17 283.056 394.879 282.542 394.428 282.19C392.635 280.784 389.88 278.663 388.69 277.935C386.844 276.81 385.533 276.55 384.65 277.483Z" fill="#1C85E8"/>
<path d="M374.959 292.518L378.252 291.812C378.374 291.786 378.499 291.79 378.616 291.824C378.734 291.857 378.84 291.92 378.931 292.005C379.018 292.091 379.086 292.197 379.124 292.313C379.162 292.43 379.17 292.555 379.147 292.676C379.12 292.825 379.052 292.962 378.946 293.07C378.84 293.177 378.707 293.251 378.559 293.281L374.516 294.097L374.959 292.518Z" fill="white"/>
<path d="M374.182 296.102L377.456 295.388C377.578 295.362 377.703 295.366 377.82 295.4C377.938 295.434 378.048 295.496 378.135 295.581C378.226 295.667 378.29 295.773 378.328 295.89C378.366 296.007 378.373 296.131 378.355 296.252C378.328 296.401 378.256 296.538 378.15 296.646C378.048 296.754 377.911 296.828 377.763 296.857L373.776 297.684L374.182 296.102Z" fill="white"/>
<path d="M373.182 300.006L376.423 299.282C376.544 299.257 376.669 299.261 376.786 299.294C376.904 299.328 377.014 299.39 377.101 299.476C377.188 299.561 377.256 299.667 377.294 299.784C377.332 299.901 377.34 300.025 377.317 300.147C377.29 300.295 377.222 300.433 377.116 300.54C377.01 300.648 376.877 300.722 376.73 300.752L372.788 301.547L373.182 300.006Z" fill="white"/>
<path d="M312.817 242.788L367.645 286.961L380.151 272.384L332.214 227.41L312.817 242.788Z" fill="#1F2D49"/>
<path d="M342.225 236.803V266.482L367.644 286.961L371.294 264.075L342.225 236.803Z" fill="#0D1B33"/>
<path d="M317.682 161.58L308.67 233.446H333.868L355.755 161.94L317.682 161.58Z" fill="#1F2D49"/>
<path d="M339.318 215.643L343.55 179.99H353.956L339.318 215.643Z" fill="#0D1B33"/>
<path d="M361.937 314.678H329.98C329.228 314.678 328.505 314.378 327.973 313.846C327.441 313.314 327.142 312.592 327.142 311.839V309.607H364.776V311.839C364.776 312.592 364.476 313.314 363.946 313.846C363.411 314.378 362.691 314.678 361.937 314.678Z" fill="#5661AE"/>
<path d="M362.994 291.207L362.661 300.126L349.753 301.03L349.822 291.207H362.994Z" fill="#BC775C"/>
<path d="M362.653 295.313L349.946 294.075L350.007 291.402L362.797 291.892L362.653 295.313Z" fill="#93523E" stroke="#93523E"/>
<path d="M362.661 298.963C362.661 298.963 356.025 301.52 349.373 298.506L327.811 307.482C326.883 308.41 327.09 310.07 327.422 311.027C327.496 311.237 327.634 311.418 327.815 311.546C327.997 311.674 328.214 311.742 328.437 311.741H362.597C363.169 311.741 363.714 311.518 364.124 311.119C364.529 310.72 364.764 310.177 364.776 309.607C364.821 307.326 364.859 303.851 364.726 302.461C364.518 300.312 363.934 299.105 362.661 298.963Z" fill="#1C85E8"/>
<path d="M344.817 300.256L347.361 302.463C347.454 302.544 347.526 302.646 347.57 302.761C347.614 302.875 347.629 302.999 347.614 303.122C347.599 303.244 347.554 303.36 347.483 303.461C347.413 303.562 347.319 303.643 347.209 303.699C347.075 303.768 346.923 303.794 346.773 303.774C346.624 303.755 346.483 303.691 346.371 303.591L343.288 300.851L344.817 300.256Z" fill="white"/>
<path d="M341.485 301.789L344.026 303.978C344.119 304.059 344.19 304.161 344.235 304.276C344.279 304.39 344.294 304.514 344.279 304.636C344.264 304.759 344.219 304.875 344.148 304.976C344.078 305.077 343.983 305.158 343.874 305.214C343.739 305.283 343.587 305.309 343.438 305.289C343.288 305.27 343.148 305.206 343.035 305.106L339.978 302.417L341.485 301.789Z" fill="white"/>
<path d="M337.765 303.338L340.291 305.491C340.383 305.572 340.455 305.674 340.499 305.789C340.543 305.904 340.559 306.028 340.544 306.15C340.529 306.272 340.484 306.388 340.413 306.489C340.343 306.59 340.248 306.671 340.139 306.727C340.004 306.796 339.852 306.822 339.703 306.803C339.553 306.783 339.413 306.719 339.3 306.619L336.297 303.949L337.765 303.338Z" fill="white"/>
<path d="M371.043 161.941C370.835 165.586 370.835 169.239 371.043 172.883C371.881 184.664 369.202 219.066 369.224 223.592C369.243 228.119 366.264 291.877 366.264 291.877H348.147C348.147 291.877 343.517 237.083 343.409 230.812C343.302 224.541 342.225 162.199 342.225 162.199L371.043 161.941Z" fill="#1F2D49"/>
<path d="M317.137 165.933L371.044 172.883V161.941L317.416 163.705L317.137 165.933Z" fill="#0D1B33"/>
<path d="M321.27 246.045C328.228 246.045 333.868 240.405 333.868 233.447C333.868 226.488 328.228 220.848 321.27 220.848C314.311 220.848 308.671 226.488 308.671 233.447C308.671 240.405 314.311 246.045 321.27 246.045Z" fill="#1F2D49"/>
<path d="M415.159 179.99H84.3945V186.145H415.159V179.99Z" fill="url(#paint1_linear_247_63)"/>
<path fill-rule="evenodd" clip-rule="evenodd" d="M243.113 306.967C238.226 305.24 233.188 303.46 228.545 303.79C228.44 303.797 228.338 303.827 228.246 303.877C228.154 303.927 228.074 303.997 228.012 304.081C227.949 304.165 227.905 304.262 227.884 304.365C227.863 304.468 227.864 304.574 227.888 304.676L229.833 312.892C229.873 313.061 229.973 313.21 230.114 313.311C230.256 313.413 230.429 313.459 230.602 313.443L262.176 310.394C264.504 310.169 265.627 308.79 265.794 306.89C265.798 306.825 265.784 306.76 265.752 306.703C265.721 306.645 265.674 306.598 265.616 306.567C265.558 306.536 265.493 306.522 265.428 306.528C265.363 306.533 265.3 306.556 265.248 306.596C261.764 309.209 257.396 310.355 253.078 309.788C249.961 309.387 246.575 308.19 243.113 306.967Z" fill="#5661AE"/>
<path fill-rule="evenodd" clip-rule="evenodd" d="M226.034 283.26C226.034 283.26 229.291 296.171 229.383 297.557C229.39 298.326 229.342 299.096 229.237 299.859C229.091 301.229 228.929 302.757 229.173 303.759C233.641 303.62 238.446 305.318 243.114 306.967C246.576 308.189 249.961 309.385 253.079 309.786C257.188 310.325 261.352 309.315 264.757 306.952C264.615 304.595 262.379 302.607 258.254 302.647C250.861 302.719 246.77 302.586 242.691 297.608C239.793 294.071 238.394 279.148 238.394 279.148L226.034 283.26Z" fill="#FFCCB3"/>
<path fill-rule="evenodd" clip-rule="evenodd" d="M241.748 295.548C240.385 295.866 234.966 297.111 229.678 297.971C228.651 298.139 228.325 300.261 229.102 301.316C229.637 302.095 230.109 302.917 230.511 303.772C232.354 303.881 234.18 304.18 235.96 304.665C235.021 302.652 236.025 301.335 237.962 300.859C239.491 300.483 243.182 300.419 245.092 300.412C245.197 300.412 245.3 300.381 245.388 300.324C245.476 300.267 245.546 300.187 245.59 300.091C245.633 299.996 245.649 299.889 245.634 299.786C245.62 299.682 245.575 299.584 245.507 299.504L242.291 295.727C242.226 295.65 242.141 295.592 242.045 295.561C241.949 295.529 241.846 295.525 241.748 295.548Z" fill="white"/>
<path fill-rule="evenodd" clip-rule="evenodd" d="M261.085 308.872C257.704 310.182 255.339 309.91 255.339 309.91L254.618 302.442L260.436 302.15L261.085 308.872Z" fill="white"/>
<path d="M222.958 231.173C228.566 229.491 231.748 223.581 230.066 217.973C228.384 212.364 222.474 209.182 216.866 210.864C211.258 212.546 208.075 218.456 209.757 224.064C211.439 229.672 217.349 232.855 222.958 231.173Z" fill="#FFCCB3"/>
<path d="M223.048 210.891L205.474 204.875L197.294 226.912L220.029 230.87L223.048 210.891Z" fill="#FFCCB3"/>
<path d="M230.421 219.609L239.343 286.281L227.77 290.285L210.274 226.983L230.421 219.609Z" fill="#FFCCB3"/>
<path fill-rule="evenodd" clip-rule="evenodd" d="M193.774 311.588C189.157 309.231 184.398 306.803 179.752 306.517C179.647 306.51 179.542 306.526 179.444 306.564C179.346 306.602 179.258 306.66 179.184 306.735C179.112 306.811 179.055 306.901 179.021 307C178.987 307.099 178.974 307.205 178.984 307.309L179.828 315.71C179.845 315.883 179.925 316.044 180.051 316.163C180.178 316.282 180.344 316.351 180.518 316.357L212.218 317.499C214.555 317.583 215.851 316.365 216.267 314.503C216.28 314.439 216.274 314.373 216.25 314.312C216.226 314.251 216.186 314.198 216.133 314.16C216.08 314.121 216.017 314.099 215.952 314.095C215.886 314.092 215.821 314.107 215.764 314.14C211.966 316.27 207.486 316.83 203.28 315.698C200.243 314.89 197.044 313.257 193.774 311.588Z" fill="#5661AE"/>
<path fill-rule="evenodd" clip-rule="evenodd" d="M179.97 285.837C179.97 285.837 181.496 299.064 181.404 300.45C181.31 301.214 181.16 301.97 180.955 302.712C180.63 304.052 180.268 305.545 180.378 306.57C184.825 307.022 189.364 309.338 193.774 311.589C197.045 313.257 200.243 314.889 203.28 315.698C207.283 316.774 211.542 316.322 215.229 314.429C215.4 312.073 213.446 309.808 209.351 309.304C202.014 308.4 197.975 307.729 194.589 302.256C192.183 298.367 192.765 283.391 192.765 283.391L179.97 285.837Z" fill="#FCBA9F"/>
<path fill-rule="evenodd" clip-rule="evenodd" d="M193.926 300.089C192.534 300.225 186.998 300.744 181.643 300.9C180.602 300.93 179.999 302.99 180.63 304.138C181.058 304.982 181.417 305.858 181.704 306.759C183.515 307.11 185.286 307.648 186.987 308.363C186.321 306.244 187.491 305.071 189.473 304.854C191.039 304.683 194.706 305.107 196.6 305.352C196.704 305.365 196.81 305.348 196.905 305.304C197 305.259 197.08 305.188 197.136 305.099C197.192 305.01 197.221 304.907 197.22 304.802C197.219 304.697 197.188 304.595 197.131 304.507L194.442 300.338C194.387 300.253 194.31 300.185 194.219 300.141C194.128 300.097 194.027 300.079 193.926 300.089Z" fill="white"/>
<path fill-rule="evenodd" clip-rule="evenodd" d="M211.336 315.848C207.812 316.7 205.504 316.119 205.504 316.119L205.774 308.621L211.58 309.099L211.336 315.848Z" fill="white"/>
<path d="M183.791 233.797C189.572 232.869 193.506 227.431 192.578 221.65C191.65 215.869 186.212 211.934 180.431 212.862C174.65 213.79 170.716 219.228 171.643 225.009C172.571 230.79 178.01 234.725 183.791 233.797Z" stroke="#5CA4E6" stroke-width="1.0969" stroke-miterlimit="10"/>
<path d="M192.714 223.32L192.764 290.586L180.764 293.029L171.771 227.972L192.714 223.32Z" fill="#FCBA9F"/>
<path d="M161.3 198.762C161.3 198.762 158.073 214.552 162.301 221.149C167.653 229.501 174.199 230.78 179.037 230.87L205.172 228.615C205.172 228.615 204.999 213.589 214.679 207.974C214.679 207.974 175.007 193.332 161.3 198.762Z" fill="#5661AE"/>
<path d="M151.239 118.21L149.163 128.812L137.147 127.997L139.449 116.727L151.239 118.21Z" fill="#FFCCB3"/>
<path d="M151.117 118.827L150.109 123.978C150.109 123.978 147.348 121.624 146.814 117.951L151.117 118.827Z" fill="#FCBA9F"/>
<path d="M133.443 131.012C133.443 131.012 136.18 123.872 137.813 124.739C141.695 126.8 147.364 126.418 149.874 125.179C151.379 124.437 151.436 131.012 151.436 131.012H133.443Z" fill="#FEBB94"/>
<path d="M133.444 131.012L121.913 132.556C121.597 132.599 121.31 132.763 121.112 133.014C120.915 133.265 120.823 133.583 120.856 133.9L128.907 210.272L170.216 206.217L165.104 133.543L151.436 131.012H133.444Z" fill="#FEBB94"/>
<path d="M162.839 152.774L159.617 146.914L160.41 152.774H162.839Z" fill="#FF967C"/>
<path d="M164.387 133.41C168.743 134.078 172.394 136.981 173.614 139.517L184.39 164.066L210.852 142.903L218.374 150.826L194.588 180.214C189.805 186.514 181.53 189.106 175.895 180.891L166.891 166.748L164.387 133.41Z" fill="#FEBB94"/>
<path d="M184.391 164.065L187.401 169.983L189.693 159.824L184.391 164.065Z" fill="#FF967C"/>
<path d="M122.001 132.545C122.001 132.545 118.89 132.49 116.274 137.068C113.658 141.645 103.064 169.373 103.064 169.373C103.064 169.373 98.2244 179.837 108.034 180.229H128.568L122.001 132.545Z" fill="#FEBB94"/>
<path d="M124.318 152.774L123.458 148.934L121.295 152.774H124.318Z" fill="#FF967C"/>
<path d="M178.641 230.843H133.796C132.383 230.843 131.018 230.333 129.952 229.407C128.884 228.482 128.187 227.203 127.987 225.805L118.51 159.471C118.391 158.639 118.453 157.79 118.69 156.984C118.927 156.177 119.335 155.432 119.886 154.796C120.437 154.161 121.118 153.652 121.883 153.303C122.647 152.954 123.478 152.773 124.319 152.773H169.164C170.577 152.773 171.942 153.283 173.009 154.208C174.076 155.133 174.773 156.413 174.973 157.811L184.45 224.145C184.569 224.977 184.508 225.825 184.27 226.632C184.033 227.438 183.625 228.184 183.074 228.819C182.523 229.454 181.843 229.964 181.078 230.313C180.313 230.662 179.482 230.843 178.641 230.843Z" fill="#5CA4E6"/>
<path d="M175.618 230.843H209.962C210.257 230.843 210.547 230.764 210.802 230.616C211.057 230.468 211.268 230.255 211.415 229.999C211.561 229.743 211.637 229.453 211.634 229.158C211.632 228.863 211.553 228.574 211.402 228.32C211.285 228.122 211.128 227.95 210.942 227.815C210.755 227.68 210.542 227.585 210.317 227.536L182.515 221.492L175.618 230.843Z" fill="#5CA4E6"/>
<path d="M175.618 230.843H130.772C129.36 230.843 127.995 230.333 126.928 229.407C125.861 228.482 125.163 227.203 124.964 225.805L115.487 159.471C115.368 158.639 115.429 157.79 115.666 156.984C115.904 156.177 116.312 155.432 116.862 154.796C117.413 154.161 118.094 153.652 118.859 153.303C119.624 152.954 120.455 152.773 121.295 152.773H166.141C167.553 152.773 168.918 153.283 169.985 154.208C171.052 155.133 171.75 156.413 171.949 157.811L181.427 224.145C181.546 224.977 181.484 225.825 181.247 226.632C181.009 227.438 180.602 228.184 180.051 228.819C179.5 229.454 178.819 229.964 178.054 230.313C177.29 230.662 176.458 230.843 175.618 230.843Z" fill="url(#paint2_linear_247_63)"/>
<path d="M358.769 169.879C358.769 169.879 356.347 174.454 355.756 174.979C355.168 175.505 345.435 176.705 343.55 177.38C341.666 178.055 340.766 179.075 340.766 179.99H363.642C363.642 179.99 364.234 179.438 364.662 177.68C365.086 175.921 365.833 175.175 365.833 175.175L358.769 169.879Z" fill="#BC775C"/>
<path d="M325.885 97.7973C327.39 90.3699 323.852 90.5613 322.674 89.3804C322.674 89.3804 318.257 85.7375 314.891 89.1333C311.328 92.7249 290.905 120.626 290.905 120.626L303.684 132.379L306.086 129.512L312.308 122.092L318.963 114.16L319.789 113.258L328.767 103.089C328.767 103.089 325.034 101.708 325.885 97.7973Z" fill="#5661AE"/>
<path d="M331.23 99.0633C332.953 93.9205 330.18 88.3547 325.037 86.6322C319.894 84.9097 314.329 87.6823 312.606 92.8252C310.883 97.9684 313.656 103.534 318.799 105.256C323.942 106.979 329.508 104.206 331.23 99.0633Z" fill="#5661AE"/>
<path d="M319.672 113.218C319.929 111.665 320.445 108.56 321 105.731L323.948 92.0352C323.948 92.0352 316.03 103.738 312.381 111.89C309.68 117.999 306.546 124.225 306.027 129.492L312.249 122.071L318.904 114.14L319.672 113.218Z" fill="#465393"/>
<path d="M278.141 89.2134C275.104 83.6749 276.564 82.735 275.272 79.5837C273.999 76.509 276.259 68.8865 274.096 69.9256C271.933 70.9652 271.263 73.7273 271.263 73.7273C269.784 71.11 268.421 66.295 264.88 65.7439C261.338 65.1929 261.025 66.3075 259.017 67.9545C253.677 72.3981 260.487 79.0759 261.623 81.6189C262.355 83.2129 267.728 88.0726 268.323 89.1346L271.028 93.0578L278.141 89.2134Z" fill="#BC775C"/>
<path d="M267.708 74.0717L263.393 66.1035" stroke="#93523E" stroke-width="1.07832" stroke-linecap="round"/>
<path d="M264.88 75.362L260.177 67.9414" stroke="#93523E" stroke-width="1.07832" stroke-linecap="round"/>
<path d="M261.521 76.787L258.832 72.293" stroke="#93523E" stroke-width="1.07832" stroke-linecap="round"/>
<path d="M268.774 81.0858C268.797 78.3268 270.453 74.9883 270.453 74.9883" stroke="#93523E" stroke-width="1.07832" stroke-linecap="round"/>
<path d="M303.792 120.404L277.807 85.7992C277.641 85.596 277.406 85.4611 277.147 85.4209C276.888 85.3804 276.623 85.4376 276.404 85.5809L269.599 90.0809C269.276 90.3 269.046 90.6312 268.953 91.0106C268.861 91.39 268.912 91.7905 269.098 92.1339L289.995 130.671L303.792 120.404Z" fill="#5661AE"/>
<path d="M297.478 135.019C302.284 135.019 306.18 131.123 306.18 126.317C306.18 121.511 302.284 117.615 297.478 117.615C292.672 117.615 288.776 121.511 288.776 126.317C288.776 131.123 292.672 135.019 297.478 135.019Z" fill="#5661AE"/>
<path d="M333.837 81.5566C333.837 81.5566 321.15 85.5925 318.647 86.6392C316.144 87.6864 315.977 91.8749 315.81 94.8416C315.693 96.9204 318.039 131.054 318.194 150.823C318.227 155.046 317.439 157.726 316.933 160.073C316.428 162.421 316.933 163.698 316.933 163.698L371.294 164.184C371.294 164.184 369.665 95.498 369.331 93.0551C368.998 90.6118 371.62 88.5076 368.778 87.2778L348.02 81.5566H333.837Z" fill="white"/>
<path d="M327.015 83.7617C327.015 83.7617 329.087 93.2364 330.444 100.819C331.801 108.402 332.214 171.176 332.214 171.176C332.214 171.176 316.329 168.087 314.177 164.438C312.025 160.788 316.17 144.392 316.493 129.493C316.815 114.595 313.679 91.4745 316.972 87.4633C316.972 87.4637 317.816 86.6265 327.015 83.7617Z" fill="#5661AE"/>
<path d="M353.712 83.1523C353.712 83.1523 346.175 98.856 346.636 103.642C347.097 108.428 347.124 149.246 346.636 157.768C346.334 162.952 345.544 168.096 344.277 173.132C344.277 173.132 364.839 174.588 372.783 172.101C372.783 172.101 376.557 148.355 374.079 139.873C371.604 131.39 369.713 87.3022 369.713 87.3022L353.712 83.1523Z" fill="#5661AE"/>
<path d="M359.276 104.254C359.276 104.254 360.046 132.714 359.886 142.2C359.788 148.112 353.027 150.615 353.008 154.038C352.996 156.063 358.344 153.692 359.788 155.786C361.228 157.879 358.765 164.436 358.765 164.436L371.294 164.184L376.315 139.827L365.738 102.789L359.276 104.254Z" fill="#465393"/>
<path d="M334.098 75.2154L332.921 88.4788C332.921 88.4788 332.607 90.5389 336.185 91.1908C339.027 91.7081 344.931 88.3696 346.264 87.2698C349.226 84.8253 349.499 83.3461 349.186 82.2133C348.738 80.5902 347.272 69.1523 347.272 69.1523L334.098 75.2154Z" fill="#BC775C"/>
<path d="M333.325 86.068L334.05 77.8929L340.366 74.7734L333.325 86.068Z" fill="#93523E" stroke="#93523E"/>
<path d="M327.078 50.1121C327.078 50.1121 324.658 60.9485 324.336 68.3285C324.012 75.7744 326.672 77.1922 329.971 77.7482C332.573 78.1867 336.62 78.2185 339.165 76.9478C343.805 74.6303 351.424 69.0057 352.421 67.9146C353.967 66.2251 353.861 58.6897 347.963 56.8262C343.674 55.4706 332.739 43.9627 327.078 50.1121Z" fill="#BC775C"/>
<path d="M327.101 51.2668C330.62 52.6459 337.241 51.7397 340.878 52.9203C344.511 54.1038 341.205 55.3534 341.364 58.8624C341.466 61.1352 341.639 65.4784 343.033 65.4208C344.428 65.3635 345.25 60.431 348.191 60.619C351.131 60.8108 352.518 62.0667 352.454 63.9476C352.39 65.8251 350.277 67.4612 348.61 68.3298C346.523 69.4107 345.661 68.9575 345.661 68.9575C345.661 68.9575 348.01 77.6059 348.365 77.2633C348.365 77.2633 350.898 75.8334 351.355 73.3302C351.355 73.3302 354.717 72.6018 353.975 69.239C353.975 69.239 356.067 68.5671 355.074 66.6202C355.074 66.6202 360.486 62.9812 357.666 58.5281C357.666 58.5281 360.232 55.9677 357.166 54.8849C357.166 54.8849 361.228 48.9493 355.449 47.6838C355.449 47.6838 355.835 44.8899 353.19 44.9964C353.19 44.9964 352.035 40.1909 346.263 42.0862C346.235 41.1239 345.918 40.1924 345.351 39.414C344.785 38.6355 343.997 38.0462 343.09 37.7237C339.821 36.4071 337.693 38.219 337.693 38.219C337.693 38.219 334.262 35.4206 332.455 39.5235C332.455 39.5235 329.86 38.197 327.915 39.6065C325.967 41.0114 326.914 43.9565 326.914 43.9565C326.914 43.9565 324.687 43.4346 323.875 45.2788C322.727 47.8737 324.339 48.8193 324.339 48.8193C324.339 48.8193 320.714 53.1048 325.811 57.1642L327.101 51.2668Z" fill="#493212"/>
<path d="M335.955 61.9654C336.147 61.0888 335.836 60.2766 335.262 60.1511C334.688 60.0257 334.067 60.6347 333.876 61.5109C333.684 62.3872 333.995 63.1993 334.569 63.3248C335.143 63.4502 335.764 62.8416 335.955 61.9654Z" fill="#080B09"/>
<path d="M328.055 60.1857C328.246 59.3095 327.936 58.4973 327.362 58.3718C326.788 58.2464 326.167 58.8551 325.976 59.7317C325.784 60.6079 326.094 61.42 326.668 61.5455C327.242 61.6709 327.863 61.0623 328.055 60.1857Z" fill="#080B09"/>
<path d="M329.616 62.5117C329.616 62.5117 330.597 64.4013 329.18 64.4301C327.825 64.4112 327.036 65.2059 328.402 66.3577" stroke="#93523E" stroke-width="1.07832" stroke-linecap="round"/>
<path d="M328.613 68.1049L328.619 68.1056L328.625 68.106C329.465 68.1663 331.143 68.2872 332.258 68.3861H332.26C332.293 68.3887 332.324 68.4001 332.351 68.419C332.377 68.4384 332.398 68.4641 332.411 68.4945C332.424 68.5244 332.428 68.5574 332.423 68.5896C332.419 68.6207 332.406 68.6502 332.387 68.6749C332.141 68.9451 331.818 69.2665 331.46 69.5435C331.097 69.8236 330.71 70.0487 330.337 70.1381C329.973 70.226 329.629 70.1832 329.321 69.9365C329.004 69.6818 328.701 69.1918 328.475 68.3296L328.471 68.3148L328.465 68.3008C328.455 68.2781 328.451 68.2527 328.454 68.228C328.457 68.203 328.466 68.1795 328.481 68.1594C328.497 68.1393 328.517 68.1238 328.54 68.1143C328.563 68.1045 328.588 68.1015 328.613 68.1049Z" fill="#93523E" stroke="#93523E"/>
<path d="M338.708 59.0774L338.629 59.2362C338.535 59.4776 338.349 59.6716 338.112 59.7766C337.875 59.8812 337.606 59.888 337.364 59.7952L333.247 58.0913C333.045 58.017 332.877 57.8692 332.779 57.6774C332.68 57.4856 332.656 57.2635 332.713 57.0555C332.742 56.9262 332.798 56.8046 332.877 56.6989C332.957 56.5927 333.058 56.5052 333.173 56.4411C333.289 56.3771 333.417 56.3381 333.549 56.3275C333.681 56.3165 333.814 56.3335 333.938 56.3779L338.134 57.9234C338.248 57.9594 338.355 58.0185 338.446 58.0966C338.538 58.175 338.612 58.2709 338.666 58.3785C338.72 58.4862 338.751 58.6036 338.758 58.7238C338.765 58.8439 338.748 58.9641 338.708 59.0774Z" fill="#080B09"/>
<path d="M324.817 55.2435L329.278 54.9429C329.41 54.9353 329.542 54.9562 329.666 55.0039C329.789 55.0517 329.901 55.1248 329.994 55.2188C330.087 55.3128 330.16 55.4257 330.206 55.5497C330.252 55.6736 330.271 55.8059 330.263 55.9381C330.259 56.1538 330.174 56.3603 330.025 56.5165C329.876 56.6726 329.674 56.767 329.458 56.7814L325.028 57.2563C324.77 57.2771 324.514 57.1952 324.316 57.0277C324.118 56.8606 323.994 56.6218 323.971 56.3637L323.941 56.1894C323.934 56.0693 323.952 55.9488 323.992 55.8358C324.033 55.7225 324.097 55.6187 324.178 55.5304C324.26 55.442 324.359 55.3712 324.469 55.3219C324.578 55.2726 324.697 55.2461 324.817 55.2435Z" fill="#080B09"/>
<path d="M370.123 94.1258C364.522 89.019 362.869 92.1528 361.251 92.5564C361.251 92.5564 355.858 94.4745 357.041 99.1068C358.291 104.009 371.734 135.865 371.734 135.865L388.697 131.849L387.159 127.407L383.99 118.256L380.606 108.472L380.253 107.299L376.141 94.3722C376.141 94.3722 373.041 96.8647 370.123 94.1258Z" fill="#5661AE"/>
<path d="M372.882 104.039C377.002 100.511 377.483 94.312 373.955 90.192C370.426 86.0717 364.226 85.5912 360.107 89.1184C355.987 92.6456 355.506 98.8451 359.034 102.965C362.562 107.085 368.759 107.566 372.882 104.039Z" fill="#5661AE"/>
<path d="M371.605 131.389L356.601 171.98C356.522 172.229 356.537 172.5 356.643 172.739C356.749 172.979 356.939 173.17 357.181 173.277L364.647 176.557C365.007 176.71 365.413 176.725 365.78 176.597C366.148 176.469 366.459 176.209 366.644 175.866L387.712 137.421L371.605 131.389Z" fill="#5661AE"/>
<path d="M379.995 142.193C384.801 142.193 388.697 138.297 388.697 133.491C388.697 128.685 384.801 124.789 379.995 124.789C375.19 124.789 371.294 128.685 371.294 133.491C371.294 138.297 375.19 142.193 379.995 142.193Z" fill="#5661AE"/>
<path d="M145.036 230.844H177.729C177.729 234.451 176.297 237.91 173.746 240.46C171.196 243.01 167.737 244.443 164.13 244.443H158.636C155.029 244.443 151.57 243.01 149.02 240.46C146.469 237.91 145.036 234.451 145.036 230.844Z" fill="#E7EFFF"/>
<path d="M162.109 244.441H160.657V309.813H162.109V244.441Z" fill="#5CA4E6"/>
<path d="M160.657 309.814L140.729 316.272H181.727L162.109 309.814H160.657Z" fill="#5CA4E6"/>
<path d="M95.9217 186.145L60.46 313.444H67.6838L108.672 186.145H95.9217Z" fill="#E7EFFF"/>
<path d="M95.921 186.145L93.3174 195.491L106.904 191.632L108.671 186.145H95.921Z" fill="#96BAFD"/>
<path d="M398.226 186.145L433.687 313.444H426.464L385.473 186.145H398.226Z" fill="#D1E8F7"/>
<path d="M398.226 186.145L400.215 193.29L387.311 191.849L385.473 186.145H398.226Z" fill="#5CA4E6"/>
<path d="M151.784 95.7309C151.784 95.7309 156.552 104.335 158.206 107.886C159.86 111.437 160.426 115.268 157.671 117.031C153.924 119.43 149.777 118.897 145.308 118.398C141.439 117.965 136.592 107.08 137.185 104.407C137.779 101.734 144.507 91.014 151.784 95.7309Z" fill="#FFCCB3"/>
<path d="M155.34 105.595C155.688 105.314 155.634 104.672 155.22 104.16C154.806 103.649 154.19 103.461 153.842 103.742C153.495 104.023 153.549 104.665 153.963 105.177C154.376 105.689 154.993 105.876 155.34 105.595Z" fill="#080B09"/>
<path d="M150.203 104.285L153.842 101.698C153.753 101.595 153.643 101.511 153.52 101.453C153.397 101.395 153.264 101.363 153.128 101.36C152.992 101.356 152.857 101.382 152.731 101.434C152.605 101.486 152.492 101.564 152.398 101.662L149.988 104.106C149.902 104.175 150.075 104.389 150.203 104.285Z" fill="#080B09"/>
<path d="M157.519 110.934C157.03 111.238 156.467 111.398 155.891 111.398C155.316 111.398 154.752 111.238 154.264 110.934" stroke="#EF6A77" stroke-miterlimit="10" stroke-linecap="round"/>
<path d="M148.364 100.894L156.155 96.9533C156.155 96.9533 153.33 87.7636 142.98 86.8037C135.387 86.0991 128.33 90.2854 125.595 96.8252C122.86 103.365 125.198 114.14 132.135 116.727C138.002 118.915 137.813 124.739 137.813 124.739L146.404 113.473C146.404 113.473 140.46 110.581 141.886 107.052C143.818 102.267 148.673 107.798 148.673 107.798L145.388 98.2361L148.364 100.894Z" fill="#1F2D49"/>
<path d="M156.597 104.668C156.597 104.668 157.897 106.361 158.683 106.688C159.469 107.014 158.766 108.217 158.242 108.384C157.718 108.551 156.299 105.467 156.597 104.668Z" fill="#FFCCB3"/>
<path d="M124.479 113.9C129.578 113.9 133.711 109.767 133.711 104.669C133.711 99.5707 129.578 95.4375 124.479 95.4375C119.381 95.4375 115.248 99.5707 115.248 104.669C115.248 109.767 119.381 113.9 124.479 113.9Z" fill="#0D1B33"/>
<path d="M123.459 114.304C128.557 114.304 132.69 110.172 132.69 105.073C132.69 99.975 128.557 95.8418 123.459 95.8418C118.361 95.8418 114.228 99.975 114.228 105.073C114.228 110.172 118.361 114.304 123.459 114.304Z" fill="#1F2D49"/>
<path d="M214.002 17.2051H118.502C116.804 17.2051 115.427 18.5819 115.427 20.2802V78.4826C115.427 80.1808 116.804 81.5577 118.502 81.5577H214.002C215.7 81.5577 217.077 80.1808 217.077 78.4826V20.2802C217.077 18.5819 215.7 17.2051 214.002 17.2051Z" fill="#FEBB94"/>
<path d="M181.486 94.5488H186.592" stroke="#D4DCF4" stroke-width="12" stroke-miterlimit="10" stroke-linecap="round"/>
<path d="M197.831 94.5488H245.377" stroke="#5661AE" stroke-width="12" stroke-miterlimit="10" stroke-linecap="round"/>
<path d="M181.486 105.732H186.592" stroke="#D4DCF4" stroke-width="12" stroke-miterlimit="10" stroke-linecap="round"/>
<path d="M197.831 105.732H219.968" stroke="#5661AE" stroke-width="12" stroke-miterlimit="10" stroke-linecap="round"/>
<path d="M181.486 117.111H186.592" stroke="#D4DCF4" stroke-width="12" stroke-miterlimit="10" stroke-linecap="round"/>
<path d="M197.831 117.111H235.901" stroke="#5661AE" stroke-width="12" stroke-miterlimit="10" stroke-linecap="round"/>
<path d="M122.187 51.7296C122.187 51.7296 130.602 49.9571 133.271 54.0498C135.941 58.1425 138.61 65.831 144.66 64.8338C150.711 63.8371 153.631 43.7277 159.681 43.9055C165.731 44.0836 164.769 57.253 171.353 57.4307C177.937 57.6088 176.102 50.0708 180.498 50.277C185.83 50.5267 185.233 66.1504 192.173 66.3282C199.113 66.5063 198.401 45.6863 208.9 46.0422" stroke="white" stroke-width="6.35676" stroke-miterlimit="10" stroke-linecap="round"/>
<path d="M124.87 26.9473H141.672" stroke="white" stroke-width="10.0826" stroke-miterlimit="10" stroke-linecap="round"/>
<path opacity="0.4" d="M124.87 34.7891H159.592" stroke="white" stroke-width="10.0826" stroke-miterlimit="10" stroke-linecap="round"/>
<path opacity="0.4" d="M259.71 60.3342C265.743 60.3342 270.633 55.4437 270.633 49.411C270.633 43.3787 265.743 38.4883 259.71 38.4883C253.678 38.4883 248.787 43.3787 248.787 49.411C248.787 55.4437 253.678 60.3342 259.71 60.3342Z" fill="white"/>
<path d="M256.332 46.4041V53.3369C256.332 53.529 256.382 53.7181 256.477 53.8849C256.573 54.052 256.71 54.1915 256.875 54.2893C257.04 54.3874 257.228 54.4405 257.42 54.4439C257.613 54.4473 257.802 54.4007 257.971 54.3082L264.308 50.842C264.483 50.7465 264.628 50.6063 264.729 50.4353C264.83 50.2644 264.884 50.0692 264.884 49.8707C264.884 49.6717 264.83 49.4769 264.729 49.306C264.628 49.135 264.483 48.9944 264.308 48.8989L257.971 45.4327C257.802 45.3406 257.612 45.2936 257.42 45.297C257.228 45.3005 257.04 45.3539 256.875 45.4517C256.71 45.5498 256.573 45.6889 256.478 45.856C256.382 46.0232 256.332 46.2119 256.332 46.4041Z" fill="white"/>
<path d="M114.462 0H299.16C300.52 0 301.825 0.540433 302.787 1.50268C303.749 2.46455 304.29 3.76939 304.29 5.12996V12.8579H109.332V5.12996C109.332 3.76939 109.872 2.46455 110.835 1.50268C111.797 0.540433 113.101 0 114.462 0Z" fill="#5CA4E6"/>
<path d="M415.158 179.99H360.705V186.145H415.158V179.99Z" fill="#96BAFD"/>
<path d="M349.351 186.145L384.812 313.444H377.589L336.601 186.145H349.351Z" fill="#E7EFFF"/>
<path d="M349.351 186.145L351.954 195.491L338.367 191.632L336.601 186.145H349.351Z" fill="#5CA4E6"/>
<path d="M395.264 76.6214C410.037 76.6214 422.013 64.6451 422.013 49.8715C422.013 35.0974 410.037 23.1211 395.264 23.1211C380.488 23.1211 368.512 35.0974 368.512 49.8715C368.512 64.6451 380.488 76.6214 395.264 76.6214Z" fill="#FEBB94"/>
<path d="M404.797 49.2216C404.797 47.4916 404.327 45.7937 403.436 44.3103C402.545 42.827 401.268 41.6139 399.741 40.8009C398.214 39.9876 396.493 39.6052 394.765 39.6943C393.037 39.7834 391.365 40.3405 389.933 41.3065C388.496 42.2725 387.352 43.6104 386.617 45.1775C385.881 46.7446 385.589 48.4815 385.768 50.2028C385.946 51.9238 386.586 53.564 387.625 54.9477C388.663 56.3318 390.062 57.4074 391.665 58.0592V61.1896H398.85V58.0592C400.609 57.3441 402.113 56.1215 403.171 54.5471C404.232 52.9732 404.797 51.1188 404.797 49.2216Z" stroke="white" stroke-width="3.71807" stroke-linecap="round" stroke-linejoin="round"/>
<path d="M391.664 61.1895H398.876V62.7247C398.876 63.3751 398.618 63.9989 398.156 64.459C397.698 64.9191 397.072 65.1775 396.424 65.1775H394.116C393.464 65.1775 392.843 64.9191 392.38 64.459C391.922 63.9989 391.664 63.3751 391.664 62.7247V61.1895Z" stroke="white" stroke-width="3.71807" stroke-linecap="round" stroke-linejoin="round"/>
<path d="M393.646 61.19V50.2384C393.646 49.9761 393.54 49.7249 393.355 49.5395C393.169 49.3542 392.919 49.25 392.657 49.25H392.627C392.365 49.25 392.111 49.3542 391.93 49.5395C391.744 49.7249 391.638 49.9761 391.638 50.2384C391.638 50.368 391.664 50.4965 391.714 50.6166C391.763 50.7364 391.835 50.8452 391.93 50.9372C392.02 51.029 392.13 51.1017 392.248 51.1514C392.369 51.201 392.498 51.2264 392.627 51.2264H397.887C398.016 51.2264 398.145 51.201 398.266 51.1514C398.384 51.1017 398.494 51.029 398.585 50.9372C398.679 50.8452 398.751 50.7364 398.801 50.6166C398.85 50.4965 398.876 50.368 398.876 50.2384C398.876 49.9761 398.77 49.7249 398.585 49.5395C398.399 49.3542 398.149 49.25 397.887 49.25H397.8C397.539 49.25 397.288 49.3542 397.103 49.5395C396.917 49.7249 396.811 49.9761 396.811 50.2384V61.19" stroke="white" stroke-width="3.71807" stroke-linecap="round" stroke-linejoin="round"/>
<path d="M395.269 34.5664V37.0147" stroke="white" stroke-width="3.71807" stroke-linecap="round" stroke-linejoin="round"/>
<path d="M386.442 36.9238L387.667 39.0443" stroke="white" stroke-width="3.71807" stroke-linecap="round" stroke-linejoin="round"/>
<path d="M379.98 43.3789L382.099 44.603" stroke="white" stroke-width="3.71807" stroke-linecap="round" stroke-linejoin="round"/>
<path d="M410.546 43.4004L408.428 44.6245" stroke="white" stroke-width="3.71807" stroke-linecap="round" stroke-linejoin="round"/>
<path d="M404.091 36.9355L402.867 39.0556" stroke="white" stroke-width="3.71807" stroke-linecap="round" stroke-linejoin="round"/>
<path d="M101.288 17.2051H81.4411C80.0556 17.2051 78.9326 18.3284 78.9326 19.714V39.56C78.9326 40.9455 80.0556 42.0688 81.4411 42.0688H101.288C102.673 42.0688 103.796 40.9455 103.796 39.56V19.714C103.796 18.3284 102.673 17.2051 101.288 17.2051Z" fill="#1C85E8"/>
<path d="M101.288 47.9023H81.4421C80.0565 47.9023 78.9336 49.0257 78.9336 50.4109V70.2572C78.9336 71.6428 80.0565 72.7657 81.4421 72.7657H101.288C102.674 72.7657 103.797 71.6428 103.797 70.2572V50.4109C103.797 49.0257 102.674 47.9023 101.288 47.9023Z" fill="#1C85E8"/>
<path d="M99.4557 56.984C99.4428 56.3098 99.3147 55.6424 99.0778 55.0106C98.8683 54.4702 98.5484 53.9794 98.1387 53.5693C97.7286 53.1596 97.2379 52.8398 96.6974 52.6302C96.0656 52.3937 95.3983 52.2656 94.724 52.2523C93.8531 52.211 93.5768 52.2012 91.3681 52.2012C89.1594 52.2012 88.8827 52.211 88.0152 52.2489C87.3406 52.2622 86.6736 52.3899 86.0418 52.6271C85.5014 52.8363 85.0106 53.1562 84.6006 53.5663C84.1909 53.976 83.871 54.4671 83.6614 55.0076C83.4246 55.639 83.2968 56.3063 83.2836 56.9809C83.2423 57.8519 83.2324 58.1281 83.2324 60.3369C83.2324 62.5456 83.2423 62.8219 83.2802 63.6894C83.2934 64.364 83.4212 65.0314 83.6584 65.6631C83.868 66.2036 84.1875 66.6943 84.5975 67.1044C85.0072 67.5141 85.498 67.834 86.0388 68.0432C86.6702 68.28 87.3376 68.4081 88.0122 68.4214C88.8797 68.4597 89.1563 68.4691 91.3651 68.4691C93.5734 68.4691 93.8501 68.4597 94.7176 68.4214C95.3922 68.4081 96.0596 68.2804 96.691 68.0432C97.2318 67.8343 97.7226 67.5145 98.1326 67.1048C98.5427 66.6947 98.8622 66.2036 99.0714 65.6631C99.3083 65.0314 99.436 64.364 99.4496 63.6894C99.4875 62.8219 99.4974 62.5456 99.4974 60.3369C99.4974 58.1281 99.4939 57.8519 99.4557 56.984ZM97.9909 63.6261C97.9856 64.1415 97.8908 64.6524 97.7112 65.1356C97.5755 65.4865 97.3682 65.8049 97.1022 66.0709C96.8361 66.337 96.5174 66.5443 96.1668 66.6799C95.6833 66.8596 95.1728 66.954 94.6573 66.9596C93.7993 66.9979 93.542 67.0074 91.3711 67.0074C89.2007 67.0074 88.9403 66.9979 88.0853 66.9596C87.5695 66.9543 87.059 66.86 86.5758 66.6799C86.2226 66.5503 85.9031 66.343 85.6416 66.0728C85.3722 65.8106 85.1649 65.4915 85.0345 65.1386C84.8549 64.6554 84.7605 64.1445 84.7548 63.6291C84.7165 62.7711 84.7071 62.5138 84.7071 60.3433C84.7071 58.1725 84.7165 57.9121 84.7548 57.0571C84.7601 56.5417 84.8545 56.0308 85.0345 55.5476C85.1641 55.194 85.3726 54.8742 85.6447 54.6134C85.9069 54.344 86.226 54.1367 86.5789 54.0063C87.0621 53.827 87.5729 53.7323 88.0884 53.7266C88.9464 53.6887 89.2041 53.6792 91.3746 53.6792C93.548 53.6792 93.8054 53.6887 94.6604 53.7266C95.1758 53.7319 95.6867 53.8266 96.1699 54.0063C96.5231 54.1359 96.8422 54.3432 97.1041 54.6134C97.3735 54.8757 97.5808 55.1952 97.7112 55.5476C97.8908 56.0312 97.9852 56.5417 97.9909 57.0571C98.0292 57.9151 98.0387 58.1725 98.0387 60.3433C98.0387 62.5138 98.0292 62.7681 97.9909 63.6261Z" fill="white"/>
<path d="M91.3674 56.1582C90.5408 56.1582 89.7329 56.4034 89.0458 56.8627C88.3587 57.3217 87.8228 57.9743 87.5067 58.738C87.1902 59.5016 87.1076 60.3418 87.2687 61.1525C87.4301 61.9631 87.8281 62.7078 88.4125 63.2922C88.9969 63.8766 89.7416 64.2746 90.5522 64.436C91.3629 64.5971 92.2031 64.5145 92.9667 64.198C93.7304 63.8819 94.383 63.3461 94.842 62.659C95.3013 61.9719 95.5465 61.1639 95.5465 60.3373C95.5461 59.2291 95.1057 58.1661 94.322 57.3827C93.5383 56.599 92.4756 56.1586 91.3674 56.1582ZM91.3674 63.0482C90.8312 63.0482 90.307 62.889 89.8613 62.5911C89.4156 62.2932 89.0681 61.8699 88.8631 61.3746C88.6577 60.8792 88.6042 60.3343 88.7088 59.8082C88.8134 59.2826 89.0715 58.7994 89.4505 58.4204C89.8299 58.0414 90.3127 57.7833 90.8387 57.6787C91.3644 57.5741 91.9094 57.6275 92.4047 57.8329C92.9 58.038 93.3234 58.3855 93.6213 58.8312C93.9191 59.2769 94.0783 59.801 94.0783 60.3373C94.0779 61.0562 93.7926 61.7456 93.284 62.2538C92.7757 62.7624 92.0864 63.0478 91.3674 63.0482Z" fill="white"/>
<path d="M96.6877 55.9931C96.6877 56.186 96.6305 56.3747 96.5232 56.5354C96.416 56.6957 96.2636 56.8208 96.0855 56.8947C95.9074 56.9686 95.711 56.9879 95.5219 56.95C95.3324 56.9125 95.1589 56.8197 95.022 56.6832C94.8856 56.5468 94.7928 56.3728 94.7552 56.1837C94.7174 55.9942 94.7367 55.7983 94.8106 55.6198C94.8845 55.4417 95.0095 55.2893 95.1699 55.1821C95.3305 55.0748 95.5189 55.0176 95.7122 55.0176C95.9707 55.0176 96.2189 55.1203 96.4019 55.3033C96.585 55.4864 96.6877 55.7342 96.6877 55.9931Z" fill="white"/>
<path d="M93.8284 25.3237H95.2454V22.8554C94.5598 22.7803 93.8705 22.7436 93.1811 22.7462C91.1376 22.7462 89.738 24.0314 89.738 26.3936V28.5671H87.4834V31.3265H89.738V38.2691H92.5023V31.3272H94.6659L95.0093 28.5678H92.5019V26.6668C92.5023 25.8695 92.7172 25.3237 93.8284 25.3237Z" fill="white"/>
<defs>
<linearGradient id="paint0_linear_247_63" x1="201.957" y1="-0.313043" x2="222.548" y2="280.761" gradientUnits="userSpaceOnUse">
<stop stop-color="white"/>
<stop offset="1" stop-color="#94B9FF"/>
</linearGradient>
<linearGradient id="paint1_linear_247_63" x1="241.542" y1="179.975" x2="241.568" y2="193.179" gradientUnits="userSpaceOnUse">
<stop stop-color="white"/>
<stop offset="1" stop-color="#94B9FF"/>
</linearGradient>
<linearGradient id="paint2_linear_247_63" x1="146.812" y1="152.588" x2="167.924" y2="317.352" gradientUnits="userSpaceOnUse">
<stop stop-color="white"/>
<stop offset="1" stop-color="#94B9FF"/>
</linearGradient>
</defs>
</svg>
