<svg width="67" height="67" viewBox="0 0 67 67" fill="none" xmlns="http://www.w3.org/2000/svg">
<path d="M11.1665 19.5417C11.1665 17.9999 12.4164 16.75 13.9582 16.75H53.0415C54.5833 16.75 55.8332 17.9999 55.8332 19.5417C55.8332 21.0835 54.5833 22.3333 53.0415 22.3333H13.9582C12.4164 22.3333 11.1665 21.0835 11.1665 19.5417ZM11.1665 33.5C11.1665 31.9582 12.4164 30.7083 13.9582 30.7083H53.0415C54.5833 30.7083 55.8332 31.9582 55.8332 33.5C55.8332 35.0418 54.5833 36.2917 53.0415 36.2917H13.9582C12.4164 36.2917 11.1665 35.0418 11.1665 33.5ZM11.1665 47.4583C11.1665 45.9165 12.4164 44.6667 13.9582 44.6667H53.0415C54.5833 44.6667 55.8332 45.9165 55.8332 47.4583C55.8332 49.0001 54.5833 50.25 53.0415 50.25H13.9582C12.4164 50.25 11.1665 49.0001 11.1665 47.4583Z" fill="#F7F8FA"/>
</svg>
