<svg width="47" height="47" viewBox="0 0 47 47" fill="none" xmlns="http://www.w3.org/2000/svg">
<path d="M23.4998 7.83366C14.8474 7.83366 7.83317 14.8479 7.83317 23.5003C7.83317 32.1528 14.8474 39.167 23.4998 39.167C32.1523 39.167 39.1665 32.1528 39.1665 23.5003C39.1665 14.8479 32.1523 7.83366 23.4998 7.83366ZM3.9165 23.5003C3.9165 12.6847 12.6843 3.91699 23.4998 3.91699C34.3154 3.91699 43.0832 12.6847 43.0832 23.5003C43.0832 34.3159 34.3154 43.0837 23.4998 43.0837C12.6843 43.0837 3.9165 34.3159 3.9165 23.5003ZM15.2609 15.2614C16.0257 14.4966 17.2656 14.4966 18.0304 15.2614L23.4998 20.7308L28.9693 15.2614C29.734 14.4966 30.974 14.4966 31.7388 15.2614C32.5035 16.0262 32.5035 17.2661 31.7388 18.0309L26.2693 23.5003L31.7388 28.9697C32.5035 29.7345 32.5035 30.9745 31.7388 31.7392C30.974 32.504 29.734 32.504 28.9693 31.7392L23.4998 26.2698L18.0304 31.7392C17.2656 32.504 16.0257 32.504 15.2609 31.7392C14.4961 30.9745 14.4961 29.7345 15.2609 28.9697L20.7303 23.5003L15.2609 18.0309C14.4961 17.2661 14.4961 16.0262 15.2609 15.2614Z" fill="#F7F8FA"/>
</svg>
