<svg width="95" height="95" viewBox="0 0 95 95" fill="none" xmlns="http://www.w3.org/2000/svg">
<g clip-path="url(#clip0_21_2018)">
<path d="M95 90.25C95 91.5098 94.4996 92.718 93.6088 93.6088C92.718 94.4996 91.5098 95 90.25 95H4.75C3.49022 95 2.28204 94.4996 1.39124 93.6088C0.500445 92.718 0 91.5098 0 90.25L0 4.75C0 3.49022 0.500445 2.28204 1.39124 1.39124C2.28204 0.500445 3.49022 0 4.75 0L90.25 0C91.5098 0 92.718 0.500445 93.6088 1.39124C94.4996 2.28204 95 3.49022 95 4.75V90.25Z" fill="#EBEDED"/>
<path d="M90.25 92.1499H4.75C3.49022 92.1499 2.28204 91.6495 1.39124 90.7587C0.500445 89.8679 0 88.6597 0 87.3999L0 90.2499C0 91.5097 0.500445 92.7179 1.39124 93.6087C2.28204 94.4995 3.49022 94.9999 4.75 94.9999H90.25C91.5098 94.9999 92.718 94.4995 93.6088 93.6087C94.4996 92.7179 95 91.5097 95 90.2499V87.3999C95 88.6597 94.4996 89.8679 93.6088 90.7587C92.718 91.6495 91.5098 92.1499 90.25 92.1499Z" fill="#D4D7DA"/>
<path d="M0 29.45V4.75C0 3.49022 0.500445 2.28204 1.39124 1.39124C2.28204 0.500445 3.49022 0 4.75 0L90.25 0C91.5098 0 92.718 0.500445 93.6088 1.39124C94.4996 2.28204 95 3.49022 95 4.75V29.45H0Z" fill="#E64C3C"/>
<path d="M0 26.6001H95V29.2126H0V26.6001Z" fill="#C03A2B"/>
<path d="M37 68.9205V63.2405L50.2858 45.4099H55.8357V63.8076H59.8988V68.9205H55.8357V75.9999H49.9361V68.9205H37ZM49.8041 53.1885L41.8954 63.8076H49.9361V53.1885H49.8041Z" fill="#35495E"/>
<path d="M23.0977 23.9746C22.7396 23.9746 22.4271 23.9518 22.1602 23.9062C21.8867 23.8672 21.6523 23.8118 21.457 23.7402V21.7773C21.6654 21.8294 21.89 21.875 22.1309 21.9141C22.3717 21.9531 22.6289 21.9727 22.9023 21.9727C23.2604 21.9727 23.5859 21.9043 23.8789 21.7676C24.1719 21.6309 24.403 21.3835 24.5723 21.0254C24.748 20.6673 24.8359 20.1628 24.8359 19.5117V5.72266H27.1797V19.4336C27.1797 20.4948 27.0104 21.3574 26.6719 22.0215C26.3333 22.6921 25.8581 23.1836 25.2461 23.4961C24.6341 23.8151 23.918 23.9746 23.0977 23.9746ZM40.0605 9.18945V20H38.2539L37.9414 18.5449H37.8145C37.5866 18.916 37.2969 19.2253 36.9453 19.4727C36.5938 19.7135 36.2031 19.8926 35.7734 20.0098C35.3438 20.1335 34.8913 20.1953 34.416 20.1953C33.6022 20.1953 32.9056 20.0586 32.3262 19.7852C31.7533 19.5052 31.3138 19.0755 31.0078 18.4961C30.7018 17.9167 30.5488 17.168 30.5488 16.25V9.18945H32.8535V15.8203C32.8535 16.6602 33.0228 17.2884 33.3613 17.7051C33.7064 18.1217 34.2402 18.3301 34.9629 18.3301C35.6595 18.3301 36.2129 18.1868 36.623 17.9004C37.0332 17.6139 37.3229 17.1908 37.4922 16.6309C37.668 16.071 37.7559 15.3841 37.7559 14.5703V9.18945H40.0605ZM48.9863 8.98438C50.2038 8.98438 51.151 9.30013 51.8281 9.93164C52.5117 10.5566 52.8535 11.5625 52.8535 12.9492V20H50.5586V13.3789C50.5586 12.5391 50.3861 11.9108 50.041 11.4941C49.696 11.071 49.1621 10.8594 48.4395 10.8594C47.3913 10.8594 46.6621 11.1816 46.252 11.8262C45.8483 12.4707 45.6465 13.4049 45.6465 14.6289V20H43.3516V9.18945H45.1387L45.4609 10.6543H45.5879C45.8223 10.2767 46.112 9.96745 46.457 9.72656C46.8086 9.47917 47.1992 9.29362 47.6289 9.16992C48.0651 9.04622 48.5176 8.98438 48.9863 8.98438ZM58.3613 9.18945V20H56.0664V9.18945H58.3613ZM57.2285 5.04883C57.5801 5.04883 57.8828 5.14323 58.1367 5.33203C58.3971 5.52083 58.5273 5.84635 58.5273 6.30859C58.5273 6.76432 58.3971 7.08984 58.1367 7.28516C57.8828 7.47396 57.5801 7.56836 57.2285 7.56836C56.8639 7.56836 56.5547 7.47396 56.3008 7.28516C56.0534 7.08984 55.9297 6.76432 55.9297 6.30859C55.9297 5.84635 56.0534 5.52083 56.3008 5.33203C56.5547 5.14323 56.8639 5.04883 57.2285 5.04883ZM71.2227 14.5703C71.2227 15.4688 71.1055 16.2663 70.8711 16.9629C70.6367 17.6595 70.2949 18.2487 69.8457 18.7305C69.3965 19.2057 68.8561 19.5703 68.2246 19.8242C67.5931 20.0716 66.8802 20.1953 66.0859 20.1953C65.3438 20.1953 64.6634 20.0716 64.0449 19.8242C63.4264 19.5703 62.8893 19.2057 62.4336 18.7305C61.9844 18.2487 61.6361 17.6595 61.3887 16.9629C61.1413 16.2663 61.0176 15.4688 61.0176 14.5703C61.0176 13.3789 61.2227 12.3698 61.6328 11.543C62.0495 10.7096 62.6419 10.0749 63.4102 9.63867C64.1784 9.20247 65.0931 8.98438 66.1543 8.98438C67.1504 8.98438 68.0293 9.20247 68.791 9.63867C69.5527 10.0749 70.1484 10.7096 70.5781 11.543C71.0078 12.3763 71.2227 13.3854 71.2227 14.5703ZM63.3809 14.5703C63.3809 15.3581 63.4753 16.0319 63.6641 16.5918C63.8594 17.1517 64.1589 17.5814 64.5625 17.8809C64.9661 18.1738 65.487 18.3203 66.125 18.3203C66.763 18.3203 67.2839 18.1738 67.6875 17.8809C68.0911 17.5814 68.3874 17.1517 68.5762 16.5918C68.765 16.0319 68.8594 15.3581 68.8594 14.5703C68.8594 13.7826 68.765 13.1152 68.5762 12.5684C68.3874 12.015 68.0911 11.5951 67.6875 11.3086C67.2839 11.0156 66.7598 10.8691 66.1152 10.8691C65.1647 10.8691 64.4714 11.1882 64.0352 11.8262C63.599 12.4642 63.3809 13.3789 63.3809 14.5703Z" fill="#F7F8FA"/>
</g>
<defs>
<clipPath id="clip0_21_2018">
<rect width="95" height="95" fill="white"/>
</clipPath>
</defs>
</svg>
