<svg width="1735" height="422" viewBox="0 0 1735 422" fill="none" xmlns="http://www.w3.org/2000/svg">
<path fill-rule="evenodd" clip-rule="evenodd" d="M78.571 91.4551C68.5747 98.3662 56.4476 102.414 43.3751 102.414C27.9633 102.414 13.8656 96.7877 3.02417 87.4767V257.573C3.02417 281.367 6.19674 303.179 12.5419 323.007C18.887 342.836 28.603 360.087 41.6899 374.76C55.1733 389.433 72.0276 400.934 92.2527 409.262C112.478 417.193 136.669 421.159 164.825 421.159C192.982 421.159 217.371 417.193 237.993 409.262C258.614 400.934 275.469 389.433 288.556 374.76C302.039 360.087 311.953 342.836 318.298 323.007C325.04 303.179 328.411 281.367 328.411 257.573V0H252.864V250.435C252.864 269.074 250.683 285.135 246.321 298.618C242.355 311.705 236.406 322.413 228.475 330.741C220.94 339.069 211.819 345.215 201.112 349.181C190.404 353.147 178.507 355.13 165.42 355.13C152.333 355.13 140.436 353.147 129.729 349.181C119.418 345.215 110.297 339.069 102.365 330.741C94.8305 322.413 88.8819 311.705 84.5196 298.618C80.5539 285.135 78.571 269.074 78.571 250.435V91.4551ZM625.319 334.905C642.768 363.061 657.243 388.838 668.744 412.236H756.783C740.92 382.097 721.289 348.785 697.892 312.3C674.891 275.815 648.32 237.15 618.181 196.303L748.455 0H662.795L572.972 140.981L481.958 0H392.73L524.788 196.898C497.425 235.762 472.044 273.039 448.647 308.731C425.249 344.026 404.627 378.527 386.781 412.236H471.846C476.605 402.718 482.95 391.019 490.881 377.139C498.813 363.259 507.339 348.983 516.46 334.31C525.978 319.24 535.297 304.567 544.419 290.29C553.936 276.014 562.661 263.72 570.592 253.409C589.628 279.583 607.87 306.748 625.319 334.905Z" fill="#F7F8FA"/>
<path fill-rule="evenodd" clip-rule="evenodd" d="M1570.37 7.13818L1498.4 19.0353V288.506C1498.4 309.127 1500.18 327.568 1503.75 343.827C1507.32 359.69 1513.47 373.372 1522.19 384.872C1530.91 395.977 1542.61 404.503 1557.29 410.451C1572.36 416.4 1591 419.374 1613.2 419.374C1627.27 419.374 1639.93 418.195 1651.17 415.836C1641.63 404.939 1635.86 390.672 1635.86 375.057C1635.86 368.685 1636.82 362.537 1638.61 356.751C1633.6 357.256 1628.3 357.509 1622.72 357.509C1603.69 357.509 1590.2 352.155 1582.27 341.448C1574.34 330.74 1570.37 312.895 1570.37 287.911V161.206H1681.02V101.126H1570.37V7.13818ZM1144.88 258.168C1144.88 230.805 1148.84 206.812 1156.78 186.19C1165.1 165.568 1176.01 148.516 1189.49 135.032C1202.98 121.152 1218.44 110.842 1235.89 104.1C1253.34 96.9616 1271.19 93.3925 1289.43 93.3925C1332.26 93.3925 1365.57 106.678 1389.37 133.248C1413.56 159.818 1425.65 199.475 1425.65 252.219C1425.65 256.185 1425.45 260.746 1425.06 265.901C1425.06 270.66 1424.86 275.022 1424.46 278.988H1219.24C1221.22 303.972 1229.94 323.404 1245.41 337.284C1261.27 350.767 1284.08 357.509 1313.82 357.509C1331.27 357.509 1347.13 355.923 1361.41 352.75C1376.08 349.578 1387.58 346.207 1395.91 342.638L1405.43 401.529C1401.46 403.511 1395.91 405.693 1388.77 408.072C1382.03 410.055 1374.1 411.839 1364.98 413.426C1356.25 415.409 1346.73 416.995 1336.42 418.184C1326.11 419.374 1315.6 419.969 1304.9 419.969C1277.53 419.969 1253.74 416.003 1233.51 408.072C1213.29 399.744 1196.63 388.442 1183.54 374.165C1170.46 359.492 1160.74 342.439 1154.4 323.007C1148.05 303.179 1144.88 281.566 1144.88 258.168ZM1353.67 226.046C1353.67 216.131 1352.29 206.812 1349.51 198.087C1346.73 188.966 1342.57 181.233 1337.02 174.888C1331.86 168.146 1325.32 162.991 1317.39 159.422C1309.85 155.456 1300.73 153.473 1290.02 153.473C1278.92 153.473 1269.2 155.654 1260.88 160.016C1252.55 163.982 1245.41 169.336 1239.46 176.078C1233.91 182.819 1229.55 190.552 1226.37 199.277C1223.2 208.002 1221.02 216.924 1219.83 226.046H1353.67ZM814.162 111.238C828.042 107.272 846.086 103.505 868.294 99.9359C890.502 96.3668 915.089 94.5822 942.056 94.5822C967.436 94.5822 988.653 98.1513 1005.71 105.29C1022.76 112.031 1036.24 121.747 1046.16 134.438C1056.47 146.731 1063.61 161.801 1067.57 179.647C1071.93 197.096 1074.11 216.33 1074.11 237.348V412.236H1002.14V248.65C1002.14 231.994 1000.95 217.916 998.567 206.415C996.584 194.518 993.015 185 987.86 177.862C983.101 170.327 976.359 164.974 967.635 161.801C959.307 158.232 948.996 156.447 936.702 156.447C927.581 156.447 918.063 157.042 908.149 158.232C898.235 159.422 890.898 160.413 886.139 161.206V412.236H814.162V111.238Z" fill="#694FFD"/>
<path d="M86.75 46.6465C86.75 70.6018 67.3304 90.0215 43.375 90.0215C19.4196 90.0215 0 70.6018 0 46.6465C0 22.6911 19.4196 3.27148 43.375 3.27148C67.3304 3.27148 86.75 22.6911 86.75 46.6465Z" fill="#FF971D"/>
<path d="M1735 375.057C1735 399.012 1715.58 418.432 1691.62 418.432C1667.67 418.432 1648.25 399.012 1648.25 375.057C1648.25 351.102 1667.67 331.682 1691.62 331.682C1715.58 331.682 1735 351.102 1735 375.057Z" fill="#FF971D"/>
</svg>
