<svg width="332" height="332" viewBox="0 0 332 332" fill="none" xmlns="http://www.w3.org/2000/svg">
<circle cx="166" cy="166" r="166" transform="rotate(-90 166 166)" fill="white"/>
<path d="M166 7.25609e-06C121.974 9.18053e-06 79.7513 17.4892 48.6203 48.6203C17.4892 79.7513 -9.18053e-06 121.974 -7.25609e-06 166C-5.33166e-06 210.026 17.4892 252.249 48.6203 283.38C79.7513 314.511 121.974 332 166 332C210.026 332 252.249 314.511 283.38 283.38C314.511 252.249 332 210.026 332 166C332 121.974 314.511 79.7513 283.38 48.6203C252.249 17.4892 210.026 5.33166e-06 166 7.25609e-06V7.25609e-06ZM238.625 155.625C241.377 155.625 244.016 156.718 245.961 158.664C247.907 160.609 249 163.248 249 166C249 168.752 247.907 171.391 245.961 173.336C244.016 175.282 241.377 176.375 238.625 176.375L118.42 176.375L162.97 220.905C164.919 222.853 166.013 225.495 166.013 228.25C166.013 231.005 164.919 233.647 162.97 235.596C161.022 237.544 158.38 238.638 155.625 238.638C152.87 238.638 150.228 237.544 148.279 235.596L86.0295 173.346C85.0633 172.382 84.2967 171.237 83.7737 169.976C83.2507 168.716 82.9815 167.365 82.9815 166C82.9815 164.635 83.2507 163.284 83.7737 162.024C84.2967 160.763 85.0633 159.618 86.0295 158.655L148.279 96.4045C150.228 94.4564 152.87 93.3619 155.625 93.3619C158.38 93.3619 161.022 94.4564 162.97 96.4045C164.919 98.3527 166.013 100.995 166.013 103.75C166.013 106.505 164.919 109.147 162.97 111.096L118.42 155.625L238.625 155.625Z" fill="#FF9D2E"/>
</svg>
