<svg width="457" height="22" viewBox="0 0 457 22" fill="none" xmlns="http://www.w3.org/2000/svg">
<path d="M232.856 12.7914C232.856 14.161 232.511 15.2317 231.821 16.0034C231.131 16.77 230.178 17.1533 228.962 17.1533C228.21 17.1533 227.543 16.977 226.961 16.6244C226.378 16.2717 225.928 15.7658 225.612 15.1065C225.295 14.4472 225.136 13.6755 225.136 12.7914C225.136 11.4217 225.479 10.3561 226.164 9.59463C226.848 8.82803 227.799 8.44473 229.015 8.44473C230.191 8.44473 231.123 8.83569 231.813 9.61763C232.508 10.3996 232.856 11.4575 232.856 12.7914ZM226.455 12.7914C226.455 13.8646 226.67 14.6823 227.099 15.2445C227.528 15.8067 228.159 16.0877 228.992 16.0877C229.825 16.0877 230.457 15.8092 230.886 15.2521C231.32 14.69 231.537 13.8697 231.537 12.7914C231.537 11.7232 231.32 10.9132 230.886 10.3612C230.457 9.80417 229.82 9.52563 228.977 9.52563C228.144 9.52563 227.515 9.79906 227.091 10.3459C226.667 10.8927 226.455 11.7079 226.455 12.7914Z" fill="#F5F5F5"/>
<path d="M262 10H457V13H262V10Z" fill="#5661AE"/>
<path d="M0 10H195V13H0V10Z" fill="#5661AE"/>
</svg>
