<svg width="34" height="43" viewBox="0 0 34 43" fill="none" xmlns="http://www.w3.org/2000/svg">
<path fill-rule="evenodd" clip-rule="evenodd" d="M7.86486 9.252C6.77858 9.74825 5.57089 10.0248 4.29861 10.0248C2.83826 10.0248 1.46301 9.66045 0.258789 9.01771V26.1893C0.258789 28.5849 0.578204 30.7809 1.21703 32.7773C1.85586 34.7736 2.83407 36.5104 4.15166 37.9877C5.50917 39.465 7.20606 40.6229 9.24233 41.4614C11.2786 42.2599 13.7141 42.6592 16.5489 42.6592C19.3838 42.6592 21.8393 42.2599 23.9155 41.4614C25.9916 40.6229 27.6885 39.465 29.0061 37.9877C30.3636 36.5104 31.3618 34.7736 32.0006 32.7773C32.6794 30.7809 33.0188 28.5849 33.0188 26.1893V0.256836H25.4127V25.4706C25.4127 27.3472 25.1931 28.9643 24.7539 30.3218C24.3546 31.6394 23.7557 32.7174 22.9572 33.5558C22.1986 34.3943 21.2803 35.0132 20.2023 35.4124C19.1242 35.8117 17.9264 36.0113 16.6088 36.0113C15.2913 36.0113 14.0934 35.8117 13.0154 35.4124C11.9773 35.0132 11.059 34.3943 10.2605 33.5558C9.50186 32.7174 8.90295 31.6394 8.46376 30.3218C8.06449 28.9643 7.86486 27.3472 7.86486 25.4706V9.252Z" fill="white"/>
<circle cx="4.29784" cy="4.29589" r="4.29589" fill="#FF971D"/>
</svg>
