<svg width="226" height="226" viewBox="0 0 226 226" fill="none" xmlns="http://www.w3.org/2000/svg">
<path d="M113 37.6667C92.1973 37.6667 75.3333 54.5306 75.3333 75.3334C75.3333 96.1361 92.1973 113 113 113C133.803 113 150.667 96.1361 150.667 75.3334C150.667 54.5306 133.803 37.6667 113 37.6667ZM56.5 75.3334C56.5 44.1293 81.7959 18.8334 113 18.8334C144.204 18.8334 169.5 44.1293 169.5 75.3334C169.5 106.537 144.204 131.833 113 131.833C81.7959 131.833 56.5 106.537 56.5 75.3334ZM75.3333 169.5C59.7313 169.5 47.0833 182.148 47.0833 197.75C47.0833 202.951 42.8673 207.167 37.6667 207.167C32.466 207.167 28.25 202.951 28.25 197.75C28.25 171.747 49.3299 150.667 75.3333 150.667H150.667C176.67 150.667 197.75 171.747 197.75 197.75C197.75 202.951 193.534 207.167 188.333 207.167C183.133 207.167 178.917 202.951 178.917 197.75C178.917 182.148 166.269 169.5 150.667 169.5H75.3333Z" fill="white"/>
</svg>
