<svg width="179" height="43" viewBox="0 0 179 43" fill="none" xmlns="http://www.w3.org/2000/svg">
<path d="M80.0498 11.4554C81.4472 11.0561 83.2639 10.6768 85.4998 10.3175C87.7357 9.95816 90.2112 9.77848 92.9262 9.77848C95.4815 9.77848 97.6176 10.1378 99.3345 10.8565C101.051 11.5353 102.409 12.5135 103.407 13.7911C104.445 15.0289 105.164 16.5461 105.563 18.3428C106.002 20.0996 106.222 22.036 106.222 24.1522V41.7599H98.9751V25.2901C98.9751 23.6131 98.8554 22.1957 98.6158 21.0379C98.4162 19.8401 98.0568 18.8818 97.5378 18.1631C97.0587 17.4045 96.3799 16.8655 95.5015 16.5461C94.663 16.1867 93.6249 16.0071 92.3872 16.0071C91.4689 16.0071 90.5106 16.067 89.5125 16.1867C88.5143 16.3065 87.7757 16.4063 87.2965 16.4862V41.7599H80.0498V11.4554Z" fill="#04041B"/>
<path d="M113.346 26.2483C113.346 23.4934 113.746 21.0778 114.544 19.0016C115.383 16.9254 116.481 15.2085 117.838 13.851C119.196 12.4536 120.753 11.4155 122.51 10.7367C124.266 10.018 126.063 9.6587 127.9 9.6587C132.212 9.6587 135.566 10.9963 137.961 13.6714C140.397 16.3465 141.615 20.3391 141.615 25.6494C141.615 26.0487 141.595 26.5078 141.555 27.0269C141.555 27.506 141.535 27.9452 141.495 28.3445H120.833C121.032 30.8599 121.911 32.8163 123.468 34.2137C125.065 35.5712 127.361 36.25 130.355 36.25C132.112 36.25 133.709 36.0903 135.147 35.7709C136.624 35.4515 137.782 35.1121 138.62 34.7527L139.578 40.6819C139.179 40.8815 138.62 41.1011 137.901 41.3407C137.223 41.5403 136.424 41.72 135.506 41.8797C134.627 42.0793 133.669 42.239 132.631 42.3588C131.593 42.4786 130.535 42.5385 129.457 42.5385C126.702 42.5385 124.306 42.1392 122.27 41.3407C120.234 40.5022 118.557 39.3643 117.239 37.9269C115.922 36.4496 114.944 34.7328 114.305 32.7764C113.666 30.78 113.346 28.604 113.346 26.2483ZM134.368 23.0142C134.368 22.0161 134.228 21.0778 133.949 20.1994C133.669 19.2811 133.25 18.5025 132.691 17.8637C132.172 17.1849 131.513 16.6659 130.715 16.3065C129.956 15.9073 129.038 15.7076 127.96 15.7076C126.842 15.7076 125.864 15.9272 125.025 16.3664C124.187 16.7657 123.468 17.3047 122.869 17.9835C122.31 18.6622 121.871 19.4408 121.551 20.3192C121.232 21.1976 121.012 22.0959 120.893 23.0142H134.368Z" fill="#04041B"/>
<path d="M148.939 2.17242L156.185 0.974609V10.4373H167.325V16.4862H156.185V29.2428C156.185 31.7582 156.585 33.5549 157.383 34.633C158.182 35.711 159.539 36.25 161.456 36.25C162.773 36.25 163.931 36.1103 164.929 35.8308C165.967 35.5513 166.786 35.2918 167.385 35.0522L168.583 40.8017C167.744 41.161 166.646 41.5203 165.289 41.8797C163.931 42.279 162.334 42.4786 160.497 42.4786C158.262 42.4786 156.385 42.1791 154.868 41.5802C153.39 40.9813 152.213 40.1229 151.334 39.0049C150.456 37.8471 149.837 36.4696 149.478 34.8725C149.118 33.2355 148.939 31.3789 148.939 29.3027V2.17242Z" fill="#04041B"/>
<path fill-rule="evenodd" clip-rule="evenodd" d="M7.8629 9.252C6.77663 9.74825 5.56894 10.0248 4.29665 10.0248C2.83631 10.0248 1.46105 9.66045 0.256836 9.01771V26.1893C0.256836 28.5849 0.576251 30.7809 1.21508 32.7773C1.85391 34.7736 2.83212 36.5104 4.1497 37.9877C5.50722 39.465 7.20411 40.6229 9.24038 41.4614C11.2766 42.2599 13.7122 42.6592 16.547 42.6592C19.3818 42.6592 21.8373 42.2599 23.9135 41.4614C25.9897 40.6229 27.6866 39.465 29.0042 37.9877C30.3617 36.5104 31.3599 34.7736 31.9987 32.7773C32.6774 30.7809 33.0168 28.5849 33.0168 26.1893V0.256836H25.4108V25.4706C25.4108 27.3472 25.1912 28.9643 24.752 30.3218C24.3527 31.6394 23.7538 32.7174 22.9553 33.5558C22.1966 34.3943 21.2783 35.0132 20.2003 35.4124C19.1223 35.8117 17.9245 36.0113 16.6069 36.0113C15.2893 36.0113 14.0915 35.8117 13.0135 35.4124C11.9754 35.0132 11.0571 34.3943 10.2585 33.5558C9.4999 32.7174 8.901 31.6394 8.4618 30.3218C8.06254 28.9643 7.8629 27.3472 7.8629 25.4706V9.252ZM62.9096 33.9751C64.6663 36.8099 66.1237 39.4051 67.2816 41.7608H76.1453C74.5482 38.7264 72.5719 35.3725 70.2162 31.6992C67.9004 28.026 65.2253 24.1331 62.1909 20.0206L75.3069 0.256836H66.6827L57.6392 14.4508L48.476 0.256836H39.4925L52.7881 20.0805C50.0332 23.9934 47.4778 27.7465 45.1221 31.3399C42.7665 34.8934 40.6903 38.367 38.8936 41.7608H47.4579C47.937 40.8026 48.5758 39.6247 49.3744 38.2273C50.1729 36.8298 51.0313 35.3925 51.9496 33.9152C52.9079 32.398 53.8462 30.9207 54.7645 29.4833C55.7227 28.0459 56.6011 26.8082 57.3997 25.7701C59.3161 28.4053 61.1528 31.1403 62.9096 33.9751Z" fill="#F7F8FA"/>
<circle cx="4.29589" cy="4.29589" r="4.29589" fill="#FF971D"/>
<circle cx="174.631" cy="37.3924" r="4.367" fill="#FF971D"/>
</svg>
